<?xml version="1.0" encoding="UTF-8" standalone="no"?>
<!-- Created with Inkscape (http://www.inkscape.org/) -->
<svg
   xmlns:dc="http://purl.org/dc/elements/1.1/"
   xmlns:cc="http://creativecommons.org/ns#"
   xmlns:rdf="http://www.w3.org/1999/02/22-rdf-syntax-ns#"
   xmlns:svg="http://www.w3.org/2000/svg"
   xmlns="http://www.w3.org/2000/svg"
   xmlns:sodipodi="http://sodipodi.sourceforge.net/DTD/sodipodi-0.dtd"
   xmlns:inkscape="http://www.inkscape.org/namespaces/inkscape"
   width="744.09448819"
   height="1052.3622047"
   id="svg3201"
   sodipodi:version="0.32"
   inkscape:version="0.46"
   sodipodi:docname="comic.svg"
   inkscape:output_extension="org.inkscape.output.svg.inkscape">
  <defs
     id="defs3203">
    <inkscape:perspective
       sodipodi:type="inkscape:persp3d"
       inkscape:vp_x="0 : 526.18109 : 1"
       inkscape:vp_y="0 : 1000 : 0"
       inkscape:vp_z="744.09448 : 526.18109 : 1"
       inkscape:persp3d-origin="372.04724 : 350.78739 : 1"
       id="perspective3209" />
  </defs>
  <sodipodi:namedview
     id="base"
     pagecolor="#ffffff"
     bordercolor="#666666"
     borderopacity="1.0"
     gridtolerance="10000"
     guidetolerance="10"
     objecttolerance="10"
     inkscape:pageopacity="0.0"
     inkscape:pageshadow="2"
     inkscape:zoom="0.8552521"
     inkscape:cx="392.17449"
     inkscape:cy="837.89175"
     inkscape:document-units="px"
     inkscape:current-layer="layer1"
     showgrid="false"
     inkscape:window-width="1440"
     inkscape:window-height="851"
     inkscape:window-x="-4"
     inkscape:window-y="-4"
     showguides="true"
     inkscape:guide-bbox="true" />
  <metadata
     id="metadata3206">
    <rdf:RDF>
      <cc:Work
         rdf:about="">
        <dc:format>image/svg+xml</dc:format>
        <dc:type
           rdf:resource="http://purl.org/dc/dcmitype/StillImage" />
      </cc:Work>
    </rdf:RDF>
  </metadata>
  <g
     inkscape:label="Layer 1"
     inkscape:groupmode="layer"
     id="layer1">
    <g
       id="g7565"
       inkscape:export-filename="C:\Documents and Settings\Justin\My Documents\My Pictures\_doodles\crushling where are your pants you had them two seconds ago.png"
       inkscape:export-xdpi="106.5527"
       inkscape:export-ydpi="106.5527">
      <path
         style="fill:#cddce9;fill-opacity:1;fill-rule:evenodd;stroke:none;stroke-width:3;stroke-linecap:round;stroke-linejoin:round;stroke-miterlimit:4;stroke-dashoffset:0;stroke-opacity:1"
         d="M 16.114807,32.670014 L 522.89072,32.670014 L 522.89072,305.37422 L 16.114807,305.37422 L 16.114807,32.670014 z"
         id="path7563"
         sodipodi:nodetypes="ccccc" />
      <path
         sodipodi:nodetypes="ccccc"
         id="rect7557"
         d="M 16.114807,137.50273 C 185.04011,137.50273 353.96542,204.54916 522.89072,204.54916 L 522.89072,305.37422 L 16.114807,305.37422 L 16.114807,137.50273 z"
         style="fill:#719d47;fill-opacity:1;fill-rule:evenodd;stroke:none;stroke-width:3;stroke-linecap:round;stroke-linejoin:round;stroke-miterlimit:4;stroke-dashoffset:0;stroke-opacity:1" />
      <path
         id="rect7554"
         d="M 173.06627,204.1875 C 119.96468,204.32257 66.353099,210.61048 16.126231,220.21875 C 16.126231,226.37671 16.126231,232.56079 16.126231,238.71875 C 16.126231,244.87672 16.126231,251.02953 16.126231,257.1875 C 110.67092,239.10135 215.21555,239.10134 309.76024,257.1875 C 391.35609,272.79657 461.0176,265.05526 522.90625,296.71875 L 522.90625,267 C 468.42939,214.63076 368.02548,235.64207 309.76024,220.21875 C 266.37206,208.73352 219.92061,204.06832 173.06627,204.1875 z"
         style="fill:#aca793;fill-opacity:1;fill-rule:evenodd;stroke:none;stroke-width:3;stroke-linecap:round;stroke-linejoin:round;stroke-miterlimit:4;stroke-dashoffset:0;stroke-opacity:1" />
      <path
         sodipodi:nodetypes="ccccccc"
         id="path7544"
         d="M 383.65625,173.4375 L 381.9375,175.71875 L 385.34375,210.09375 L 397.28125,215.46875 L 399,213.21875 L 399,173.4375 L 383.65625,173.4375 z"
         style="fill:#665036;fill-opacity:1;fill-rule:evenodd;stroke:none;stroke-width:3;stroke-linecap:round;stroke-linejoin:round;stroke-miterlimit:4;stroke-dashoffset:0;stroke-opacity:1" />
      <path
         sodipodi:nodetypes="ccccc"
         id="rect7541"
         d="M 381.95126,175.72015 L 397.28611,175.72015 L 397.28611,215.47716 L 385.35901,210.08157 L 381.95126,175.72015 z"
         style="fill:#a38056;fill-opacity:1;fill-rule:evenodd;stroke:none;stroke-width:3;stroke-linecap:round;stroke-linejoin:round;stroke-miterlimit:4;stroke-dashoffset:0;stroke-opacity:1" />
      <path
         sodipodi:nodetypes="ccccccc"
         id="path7536"
         d="M 342.9375,105.875 L 336.21875,108.40625 L 340.78125,177.71875 L 440.75,178.84375 L 443.21875,173.4375 L 445.96875,113.5 L 342.9375,105.875 z"
         style="fill:#6c3939;fill-opacity:1;fill-rule:evenodd;stroke:none;stroke-width:3;stroke-linecap:round;stroke-linejoin:round;stroke-miterlimit:4;stroke-dashoffset:0;stroke-opacity:1" />
      <path
         sodipodi:nodetypes="cccc"
         id="path7521"
         d="M 124.59455,181.49925 C 132.24181,189.70469 131.33011,194.12372 130.17982,199.69291 C 120.35157,179.30023 96.479882,192.85633 96.479882,173.43814 L 124.59455,181.49925 z"
         style="fill:#bda382;fill-opacity:1;fill-rule:evenodd;stroke:none;stroke-width:3;stroke-linecap:round;stroke-linejoin:round;stroke-miterlimit:4;stroke-dashoffset:0;stroke-opacity:1" />
      <path
         sodipodi:nodetypes="cccc"
         id="path7515"
         d="M 239.04872,165.66201 C 246.69598,172.31428 245.78428,175.89686 244.63399,180.41188 C 234.80574,163.87922 211.8496,179.7952 210.93405,159.12674 L 239.04872,165.66201 z"
         style="fill:#fad5a7;fill-opacity:1;fill-rule:evenodd;stroke:none;stroke-width:3;stroke-linecap:round;stroke-linejoin:round;stroke-miterlimit:4;stroke-dashoffset:0;stroke-opacity:1" />
      <path
         sodipodi:nodetypes="cssccc"
         id="path4018"
         d="M 233.33846,135.08046 C 235.90332,136.49187 238.60942,137.60748 241.32692,138.31451 C 252.14342,141.12871 259.11037,136.42113 256.8433,127.77351 C 256.39097,126.04813 255.57643,124.29877 254.52393,122.57799 C 253.5679,128.13441 247.41158,130.74991 238.7532,128.49719 C 236.00868,127.7618 230.87779,133.65979 233.33846,135.08046 z"
         style="fill:#fad6a7;fill-opacity:1;fill-rule:evenodd;stroke:none;stroke-width:3;stroke-linecap:round;stroke-linejoin:round;stroke-miterlimit:4;stroke-dasharray:none;stroke-dashoffset:0;stroke-opacity:1" />
      <path
         d="M 120.66058,154.57346 A 6.9345164,6.9345164 0 1 1 106.79155,154.57346 A 6.9345164,6.9345164 0 1 1 120.66058,154.57346 z"
         sodipodi:ry="6.9345164"
         sodipodi:rx="6.9345164"
         sodipodi:cy="154.57346"
         sodipodi:cx="113.72607"
         id="path4020"
         style="fill:#fad6a7;fill-opacity:1;fill-rule:evenodd;stroke:none;stroke-width:3;stroke-linecap:round;stroke-linejoin:round;stroke-miterlimit:4;stroke-dasharray:none;stroke-dashoffset:0;stroke-opacity:1"
         sodipodi:type="arc"
         transform="matrix(0.7071068,-0.7071068,0.7071068,0.7071068,67.368529,94.768221)" />
      <path
         style="fill:#e0bc8d;fill-opacity:1;fill-rule:evenodd;stroke:none;stroke-width:3;stroke-linecap:round;stroke-linejoin:round;stroke-miterlimit:4;stroke-dashoffset:0;stroke-opacity:1"
         d="M 204.32361,124.05993 L 243.0115,124.4737 L 248.76699,142.79739 L 239.0115,165.85194 L 208.32361,165.85194 L 200.32361,131.09409 L 204.32361,124.05993 z"
         id="path3998"
         sodipodi:nodetypes="ccccccc" />
      <path
         sodipodi:nodetypes="cccccccsccczccccccc"
         id="path4087"
         d="M 220.14044,139.76435 C 222.23504,138.20538 223.40957,135.20057 225.50418,133.6416 C 226.36859,136.86764 232.09746,138.94764 232.82328,142.79739 L 242.11524,142.79739 C 243.13875,140.61216 245.18576,138.65475 245.18576,136.2417 L 243.0115,124.4737 L 246.1562,134.48546 C 246.1562,134.48546 253.96752,142.78061 252.76699,146.79739 C 252.04664,149.20756 245.39711,150.79662 245.39711,150.79662 C 244.24062,150.12892 242.32314,146.75268 242.32314,145.41728 L 233.10049,145.41728 C 232.78415,148.12309 229.3476,151.85663 224.67319,150.6028 C 219.99878,149.34897 218.46749,144.66107 218.46749,144.66107 L 203.13333,143.30157 L 202.65363,141.15335 L 218.67034,141.98634 L 201.43891,128.30584 L 202.73561,126.25632 L 220.14044,139.76435 z"
         style="fill:#501616;fill-opacity:1;fill-rule:evenodd;stroke:none;stroke-width:3;stroke-linecap:round;stroke-linejoin:round;stroke-miterlimit:4;stroke-dashoffset:0;stroke-opacity:1" />
      <g
         transform="matrix(0.9938426,-0.1108007,0.1108007,0.9938426,-13.603112,23.367841)"
         inkscape:transform-center-y="-20.099163"
         inkscape:transform-center-x="17.518167"
         id="g4147">
        <g
           id="g3249"
           transform="matrix(-3.1605722e-2,-5.4742717e-2,-5.4742717e-2,3.1605722e-2,204.71213,123.13291)">
          <g
             transform="translate(69.056471,97.325074)"
             id="g3190">
            <path
               style="fill:#e4c484;fill-opacity:1;fill-rule:evenodd;stroke:none;stroke-width:3;stroke-linecap:round;stroke-linejoin:round;stroke-miterlimit:4;stroke-dashoffset:0;stroke-opacity:1"
               d="M 115.94991,90.112258 C 121.15217,78.270753 138.21328,75.323392 154.93306,72.12003 L 158.93134,50.846859 C 151.54679,50.833805 141.40755,50.245943 127.38995,37.077721 C 123.27145,33.208773 112.06234,43.730152 111.80903,37.176915 C 111.90937,31.439584 109.79679,25.091792 130.59647,25.064623 C 153.34488,56.233807 166.10255,29.593901 175.27373,20.372275 C 178.13684,14.231465 191.57202,16.851871 198.57057,12.980472 L 198.33081,17.3496 C 234.39399,5.9112304 301.78807,13.156225 331.46382,14.144291 C 339.62076,14.41588 347.70811,14.720911 355.83025,19.044807 L 353.95943,96.228342 C 328.02246,106.852 343.53382,138.66885 335.11721,141.57627 L 312.46074,148.79821 L 142.64431,172.99658 L 115.94991,90.112258 z"
               id="rect2393"
               sodipodi:nodetypes="cccscccccscccccc" />
            <path
               style="fill:#6e6151;fill-opacity:1;fill-rule:evenodd;stroke:none;stroke-width:3;stroke-linecap:round;stroke-linejoin:round;stroke-miterlimit:4;stroke-dashoffset:0;stroke-opacity:1"
               d="M 91.788781,99.45138 C 104.89928,91.362308 130.46819,85.288038 153.447,84.114861 L 153.447,172.07686 L 102.95553,186.07082 L 91.788781,99.45138 z"
               id="rect2387"
               sodipodi:nodetypes="ccccc" />
            <path
               style="fill:#000000;fill-opacity:1;fill-rule:evenodd;stroke:none;stroke-width:3;stroke-linecap:round;stroke-linejoin:round;stroke-miterlimit:4;stroke-dashoffset:0;stroke-opacity:1"
               d="M 149.1351,161.9908 L 316.64706,137.95955 L 318.19288,152.39637 C 234.81736,160.89482 293.38172,179.49334 268.58456,218.53492 C 257.78631,235.53609 175.8967,274.97627 153.062,184.72885 L 149.1351,161.9908 z M 192.2428,228.83832 C 174.79589,218.45117 166.2036,204.52218 175.34232,183.50079 C 154.4609,230.7059 206.01785,242.50012 229.02939,231.94549 C 280.53115,209.73845 259.17392,169.95372 234.08378,166.87477 C 220.81274,162.66608 156.47016,188.71988 193.43259,222.36397 L 192.2428,228.83832 z"
               id="rect2390"
               sodipodi:nodetypes="cccscccccccc" />
            <path
               style="fill:#84473e;fill-opacity:1;fill-rule:evenodd;stroke:none;stroke-width:3;stroke-linecap:round;stroke-linejoin:round;stroke-miterlimit:4;stroke-dashoffset:0;stroke-opacity:1"
               d="M 90.904446,100.26011 L 130.04346,98.50068 C 126.93852,107.91672 135.60062,125.3293 153.44657,126.74879 L 153.447,185.22341 C 113.49818,168.57058 54.748678,209.33359 122.98345,337.27757 C 86.30647,347.18514 24.722617,357.19383 -0.99957234,347.75833 C 16.302378,268.9216 8.3183663,164.1776 90.904446,100.26011 z"
               id="rect2384"
               sodipodi:nodetypes="ccccccc" />
            <path
               sodipodi:nodetypes="ccsc"
               id="path2399"
               d="M 206.37714,35.996066 C 202.66237,64.844484 206.86485,93.692902 208.59626,122.54132 C 166.02381,120.60576 162.02895,91.297279 161.99496,74.275697 C 161.96494,59.236183 172.4683,36.688308 206.37714,35.996066 z"
               style="fill:#c6ad82;fill-opacity:1;fill-rule:evenodd;stroke:none;stroke-width:3;stroke-linecap:round;stroke-linejoin:round;stroke-miterlimit:4;stroke-dashoffset:0;stroke-opacity:1" />
            <path
               style="fill:#b28643;fill-opacity:1;fill-rule:evenodd;stroke:none;stroke-width:3;stroke-linecap:round;stroke-linejoin:round;stroke-miterlimit:4;stroke-dashoffset:0;stroke-opacity:1"
               d="M 206.37714,35.996066 C 202.66237,64.844484 206.86485,93.692902 208.59626,122.54132 L 196.72742,121.19844 C 195.70098,110.82519 194.67453,100.45194 193.64809,90.078691 C 187.08502,85.803346 170.91485,92.180858 170.8714,68.173147 C 170.84418,53.133627 172.4683,36.688308 206.37714,35.996066 z"
               id="rect2396"
               sodipodi:nodetypes="ccccsc" />
            <path
               style="fill:#000000;fill-opacity:1;fill-rule:evenodd;stroke:none;stroke-width:3;stroke-linecap:round;stroke-linejoin:round;stroke-miterlimit:4;stroke-dashoffset:0;stroke-opacity:1"
               d="M 214.90216,21.571856 L 315.78483,21.571856 C 309.32447,53.724277 309.32447,89.279342 315.78483,121.43176 L 214.90216,123.65087 C 208.29825,90.783953 208.29825,54.438775 214.90216,21.571856 z"
               id="rect2401"
               sodipodi:nodetypes="ccccc" />
            <path
               style="fill:#333333;fill-opacity:1;fill-rule:evenodd;stroke:none;stroke-width:3;stroke-linecap:round;stroke-linejoin:round;stroke-miterlimit:4;stroke-dashoffset:0;stroke-opacity:1"
               d="M 259.90625,26.5625 C 253.93463,26.5625 249.09374,28.29384 249.09375,30.4375 C 249.09375,32.58116 253.93462,34.34375 259.90625,34.34375 L 313.59375,34.34375 C 313.97123,31.739256 314.38542,29.132171 314.84375,26.5625 L 259.90625,26.5625 z M 255.90625,57.625 C 249.93463,57.625 245.09374,62.465874 245.09375,68.4375 C 245.09375,74.409123 249.93462,79.281251 255.90625,79.28125 L 311.0625,79.28125 C 310.8511,72.064804 310.9354,64.822821 311.3125,57.625 L 255.90625,57.625 z M 260.46875,109.21875 C 254.49713,109.21875 249.65624,110.98134 249.65625,113.125 C 249.65625,115.26866 254.49712,117 260.46875,117 L 314.96875,117 C 314.50346,114.42765 314.04035,111.82657 313.65625,109.21875 L 260.46875,109.21875 z"
               id="path2404" />
            <path
               style="fill:#000000;fill-opacity:1;fill-rule:evenodd;stroke:none;stroke-width:3;stroke-linecap:round;stroke-linejoin:round;stroke-miterlimit:4;stroke-dashoffset:0;stroke-opacity:1"
               d="M 351.48895,20.479115 L 713.17735,20.479115 L 713.17734,0.86477651 C 724.75448,-7.3500085 745.06664,7.8146539 742.99115,20.479115 L 765.74378,20.479115 L 765.74378,62.846087 L 596.27589,62.846087 C 600.46028,62.846087 600.3177,74.316264 596.27589,75.399264 L 564.10838,75.399264 L 564.10838,84.029573 C 564.10838,88.73702 549.98604,88.73702 549.98604,84.029573 L 549.98604,75.399264 L 377.37987,75.399264 C 381.8515,75.399264 381.8515,84.814146 377.37987,84.814146 L 351.48895,84.814146 L 351.48895,20.479115 z"
               id="rect2417"
               sodipodi:nodetypes="cccccccccccccccc" />
          </g>
          <path
             transform="translate(-50.740368,-197.32365)"
             d="M 300.21385,425.85959 A 10.57091,10.57091 0 1 1 279.07203,425.85959 A 10.57091,10.57091 0 1 1 300.21385,425.85959 z"
             sodipodi:ry="10.57091"
             sodipodi:rx="10.57091"
             sodipodi:cy="425.85959"
             sodipodi:cx="289.64294"
             id="path3241"
             style="opacity:1;fill:#000000;fill-opacity:1;fill-rule:evenodd;stroke:none;stroke-width:3;stroke-linecap:round;stroke-linejoin:round;stroke-miterlimit:4;stroke-dasharray:none;stroke-dashoffset:0;stroke-opacity:1"
             sodipodi:type="arc" />
          <path
             sodipodi:type="arc"
             style="opacity:1;fill:#000000;fill-opacity:1;fill-rule:evenodd;stroke:none;stroke-width:3;stroke-linecap:round;stroke-linejoin:round;stroke-miterlimit:4;stroke-dasharray:none;stroke-dashoffset:0;stroke-opacity:1"
             id="path3243"
             sodipodi:cx="289.64294"
             sodipodi:cy="425.85959"
             sodipodi:rx="10.57091"
             sodipodi:ry="10.57091"
             d="M 300.21385,425.85959 A 10.57091,10.57091 0 1 1 279.07203,425.85959 A 10.57091,10.57091 0 1 1 300.21385,425.85959 z"
             transform="matrix(0.6666667,0,0,0.6666667,86.68146,-44.799554)" />
          <path
             transform="matrix(0.6666667,0,0,0.6666667,105.00437,-51.846827)"
             d="M 300.21385,425.85959 A 10.57091,10.57091 0 1 1 279.07203,425.85959 A 10.57091,10.57091 0 1 1 300.21385,425.85959 z"
             sodipodi:ry="10.57091"
             sodipodi:rx="10.57091"
             sodipodi:cy="425.85959"
             sodipodi:cx="289.64294"
             id="path3245"
             style="opacity:1;fill:#000000;fill-opacity:1;fill-rule:evenodd;stroke:none;stroke-width:3;stroke-linecap:round;stroke-linejoin:round;stroke-miterlimit:4;stroke-dasharray:none;stroke-dashoffset:0;stroke-opacity:1"
             sodipodi:type="arc" />
          <path
             transform="translate(-162.08729,-97.252371)"
             d="M 298.8044,455.45813 A 13.389819,13.389819 0 1 1 272.02476,455.45813 A 13.389819,13.389819 0 1 1 298.8044,455.45813 z"
             sodipodi:ry="13.389819"
             sodipodi:rx="13.389819"
             sodipodi:cy="455.45813"
             sodipodi:cx="285.41458"
             id="path3247"
             style="opacity:1;fill:#6e6151;fill-opacity:1;fill-rule:evenodd;stroke:none;stroke-width:3;stroke-linecap:round;stroke-linejoin:round;stroke-miterlimit:4;stroke-dasharray:none;stroke-dashoffset:0;stroke-opacity:1"
             sodipodi:type="arc" />
        </g>
        <path
           sodipodi:nodetypes="cssccc"
           id="path4008"
           d="M 206.9006,137.7137 C 204.33574,139.12511 201.62964,140.24072 198.91214,140.94775 C 188.09564,143.76195 181.12869,139.05437 183.39576,130.40675 C 183.84809,128.68137 184.66263,126.93201 185.71513,125.21123 C 186.67116,130.76765 192.82748,133.38315 201.48586,131.13043 C 204.23038,130.39504 209.36127,136.29303 206.9006,137.7137 z"
           style="fill:#fad6a7;fill-opacity:1;fill-rule:evenodd;stroke:none;stroke-width:3;stroke-linecap:round;stroke-linejoin:round;stroke-miterlimit:4;stroke-dasharray:none;stroke-dashoffset:0;stroke-opacity:1" />
        <path
           d="M 120.66058,154.57346 A 6.9345164,6.9345164 0 1 1 106.79155,154.57346 A 6.9345164,6.9345164 0 1 1 120.66058,154.57346 z"
           sodipodi:ry="6.9345164"
           sodipodi:rx="6.9345164"
           sodipodi:cy="154.57346"
           sodipodi:cx="113.72607"
           id="path4010"
           style="fill:#fad6a7;fill-opacity:1;fill-rule:evenodd;stroke:none;stroke-width:3;stroke-linecap:round;stroke-linejoin:round;stroke-miterlimit:4;stroke-dasharray:none;stroke-dashoffset:0;stroke-opacity:1"
           sodipodi:type="arc"
           transform="matrix(-0.7071068,-0.7071068,-0.7071068,0.7071068,372.87053,97.401461)" />
      </g>
      <g
         transform="matrix(1.1227744,0,0,1.1227744,-10.958768,-7.552533)"
         id="g4174">
        <g
           id="g4109"
           transform="matrix(0.529892,-0.8480651,0.8480651,0.529892,-56.833008,164.83101)">
          <path
             style="fill:#8bbaff;fill-opacity:1;fill-rule:evenodd;stroke:none;stroke-width:3;stroke-linecap:round;stroke-linejoin:round;stroke-miterlimit:4;stroke-dasharray:none;stroke-dashoffset:0;stroke-opacity:1"
             d="M 118.53669,126.12221 C 118.91841,131.81373 120.57141,137.7453 123.40066,142.56447 C 129.05914,152.20283 137.31428,153.80044 141.82601,146.08259 C 142.72619,144.54271 143.38721,142.72976 143.85976,140.76876 C 139.25476,144.02173 133.05214,141.51799 128.52266,133.80268 L 118.53669,126.12221 z"
             id="path3925"
             sodipodi:nodetypes="cssccc" />
          <path
             transform="translate(31.185382,-11.234561)"
             sodipodi:type="arc"
             style="fill:#fcd8cb;fill-opacity:1;fill-rule:evenodd;stroke:none;stroke-width:3;stroke-linecap:round;stroke-linejoin:round;stroke-miterlimit:4;stroke-dasharray:none;stroke-dashoffset:0;stroke-opacity:1"
             id="path3871"
             sodipodi:cx="113.72607"
             sodipodi:cy="154.57346"
             sodipodi:rx="6.9345164"
             sodipodi:ry="6.9345164"
             d="M 120.66058,154.57346 A 6.9345164,6.9345164 0 1 1 106.79155,154.57346 A 6.9345164,6.9345164 0 1 1 120.66058,154.57346 z" />
        </g>
        <path
           style="fill:#aaccff;fill-opacity:1;fill-rule:evenodd;stroke:none;stroke-width:3;stroke-linecap:round;stroke-linejoin:round;stroke-miterlimit:4;stroke-dashoffset:0;stroke-opacity:1"
           d="M 86.998033,124.05993 L 125.68592,124.4737 C 125.68592,128.2566 129.68592,131.31119 129.68592,135.09409 C 129.68592,145.68783 121.68592,155.2582 121.68592,165.85194 L 90.998033,165.85194 L 82.998033,131.09409 L 86.998033,124.05993 z"
           id="rect3917"
           sodipodi:nodetypes="ccccccc" />
        <path
           style="fill:#fcd8cb;fill-opacity:1;fill-rule:evenodd;stroke:none;stroke-width:3;stroke-linecap:round;stroke-linejoin:round;stroke-miterlimit:4;stroke-dashoffset:0;stroke-opacity:1"
           d="M 136.39725,99.570824 C 136.39725,120.57734 130.37205,137.6261 116.34198,137.6261 C 101.8136,137.6261 76.286703,120.57734 76.286703,99.570824 C 76.286703,78.564312 85.335473,61.515549 106.34198,61.515549 C 127.34849,61.515549 136.39725,78.564312 136.39725,99.570824 z"
           id="path3333"
           sodipodi:nodetypes="czssc" />
        <path
           transform="matrix(1.3194256,0,0,1.3194256,-88.137052,-109.64642)"
           d="M 152.7134,158.52664 A 4.8410592,4.8410592 0 1 1 143.03129,158.52664 A 4.8410592,4.8410592 0 1 1 152.7134,158.52664 z"
           sodipodi:ry="4.8410592"
           sodipodi:rx="4.8410592"
           sodipodi:cy="158.52664"
           sodipodi:cx="147.87234"
           id="path4136"
           style="opacity:1;fill:#502d16;fill-opacity:1;fill-rule:evenodd;stroke:none;stroke-width:3;stroke-linecap:round;stroke-linejoin:round;stroke-miterlimit:4;stroke-dasharray:none;stroke-dashoffset:0;stroke-opacity:1"
           sodipodi:type="arc" />
        <path
           style="fill:#28170b;fill-opacity:1;fill-rule:evenodd;stroke:none;stroke-width:3;stroke-linecap:round;stroke-linejoin:round;stroke-miterlimit:4;stroke-dashoffset:0;stroke-opacity:1"
           d="M 93.518142,92.459625 C 99.871484,90.006887 107.10461,89.232703 113.83312,90.285248 C 116.45888,90.695993 117.30741,98.6238 114.68168,98.21304 C 107.95315,97.16049 100.72002,97.93469 94.366683,100.38741 C 91.887337,101.34459 91.038796,93.416782 93.518142,92.459625 z"
           id="rect3849"
           sodipodi:nodetypes="ccccc" />
        <path
           sodipodi:type="arc"
           style="opacity:1;fill:#502d16;fill-opacity:1;fill-rule:evenodd;stroke:none;stroke-width:3;stroke-linecap:round;stroke-linejoin:round;stroke-miterlimit:4;stroke-dasharray:none;stroke-dashoffset:0;stroke-opacity:1"
           id="path4134"
           sodipodi:cx="147.87234"
           sodipodi:cy="158.52664"
           sodipodi:rx="4.8410592"
           sodipodi:ry="4.8410592"
           d="M 152.7134,158.52664 A 4.8410592,4.8410592 0 1 1 143.03129,158.52664 A 4.8410592,4.8410592 0 1 1 152.7134,158.52664 z"
           transform="matrix(1.3194256,0,0,1.3194256,-61.025531,-110.54324)" />
        <path
           style="fill:#28170b;fill-opacity:1;fill-rule:evenodd;stroke:none;stroke-width:3;stroke-linecap:round;stroke-linejoin:round;stroke-miterlimit:4;stroke-dashoffset:0;stroke-opacity:1"
           d="M 137.71129,88.019146 C 134.24811,88.019145 130.81294,88.450322 127.52379,89.331646 C 124.95666,90.019505 124.95665,97.98825 127.52378,97.3004 C 131.92272,96.1217 136.6061,95.74644 141.21128,96.14415 C 141.26872,95.25961 141.30503,94.35674 141.30504,93.456644 C 141.30504,91.659435 141.25183,89.906469 141.11753,88.175394 C 139.9862,88.080315 138.84879,88.019146 137.71129,88.019146 z"
           id="path3852" />
        <path
           style="fill:#cbaa9c;fill-opacity:1;fill-rule:evenodd;stroke:none;stroke-width:3;stroke-linecap:round;stroke-linejoin:round;stroke-miterlimit:4;stroke-dashoffset:0;stroke-opacity:1"
           d="M 126.66428,109.2805 C 128.18975,104.12699 121.20021,87.821622 121.20021,87.821622 C 121.20021,87.821622 130.65931,104.83493 128.87525,110.57961 C 127.56906,114.7856 117.62644,112.04442 117.62644,112.04442 C 117.62644,112.04442 125.63002,112.7745 126.66428,109.2805 z"
           id="rect3854"
           sodipodi:nodetypes="ccscs" />
        <path
           style="fill:#8bbaff;fill-opacity:1;fill-rule:evenodd;stroke:none;stroke-width:3;stroke-linecap:round;stroke-linejoin:round;stroke-miterlimit:4;stroke-dasharray:none;stroke-dashoffset:0;stroke-opacity:1"
           d="M 83.116493,131.02946 C 80.855143,133.86933 79.457443,137.79004 79.457443,142.11348 C 79.457443,150.76035 85.048243,157.79635 91.957443,157.79635 C 93.335973,157.79635 94.654253,157.49099 95.894943,156.97506 C 90.917283,154.90512 87.301193,149.03512 87.301193,142.11348 L 83.116493,131.02946 z"
           id="path3920"
           sodipodi:nodetypes="cssccc" />
        <g
           id="g3888"
           transform="matrix(-0.55397,-0.55397,-0.55397,0.55397,259.70857,121.01281)">
          <path
             sodipodi:nodetypes="ccccccc"
             id="path3300"
             d="M 108.04047,172.01105 L 133.70117,166.19263 C 135.19938,166.3884 136.51991,166.673 138.77363,166.49101 L 148.47098,162.46288 C 149.94815,164.35671 150.54851,166.25054 151.26161,168.14437 L 107.40876,186.74308 C 109.11784,185.40148 110.62856,177.31336 108.04047,172.01105 z"
             style="fill:#7c4c35;fill-opacity:1;fill-rule:evenodd;stroke:none;stroke-width:3;stroke-linecap:round;stroke-linejoin:round;stroke-miterlimit:4;stroke-dashoffset:0;stroke-opacity:1" />
          <path
             sodipodi:nodetypes="ccccc"
             id="rect2389"
             d="M 105.655,170.96671 L 115.50155,170.29536 L 108.48961,172.16023 C 111.40501,179.87826 110.00974,183.60376 107.59447,186.78086 C 109.15346,179.9055 108.47221,174.6594 105.655,170.96671 z"
             style="fill:#737c68;fill-opacity:1;fill-rule:evenodd;stroke:none;stroke-width:3;stroke-linecap:round;stroke-linejoin:round;stroke-miterlimit:4;stroke-dashoffset:0;stroke-opacity:1" />
          <path
             sodipodi:nodetypes="ccscsccccccsss"
             id="rect2392"
             d="M 160.77916,166.93858 L 163.97401,167.14727 C 163.97401,167.14727 162.63638,167.58182 161.86806,170.28559 C 160.9284,173.59234 153.85124,172.78362 153.85124,172.78362 C 151.70775,174.90211 147.38453,177.10683 145.51927,176.60373 C 144.27056,176.26693 143.42423,175.21736 143.11782,173.70035 C 142.29139,173.10938 141.46494,173.52894 140.63851,174.32349 C 140.16215,174.532 139.57347,173.23633 140.19094,172.30942 L 151.67857,167.68453 C 155.35334,174.04668 161.56718,171.01826 160.77916,166.93858 z M 144.32167,174.35743 C 145.59142,177.53417 152.59069,172.27748 152.59069,172.27748 C 153.49348,171.66677 152.89702,169.04879 151.59433,169.67437 C 151.59433,169.67437 143.40492,172.06387 144.32167,174.35743 z"
             style="fill:#b3b3b3;fill-opacity:1;fill-rule:evenodd;stroke:none;stroke-width:3;stroke-linecap:round;stroke-linejoin:round;stroke-miterlimit:4;stroke-dashoffset:0;stroke-opacity:1" />
          <path
             id="path2397"
             d="M 160.24967,163.33128 C 158.03443,162.97241 155.94463,164.47952 155.58576,166.69475 C 155.29124,168.5127 156.25525,170.24321 157.83407,171.00469 C 156.88339,170.11033 156.38054,168.77454 156.60483,167.39002 C 156.96371,165.17478 159.05352,163.66768 161.26875,164.02655 C 161.66327,164.09046 162.03094,164.21432 162.37397,164.37892 C 161.80447,163.84541 161.07736,163.46537 160.24967,163.33128 z"
             style="fill:#b3b3b3;fill-opacity:1;fill-rule:evenodd;stroke:none;stroke-width:3;stroke-linecap:round;stroke-linejoin:round;stroke-miterlimit:4;stroke-dasharray:none;stroke-dashoffset:0;stroke-opacity:1" />
          <path
             sodipodi:nodetypes="ccsccccsc"
             id="path2408"
             d="M 154.92227,155.15553 C 154.60676,155.15553 153.93244,155.81978 154.24796,155.81978 C 154.88619,155.81978 155.40536,156.33895 155.40536,156.97718 C 155.40537,157.61542 154.88619,158.13459 154.24796,158.13459 L 154.32551,160.3754 L 157.78581,158.79929 L 156.48815,157.92575 C 156.65676,157.64878 156.75399,157.32397 156.75399,156.97718 C 156.75399,155.96836 155.9311,155.15553 154.92227,155.15553 z"
             style="fill:#b3b3b3;fill-opacity:1;fill-rule:evenodd;stroke:none;stroke-width:3;stroke-linecap:round;stroke-linejoin:round;stroke-miterlimit:4;stroke-dasharray:none;stroke-dashoffset:0;stroke-opacity:1" />
          <path
             style="fill:#737c68;fill-opacity:1;fill-rule:evenodd;stroke:none;stroke-width:3;stroke-linecap:round;stroke-linejoin:round;stroke-miterlimit:4;stroke-dashoffset:0;stroke-opacity:1"
             d="M 251.36108,163.17302 L 180.28895,163.17302 L 180.0935,164.182 C 178.54838,164.182 176.105,163.94175 175.53033,165.06377 C 174.02717,165.0133 169.62027,165.06377 169.62027,165.06377 C 168.09799,165.09012 166.28082,165.00424 165.39455,165.28197 C 164.65599,165.51341 164.32781,166.54767 163.67796,166.86066 C 162.81803,167.27483 161.45417,167.58419 160.65426,167.06346 C 156.67837,164.47517 149.61279,168.27573 149.61279,168.27573 L 146.77024,163.06451 C 146.77024,163.06451 155.26966,158.12651 159.32836,157.25711 C 162.22756,156.63609 167.25877,156.93627 171.48711,156.96791 C 175.68914,156.99936 179.09763,156.75809 179.0321,157.47617 L 251.29423,158.39805 L 251.36108,163.17302 z"
             id="path2411"
             sodipodi:nodetypes="ccccssssccssccc" />
          <path
             style="fill:#7c4c35;fill-opacity:1;fill-rule:evenodd;stroke:none;stroke-width:3;stroke-linecap:round;stroke-linejoin:round;stroke-miterlimit:4;stroke-dashoffset:0;stroke-opacity:1"
             d="M 179.35333,158.88232 L 198.00209,158.88232 L 198.00209,159.77746 L 210.98162,159.62827 L 210.78845,163.96705 L 179.46756,164.21538 L 179.35333,158.88232 z"
             id="path2387"
             sodipodi:nodetypes="ccccccc" />
          <path
             style="fill:#b3b3b3;fill-opacity:1;fill-rule:evenodd;stroke:none;stroke-width:3;stroke-linecap:round;stroke-linejoin:round;stroke-miterlimit:4;stroke-dasharray:none;stroke-dashoffset:0;stroke-opacity:1"
             d="M 184.51669,156.42995 L 184.51669,157.38358 L 192.51188,157.38358 L 192.51188,156.42995 L 184.51669,156.42995 z"
             id="path2413"
             sodipodi:nodetypes="ccccc" />
          <path
             sodipodi:nodetypes="ccccc"
             id="path2415"
             d="M 249.14329,157.85457 C 249.14329,157.26755 247.38225,157.26755 247.38225,157.85457 L 247.38225,163.83122 C 247.38225,164.41824 249.14329,164.41824 249.14329,163.83122 L 249.14329,157.85457 z"
             style="fill:#464b3f;fill-opacity:1;fill-rule:evenodd;stroke:none;stroke-width:3;stroke-linecap:round;stroke-linejoin:round;stroke-miterlimit:4;stroke-dasharray:none;stroke-dashoffset:0;stroke-opacity:1" />
          <path
             style="fill:#464b3f;fill-opacity:1;fill-rule:evenodd;stroke:none;stroke-width:3;stroke-linecap:round;stroke-linejoin:round;stroke-miterlimit:4;stroke-dasharray:none;stroke-dashoffset:0;stroke-opacity:1"
             d="M 199.58838,157.3462 C 199.58838,156.6296 197.82734,156.6296 197.82734,157.3462 L 197.82734,164.64237 C 197.82734,165.35898 199.58838,165.35898 199.58838,164.64237 L 199.58838,157.3462 z"
             id="path3187"
             sodipodi:nodetypes="ccccc" />
          <path
             sodipodi:nodetypes="ccsccc"
             id="path3192"
             d="M 170.94375,162.94267 L 166.80961,162.94267 C 166.02057,162.94267 165.38018,162.36618 165.38018,161.65586 C 165.38018,160.94554 166.02057,160.36905 166.80961,160.36905 L 170.94375,160.36905 L 170.94375,162.94267 z"
             style="fill:#b3b3b3;fill-opacity:1;fill-rule:evenodd;stroke:none;stroke-width:3;stroke-linecap:round;stroke-linejoin:round;stroke-miterlimit:4;stroke-dashoffset:0;stroke-opacity:1" />
          <path
             inkscape:transform-center-y="0.10376659"
             inkscape:transform-center-x="4.00033"
             sodipodi:nodetypes="csssc"
             id="path3189"
             d="M 166.28796,162.26817 C 166.3581,162.67766 169.53234,162.47606 169.94183,162.40592 C 170.35133,162.33578 170.62674,161.94652 170.5566,161.53703 C 170.48647,161.12753 170.0972,160.85212 169.68771,160.92225 C 169.27822,160.99239 166.21783,161.85868 166.28796,162.26817 z"
             style="fill:#464b3f;fill-opacity:1;fill-rule:evenodd;stroke:none;stroke-width:3;stroke-linecap:round;stroke-linejoin:round;stroke-miterlimit:4;stroke-dashoffset:0;stroke-opacity:1" />
          <path
             transform="matrix(0.3220611,0,0,0.3220611,104.92137,132.06686)"
             d="M 157.32953,95.752853 A 1.2187499,1.2187499 0 1 1 154.89203,95.752853 A 1.2187499,1.2187499 0 1 1 157.32953,95.752853 z"
             sodipodi:ry="1.2187499"
             sodipodi:rx="1.2187499"
             sodipodi:cy="95.752853"
             sodipodi:cx="156.11078"
             id="path3195"
             style="fill:#4d4d4d;fill-opacity:1;fill-rule:evenodd;stroke:none;stroke-width:3;stroke-linecap:round;stroke-linejoin:round;stroke-miterlimit:4;stroke-dasharray:none;stroke-dashoffset:0;stroke-opacity:1"
             sodipodi:type="arc" />
          <path
             sodipodi:type="arc"
             style="fill:#4d4d4d;fill-opacity:1;fill-rule:evenodd;stroke:none;stroke-width:3;stroke-linecap:round;stroke-linejoin:round;stroke-miterlimit:4;stroke-dasharray:none;stroke-dashoffset:0;stroke-opacity:1"
             id="path3197"
             sodipodi:cx="156.11078"
             sodipodi:cy="95.752853"
             sodipodi:rx="1.2187499"
             sodipodi:ry="1.2187499"
             d="M 157.32953,95.752853 A 1.2187499,1.2187499 0 1 1 154.89203,95.752853 A 1.2187499,1.2187499 0 1 1 157.32953,95.752853 z"
             transform="matrix(0.3220611,0,0,0.3220611,107.3478,130.42544)" />
          <path
             transform="matrix(0.3220611,0,0,0.3220611,111.84385,134.70739)"
             d="M 157.32953,95.752853 A 1.2187499,1.2187499 0 1 1 154.89203,95.752853 A 1.2187499,1.2187499 0 1 1 157.32953,95.752853 z"
             sodipodi:ry="1.2187499"
             sodipodi:rx="1.2187499"
             sodipodi:cy="95.752853"
             sodipodi:cx="156.11078"
             id="path3199"
             style="fill:#4d4d4d;fill-opacity:1;fill-rule:evenodd;stroke:none;stroke-width:3;stroke-linecap:round;stroke-linejoin:round;stroke-miterlimit:4;stroke-dasharray:none;stroke-dashoffset:0;stroke-opacity:1"
             sodipodi:type="arc" />
        </g>
        <path
           sodipodi:type="arc"
           style="fill:#fcd8cb;fill-opacity:1;fill-rule:evenodd;stroke:none;stroke-width:3;stroke-linecap:round;stroke-linejoin:round;stroke-miterlimit:4;stroke-dasharray:none;stroke-dashoffset:0;stroke-opacity:1"
           id="path3869"
           sodipodi:cx="113.72607"
           sodipodi:cy="154.57346"
           sodipodi:rx="6.9345164"
           sodipodi:ry="6.9345164"
           d="M 120.66058,154.57346 A 6.9345164,6.9345164 0 1 1 106.79155,154.57346 A 6.9345164,6.9345164 0 1 1 120.66058,154.57346 z"
           transform="translate(-20.831666,2.1240866)" />
        <path
           style="opacity:1;fill:#cbaa9c;fill-opacity:1;fill-rule:evenodd;stroke:none;stroke-width:3;stroke-linecap:round;stroke-linejoin:round;stroke-miterlimit:4;stroke-dasharray:none;stroke-dashoffset:0;stroke-opacity:1"
           d="M 83.263042,97.424621 C 80.475315,97.424621 78.228622,99.69529 78.228621,102.48301 C 78.228621,104.31266 79.215702,105.89112 80.673911,106.77426 C 80.619163,107.01079 80.578017,107.26168 80.578017,107.51744 C 80.578017,109.37592 82.099787,110.89769 83.958272,110.89769 C 85.616149,110.89769 86.964195,109.69517 87.242632,108.11677 C 86.801024,109.12372 85.794895,109.84286 84.629528,109.84286 C 83.166344,109.84286 81.958356,108.72452 81.800663,107.30167 C 81.789217,107.19839 81.776689,107.09622 81.776689,106.99002 C 81.776689,106.77586 81.827631,106.59135 81.872583,106.39068 C 81.712295,106.29467 81.560318,106.19604 81.417088,106.07903 C 81.311641,105.99656 81.22663,105.90695 81.129406,105.81532 C 81.113231,105.79992 81.097476,105.78296 81.08146,105.76738 C 80.290999,104.99812 79.786894,103.93779 79.786894,102.74672 C 79.786894,100.39264 81.700085,98.47945 84.054165,98.47945 C 86.222919,98.47945 88.028161,100.09873 88.297463,102.19533 C 88.14965,99.53889 85.955569,97.424622 83.263042,97.424621 z M 87.458393,105.28791 C 87.352295,105.42791 87.245278,105.56898 87.122765,105.69545 C 87.12752,105.70457 87.142038,105.71028 87.146738,105.71943 C 87.25764,105.58685 87.361354,105.4315 87.458393,105.28791 z"
           id="path4052" />
      </g>
      <g
         transform="matrix(0.7071068,-0.7071068,0.7071068,0.7071068,-22.522541,244.26177)"
         id="g4103">
        <path
           sodipodi:type="arc"
           style="opacity:1;fill:#c8c4b7;fill-opacity:1;fill-rule:evenodd;stroke:none;stroke-width:3;stroke-linecap:round;stroke-linejoin:round;stroke-miterlimit:4;stroke-dasharray:none;stroke-dashoffset:0;stroke-opacity:1"
           id="path4098"
           sodipodi:cx="281.9848"
           sodipodi:cy="105.47321"
           sodipodi:rx="3.2529559"
           sodipodi:ry="1.6729487"
           d="M 285.23776,105.47321 A 3.2529559,1.6729487 0 1 1 278.73185,105.47321 A 3.2529559,1.6729487 0 1 1 285.23776,105.47321 z"
           transform="translate(2.0464478,0.3717664)" />
        <path
           sodipodi:nodetypes="cccsccscc"
           id="path4096"
           d="M 277.0625,119.75 C 282.16782,114.05054 281.34325,119.94059 280.46875,107.25 C 280.46875,106.27051 282.07228,105.46875 284.03125,105.46875 C 285.99022,105.46875 287.5625,106.27051 287.5625,107.25 C 287.5625,117.70634 291,117.82731 291,119.75 C 291,121.67269 289.6875,129.60448 289.6875,134.1875 C 289.6875,135.74742 287.15109,137.03125 284.03125,137.03125 C 280.91141,137.03125 278.375,135.74742 278.375,134.1875 C 283.79757,126.15137 277.74328,129.91494 277.0625,119.75 z"
           style="opacity:1;fill:#c4d7d7;fill-opacity:1;fill-rule:evenodd;stroke:none;stroke-width:3;stroke-linecap:round;stroke-linejoin:round;stroke-miterlimit:4;stroke-dasharray:none;stroke-dashoffset:0;stroke-opacity:1" />
        <path
           style="opacity:1;fill:#accdd2;fill-opacity:1;fill-rule:evenodd;stroke:none;stroke-width:3;stroke-linecap:round;stroke-linejoin:round;stroke-miterlimit:4;stroke-dasharray:none;stroke-dashoffset:0;stroke-opacity:1"
           d="M 284.03125,131.375 C 280.91141,131.37501 280.18586,121.21875 284.03125,121.21875 C 287.87664,121.21875 291.00001,121.67269 291,119.75 C 291,117.82731 287.87664,116.25 284.03125,116.25 C 280.18586,116.25 282.07228,107.03125 284.03125,107.03125 C 285.99022,107.03125 287.59375,108.22949 287.59375,107.25 C 287.59375,106.27051 285.99022,105.46875 284.03125,105.46875 C 282.07228,105.46875 280.5,106.27051 280.5,107.25 C 280.5,117.70634 277.0625,117.82731 277.0625,119.75 C 277.0625,121.67269 278.375,129.60448 278.375,134.1875 C 278.375,135.74742 280.91141,137.03125 284.03125,137.03125 C 287.15109,137.03125 289.6875,135.74742 289.6875,134.1875 C 289.6875,132.62758 287.15109,131.37499 284.03125,131.375 z"
           id="path4089"
           sodipodi:nodetypes="ccscsscsccssc" />
        <path
           style="fill:#955959;fill-opacity:1;fill-rule:evenodd;stroke:none;stroke-width:3;stroke-linecap:round;stroke-linejoin:round;stroke-miterlimit:4;stroke-dashoffset:0;stroke-opacity:1"
           d="M 279.06239,121.27328 C 281.93117,119.61699 286.13134,119.61699 289.00012,121.27328 L 288,130.42627 C 285.44416,129.74143 282.61784,129.74143 280.062,130.42627 L 279.06239,121.27328 z"
           id="rect4100"
           sodipodi:nodetypes="ccccc" />
      </g>
      <path
         id="path4123"
         d="M 236.3125 156.71875 C 235.62392 156.71875 235.06249 157.84159 235.0625 159.21875 C 235.0625 160.5959 235.62392 161.6875 236.3125 161.6875 C 236.51097 161.6875 236.70836 161.60266 236.875 161.4375 C 236.46113 161.03134 236.1875 160.20243 236.1875 159.21875 C 236.1875 158.23507 236.46113 157.37491 236.875 156.96875 C 236.70836 156.80359 236.51097 156.71875 236.3125 156.71875 z "
         style="opacity:1;fill:#b18f6b;fill-opacity:1;fill-rule:evenodd;stroke:none;stroke-width:3;stroke-linecap:round;stroke-linejoin:round;stroke-miterlimit:4;stroke-dasharray:none;stroke-dashoffset:0;stroke-opacity:1" />
      <path
         style="fill:#fad5a7;fill-opacity:1;fill-rule:evenodd;stroke:none;stroke-width:3;stroke-linecap:round;stroke-linejoin:round;stroke-miterlimit:4;stroke-dashoffset:0;stroke-opacity:1"
         d="M 252.69872,95.10178 C 258.13561,115.39251 252.58539,130.49159 239.03338,134.12284 C 225.00004,137.88306 200.07327,130.95027 194.63639,110.65953 C 189.1995,90.368803 193.5274,71.558969 213.81813,66.122084 C 234.10886,60.685199 247.26184,74.811048 252.69872,95.10178 z"
         id="path4000"
         sodipodi:nodetypes="czssc" />
      <path
         transform="matrix(1.3969053,0,0,1.3969053,-94.156749,-39.725313)"
         d="M 248.09836,100.44062 A 4.4352779,4.4352779 0 1 1 239.22781,100.44062 A 4.4352779,4.4352779 0 1 1 248.09836,100.44062 z"
         sodipodi:ry="4.4352779"
         sodipodi:rx="4.4352779"
         sodipodi:cy="100.44062"
         sodipodi:cx="243.66309"
         id="path4113"
         style="fill:#93aca7;fill-opacity:1;fill-rule:evenodd;stroke:none;stroke-width:3;stroke-linecap:round;stroke-linejoin:round;stroke-miterlimit:4;stroke-dasharray:none;stroke-dashoffset:0;stroke-opacity:1"
         sodipodi:type="arc" />
      <path
         sodipodi:type="arc"
         style="fill:#93aca7;fill-opacity:1;fill-rule:evenodd;stroke:none;stroke-width:3;stroke-linecap:round;stroke-linejoin:round;stroke-miterlimit:4;stroke-dasharray:none;stroke-dashoffset:0;stroke-opacity:1"
         id="path4115"
         sodipodi:cx="243.66309"
         sodipodi:cy="100.44062"
         sodipodi:rx="4.4352779"
         sodipodi:ry="4.4352779"
         d="M 248.09836,100.44062 A 4.4352779,4.4352779 0 1 1 239.22781,100.44062 A 4.4352779,4.4352779 0 1 1 248.09836,100.44062 z"
         transform="matrix(1.5457447,0,0,1.5457447,-155.15313,-51.579419)" />
      <path
         sodipodi:nodetypes="ccscs"
         id="rect4117"
         d="M 243.05668,64.628011 C 256.60097,72.373802 265.6592,104.22272 258.73775,113.23934 C 258.73775,99.429088 244.77806,103.24725 240.31249,86.581516 C 237.2715,75.232402 218.23127,69.45413 208.16629,66.980171 C 207.22228,56.596115 225.8756,54.80239 243.05668,64.628011 z"
         style="fill:#bcad83;fill-opacity:1;fill-rule:evenodd;stroke:none;stroke-width:3;stroke-linecap:round;stroke-linejoin:round;stroke-miterlimit:4;stroke-dashoffset:0;stroke-opacity:1" />
      <path
         sodipodi:nodetypes="cccsscs"
         id="rect4120"
         d="M 185.82075,90.109759 C 179.77293,71.437477 198.05379,63.536496 210.91047,65.804091 C 220.52345,65.838535 228.98121,67.894616 234.43209,75.212736 C 229.82784,84.111091 200.79107,77.9476 207.77426,92.069893 C 214.41396,105.49756 203.99592,109.32422 203.24231,118.14865 C 202.12967,131.17733 199.81783,132.00528 194.07611,130.46679 C 193.58979,117.14512 190.23469,103.73753 185.82075,90.109759 z"
         style="fill:#bcad83;fill-opacity:1;fill-rule:evenodd;stroke:none;stroke-width:3;stroke-linecap:round;stroke-linejoin:round;stroke-miterlimit:4;stroke-dashoffset:0;stroke-opacity:1" />
      <path
         sodipodi:nodetypes="cccs"
         id="rect4128"
         d="M 234.73254,101.77745 C 233.74574,99.586554 233.15372,93.925019 233.15372,93.925019 C 235.12648,100.94384 237.59018,107.54629 242.51655,112.06017 C 238.45611,114.54842 236.32144,105.30515 234.73254,101.77745 z"
         style="fill:#deba8b;fill-opacity:1;fill-rule:evenodd;stroke:none;stroke-width:3;stroke-linecap:round;stroke-linejoin:round;stroke-miterlimit:4;stroke-dashoffset:0;stroke-opacity:1" />
      <path
         sodipodi:nodetypes="cscsc"
         id="rect4131"
         d="M 232.45882,116.05752 C 232.45882,116.05752 236.16238,117.31874 237.75979,117.05881 C 239.29792,116.80853 242.29506,114.52613 242.29506,114.52613 C 242.29506,114.52613 240.69533,117.62693 237.75979,118.4135 C 235.93736,118.90182 232.45882,116.05752 232.45882,116.05752 z"
         style="fill:#deba8b;fill-opacity:1;fill-rule:evenodd;stroke:none;stroke-width:3;stroke-linecap:round;stroke-linejoin:round;stroke-miterlimit:4;stroke-dashoffset:0;stroke-opacity:1" />
      <g
         transform="matrix(0.994044,-0.1089792,0.1089792,0.994044,-11.903493,24.385735)"
         id="g4170">
        <path
           id="path4166"
           d="M 203.97511,102.98022 C 201.18739,102.98022 198.94069,105.25089 198.94069,108.03861 C 198.94069,109.86826 199.92777,111.44672 201.38598,112.32986 C 201.33124,112.56639 201.29009,112.81728 201.29009,113.07304 C 201.29009,114.93152 202.81186,116.45329 204.67034,116.45329 C 206.32822,116.45329 207.67627,115.25077 207.9547,113.67237 C 207.5131,114.67932 206.50697,115.39846 205.3416,115.39846 C 203.87842,115.39846 202.67043,114.28012 202.51274,112.85727 C 202.50129,112.75399 202.48876,112.65182 202.48876,112.54562 C 202.48876,112.33146 202.5397,112.14695 202.58466,111.94628 C 202.42437,111.85027 202.27239,111.75164 202.12916,111.63463 C 202.02371,111.55216 201.9387,111.46255 201.84148,111.37092 C 201.8253,111.35552 201.80955,111.33856 201.79353,111.32298 C 201.00307,110.55372 200.49897,109.49339 200.49897,108.30232 C 200.49897,105.94824 202.41216,104.03505 204.76624,104.03505 C 206.93499,104.03505 208.74023,105.65433 209.00954,107.75093 C 208.86172,105.09449 206.66764,102.98022 203.97511,102.98022 z M 208.17047,110.84351 C 208.06437,110.98351 207.95735,111.12458 207.83484,111.25105 C 207.83959,111.26017 207.85411,111.26588 207.85881,111.27503 C 207.96971,111.14245 208.07343,110.9871 208.17047,110.84351 z"
           style="opacity:1;fill:#deba8b;fill-opacity:1;fill-rule:evenodd;stroke:none;stroke-width:3;stroke-linecap:round;stroke-linejoin:round;stroke-miterlimit:4;stroke-dasharray:none;stroke-dashoffset:0;stroke-opacity:1" />
        <path
           style="opacity:1;fill:#fad5a7;fill-opacity:1;fill-rule:evenodd;stroke:none;stroke-width:3;stroke-linecap:round;stroke-linejoin:round;stroke-miterlimit:4;stroke-dasharray:none;stroke-dashoffset:0;stroke-opacity:1"
           d="M 207.9547,113.67237 C 207.5131,114.67932 206.50697,115.39846 205.3416,115.39846 C 203.87842,115.39846 202.67043,114.28012 202.51274,112.85727 C 202.50129,112.75399 202.48876,112.65182 202.48876,112.54562 C 202.48876,112.33146 202.5397,112.14695 202.58466,111.94628 C 202.42437,111.85027 202.27239,111.75164 202.12916,111.63463 C 202.02371,111.55216 201.9387,111.46255 201.84148,111.37092 C 201.8253,111.35552 201.80955,111.33856 201.79353,111.32298 C 201.00307,110.55372 200.49897,109.49339 200.49897,108.30232 C 200.49897,105.94824 202.41216,104.03505 204.76624,104.03505 C 206.93499,104.03505 208.74023,105.65433 209.00954,107.75093 L 207.9547,113.67237 z M 208.17047,110.84351 C 208.06437,110.98351 207.95735,111.12458 207.83484,111.25105 C 207.83959,111.26017 207.85411,111.26588 207.85881,111.27503 C 207.96971,111.14245 208.07343,110.9871 208.17047,110.84351 z"
           id="path4168"
           sodipodi:nodetypes="cssscssssscccssc" />
      </g>
      <g
         transform="matrix(2.4255179,0.4166633,-0.4166633,2.4255179,-599.52908,-1793.0616)"
         id="g10216">
        <path
           sodipodi:type="arc"
           style="opacity:0.75;fill:#94d0cc;fill-opacity:1;fill-rule:evenodd;stroke:none;stroke-width:1;stroke-linecap:round;stroke-linejoin:round;stroke-miterlimit:4;stroke-dasharray:3, 3;stroke-dashoffset:0;stroke-opacity:1"
           id="path10196"
           sodipodi:cx="474.01364"
           sodipodi:cy="694.81116"
           sodipodi:rx="4.0816331"
           sodipodi:ry="4.0816331"
           d="M 478.09527,694.81116 A 4.0816331,4.0816331 0 1 1 469.93201,694.81116 A 4.0816331,4.0816331 0 1 1 478.09527,694.81116 z"
           transform="translate(-14.829933,8.2585037)" />
        <path
           style="opacity:1;fill:#bcb865;fill-opacity:1;fill-rule:evenodd;stroke:none;stroke-width:1;stroke-linecap:round;stroke-linejoin:round;stroke-miterlimit:4;stroke-dasharray:3, 3;stroke-dashoffset:0;stroke-opacity:1"
           d="M 459.16678,698.63447 C 456.72581,698.63447 454.76545,700.62868 454.76545,703.06966 C 454.76545,705.51064 456.72581,707.50488 459.16678,707.50485 C 461.60776,707.50485 463.60197,705.51064 463.60197,703.06966 C 463.60197,700.62868 461.60776,698.63444 459.16678,698.63447 z M 459.16678,699.51474 C 461.11957,699.51475 462.72171,701.11688 462.72171,703.06966 C 462.72169,705.02244 461.11957,706.59073 459.16678,706.59073 C 457.214,706.59071 455.64572,705.02244 455.64572,703.06966 C 455.64573,701.11688 457.214,699.51474 459.16678,699.51474 z"
           id="path10201" />
      </g>
      <g
         id="g10369"
         transform="matrix(9.5312826e-2,1.3527155e-2,-1.3527155e-2,9.5312826e-2,168.85048,37.867391)">
        <path
           sodipodi:nodetypes="cssscss"
           id="path10372"
           d="M 843.60412,311.67439 C 789.4108,375.0945 652.4467,316.90886 643.40097,313.52567 C 627.6917,307.65025 529.07132,271.33334 485.22007,253.21107 C 468.31459,246.2246 467.35033,236.96647 467.00003,232.33364 C 465.58832,213.66331 483.19906,215.66383 511.9525,222.05046 C 591.59854,200.70937 732.32951,153.02546 772.99086,174.94383 C 869.41659,226.92181 860.61322,291.76937 843.60412,311.67439 z"
           style="fill:#171717;fill-opacity:1;fill-rule:evenodd;stroke:none;stroke-width:2;stroke-linecap:round;stroke-linejoin:round;stroke-miterlimit:4;stroke-dashoffset:0;stroke-opacity:1" />
        <path
           sodipodi:nodetypes="ccssssccsssssc"
           id="path10381"
           d="M 783.0068,177.26205 L 783.0068,184.3558 C 793.93563,189.11007 811.50102,201.101 817.18446,206.78444 C 830.98503,220.58501 844.54798,232.8841 848.53805,257.6683 C 853.22222,286.76384 844.67401,304.56013 816.8193,315.9808 C 794.94167,324.95081 769.40398,322.37521 747.03805,314.94955 C 662.71171,286.9526 596.64742,246.75912 504.03805,220.1683 C 486.51212,215.94159 472.20839,211.57252 468.5068,225.38705 C 473.13474,224.93037 486.89761,225.38242 491.35055,226.76205 C 586.51951,256.24768 659.20407,302.90434 747.03805,328.94955 C 769.63204,335.6493 794.94167,338.95081 816.8193,329.9808 C 844.67401,318.56013 859.27575,293.6059 856.03805,264.19955 C 852.30414,230.28629 840.99677,219.44838 822.81832,202.5763 C 813.66058,194.07666 794.68366,180.89427 783.0068,177.26205 z"
           style="fill:#303030;fill-opacity:1;fill-rule:evenodd;stroke:none;stroke-width:2;stroke-linecap:round;stroke-linejoin:round;stroke-miterlimit:4;stroke-dasharray:none;stroke-dashoffset:0;stroke-opacity:1" />
        <path
           style="fill:#171717;fill-opacity:1;fill-rule:evenodd;stroke:none;stroke-width:1;stroke-linecap:round;stroke-linejoin:round;stroke-miterlimit:4;stroke-dasharray:3, 3;stroke-dashoffset:0;stroke-opacity:1"
           d="M 786.98111,39.061864 C 787.51005,57.44333 779.12054,180.15523 786.33756,247.23512 C 730.06406,294.32732 655.70105,286.34518 637.43994,286.34518 C 591.1451,286.34518 525.77231,274.46146 525.68375,245.6483 C 525.33309,131.03872 503.99843,73.840418 502.94055,41.706556 C 502.39228,25.052301 554.90008,4.874768 647.48977,4.874768 C 740.07946,4.874768 786.98111,22.398587 786.98111,39.061864 z"
           id="path10383"
           sodipodi:nodetypes="ccssssc" />
        <path
           sodipodi:nodetypes="csssc"
           id="path10385"
           d="M 770.48657,33.21058 C 770.48657,46.224182 719.8,56.785946 647.48977,56.785946 C 575.17954,56.785946 524.49297,46.224182 524.49297,33.21058 C 524.49297,20.196977 575.17954,9.635213 647.48977,9.635213 C 719.8,9.635213 770.48657,20.196977 770.48657,33.21058 z"
           style="fill:#303030;fill-opacity:1;fill-rule:evenodd;stroke:none;stroke-width:1;stroke-linecap:round;stroke-linejoin:round;stroke-miterlimit:4;stroke-dasharray:3, 3;stroke-dashoffset:0;stroke-opacity:1" />
        <path
           id="path10387"
           d="M 522.38377,181.28263 C 523.89524,200.50046 524.89508,221.86515 524.96811,245.73372 C 525.05744,274.79253 590.98132,286.79962 637.67085,286.79962 C 656.08764,286.79962 731.09336,294.83474 787.84661,247.34106 C 785.82351,228.53696 785.00629,205.3863 784.88407,181.37719 C 729.27164,219.59349 667.74514,215.29532 622.73206,216.36041 C 586.72133,217.20253 536.25285,210.24922 523.36078,181.72386 C 523.03458,181.57612 522.70575,181.43322 522.38377,181.28263 z"
           style="fill:#acacac;fill-opacity:1;fill-rule:evenodd;stroke:none;stroke-width:1;stroke-linecap:round;stroke-linejoin:round;stroke-miterlimit:4;stroke-dasharray:3, 3;stroke-dashoffset:0;stroke-opacity:1" />
        <path
           style="fill:#171717;fill-opacity:1;fill-rule:evenodd;stroke:none;stroke-width:2;stroke-linecap:round;stroke-linejoin:round;stroke-miterlimit:4;stroke-dashoffset:0;stroke-opacity:1"
           d="M 643.40097,313.52567 C 627.6917,307.65025 529.07132,271.33334 485.22007,253.21107 C 468.31459,246.2246 467.35033,236.96647 467.00003,232.33364 C 465.58832,213.66331 503.82765,226.77153 532.5811,233.15816 C 588.95385,262.59515 646.11256,278.38384 686.77391,300.30221 L 643.40097,313.52567 z"
           id="path10390"
           sodipodi:nodetypes="cssccc" />
        <path
           style="fill:#303030;fill-opacity:1;fill-rule:evenodd;stroke:none;stroke-width:2;stroke-linecap:round;stroke-linejoin:round;stroke-miterlimit:4;stroke-dasharray:none;stroke-dashoffset:0;stroke-opacity:1"
           d="M 816.8193,315.9808 C 794.94167,324.95081 769.40398,322.37521 747.03805,314.94955 C 662.71171,286.9526 596.64742,246.75912 504.03805,220.1683 C 486.51212,215.94159 472.20839,211.57252 468.5068,225.38705 C 473.13474,224.93037 486.89761,225.38242 491.35055,226.76205 C 586.51951,256.24768 659.20407,302.90434 747.03805,328.94955 C 769.63204,335.6493 794.94167,338.95081 816.8193,329.9808 L 816.8193,315.9808 z"
           id="path10392"
           sodipodi:nodetypes="csccsscc" />
      </g>
      <g
         id="g7146"
         transform="matrix(2.4255179,0.4166633,-0.4166633,2.4255179,-711.17567,-1793.0616)">
        <path
           transform="translate(-14.829933,8.2585037)"
           d="M 478.09527,694.81116 A 4.0816331,4.0816331 0 1 1 469.93201,694.81116 A 4.0816331,4.0816331 0 1 1 478.09527,694.81116 z"
           sodipodi:ry="4.0816331"
           sodipodi:rx="4.0816331"
           sodipodi:cy="694.81116"
           sodipodi:cx="474.01364"
           id="path7148"
           style="opacity:0.75;fill:#94d0cc;fill-opacity:1;fill-rule:evenodd;stroke:none;stroke-width:1;stroke-linecap:round;stroke-linejoin:round;stroke-miterlimit:4;stroke-dasharray:3, 3;stroke-dashoffset:0;stroke-opacity:1"
           sodipodi:type="arc" />
        <path
           id="path7150"
           d="M 459.16678,698.63447 C 456.72581,698.63447 454.76545,700.62868 454.76545,703.06966 C 454.76545,705.51064 456.72581,707.50488 459.16678,707.50485 C 461.60776,707.50485 463.60197,705.51064 463.60197,703.06966 C 463.60197,700.62868 461.60776,698.63444 459.16678,698.63447 z M 459.16678,699.51474 C 461.11957,699.51475 462.72171,701.11688 462.72171,703.06966 C 462.72169,705.02244 461.11957,706.59073 459.16678,706.59073 C 457.214,706.59071 455.64572,705.02244 455.64572,703.06966 C 455.64573,701.11688 457.214,699.51474 459.16678,699.51474 z"
           style="opacity:1;fill:#bcb865;fill-opacity:1;fill-rule:evenodd;stroke:none;stroke-width:1;stroke-linecap:round;stroke-linejoin:round;stroke-miterlimit:4;stroke-dasharray:3, 3;stroke-dashoffset:0;stroke-opacity:1" />
      </g>
      <g
         transform="matrix(9.5312826e-2,1.3527155e-2,-1.3527155e-2,9.5312826e-2,57.203892,37.867391)"
         id="g7152">
        <path
           style="fill:#171717;fill-opacity:1;fill-rule:evenodd;stroke:none;stroke-width:2;stroke-linecap:round;stroke-linejoin:round;stroke-miterlimit:4;stroke-dashoffset:0;stroke-opacity:1"
           d="M 843.60412,311.67439 C 789.4108,375.0945 652.4467,316.90886 643.40097,313.52567 C 627.6917,307.65025 529.07132,271.33334 485.22007,253.21107 C 468.31459,246.2246 467.35033,236.96647 467.00003,232.33364 C 465.58832,213.66331 483.19906,215.66383 511.9525,222.05046 C 591.59854,200.70937 732.32951,153.02546 772.99086,174.94383 C 869.41659,226.92181 860.61322,291.76937 843.60412,311.67439 z"
           id="path7154"
           sodipodi:nodetypes="cssscss" />
        <path
           style="fill:#303030;fill-opacity:1;fill-rule:evenodd;stroke:none;stroke-width:2;stroke-linecap:round;stroke-linejoin:round;stroke-miterlimit:4;stroke-dasharray:none;stroke-dashoffset:0;stroke-opacity:1"
           d="M 783.0068,177.26205 L 783.0068,184.3558 C 793.93563,189.11007 811.50102,201.101 817.18446,206.78444 C 830.98503,220.58501 844.54798,232.8841 848.53805,257.6683 C 853.22222,286.76384 844.67401,304.56013 816.8193,315.9808 C 794.94167,324.95081 769.40398,322.37521 747.03805,314.94955 C 662.71171,286.9526 596.64742,246.75912 504.03805,220.1683 C 486.51212,215.94159 472.20839,211.57252 468.5068,225.38705 C 473.13474,224.93037 486.89761,225.38242 491.35055,226.76205 C 586.51951,256.24768 659.20407,302.90434 747.03805,328.94955 C 769.63204,335.6493 794.94167,338.95081 816.8193,329.9808 C 844.67401,318.56013 859.27575,293.6059 856.03805,264.19955 C 852.30414,230.28629 840.99677,219.44838 822.81832,202.5763 C 813.66058,194.07666 794.68366,180.89427 783.0068,177.26205 z"
           id="path7156"
           sodipodi:nodetypes="ccssssccsssssc" />
        <path
           sodipodi:nodetypes="ccssssc"
           id="path7158"
           d="M 786.98111,39.061864 C 787.51005,57.44333 779.12054,180.15523 786.33756,247.23512 C 730.06406,294.32732 655.70105,286.34518 637.43994,286.34518 C 591.1451,286.34518 525.77231,274.46146 525.68375,245.6483 C 525.33309,131.03872 503.99843,73.840418 502.94055,41.706556 C 502.39228,25.052301 554.90008,4.874768 647.48977,4.874768 C 740.07946,4.874768 786.98111,22.398587 786.98111,39.061864 z"
           style="fill:#171717;fill-opacity:1;fill-rule:evenodd;stroke:none;stroke-width:1;stroke-linecap:round;stroke-linejoin:round;stroke-miterlimit:4;stroke-dasharray:3, 3;stroke-dashoffset:0;stroke-opacity:1" />
        <path
           style="fill:#303030;fill-opacity:1;fill-rule:evenodd;stroke:none;stroke-width:1;stroke-linecap:round;stroke-linejoin:round;stroke-miterlimit:4;stroke-dasharray:3, 3;stroke-dashoffset:0;stroke-opacity:1"
           d="M 770.48657,33.21058 C 770.48657,46.224182 719.8,56.785946 647.48977,56.785946 C 575.17954,56.785946 524.49297,46.224182 524.49297,33.21058 C 524.49297,20.196977 575.17954,9.635213 647.48977,9.635213 C 719.8,9.635213 770.48657,20.196977 770.48657,33.21058 z"
           id="path7160"
           sodipodi:nodetypes="csssc" />
        <path
           style="fill:#acacac;fill-opacity:1;fill-rule:evenodd;stroke:none;stroke-width:1;stroke-linecap:round;stroke-linejoin:round;stroke-miterlimit:4;stroke-dasharray:3, 3;stroke-dashoffset:0;stroke-opacity:1"
           d="M 522.38377,181.28263 C 523.89524,200.50046 524.89508,221.86515 524.96811,245.73372 C 525.05744,274.79253 590.98132,286.79962 637.67085,286.79962 C 656.08764,286.79962 731.09336,294.83474 787.84661,247.34106 C 785.82351,228.53696 785.00629,205.3863 784.88407,181.37719 C 729.27164,219.59349 667.74514,215.29532 622.73206,216.36041 C 586.72133,217.20253 536.25285,210.24922 523.36078,181.72386 C 523.03458,181.57612 522.70575,181.43322 522.38377,181.28263 z"
           id="path7162" />
        <path
           sodipodi:nodetypes="cssccc"
           id="path7164"
           d="M 643.40097,313.52567 C 627.6917,307.65025 529.07132,271.33334 485.22007,253.21107 C 468.31459,246.2246 467.35033,236.96647 467.00003,232.33364 C 465.58832,213.66331 503.82765,226.77153 532.5811,233.15816 C 588.95385,262.59515 646.11256,278.38384 686.77391,300.30221 L 643.40097,313.52567 z"
           style="fill:#171717;fill-opacity:1;fill-rule:evenodd;stroke:none;stroke-width:2;stroke-linecap:round;stroke-linejoin:round;stroke-miterlimit:4;stroke-dashoffset:0;stroke-opacity:1" />
        <path
           sodipodi:nodetypes="csccsscc"
           id="path7166"
           d="M 816.8193,315.9808 C 794.94167,324.95081 769.40398,322.37521 747.03805,314.94955 C 662.71171,286.9526 596.64742,246.75912 504.03805,220.1683 C 486.51212,215.94159 472.20839,211.57252 468.5068,225.38705 C 473.13474,224.93037 486.89761,225.38242 491.35055,226.76205 C 586.51951,256.24768 659.20407,302.90434 747.03805,328.94955 C 769.63204,335.6493 794.94167,338.95081 816.8193,329.9808 L 816.8193,315.9808 z"
           style="fill:#303030;fill-opacity:1;fill-rule:evenodd;stroke:none;stroke-width:2;stroke-linecap:round;stroke-linejoin:round;stroke-miterlimit:4;stroke-dasharray:none;stroke-dashoffset:0;stroke-opacity:1" />
      </g>
      <g
         transform="translate(6.4257032,-8.0321286)"
         id="g7444">
        <path
           sodipodi:type="arc"
           style="fill:#000000;fill-opacity:1;fill-rule:evenodd;stroke:none;stroke-width:3;stroke-linecap:round;stroke-linejoin:round;stroke-miterlimit:4;stroke-dasharray:none;stroke-dashoffset:0;stroke-opacity:1"
           id="path7301"
           sodipodi:cx="467.76007"
           sodipodi:cy="782.60541"
           sodipodi:rx="4.5413599"
           sodipodi:ry="4.5413599"
           d="M 472.30143,782.60541 A 4.5413599,4.5413599 0 1 1 463.21871,782.60541 A 4.5413599,4.5413599 0 1 1 472.30143,782.60541 z"
           transform="matrix(-1.2994395,0,0,1.2994395,916.98602,-851.1554)" />
        <path
           style="fill:#2a221c;fill-opacity:1;fill-rule:evenodd;stroke:none;stroke-width:3;stroke-linecap:round;stroke-linejoin:round;stroke-miterlimit:4;stroke-dashoffset:0;stroke-opacity:1"
           d="M 205.44899,189.13765 C 202.04504,188.91005 198.53741,189.65229 195.36308,191.48497 C 186.84037,196.40556 183.9393,207.31814 188.85991,215.84086 C 189.3212,216.63986 189.83859,217.36765 190.39827,218.06639 C 187.06253,208.78221 193.33672,196.46635 205.44899,189.13765 z"
           id="path7373" />
        <path
           sodipodi:nodetypes="cccccc"
           id="path7377"
           d="M 270.69265,198.06524 L 263.05109,198.06524 L 263.05109,223.82671 L 270.69265,223.82671 L 268.3656,220.06982 L 270.69265,198.06524 z"
           style="fill:#bfc3cf;fill-opacity:1;fill-rule:evenodd;stroke:none;stroke-width:3;stroke-linecap:round;stroke-linejoin:round;stroke-miterlimit:4;stroke-dashoffset:0;stroke-opacity:1" />
        <path
           style="fill:#4c3f33;fill-opacity:1;fill-rule:evenodd;stroke:none;stroke-width:3;stroke-linecap:round;stroke-linejoin:round;stroke-miterlimit:4;stroke-dashoffset:0;stroke-opacity:1"
           d="M 261.85136,219.41757 C 262.50258,221.70765 263.228,223.82671 263.228,223.82671 L 272.19619,223.82671 L 269.46515,219.41757 L 261.85136,219.41757 z"
           id="path7393"
           sodipodi:nodetypes="ccccc" />
        <path
           style="fill:#bfc3cf;fill-opacity:1;fill-rule:evenodd;stroke:none;stroke-width:3;stroke-linecap:round;stroke-linejoin:round;stroke-miterlimit:4;stroke-dashoffset:0;stroke-opacity:1"
           d="M 229.9426,197.56302 C 228.02689,195.79016 222.89676,195.5444 221.24206,197.56302 C 219.05401,200.23233 224.06796,205.43995 223.49965,208.84436 C 223.05722,211.49481 219.40311,213.92582 218.98448,216.58013 C 218.491,219.70904 221.24206,226.89457 221.24206,226.89457 L 229.9426,226.89457 L 227.29306,222.61703 C 227.29306,222.61703 225.3171,218.62431 225.64462,216.857 C 226.12215,214.28032 230.16379,212.39361 230.89785,209.87798 C 231.93582,206.32073 232.66226,200.0799 229.9426,197.56302 z"
           id="path7375"
           sodipodi:nodetypes="cssscccsss" />
        <path
           sodipodi:nodetypes="csscc"
           id="path7291"
           d="M 268.45614,161.20884 C 257.23525,168.37544 257.78417,186.71953 239.93129,179.4958 C 213.02428,168.60853 177.4974,201.54033 213.14915,208.33111 C 232.90543,212.09419 258.30123,219.84278 268.45614,209.53593 C 282.20134,195.5851 282.20134,175.15968 268.45614,161.20884 z"
           style="fill:#675545;fill-opacity:1;fill-rule:evenodd;stroke:none;stroke-width:3;stroke-linecap:round;stroke-linejoin:round;stroke-miterlimit:4;stroke-dashoffset:0;stroke-opacity:1" />
        <path
           style="fill:#675545;fill-opacity:1;fill-rule:evenodd;stroke:none;stroke-width:3;stroke-linecap:round;stroke-linejoin:round;stroke-miterlimit:4;stroke-dashoffset:0;stroke-opacity:1"
           d="M 281.91756,110.60361 C 275.30945,110.60361 267.96922,116.18224 267.96922,122.32021 C 267.87622,141.75491 276.05926,142.99519 276.05926,153.84348 C 276.05926,158.49292 281.91756,158.49292 281.91756,153.84348 C 281.91756,139.43018 288.51977,110.60361 281.91756,110.60361 z"
           id="path7293"
           sodipodi:nodetypes="ccccc" />
        <path
           sodipodi:nodetypes="csssc"
           id="path7295"
           d="M 309.5494,198.087 C 320.92173,188.54 313.01623,160.3804 303.46921,149.00809 C 293.92221,137.63579 276.9442,136.15437 265.57189,145.70137 C 254.19958,155.24839 252.71817,172.22639 262.26517,183.59871 C 271.81219,194.97102 298.17708,207.63402 309.5494,198.087 z"
           style="fill:#7a6552;fill-opacity:1;fill-rule:evenodd;stroke:none;stroke-width:3;stroke-linecap:round;stroke-linejoin:round;stroke-miterlimit:4;stroke-dashoffset:0;stroke-opacity:1" />
        <path
           sodipodi:nodetypes="ccscsc"
           id="path7297"
           d="M 313.58238,178.15625 C 314.08302,178.15207 314.5857,178.19281 315.08547,178.21637 C 315.98726,186.50793 314.6859,194.2011 309.73447,198.35776 C 304.47103,202.77641 296.02155,202.38704 287.48875,199.62035 C 285.04011,193.89198 285.88549,187.40275 290.70911,183.35336 C 295.6845,179.17655 307.55276,178.2065 313.58238,178.15625 z"
           style="fill:#d6d9e3;fill-opacity:1;fill-rule:evenodd;stroke:none;stroke-width:3;stroke-linecap:round;stroke-linejoin:round;stroke-miterlimit:4;stroke-dashoffset:0;stroke-opacity:1" />
        <path
           transform="matrix(-1.2994395,0,0,1.2994395,902.70092,-850.35853)"
           d="M 472.30143,782.60541 A 4.5413599,4.5413599 0 1 1 463.21871,782.60541 A 4.5413599,4.5413599 0 1 1 472.30143,782.60541 z"
           sodipodi:ry="4.5413599"
           sodipodi:rx="4.5413599"
           sodipodi:cy="782.60541"
           sodipodi:cx="467.76007"
           id="path7299"
           style="fill:#000000;fill-opacity:1;fill-rule:evenodd;stroke:none;stroke-width:3;stroke-linecap:round;stroke-linejoin:round;stroke-miterlimit:4;stroke-dasharray:none;stroke-dashoffset:0;stroke-opacity:1"
           sodipodi:type="arc" />
        <path
           style="fill:#7a6552;fill-opacity:1;fill-rule:evenodd;stroke:none;stroke-width:3;stroke-linecap:round;stroke-linejoin:round;stroke-miterlimit:4;stroke-dashoffset:0;stroke-opacity:1"
           d="M 272.21378,109.7667 C 265.48733,109.7667 258.01562,115.44526 258.01562,121.69316 C 257.92097,141.47595 266.25056,142.73845 266.25056,153.78102 C 266.25056,158.51373 272.21378,158.51373 272.21378,153.78102 C 272.21378,139.10958 278.93426,109.7667 272.21378,109.7667 z"
           id="path7303"
           sodipodi:nodetypes="ccccc" />
        <path
           sodipodi:nodetypes="ccccc"
           id="path7305"
           d="M 270.42825,110.60361 C 263.82015,110.60361 256.47991,116.18224 256.47991,122.32021 C 256.38692,141.75491 264.56994,142.99519 264.56994,153.84348 C 264.56994,158.49292 270.42825,158.49292 270.42825,153.84348 C 270.42825,139.43018 277.03047,110.60361 270.42825,110.60361 z"
           style="fill:#4c3f33;fill-opacity:1;fill-rule:evenodd;stroke:none;stroke-width:3;stroke-linecap:round;stroke-linejoin:round;stroke-miterlimit:4;stroke-dashoffset:0;stroke-opacity:1" />
        <path
           style="fill:#d6d9e3;fill-opacity:1;fill-rule:evenodd;stroke:none;stroke-width:3;stroke-linecap:round;stroke-linejoin:round;stroke-miterlimit:4;stroke-dashoffset:0;stroke-opacity:1"
           d="M 197.42348,196 C 196.80666,201.37755 201.00175,206.37825 212.71408,208.60916 C 232.89514,212.45314 258.84261,220.35065 269.21586,209.82219 C 269.51011,209.52353 269.79583,209.23272 270.07775,208.92837 C 238.00381,207.8612 223.54242,195.96399 197.42348,196 z"
           id="path7307" />
        <path
           style="fill:#000000;fill-opacity:1;fill-rule:evenodd;stroke:none;stroke-width:3;stroke-linecap:round;stroke-linejoin:round;stroke-miterlimit:4;stroke-dashoffset:0;stroke-opacity:1"
           d="M 313.0564,186.65593 C 312.11861,186.90721 310.47007,187.7838 307.84422,187.08021 C 305.21838,186.37663 303.29864,185.01673 303.54249,184.10667 C 304.50377,180.51916 310.03293,185.30638 313.0564,186.65593 z"
           id="path7311"
           sodipodi:nodetypes="cssc" />
        <path
           style="fill:#bfc3cf;fill-opacity:1;fill-rule:evenodd;stroke:none;stroke-width:3;stroke-linecap:round;stroke-linejoin:round;stroke-miterlimit:4;stroke-dashoffset:0;stroke-opacity:1"
           d="M 257.07075,205.70679 L 249.42921,205.70679 L 249.42921,231.46824 L 257.07075,231.46824 L 254.74371,227.71135 L 257.07075,205.70679 z"
           id="path7379"
           sodipodi:nodetypes="cccccc" />
        <path
           sodipodi:type="arc"
           style="fill:#7a6552;fill-opacity:1;fill-rule:evenodd;stroke:none;stroke-width:3;stroke-linecap:round;stroke-linejoin:round;stroke-miterlimit:4;stroke-dasharray:none;stroke-dashoffset:0;stroke-opacity:1"
           id="path7381"
           sodipodi:cx="489.63849"
           sodipodi:cy="803.40375"
           sodipodi:rx="15.547284"
           sodipodi:ry="15.547284"
           d="M 505.18577,803.40375 A 15.547284,15.547284 0 1 1 474.0912,803.40375 A 15.547284,15.547284 0 1 1 505.18577,803.40375 z"
           transform="matrix(-0.5137631,0,0,0.5137631,505.09367,-204.93)" />
        <path
           sodipodi:nodetypes="cssscccsss"
           id="path7383"
           d="M 216.72729,204.9765 C 214.81158,203.20365 209.68146,202.95786 208.02675,204.9765 C 205.83868,207.64582 210.85265,212.85344 210.28434,216.25782 C 209.84189,218.90827 206.1878,221.33928 205.76916,223.99361 C 205.27569,227.1225 208.02675,234.30803 208.02675,234.30803 L 216.72729,234.30803 L 214.07775,230.03051 C 214.07775,230.03051 212.10179,226.03777 212.4293,224.27046 C 212.90684,221.69381 216.94847,219.8071 217.68254,217.29144 C 218.72051,213.73422 219.44696,207.49338 216.72729,204.9765 z"
           style="fill:#bfc3cf;fill-opacity:1;fill-rule:evenodd;stroke:none;stroke-width:3;stroke-linecap:round;stroke-linejoin:round;stroke-miterlimit:4;stroke-dashoffset:0;stroke-opacity:1" />
        <path
           transform="matrix(-0.4984288,0,0,0.7183238,456.77031,-377.8091)"
           d="M 505.18577,803.40375 A 15.547284,15.547284 0 1 1 474.0912,803.40375 A 15.547284,15.547284 0 1 1 505.18577,803.40375 z"
           sodipodi:ry="15.547284"
           sodipodi:rx="15.547284"
           sodipodi:cy="803.40375"
           sodipodi:cx="489.63849"
           id="path7385"
           style="fill:#7a6552;fill-opacity:1;fill-rule:evenodd;stroke:none;stroke-width:3;stroke-linecap:round;stroke-linejoin:round;stroke-miterlimit:4;stroke-dasharray:none;stroke-dashoffset:0;stroke-opacity:1"
           sodipodi:type="arc" />
        <path
           style="fill:#4c3f33;fill-opacity:1;fill-rule:evenodd;stroke:none;stroke-width:3;stroke-linecap:round;stroke-linejoin:round;stroke-miterlimit:4;stroke-dashoffset:0;stroke-opacity:1"
           d="M 206.69122,230.03051 C 207.323,232.25224 208.02675,234.30803 208.02675,234.30803 L 216.72729,234.30803 L 214.07775,230.03051 L 206.69122,230.03051 z"
           id="path7387"
           sodipodi:nodetypes="ccccc" />
        <path
           sodipodi:nodetypes="ccccc"
           id="path7389"
           d="M 219.87643,222.61703 C 220.5082,224.83876 221.21196,226.89457 221.21196,226.89457 L 229.91249,226.89457 L 227.26296,222.61703 L 219.87643,222.61703 z"
           style="fill:#4c3f33;fill-opacity:1;fill-rule:evenodd;stroke:none;stroke-width:3;stroke-linecap:round;stroke-linejoin:round;stroke-miterlimit:4;stroke-dashoffset:0;stroke-opacity:1" />
        <path
           sodipodi:nodetypes="ccccc"
           id="path7391"
           d="M 248.26051,227.05912 C 248.91172,229.3492 249.63713,231.46824 249.63713,231.46824 L 258.60534,231.46824 L 255.87429,227.05912 L 248.26051,227.05912 z"
           style="fill:#4c3f33;fill-opacity:1;fill-rule:evenodd;stroke:none;stroke-width:3;stroke-linecap:round;stroke-linejoin:round;stroke-miterlimit:4;stroke-dashoffset:0;stroke-opacity:1" />
      </g>
      <g
         id="g7467"
         transform="translate(-117.26908,6.4257029)">
        <path
           transform="matrix(-1.2994395,0,0,1.2994395,916.98602,-851.1554)"
           d="M 472.30143,782.60541 A 4.5413599,4.5413599 0 1 1 463.21871,782.60541 A 4.5413599,4.5413599 0 1 1 472.30143,782.60541 z"
           sodipodi:ry="4.5413599"
           sodipodi:rx="4.5413599"
           sodipodi:cy="782.60541"
           sodipodi:cx="467.76007"
           id="path7469"
           style="fill:#000000;fill-opacity:1;fill-rule:evenodd;stroke:none;stroke-width:3;stroke-linecap:round;stroke-linejoin:round;stroke-miterlimit:4;stroke-dasharray:none;stroke-dashoffset:0;stroke-opacity:1"
           sodipodi:type="arc" />
        <path
           id="path7471"
           d="M 205.44899,189.13765 C 202.04504,188.91005 198.53741,189.65229 195.36308,191.48497 C 186.84037,196.40556 183.9393,207.31814 188.85991,215.84086 C 189.3212,216.63986 189.83859,217.36765 190.39827,218.06639 C 187.06253,208.78221 193.33672,196.46635 205.44899,189.13765 z"
           style="fill:#2a221c;fill-opacity:1;fill-rule:evenodd;stroke:none;stroke-width:3;stroke-linecap:round;stroke-linejoin:round;stroke-miterlimit:4;stroke-dashoffset:0;stroke-opacity:1" />
        <path
           style="fill:#bfc3cf;fill-opacity:1;fill-rule:evenodd;stroke:none;stroke-width:3;stroke-linecap:round;stroke-linejoin:round;stroke-miterlimit:4;stroke-dashoffset:0;stroke-opacity:1"
           d="M 270.69265,198.06524 L 263.05109,198.06524 L 263.05109,223.82671 L 270.69265,223.82671 L 268.3656,220.06982 L 270.69265,198.06524 z"
           id="path7473"
           sodipodi:nodetypes="cccccc" />
        <path
           sodipodi:nodetypes="ccccc"
           id="path7475"
           d="M 261.85136,219.41757 C 262.50258,221.70765 263.228,223.82671 263.228,223.82671 L 272.19619,223.82671 L 269.46515,219.41757 L 261.85136,219.41757 z"
           style="fill:#4c3f33;fill-opacity:1;fill-rule:evenodd;stroke:none;stroke-width:3;stroke-linecap:round;stroke-linejoin:round;stroke-miterlimit:4;stroke-dashoffset:0;stroke-opacity:1" />
        <path
           sodipodi:nodetypes="cssscccsss"
           id="path7477"
           d="M 229.9426,197.56302 C 228.02689,195.79016 222.89676,195.5444 221.24206,197.56302 C 219.05401,200.23233 224.06796,205.43995 223.49965,208.84436 C 223.05722,211.49481 219.40311,213.92582 218.98448,216.58013 C 218.491,219.70904 221.24206,226.89457 221.24206,226.89457 L 229.9426,226.89457 L 227.29306,222.61703 C 227.29306,222.61703 225.3171,218.62431 225.64462,216.857 C 226.12215,214.28032 230.16379,212.39361 230.89785,209.87798 C 231.93582,206.32073 232.66226,200.0799 229.9426,197.56302 z"
           style="fill:#bfc3cf;fill-opacity:1;fill-rule:evenodd;stroke:none;stroke-width:3;stroke-linecap:round;stroke-linejoin:round;stroke-miterlimit:4;stroke-dashoffset:0;stroke-opacity:1" />
        <path
           style="fill:#675545;fill-opacity:1;fill-rule:evenodd;stroke:none;stroke-width:3;stroke-linecap:round;stroke-linejoin:round;stroke-miterlimit:4;stroke-dashoffset:0;stroke-opacity:1"
           d="M 268.45614,161.20884 C 257.23525,168.37544 257.78417,186.71953 239.93129,179.4958 C 213.02428,168.60853 177.4974,201.54033 213.14915,208.33111 C 232.90543,212.09419 258.30123,219.84278 268.45614,209.53593 C 282.20134,195.5851 282.20134,175.15968 268.45614,161.20884 z"
           id="path7479"
           sodipodi:nodetypes="csscc" />
        <path
           sodipodi:nodetypes="ccccc"
           id="path7481"
           d="M 281.91756,110.60361 C 275.30945,110.60361 267.96922,116.18224 267.96922,122.32021 C 267.87622,141.75491 276.05926,142.99519 276.05926,153.84348 C 276.05926,158.49292 281.91756,158.49292 281.91756,153.84348 C 281.91756,139.43018 288.51977,110.60361 281.91756,110.60361 z"
           style="fill:#675545;fill-opacity:1;fill-rule:evenodd;stroke:none;stroke-width:3;stroke-linecap:round;stroke-linejoin:round;stroke-miterlimit:4;stroke-dashoffset:0;stroke-opacity:1" />
        <path
           style="fill:#7a6552;fill-opacity:1;fill-rule:evenodd;stroke:none;stroke-width:3;stroke-linecap:round;stroke-linejoin:round;stroke-miterlimit:4;stroke-dashoffset:0;stroke-opacity:1"
           d="M 309.5494,198.087 C 320.92173,188.54 313.01623,160.3804 303.46921,149.00809 C 293.92221,137.63579 276.9442,136.15437 265.57189,145.70137 C 254.19958,155.24839 252.71817,172.22639 262.26517,183.59871 C 271.81219,194.97102 298.17708,207.63402 309.5494,198.087 z"
           id="path7483"
           sodipodi:nodetypes="csssc" />
        <path
           style="fill:#d6d9e3;fill-opacity:1;fill-rule:evenodd;stroke:none;stroke-width:3;stroke-linecap:round;stroke-linejoin:round;stroke-miterlimit:4;stroke-dashoffset:0;stroke-opacity:1"
           d="M 313.58238,178.15625 C 314.08302,178.15207 314.5857,178.19281 315.08547,178.21637 C 315.98726,186.50793 314.6859,194.2011 309.73447,198.35776 C 304.47103,202.77641 296.02155,202.38704 287.48875,199.62035 C 285.04011,193.89198 285.88549,187.40275 290.70911,183.35336 C 295.6845,179.17655 307.55276,178.2065 313.58238,178.15625 z"
           id="path7485"
           sodipodi:nodetypes="ccscsc" />
        <path
           sodipodi:type="arc"
           style="fill:#000000;fill-opacity:1;fill-rule:evenodd;stroke:none;stroke-width:3;stroke-linecap:round;stroke-linejoin:round;stroke-miterlimit:4;stroke-dasharray:none;stroke-dashoffset:0;stroke-opacity:1"
           id="path7487"
           sodipodi:cx="467.76007"
           sodipodi:cy="782.60541"
           sodipodi:rx="4.5413599"
           sodipodi:ry="4.5413599"
           d="M 472.30143,782.60541 A 4.5413599,4.5413599 0 1 1 463.21871,782.60541 A 4.5413599,4.5413599 0 1 1 472.30143,782.60541 z"
           transform="matrix(-1.2994395,0,0,1.2994395,902.70092,-850.35853)" />
        <path
           sodipodi:nodetypes="ccccc"
           id="path7489"
           d="M 272.21378,109.7667 C 265.48733,109.7667 258.01562,115.44526 258.01562,121.69316 C 257.92097,141.47595 266.25056,142.73845 266.25056,153.78102 C 266.25056,158.51373 272.21378,158.51373 272.21378,153.78102 C 272.21378,139.10958 278.93426,109.7667 272.21378,109.7667 z"
           style="fill:#7a6552;fill-opacity:1;fill-rule:evenodd;stroke:none;stroke-width:3;stroke-linecap:round;stroke-linejoin:round;stroke-miterlimit:4;stroke-dashoffset:0;stroke-opacity:1" />
        <path
           style="fill:#4c3f33;fill-opacity:1;fill-rule:evenodd;stroke:none;stroke-width:3;stroke-linecap:round;stroke-linejoin:round;stroke-miterlimit:4;stroke-dashoffset:0;stroke-opacity:1"
           d="M 270.42825,110.60361 C 263.82015,110.60361 256.47991,116.18224 256.47991,122.32021 C 256.38692,141.75491 264.56994,142.99519 264.56994,153.84348 C 264.56994,158.49292 270.42825,158.49292 270.42825,153.84348 C 270.42825,139.43018 277.03047,110.60361 270.42825,110.60361 z"
           id="path7491"
           sodipodi:nodetypes="ccccc" />
        <path
           id="path7493"
           d="M 197.42348,196 C 196.80666,201.37755 201.00175,206.37825 212.71408,208.60916 C 232.89514,212.45314 258.84261,220.35065 269.21586,209.82219 C 269.51011,209.52353 269.79583,209.23272 270.07775,208.92837 C 238.00381,207.8612 223.54242,195.96399 197.42348,196 z"
           style="fill:#d6d9e3;fill-opacity:1;fill-rule:evenodd;stroke:none;stroke-width:3;stroke-linecap:round;stroke-linejoin:round;stroke-miterlimit:4;stroke-dashoffset:0;stroke-opacity:1" />
        <path
           sodipodi:nodetypes="cssc"
           id="path7495"
           d="M 313.0564,186.65593 C 312.11861,186.90721 310.47007,187.7838 307.84422,187.08021 C 305.21838,186.37663 303.29864,185.01673 303.54249,184.10667 C 304.50377,180.51916 310.03293,185.30638 313.0564,186.65593 z"
           style="fill:#000000;fill-opacity:1;fill-rule:evenodd;stroke:none;stroke-width:3;stroke-linecap:round;stroke-linejoin:round;stroke-miterlimit:4;stroke-dashoffset:0;stroke-opacity:1" />
        <path
           sodipodi:nodetypes="cccccc"
           id="path7497"
           d="M 257.07075,205.70679 L 249.42921,205.70679 L 249.42921,231.46824 L 257.07075,231.46824 L 254.74371,227.71135 L 257.07075,205.70679 z"
           style="fill:#bfc3cf;fill-opacity:1;fill-rule:evenodd;stroke:none;stroke-width:3;stroke-linecap:round;stroke-linejoin:round;stroke-miterlimit:4;stroke-dashoffset:0;stroke-opacity:1" />
        <path
           transform="matrix(-0.5137631,0,0,0.5137631,505.09367,-204.93)"
           d="M 505.18577,803.40375 A 15.547284,15.547284 0 1 1 474.0912,803.40375 A 15.547284,15.547284 0 1 1 505.18577,803.40375 z"
           sodipodi:ry="15.547284"
           sodipodi:rx="15.547284"
           sodipodi:cy="803.40375"
           sodipodi:cx="489.63849"
           id="path7499"
           style="fill:#7a6552;fill-opacity:1;fill-rule:evenodd;stroke:none;stroke-width:3;stroke-linecap:round;stroke-linejoin:round;stroke-miterlimit:4;stroke-dasharray:none;stroke-dashoffset:0;stroke-opacity:1"
           sodipodi:type="arc" />
        <path
           style="fill:#bfc3cf;fill-opacity:1;fill-rule:evenodd;stroke:none;stroke-width:3;stroke-linecap:round;stroke-linejoin:round;stroke-miterlimit:4;stroke-dashoffset:0;stroke-opacity:1"
           d="M 216.72729,204.9765 C 214.81158,203.20365 209.68146,202.95786 208.02675,204.9765 C 205.83868,207.64582 210.85265,212.85344 210.28434,216.25782 C 209.84189,218.90827 206.1878,221.33928 205.76916,223.99361 C 205.27569,227.1225 208.02675,234.30803 208.02675,234.30803 L 216.72729,234.30803 L 214.07775,230.03051 C 214.07775,230.03051 212.10179,226.03777 212.4293,224.27046 C 212.90684,221.69381 216.94847,219.8071 217.68254,217.29144 C 218.72051,213.73422 219.44696,207.49338 216.72729,204.9765 z"
           id="path7501"
           sodipodi:nodetypes="cssscccsss" />
        <path
           sodipodi:type="arc"
           style="fill:#7a6552;fill-opacity:1;fill-rule:evenodd;stroke:none;stroke-width:3;stroke-linecap:round;stroke-linejoin:round;stroke-miterlimit:4;stroke-dasharray:none;stroke-dashoffset:0;stroke-opacity:1"
           id="path7503"
           sodipodi:cx="489.63849"
           sodipodi:cy="803.40375"
           sodipodi:rx="15.547284"
           sodipodi:ry="15.547284"
           d="M 505.18577,803.40375 A 15.547284,15.547284 0 1 1 474.0912,803.40375 A 15.547284,15.547284 0 1 1 505.18577,803.40375 z"
           transform="matrix(-0.4984288,0,0,0.7183238,456.77031,-377.8091)" />
        <path
           sodipodi:nodetypes="ccccc"
           id="path7505"
           d="M 206.69122,230.03051 C 207.323,232.25224 208.02675,234.30803 208.02675,234.30803 L 216.72729,234.30803 L 214.07775,230.03051 L 206.69122,230.03051 z"
           style="fill:#4c3f33;fill-opacity:1;fill-rule:evenodd;stroke:none;stroke-width:3;stroke-linecap:round;stroke-linejoin:round;stroke-miterlimit:4;stroke-dashoffset:0;stroke-opacity:1" />
        <path
           style="fill:#4c3f33;fill-opacity:1;fill-rule:evenodd;stroke:none;stroke-width:3;stroke-linecap:round;stroke-linejoin:round;stroke-miterlimit:4;stroke-dashoffset:0;stroke-opacity:1"
           d="M 219.87643,222.61703 C 220.5082,224.83876 221.21196,226.89457 221.21196,226.89457 L 229.91249,226.89457 L 227.26296,222.61703 L 219.87643,222.61703 z"
           id="path7507"
           sodipodi:nodetypes="ccccc" />
        <path
           style="fill:#4c3f33;fill-opacity:1;fill-rule:evenodd;stroke:none;stroke-width:3;stroke-linecap:round;stroke-linejoin:round;stroke-miterlimit:4;stroke-dashoffset:0;stroke-opacity:1"
           d="M 248.26051,227.05912 C 248.91172,229.3492 249.63713,231.46824 249.63713,231.46824 L 258.60534,231.46824 L 255.87429,227.05912 L 248.26051,227.05912 z"
           id="path7509"
           sodipodi:nodetypes="ccccc" />
      </g>
      <path
         style="fill:#fad5a7;fill-opacity:1;fill-rule:evenodd;stroke:none;stroke-width:3;stroke-linecap:round;stroke-linejoin:round;stroke-miterlimit:4;stroke-dashoffset:0;stroke-opacity:1"
         d="M 236.43828,171.98731 C 244.08554,178.63958 243.17384,182.22216 242.02355,186.73718 C 232.1953,170.20452 209.23916,186.1205 208.32361,165.45204 L 236.43828,171.98731 z"
         id="path7513"
         sodipodi:nodetypes="cccc" />
      <path
         sodipodi:nodetypes="ccccc"
         id="path7511"
         d="M 236.43828,172.18745 C 237.70829,171.22534 238.5405,170.51502 239.23295,169.50982 L 239.0115,165.65218 L 208.32361,165.65218 L 236.43828,172.18745 z"
         style="fill:#501616;fill-opacity:1;fill-rule:evenodd;stroke:none;stroke-width:3;stroke-linecap:round;stroke-linejoin:round;stroke-miterlimit:4;stroke-dashoffset:0;stroke-opacity:1" />
      <path
         style="fill:#e1bf96;fill-opacity:1;fill-rule:evenodd;stroke:none;stroke-width:3;stroke-linecap:round;stroke-linejoin:round;stroke-miterlimit:4;stroke-dashoffset:0;stroke-opacity:1"
         d="M 118.91498,186.32689 C 126.56224,194.53233 125.65054,198.95136 124.50025,204.52055 C 114.672,184.12787 90.800309,197.68397 90.800309,178.26578 L 118.91498,186.32689 z"
         id="path7517"
         sodipodi:nodetypes="cccc" />
      <path
         sodipodi:nodetypes="ccccc"
         id="path7519"
         d="M 119.58615,188.54953 C 122.29908,189.87623 126.15168,188.37377 126.15168,186.09194 L 125.47549,178.46732 L 90.800309,178.46732 L 119.58615,188.54953 z"
         style="fill:#e1bf96;fill-opacity:1;fill-rule:evenodd;stroke:none;stroke-width:3;stroke-linecap:round;stroke-linejoin:round;stroke-miterlimit:4;stroke-dashoffset:0;stroke-opacity:1" />
      <path
         sodipodi:nodetypes="ccccc"
         id="rect7523"
         d="M 336.2307,108.41722 L 443.57462,116.36862 L 440.73483,178.84392 L 340.77436,177.70801 L 336.2307,108.41722 z"
         style="fill:#864747;fill-opacity:1;fill-rule:evenodd;stroke:none;stroke-width:3;stroke-linecap:round;stroke-linejoin:round;stroke-miterlimit:4;stroke-dashoffset:0;stroke-opacity:1" />
      <path
         id="text7525"
         d="M 350.91028,121.33144 L 351.50403,121.33144 C 352.44152,121.33146 353.35818,121.44604 354.25403,121.67519 C 354.60818,124.27937 354.78527,125.91479 354.78528,126.58144 L 354.75403,126.61269 L 354.72278,126.61269 L 353.31653,126.55019 L 352.87903,126.55019 C 349.71756,126.55021 347.62381,127.43562 346.59778,129.20644 C 346.32694,129.79499 346.19152,130.41999 346.19153,131.08144 L 346.19153,131.36269 C 346.19152,132.82103 346.78527,133.8002 347.97278,134.30019 C 348.44152,134.46686 348.95194,134.5502 349.50403,134.55019 C 350.75402,134.47207 351.37902,134.32624 351.37903,134.11269 C 351.66027,133.90436 351.82694,133.8002 351.87903,133.80019 L 355.59778,136.51894 C 354.00922,137.85228 352.23839,138.51894 350.28528,138.51894 L 349.87903,138.51894 C 347.59777,138.51894 345.84777,137.82103 344.62903,136.42519 C 343.49361,135.35749 342.66028,133.77416 342.12903,131.67519 C 341.98319,131.02416 341.91028,130.39916 341.91028,129.80019 L 341.91028,129.42519 C 341.91028,126.92 343.01444,124.80542 345.22278,123.08144 C 346.94673,121.91479 348.84256,121.33146 350.91028,121.33144 L 350.91028,121.33144 z M 367.31653,122.51894 C 367.35298,122.51896 367.55089,123.20646 367.91028,124.58144 L 371.62903,138.48769 L 371.59778,138.51894 L 367.37903,138.51894 C 367.32694,138.51894 367.04569,137.41478 366.53528,135.20644 L 366.12903,133.70644 C 364.0561,134.45645 363.01444,134.85228 363.00403,134.89394 L 362.22278,138.51894 L 357.41028,138.51894 L 357.37903,138.48769 L 357.34778,138.48769 L 362.22278,122.51894 L 367.31653,122.51894 z M 363.59778,132.20644 L 365.59778,131.51894 L 364.62903,127.55019 C 364.57173,127.5502 364.3009,128.76895 363.81653,131.20644 L 363.59778,132.20644 z M 385.37903,121.48769 L 388.50403,121.51894 L 388.53528,121.55019 L 388.53528,121.58144 L 387.53528,137.80019 L 383.59778,138.51894 C 380.15506,132.77416 378.07173,129.35749 377.34778,128.26894 L 377.34778,128.33144 L 378.47278,136.83144 C 378.47277,136.87311 377.02486,137.00853 374.12903,137.23769 C 374.07694,137.23769 373.89986,135.15436 373.59778,130.98769 C 373.34778,128.11791 373.17069,125.72208 373.06653,123.80019 L 377.50403,122.92519 C 380.51965,126.75333 382.54048,129.43041 383.56653,130.95644 L 383.56653,130.98769 L 383.59778,130.98769 L 384.31653,121.51894 L 384.34778,121.48769 L 385.37903,121.48769 z M 400.22278,122.51894 C 400.25923,122.51896 400.45714,123.20646 400.81653,124.58144 L 404.53528,138.48769 L 404.50403,138.51894 L 400.28528,138.51894 C 400.23319,138.51894 399.95194,137.41478 399.44153,135.20644 L 399.03528,133.70644 C 396.96235,134.45645 395.92069,134.85228 395.91028,134.89394 L 395.12903,138.51894 L 390.31653,138.51894 L 390.28528,138.48769 L 390.25403,138.48769 L 395.12903,122.51894 L 400.22278,122.51894 z M 396.50403,132.20644 L 398.50403,131.51894 L 397.53528,127.55019 C 397.47798,127.5502 397.20715,128.76895 396.72278,131.20644 L 396.50403,132.20644 z M 409.94153,122.51894 L 411.62903,122.48769 C 413.26444,122.48771 414.91027,122.78979 416.56653,123.39394 C 418.58735,124.295 419.59776,125.67 419.59778,127.51894 C 419.59776,130.90958 416.58735,134.37832 410.56653,137.92519 L 409.47278,138.51894 L 406.09778,138.51894 C 406.01444,138.51894 405.97278,137.99811 405.97278,136.95644 L 405.97278,134.20644 C 405.97278,130.52416 406.03528,126.63875 406.16028,122.55019 L 406.19153,122.51894 L 409.94153,122.51894 z M 409.78528,134.70644 C 413.82694,132.50853 415.84777,130.65437 415.84778,129.14394 L 415.84778,128.92519 C 415.84777,128.17 415.47277,127.62833 414.72278,127.30019 C 414.43631,127.21687 414.1759,127.1752 413.94153,127.17519 L 413.81653,127.17519 C 412.84777,127.1752 411.67069,127.51895 410.28528,128.20644 L 409.78528,134.70644 z M 431.31653,122.51894 C 431.35298,122.51896 431.55089,123.20646 431.91028,124.58144 L 435.62903,138.48769 L 435.59778,138.51894 L 431.37903,138.51894 C 431.32694,138.51894 431.04569,137.41478 430.53528,135.20644 L 430.12903,133.70644 C 428.0561,134.45645 427.01444,134.85228 427.00403,134.89394 L 426.22278,138.51894 L 421.41028,138.51894 L 421.37903,138.48769 L 421.34778,138.48769 L 426.22278,122.51894 L 431.31653,122.51894 z M 427.59778,132.20644 L 429.59778,131.51894 L 428.62903,127.55019 C 428.57173,127.5502 428.3009,128.76895 427.81653,131.20644 L 427.59778,132.20644 z"
         style="font-size:16px;font-style:normal;font-variant:normal;font-weight:normal;font-stretch:normal;text-align:start;line-height:125%;writing-mode:lr-tb;text-anchor:start;fill:#000000;fill-opacity:1;stroke:none;stroke-width:1px;stroke-linecap:butt;stroke-linejoin:miter;stroke-opacity:1;font-family:Badonk-a-donk;-inkscape-font-specification:Badonk-a-donk" />
      <path
         sodipodi:nodetypes="cccccccccscc"
         id="text7529"
         d="M 414.01225,139.61907 C 419.6878,145.89496 425.89838,151.80975 433.62694,155.43429 L 433.62694,157.57147 C 425.79139,161.26559 419.72925,167.46654 413.96477,173.76664 L 410.30777,173.76664 C 413.28395,167.40258 416.40265,162.51078 419.66394,159.09125 L 345.04829,160.51114 L 343.91237,154.29446 L 419.66394,154.29446 C 417.25756,151.22326 415.57944,148.94359 414.62968,147.45545 C 413.67972,145.96735 412.27077,143.35522 410.40278,139.61907 L 414.01225,139.61907 z"
         style="font-size:40px;font-style:normal;font-weight:normal;fill:#000000;fill-opacity:1;stroke:none;stroke-width:1px;stroke-linecap:butt;stroke-linejoin:miter;stroke-opacity:1;font-family:Bitstream Vera Sans" />
      <path
         sodipodi:nodetypes="cccccccccc"
         id="path7551"
         d="M 404.38557,213.91527 C 397.3355,217.98563 387.01347,217.98563 379.9634,213.91527 L 381.40889,208.66625 L 384.16337,210.97581 L 387.80196,202.81451 L 391.89977,208.15292 L 396.03192,202.96164 L 399.77352,211.21122 L 402.6997,208.87224 L 404.38557,213.91527 z"
         style="fill:#445500;fill-opacity:1;fill-rule:evenodd;stroke:none;stroke-width:3;stroke-linecap:round;stroke-linejoin:round;stroke-miterlimit:4;stroke-dashoffset:0;stroke-opacity:1" />
    </g>
  </g>
</svg>
