<?xml version="1.0" encoding="UTF-8" standalone="no"?>
<!-- Created with Inkscape (http://www.inkscape.org/) -->
<svg
   xmlns:dc="http://purl.org/dc/elements/1.1/"
   xmlns:cc="http://creativecommons.org/ns#"
   xmlns:rdf="http://www.w3.org/1999/02/22-rdf-syntax-ns#"
   xmlns:svg="http://www.w3.org/2000/svg"
   xmlns="http://www.w3.org/2000/svg"
   xmlns:xlink="http://www.w3.org/1999/xlink"
   xmlns:sodipodi="http://sodipodi.sourceforge.net/DTD/sodipodi-0.dtd"
   xmlns:inkscape="http://www.inkscape.org/namespaces/inkscape"
   width="744.09448819"
   height="1052.3622047"
   id="svg2"
   sodipodi:version="0.32"
   inkscape:version="0.46"
   sodipodi:docname="frog.svg"
   inkscape:output_extension="org.inkscape.output.svg.inkscape">
  <defs
     id="defs4">
    <linearGradient
       id="linearGradient3217">
      <stop
         id="stop3219"
         offset="0"
         style="stop-color:#000000;stop-opacity:1;" />
      <stop
         id="stop3221"
         offset="1"
         style="stop-color:#ffffff;stop-opacity:1;" />
    </linearGradient>
    <linearGradient
       id="linearGradient3209">
      <stop
         style="stop-color:#000000;stop-opacity:1;"
         offset="0"
         id="stop3211" />
      <stop
         style="stop-color:#000000;stop-opacity:0;"
         offset="1"
         id="stop3213" />
    </linearGradient>
    <linearGradient
       id="linearGradient3189">
      <stop
         style="stop-color:#000000;stop-opacity:1;"
         offset="0"
         id="stop3191" />
      <stop
         style="stop-color:#ffffff;stop-opacity:1;"
         offset="1"
         id="stop3193" />
    </linearGradient>
    <linearGradient
       id="linearGradient3181">
      <stop
         style="stop-color:#000000;stop-opacity:1;"
         offset="0"
         id="stop3183" />
      <stop
         style="stop-color:#7f7f7f;stop-opacity:1;"
         offset="1"
         id="stop3185" />
    </linearGradient>
    <inkscape:perspective
       sodipodi:type="inkscape:persp3d"
       inkscape:vp_x="0 : 526.18109 : 1"
       inkscape:vp_y="0 : 1000 : 0"
       inkscape:vp_z="744.09448 : 526.18109 : 1"
       inkscape:persp3d-origin="372.04724 : 350.78739 : 1"
       id="perspective10" />
    <linearGradient
       inkscape:collect="always"
       xlink:href="#linearGradient3189"
       id="linearGradient3233"
       gradientUnits="userSpaceOnUse"
       x1="70.161921"
       y1="202.40865"
       x2="243.10431"
       y2="202.40865" />
    <linearGradient
       inkscape:collect="always"
       xlink:href="#linearGradient3181"
       id="linearGradient3235"
       gradientUnits="userSpaceOnUse"
       x1="72.161919"
       y1="202.40865"
       x2="241.10431"
       y2="202.40865" />
    <linearGradient
       inkscape:collect="always"
       xlink:href="#linearGradient3189"
       id="linearGradient3237"
       gradientUnits="userSpaceOnUse"
       x1="70.161921"
       y1="202.40865"
       x2="243.10431"
       y2="202.40865" />
    <linearGradient
       inkscape:collect="always"
       xlink:href="#linearGradient3189"
       id="linearGradient3239"
       gradientUnits="userSpaceOnUse"
       x1="241.10431"
       y1="202.40865"
       x2="72.161919"
       y2="202.40865" />
    <linearGradient
       inkscape:collect="always"
       xlink:href="#linearGradient3189"
       id="linearGradient3241"
       gradientUnits="userSpaceOnUse"
       x1="241.10431"
       y1="202.40865"
       x2="72.161919"
       y2="202.40865" />
  </defs>
  <sodipodi:namedview
     id="base"
     pagecolor="#ffffff"
     bordercolor="#666666"
     borderopacity="1.0"
     gridtolerance="10000"
     guidetolerance="10"
     objecttolerance="10"
     inkscape:pageopacity="0.0"
     inkscape:pageshadow="2"
     inkscape:zoom="0.35"
     inkscape:cx="375"
     inkscape:cy="520"
     inkscape:document-units="px"
     inkscape:current-layer="layer1"
     showgrid="false" />
  <metadata
     id="metadata7">
    <rdf:RDF>
      <cc:Work
         rdf:about="">
        <dc:format>image/svg+xml</dc:format>
        <dc:type
           rdf:resource="http://purl.org/dc/dcmitype/StillImage" />
      </cc:Work>
    </rdf:RDF>
  </metadata>
  <g
     inkscape:label="Layer 1"
     inkscape:groupmode="layer"
     id="layer1">
    <rect
       style="opacity:1;fill:#7cd9d8;fill-opacity:1;fill-rule:nonzero;stroke:none;stroke-width:4;stroke-linecap:round;stroke-linejoin:round;stroke-miterlimit:4;stroke-dasharray:none;stroke-dashoffset:0;stroke-opacity:1"
       id="rect3393"
       width="675"
       height="550"
       x="52"
       y="172.36218"
       inkscape:export-filename="C:\Documents and Settings\Justin\My Documents\My Pictures\frog.png"
       inkscape:export-xdpi="90"
       inkscape:export-ydpi="90" />
    <path
       style="opacity:1;fill:#99bbb3;fill-opacity:1;fill-rule:nonzero;stroke:none;stroke-width:4;stroke-linecap:round;stroke-linejoin:round;stroke-miterlimit:4;stroke-dasharray:none;stroke-dashoffset:0;stroke-opacity:1"
       d="M 21 414.375 L 21 862.375 L 757 862.375 L 757 414.375 L 750.0625 414.375 C 746.72957 435.63081 734.7606 451.375 720.5 451.375 C 716.42885 451.375 712.55184 450.04762 709 447.71875 C 706.59128 450.04584 703.87051 451.375 701 451.375 C 692.98215 451.375 686.20123 441.15659 683.875 427.0625 C 672.78542 441.47539 649.90571 451.375 623.5 451.375 C 599.32641 451.375 578.11042 443.08585 566.1875 430.625 C 563.33679 442.89066 557.39649 451.375 550.5 451.375 C 546.90566 451.375 543.56153 449.05913 540.78125 445.125 C 535.92605 449.05446 529.94636 451.375 523.5 451.375 C 510.98988 451.375 500.28733 442.64762 496 430.34375 C 486.22003 443.11678 470.818 451.375 453.5 451.375 C 438.59084 451.375 425.11114 445.25569 415.40625 435.40625 C 408.16116 445.17549 397.44578 451.375 385.5 451.375 C 369.41457 451.375 355.56454 440.14064 349.40625 424.0625 C 344.65525 439.82713 329.7101 451.375 312 451.375 C 301.8127 451.375 292.5429 447.55166 285.59375 441.3125 C 278.85318 447.56483 270.0835 451.375 260.5 451.375 C 255.36305 451.375 250.48203 450.25217 246 448.28125 C 241.53788 450.25597 236.64078 451.375 231.5 451.375 C 227.1853 451.375 223.04649 450.60213 219.1875 449.1875 C 215.2444 450.59312 210.97309 451.375 206.5 451.375 C 194.86487 451.375 184.53826 446.14142 178.0625 438.09375 C 172.38733 446.06515 162.37498 451.375 151 451.375 C 141.19984 451.375 132.43392 447.43602 126.5625 441.25 C 119.92039 447.53735 111.12629 451.375 101.5 451.375 C 92.972648 451.375 85.114351 448.33743 78.8125 443.28125 C 73.43922 448.32982 66.531681 451.375 59 451.375 C 41.888 451.375 28 435.695 28 416.375 C 28 415.70689 27.998475 415.03391 28.03125 414.375 L 21 414.375 z "
       id="rect3359" />
    <g
       id="g3227"
       transform="translate(-195,-165.71429)">
      <path
         transform="matrix(0.1510141,-0.3807453,0.3807453,0.1510141,54.996085,230.71945)"
         d="M 241.10431,202.40865 A 84.469086,84.469086 0 1 1 72.166138,202.40865 A 84.469086,84.469086 0 1 1 241.10431,202.40865 z"
         sodipodi:ry="84.469086"
         sodipodi:rx="84.469086"
         sodipodi:cy="202.40865"
         sodipodi:cx="156.63522"
         id="path3205"
         style="opacity:1;fill:url(#linearGradient3233);fill-opacity:1;fill-rule:nonzero;stroke:url(#linearGradient3235);stroke-width:4;stroke-linecap:round;stroke-linejoin:round;stroke-miterlimit:4;stroke-dasharray:none;stroke-dashoffset:0;stroke-opacity:1"
         sodipodi:type="arc" />
      <path
         transform="matrix(0.1510141,-0.3807453,0.3807453,0.1510141,54.996085,230.71945)"
         d="M 241.10431,202.40865 A 84.469086,84.469086 0 1 1 72.166138,202.40865 A 84.469086,84.469086 0 1 1 241.10431,202.40865 z"
         sodipodi:ry="84.469086"
         sodipodi:rx="84.469086"
         sodipodi:cy="202.40865"
         sodipodi:cx="156.63522"
         id="path3177"
         style="opacity:1;fill:url(#linearGradient3237);fill-opacity:1;fill-rule:nonzero;stroke:none;stroke-width:4;stroke-linecap:round;stroke-linejoin:round;stroke-miterlimit:4;stroke-dasharray:none;stroke-dashoffset:0;stroke-opacity:1"
         sodipodi:type="arc" />
      <path
         transform="matrix(0.1208112,-0.3045962,0.3045962,0.1208112,75.140156,224.90515)"
         d="M 241.10431,202.40865 A 84.469086,84.469086 0 1 1 72.166138,202.40865 A 84.469086,84.469086 0 1 1 241.10431,202.40865 z"
         sodipodi:ry="84.469086"
         sodipodi:rx="84.469086"
         sodipodi:cy="202.40865"
         sodipodi:cx="156.63522"
         id="path3179"
         style="opacity:1;fill:url(#linearGradient3239);fill-opacity:1;fill-rule:nonzero;stroke:none;stroke-width:4;stroke-linecap:round;stroke-linejoin:round;stroke-miterlimit:4;stroke-dasharray:none;stroke-dashoffset:0;stroke-opacity:1"
         sodipodi:type="arc" />
      <path
         transform="matrix(-9.6648929e-2,0.243677,-0.243677,-9.6648929e-2,220.17732,183.04205)"
         d="M 241.10431,202.40865 A 84.469086,84.469086 0 1 1 72.166138,202.40865 A 84.469086,84.469086 0 1 1 241.10431,202.40865 z"
         sodipodi:ry="84.469086"
         sodipodi:rx="84.469086"
         sodipodi:cy="202.40865"
         sodipodi:cx="156.63522"
         id="path3223"
         style="opacity:1;fill:url(#linearGradient3241);fill-opacity:1;fill-rule:nonzero;stroke:none;stroke-width:4;stroke-linecap:round;stroke-linejoin:round;stroke-miterlimit:4;stroke-dasharray:none;stroke-dashoffset:0;stroke-opacity:1"
         sodipodi:type="arc" />
    </g>
    <g
       id="g3271"
       transform="translate(-182.312,-88.371949)">
      <path
         sodipodi:nodetypes="czzzz"
         id="path3243"
         d="M 302.65974,121.33319 C 308.5537,97.107214 261.37343,82.792807 254.991,148.86231 C 248.60857,214.93181 262.7419,194.69868 277.57093,195.83604 C 292.39996,196.9734 292.51908,226.42315 273.8773,226.43169 C 255.23552,226.44023 211.37603,227.90778 246.62807,209.14759"
         style="opacity:1;fill:#ffffff;fill-opacity:1;fill-rule:nonzero;stroke:#000000;stroke-width:4;stroke-linecap:round;stroke-linejoin:round;stroke-miterlimit:4;stroke-dasharray:none;stroke-dashoffset:0;stroke-opacity:1" />
      <path
         sodipodi:nodetypes="cz"
         id="path3245"
         d="M 248.50245,118.13706 C 254.39641,93.91108 207.21614,79.59667 200.83371,145.66618"
         style="opacity:1;fill:#ffffff;fill-opacity:1;fill-rule:nonzero;stroke:#000000;stroke-width:4;stroke-linecap:round;stroke-linejoin:round;stroke-miterlimit:4;stroke-dasharray:none;stroke-dashoffset:0;stroke-opacity:1" />
      <path
         d="M 227.74177,133.80841 A 2.090734,10.732871 0 1 1 223.5603,133.80841 A 2.090734,10.732871 0 1 1 227.74177,133.80841 z"
         sodipodi:ry="10.732871"
         sodipodi:rx="2.090734"
         sodipodi:cy="133.80841"
         sodipodi:cx="225.65103"
         id="path3257"
         style="opacity:1;fill:#ffffff;fill-opacity:1;fill-rule:nonzero;stroke:#000000;stroke-width:4;stroke-linecap:round;stroke-linejoin:round;stroke-miterlimit:4;stroke-dasharray:none;stroke-dashoffset:0;stroke-opacity:1"
         sodipodi:type="arc" />
      <path
         transform="translate(53.736218,-8.7975063e-2)"
         d="M 227.74177,133.80841 A 2.090734,10.732871 0 1 1 223.5603,133.80841 A 2.090734,10.732871 0 1 1 227.74177,133.80841 z"
         sodipodi:ry="10.732871"
         sodipodi:rx="2.090734"
         sodipodi:cy="133.80841"
         sodipodi:cx="225.65103"
         id="path3259"
         style="opacity:1;fill:#ffffff;fill-opacity:1;fill-rule:nonzero;stroke:#000000;stroke-width:4;stroke-linecap:round;stroke-linejoin:round;stroke-miterlimit:4;stroke-dasharray:none;stroke-dashoffset:0;stroke-opacity:1"
         sodipodi:type="arc" />
      <path
         id="path3269"
         d="M 211.09301,235.90269 C 206.05858,250.29224 273.6909,241.50816 284.58522,239.26395"
         style="opacity:1;fill:#ffffff;fill-opacity:1;fill-rule:nonzero;stroke:#000000;stroke-width:4;stroke-linecap:round;stroke-linejoin:round;stroke-miterlimit:4;stroke-dasharray:none;stroke-dashoffset:0;stroke-opacity:1" />
    </g>
    <g
       id="g3344">
      <path
         sodipodi:end="10.471976"
         sodipodi:start="4.712389"
         transform="matrix(-0.8983208,0.1716238,-1.4545455,-1.559608,1330.6944,1351.0444)"
         d="M 256.07367,394.75286 A 278.29703,77.781746 0 1 1 116.92527,405.17362 L 256.07367,472.53461 z"
         sodipodi:ry="77.781746"
         sodipodi:rx="278.29703"
         sodipodi:cy="472.53461"
         sodipodi:cx="256.07367"
         id="path3338"
         style="opacity:1;fill:#9dc391;fill-opacity:1;fill-rule:nonzero;stroke:none;stroke-width:4;stroke-linecap:round;stroke-linejoin:round;stroke-miterlimit:4;stroke-dasharray:none;stroke-dashoffset:0;stroke-opacity:1"
         sodipodi:type="arc" />
      <path
         transform="matrix(0.324826,0,0,-1.0294117,271.90918,1010.0459)"
         sodipodi:end="3.1415927"
         sodipodi:start="0"
         d="M 504.28572,350.93362 A 153.92857,97.14286 0 1 1 196.42857,350.93362 L 350.35715,350.93362 z"
         sodipodi:ry="97.14286"
         sodipodi:rx="153.92857"
         sodipodi:cy="350.93362"
         sodipodi:cx="350.35715"
         id="path3342"
         style="opacity:1;fill:#3b5b31;fill-opacity:1;fill-rule:nonzero;stroke:none;stroke-width:4;stroke-linecap:round;stroke-linejoin:round;stroke-miterlimit:4;stroke-dasharray:none;stroke-dashoffset:0;stroke-opacity:1"
         sodipodi:type="arc" />
      <path
         transform="matrix(0.9744779,0,0,-1.5441175,60.315744,1186.4115)"
         sodipodi:end="3.1415927"
         sodipodi:start="0"
         d="M 504.28572,350.93362 A 153.92857,97.14286 0 1 1 196.42857,350.93362 L 350.35715,350.93362 z"
         sodipodi:ry="97.14286"
         sodipodi:rx="153.92857"
         sodipodi:cy="350.93362"
         sodipodi:cx="350.35715"
         id="path3328"
         style="opacity:1;fill:#446739;fill-opacity:1;fill-rule:nonzero;stroke:none;stroke-width:4;stroke-linecap:round;stroke-linejoin:round;stroke-miterlimit:4;stroke-dasharray:none;stroke-dashoffset:0;stroke-opacity:1"
         sodipodi:type="arc" />
      <path
         id="rect3297"
         d="M 380,265.23214 C 346.88,265.23214 320,310.03214 320,365.23214 L 320,435.23214 C 320,523.55214 391.68,595.23215 480,595.23214 C 568.32,595.23214 639.99999,523.55214 640,435.23214 L 640,365.23214 C 640,310.03214 613.12001,265.23214 580,265.23214 C 546.88,265.23214 520,310.03214 520,365.23214 L 520,377.10714 C 507.21307,375.87143 493.81123,375.23214 480,375.23214 C 466.18877,375.23214 452.78693,375.87143 440,377.10714 L 440,365.23214 C 440,310.03214 413.11999,265.23214 380,265.23214 z"
         style="opacity:1;fill:#4d7440;fill-opacity:1;fill-rule:nonzero;stroke:none;stroke-width:4;stroke-linecap:round;stroke-linejoin:round;stroke-miterlimit:4;stroke-dasharray:none;stroke-dashoffset:0;stroke-opacity:1" />
      <g
         transform="translate(130,182.85714)"
         id="g3286">
        <path
           sodipodi:type="arc"
           style="opacity:1;fill:#000000;fill-opacity:1;fill-rule:nonzero;stroke:none;stroke-width:4;stroke-linecap:round;stroke-linejoin:round;stroke-miterlimit:4;stroke-dasharray:none;stroke-dashoffset:0;stroke-opacity:1"
           id="path3278"
           sodipodi:cx="246.76744"
           sodipodi:cy="252.8457"
           sodipodi:rx="64.952133"
           sodipodi:ry="58.473236"
           d="M 190.51724,223.60909 A 64.952133,58.473236 0 1 1 181.81531,252.8457 L 246.76744,252.8457 z"
           transform="matrix(0.7697784,0,0,1.2825741,60.042503,-156.93117)"
           sodipodi:start="3.6651914"
           sodipodi:end="9.424778" />
        <path
           sodipodi:type="arc"
           style="opacity:1;fill:#000000;fill-opacity:1;fill-rule:nonzero;stroke:none;stroke-width:4;stroke-linecap:round;stroke-linejoin:round;stroke-miterlimit:4;stroke-dasharray:none;stroke-dashoffset:0;stroke-opacity:1"
           id="path3280"
           sodipodi:cx="246.76744"
           sodipodi:cy="252.8457"
           sodipodi:rx="64.952133"
           sodipodi:ry="58.473236"
           d="M 190.51724,223.60909 A 64.952133,58.473236 0 1 1 181.81531,252.8457 L 246.76744,252.8457 z"
           transform="matrix(0.7697784,0,0,1.2825741,260.0425,-156.93117)"
           sodipodi:start="3.6651914"
           sodipodi:end="9.424778" />
      </g>
      <path
         transform="matrix(0.9744779,0,0,1.5441175,138.5847,-106.66341)"
         sodipodi:end="3.1415927"
         sodipodi:start="0"
         d="M 504.28572,350.93362 A 153.92857,97.14286 0 1 1 196.42857,350.93362 L 350.35715,350.93362 z"
         sodipodi:ry="97.14286"
         sodipodi:rx="153.92857"
         sodipodi:cy="350.93362"
         sodipodi:cx="350.35715"
         id="path3282"
         style="opacity:1;fill:#593939;fill-opacity:1;fill-rule:nonzero;stroke:none;stroke-width:4;stroke-linecap:round;stroke-linejoin:round;stroke-miterlimit:4;stroke-dasharray:none;stroke-dashoffset:0;stroke-opacity:1"
         sodipodi:type="arc" />
      <path
         id="path3304"
         d="M 473.3125,458.16964 C 448.87542,461.44547 430,482.40295 430,507.73214 L 480,507.73214 L 530,507.73214 C 530,482.40295 511.12457,461.44547 486.6875,458.16964 C 486.68125,458.35709 486.66667,458.5432 486.66667,458.73214 C 486.66667,465.56027 490.78471,471.42839 496.66667,474.00297 C 496.66667,474.40749 496.66667,475.01355 496.66667,475.39881 C 496.66666,484.59881 489.2,492.06547 480,492.06547 C 470.79999,492.06548 463.33333,484.59881 463.33333,475.39881 C 463.33333,475.01355 463.33333,474.40749 463.33333,474.00297 C 469.21529,471.42839 473.33333,465.56027 473.33333,458.73214 C 473.33333,458.5432 473.31875,458.35709 473.3125,458.16964 z"
         style="opacity:1;fill:#412929;fill-opacity:1;fill-rule:nonzero;stroke:none;stroke-width:4;stroke-linecap:round;stroke-linejoin:round;stroke-miterlimit:4;stroke-dasharray:none;stroke-dashoffset:0;stroke-opacity:1" />
      <path
         id="path3321"
         d="M 480,491.51339 C 437.14766,491.51339 398.46758,509.51127 371.125,538.35714 C 398.46836,567.21143 437.14052,585.23214 480,585.23214 C 522.85948,585.23214 561.53164,567.21143 588.875,538.35714 C 561.53242,509.51127 522.85234,491.51339 480,491.51339 z"
         style="opacity:1;fill:#741e1e;fill-opacity:1;fill-rule:nonzero;stroke:none;stroke-width:4;stroke-linecap:round;stroke-linejoin:round;stroke-miterlimit:4;stroke-dasharray:none;stroke-dashoffset:0;stroke-opacity:1" />
      <path
         transform="matrix(0.162413,0,0,-0.257353,386.56116,746.08376)"
         sodipodi:end="3.1415927"
         sodipodi:start="0"
         d="M 504.28572,350.93362 A 153.92857,97.14286 0 1 1 196.42857,350.93362 L 350.35715,350.93362 z"
         sodipodi:ry="97.14286"
         sodipodi:rx="153.92857"
         sodipodi:cy="350.93362"
         sodipodi:cx="350.35715"
         id="path3330"
         style="opacity:1;fill:#3b5b31;fill-opacity:1;fill-rule:nonzero;stroke:none;stroke-width:4;stroke-linecap:round;stroke-linejoin:round;stroke-miterlimit:4;stroke-dasharray:none;stroke-dashoffset:0;stroke-opacity:1"
         sodipodi:type="arc" />
      <path
         transform="matrix(0.162413,0,0,-0.257353,473.05694,746.08376)"
         sodipodi:end="3.1415927"
         sodipodi:start="0"
         d="M 504.28572,350.93362 A 153.92857,97.14286 0 1 1 196.42857,350.93362 L 350.35715,350.93362 z"
         sodipodi:ry="97.14286"
         sodipodi:rx="153.92857"
         sodipodi:cy="350.93362"
         sodipodi:cx="350.35715"
         id="path3332"
         style="opacity:1;fill:#3b5b31;fill-opacity:1;fill-rule:nonzero;stroke:none;stroke-width:4;stroke-linecap:round;stroke-linejoin:round;stroke-miterlimit:4;stroke-dasharray:none;stroke-dashoffset:0;stroke-opacity:1"
         sodipodi:type="arc" />
      <path
         transform="matrix(0.324826,0,0,-1.0294117,165.62346,1016.6888)"
         sodipodi:end="3.1415927"
         sodipodi:start="0"
         d="M 504.28572,350.93362 A 153.92857,97.14286 0 1 1 196.42857,350.93362 L 350.35715,350.93362 z"
         sodipodi:ry="97.14286"
         sodipodi:rx="153.92857"
         sodipodi:cy="350.93362"
         sodipodi:cx="350.35715"
         id="path3340"
         style="opacity:1;fill:#3b5b31;fill-opacity:1;fill-rule:nonzero;stroke:none;stroke-width:4;stroke-linecap:round;stroke-linejoin:round;stroke-miterlimit:4;stroke-dasharray:none;stroke-dashoffset:0;stroke-opacity:1"
         sodipodi:type="arc" />
    </g>
    <path
       style="opacity:1;fill:#d2f2f2;fill-opacity:1;fill-rule:nonzero;stroke:none;stroke-width:4;stroke-linecap:round;stroke-linejoin:round;stroke-miterlimit:4;stroke-dasharray:none;stroke-dashoffset:0;stroke-opacity:1"
       d="M 461,183.375 C 440.024,183.375 423,186.511 423,190.375 C 423,191.5825 424.66768,192.69567 427.59375,193.6875 C 416.31689,194.72156 408,198.21969 408,202.375 C 408,207.343 419.872,211.375 434.5,211.375 C 444.9694,211.375 454.00863,209.30816 458.3125,206.3125 C 463.34492,209.89312 473.61459,212.375 485.5,212.375 C 502.336,212.375 516,207.447 516,201.375 C 516,196.99088 508.85981,193.20454 498.5625,191.4375 C 498.85098,191.09003 499,190.73725 499,190.375 C 499,186.511 481.976,183.375 461,183.375 z M 456.375,197.28125 C 456.62689,197.28691 456.87162,197.30776 457.125,197.3125 C 457.03932,197.39051 456.95584,197.48363 456.875,197.5625 C 456.70683,197.47244 456.55221,197.36911 456.375,197.28125 z"
       id="path3395" />
    <path
       style="opacity:1;fill:#d2f2f2;fill-opacity:1;fill-rule:nonzero;stroke:none;stroke-width:4;stroke-linecap:round;stroke-linejoin:round;stroke-miterlimit:4;stroke-dasharray:none;stroke-dashoffset:0;stroke-opacity:1"
       d="M 108.5,192.375 C 98.84,192.375 91,199.543 91,208.375 C 91,210.18264 91.332285,211.91021 91.9375,213.53125 C 78.349074,215.33895 69,219.07293 69,223.375 C 69,229.447 87.592,234.375 110.5,234.375 C 133.408,234.375 152,229.447 152,223.375 C 152,222.27984 151.37586,221.21728 150.25,220.21875 C 164.26811,219.44506 175,215.34446 175,210.375 C 175,204.855 161.784,200.375 145.5,200.375 C 137.54202,200.375 130.33937,201.41786 125.03125,203.15625 C 122.66735,196.87683 116.16739,192.375 108.5,192.375 z"
       id="path3402" />
    <path
       style="opacity:1;fill:#d2f2f2;fill-opacity:1;fill-rule:nonzero;stroke:none;stroke-width:4;stroke-linecap:round;stroke-linejoin:round;stroke-miterlimit:4;stroke-dasharray:none;stroke-dashoffset:0;stroke-opacity:1"
       d="M 257.5,296.375 C 251.50066,296.375 246.16217,298.5899 242.78125,302.0625 C 238.36366,299.75975 232.68769,298.375 226.5,298.375 C 212.424,298.375 201,305.543 201,314.375 C 201,323.207 212.424,330.375 226.5,330.375 C 227.47762,330.375 228.42591,330.31731 229.375,330.25 C 232.75327,335.54703 242.04822,339.375 253,339.375 C 266.8,339.375 278,333.327 278,325.875 C 278,323.00973 276.32272,320.34241 273.5,318.15625 C 275.09292,316.01451 276,313.53119 276,310.875 C 276,302.871 267.712,296.375 257.5,296.375 z"
       id="path3409" />
  </g>
</svg>
