<?xml version="1.0" encoding="UTF-8" standalone="no"?>
<!-- Created with Inkscape (http://www.inkscape.org/) -->
<svg
   xmlns:dc="http://purl.org/dc/elements/1.1/"
   xmlns:cc="http://creativecommons.org/ns#"
   xmlns:rdf="http://www.w3.org/1999/02/22-rdf-syntax-ns#"
   xmlns:svg="http://www.w3.org/2000/svg"
   xmlns="http://www.w3.org/2000/svg"
   xmlns:sodipodi="http://sodipodi.sourceforge.net/DTD/sodipodi-0.dtd"
   xmlns:inkscape="http://www.inkscape.org/namespaces/inkscape"
   width="800px"
   height="600px"
   id="svg2383"
   sodipodi:version="0.32"
   inkscape:version="0.46"
   sodipodi:docname="newyear_en.svg"
   inkscape:output_extension="org.inkscape.output.svg.inkscape">
  <defs
     id="defs2385">
    <inkscape:perspective
       sodipodi:type="inkscape:persp3d"
       inkscape:vp_x="0 : 300 : 1"
       inkscape:vp_y="0 : 1000 : 0"
       inkscape:vp_z="800 : 300 : 1"
       inkscape:persp3d-origin="400 : 200 : 1"
       id="perspective2391" />
  </defs>
  <sodipodi:namedview
     id="base"
     pagecolor="#f09de8"
     bordercolor="#666666"
     borderopacity="1.0"
     inkscape:pageopacity="1"
     inkscape:pageshadow="2"
     inkscape:zoom="1.3291667"
     inkscape:cx="783.00001"
     inkscape:cy="332.47283"
     inkscape:current-layer="layer1"
     inkscape:document-units="px"
     showgrid="false"
     inkscape:window-width="1440"
     inkscape:window-height="851"
     inkscape:window-x="-4"
     inkscape:window-y="-4" />
  <metadata
     id="metadata2388">
    <rdf:RDF>
      <cc:Work
         rdf:about="">
        <dc:format>image/svg+xml</dc:format>
        <dc:type
           rdf:resource="http://purl.org/dc/dcmitype/StillImage" />
      </cc:Work>
    </rdf:RDF>
  </metadata>
  <g
     id="layer1"
     inkscape:label="Layer 1"
     inkscape:groupmode="layer">
    <g
       id="g3556"
       inkscape:export-filename="C:\Documents and Settings\Justin\My Documents\My Pictures\_doodles\hny_en.png"
       inkscape:export-xdpi="180"
       inkscape:export-ydpi="180"
       transform="translate(-39,-55)">
      <rect
         y="149.35719"
         x="64.81144"
         height="300"
         width="400"
         id="rect3357"
         style="opacity:1;fill:#bbe7e7;fill-opacity:1;fill-rule:nonzero;stroke:none;stroke-width:0.5;stroke-linecap:round;stroke-linejoin:round;stroke-miterlimit:4;stroke-dasharray:none;stroke-dashoffset:0;stroke-opacity:1" />
      <path
         sodipodi:nodetypes="ccccc"
         id="rect3346"
         d="M 64.81144,250.43973 C 183.58074,304.25948 348.281,211.34526 464.81144,327.8757 L 464.81144,449.35719 L 64.81144,449.35719 L 64.81144,250.43973 z"
         style="fill:#15b515;fill-opacity:1;fill-rule:nonzero;stroke:none;stroke-width:0.5;stroke-linecap:round;stroke-linejoin:round;stroke-miterlimit:4;stroke-dashoffset:0;stroke-opacity:1" />
      <path
         sodipodi:nodetypes="cccccccc"
         id="path3351"
         d="M 137.06744,399.66586 L 146.57525,423.74923 L 171.3324,416.167 L 158.43129,438.61624 L 115.70358,438.61624 L 102.80247,416.167 L 127.55963,423.74923 L 137.06744,399.66586 z"
         style="fill:#11a311;fill-opacity:1;fill-rule:nonzero;stroke:none;stroke-width:0.5;stroke-linecap:round;stroke-linejoin:round;stroke-miterlimit:4;stroke-dashoffset:0;stroke-opacity:1" />
      <path
         sodipodi:nodetypes="cccccccc"
         id="path3348"
         d="M 112.2321,305.38051 L 121.73991,329.46388 L 146.49706,321.88165 L 133.59595,344.33089 L 90.868243,344.33089 L 77.967133,321.88165 L 102.72429,329.46388 L 112.2321,305.38051 z"
         style="fill:#11a311;fill-opacity:1;fill-rule:nonzero;stroke:none;stroke-width:0.5;stroke-linecap:round;stroke-linejoin:round;stroke-miterlimit:4;stroke-dashoffset:0;stroke-opacity:1" />
      <g
         id="g3431">
        <path
           style="fill:#815e4c;fill-opacity:1;fill-rule:nonzero;stroke:none;stroke-width:1;stroke-linecap:round;stroke-linejoin:round;stroke-miterlimit:4;stroke-dasharray:none;stroke-dashoffset:0;stroke-opacity:1"
           d="M 384.51634,301.73599 C 384.88279,301.07407 385.16958,300.39213 385.42695,299.70405 C 380.98052,305.52674 372.83448,307.37754 366.23481,303.72384 C 359.63429,300.06964 356.87792,292.18462 359.4541,285.32495 C 359.0082,285.90771 358.60876,286.52927 358.24275,287.1904 C 354.22539,294.44693 356.82899,303.58873 364.08551,307.6061 C 371.34204,311.62346 380.49898,308.99252 384.51634,301.73599 z"
           id="path3248" />
        <path
           style="fill:#815e4c;fill-opacity:1;fill-rule:nonzero;stroke:none;stroke-width:1;stroke-linecap:round;stroke-linejoin:round;stroke-miterlimit:4;stroke-dashoffset:0;stroke-opacity:1"
           d="M 310.25056,415.4543 C 305.89705,411.10079 305.89705,352.09578 310.25056,347.74227 C 314.60408,343.38875 322.77574,343.38875 327.12926,347.74227 C 331.48278,352.09578 331.48278,411.10079 327.12926,415.4543 C 322.77574,419.80782 314.60408,419.80782 310.25056,415.4543 z"
           id="path3226"
           sodipodi:nodetypes="csssc" />
        <path
           style="fill:#815e4c;fill-opacity:1;fill-rule:nonzero;stroke:none;stroke-width:1;stroke-linecap:round;stroke-linejoin:round;stroke-miterlimit:4;stroke-dashoffset:0;stroke-opacity:1"
           d="M 195.41723,415.4543 C 191.06372,411.10079 191.06372,352.09578 195.41723,347.74227 C 199.77075,343.38875 207.94241,343.38875 212.29593,347.74227 C 216.64945,352.09578 216.64945,411.10079 212.29593,415.4543 C 207.94241,419.80782 199.77075,419.80782 195.41723,415.4543 z"
           id="path3222"
           sodipodi:nodetypes="csssc" />
        <path
           style="fill:#755545;fill-opacity:1;fill-rule:nonzero;stroke:none;stroke-width:1;stroke-linecap:round;stroke-linejoin:round;stroke-miterlimit:4;stroke-dashoffset:0;stroke-opacity:1"
           d="M 351.81523,365.96456 C 342.70874,381.73746 206.01229,390.67353 193.63665,378.29789 C 181.26102,365.92226 181.26102,273.99495 193.63665,261.61932 C 199.82447,255.43151 239.40021,282.3376 278.97594,282.3376 C 318.55168,282.3376 358.12741,275.4315 364.31523,281.61932 C 376.69086,293.99495 361.13838,349.81638 351.81523,365.96456 z"
           id="path3216"
           sodipodi:nodetypes="cssssz" />
        <path
           style="fill:#ffffff;fill-opacity:1;fill-rule:nonzero;stroke:none;stroke-width:1;stroke-linecap:round;stroke-linejoin:round;stroke-miterlimit:4;stroke-dasharray:none;stroke-dashoffset:0;stroke-opacity:1"
           d="M 226.89825,270.82745 C 226.05491,272.10347 225.29304,273.43552 224.64825,274.7962 C 226.82513,273.76709 229.11495,273.00074 231.4295,272.4837 C 229.88421,271.9313 228.38084,271.38076 226.89825,270.82745 z M 260.9295,280.6712 C 261.10321,280.83745 261.28989,281.00034 261.46075,281.1712 C 271.40288,291.11331 273.52139,305.92557 267.83575,317.95245 C 271.10136,316.40494 274.16652,314.30917 276.867,311.6087 C 284.82905,303.64665 287.7715,292.54055 285.71075,282.26495 C 283.47199,282.30574 281.20561,282.32745 278.96075,282.32745 C 272.90397,282.32745 266.8666,281.71652 260.9295,280.6712 z"
           id="path3240" />
        <path
           style="fill:#815e4c;fill-opacity:1;fill-rule:nonzero;stroke:none;stroke-width:1;stroke-linecap:round;stroke-linejoin:round;stroke-miterlimit:4;stroke-dashoffset:0;stroke-opacity:1"
           d="M 209.35138,316.64276 C 200.97265,316.64276 165.16612,313.96985 160.97675,306.71366 C 156.78739,299.45747 156.78739,212.11165 160.97675,204.85546 C 165.16612,197.59927 200.97265,186.92636 209.35138,186.92636 C 217.73011,186.92636 253.53664,197.59927 257.726,204.85546 C 261.91537,212.11165 261.91537,299.45747 257.726,306.71366 C 253.53664,313.96985 217.73011,316.64276 209.35138,316.64276 z"
           id="path3168"
           sodipodi:nodetypes="csssssc" />
        <path
           style="fill:#ffffff;fill-opacity:1;fill-rule:nonzero;stroke:none;stroke-width:1;stroke-linecap:round;stroke-linejoin:round;stroke-miterlimit:4;stroke-dashoffset:0;stroke-opacity:1"
           d="M 249.25941,263.25302 C 238.24805,254.96188 180.45469,254.96188 169.44333,263.25302 C 158.43198,271.54417 150.43198,306.02492 161.44334,314.31608 C 172.45469,322.60724 246.24805,322.60724 257.25941,314.31608 C 268.27077,306.02492 260.27077,271.54417 249.25941,263.25302 z"
           id="path2396"
           sodipodi:nodetypes="csssc" />
        <path
           style="fill:#453a28;fill-opacity:1;fill-rule:nonzero;stroke:none;stroke-width:0.73759639;stroke-linecap:round;stroke-linejoin:round;stroke-miterlimit:4;stroke-dashoffset:0;stroke-opacity:1"
           d="M 239.52041,312.88726 C 231.39847,319.00277 188.7703,319.00277 180.64836,312.88726 C 172.52642,306.77174 165.67527,270.79737 173.79721,264.68185 C 181.91914,258.56631 236.24962,258.56631 244.37156,264.68185 C 252.4935,270.79737 247.64235,306.77174 239.52041,312.88726 z"
           id="path2393"
           sodipodi:nodetypes="csssc" />
        <g
           id="g3183"
           transform="translate(24.768038,25.764945)">
          <path
             transform="translate(70,-74.166672)"
             d="M 96.666664,323.33334 A 7.5,7.5 0 1 1 81.666664,323.33334 A 7.5,7.5 0 1 1 96.666664,323.33334 z"
             sodipodi:ry="7.5"
             sodipodi:rx="7.5"
             sodipodi:cy="323.33334"
             sodipodi:cx="89.166664"
             id="path3177"
             style="opacity:1;fill:#000000;fill-opacity:1;fill-rule:nonzero;stroke:none;stroke-width:1;stroke-linecap:round;stroke-linejoin:round;stroke-miterlimit:4;stroke-dasharray:none;stroke-dashoffset:0;stroke-opacity:1"
             sodipodi:type="arc" />
          <path
             transform="translate(120.83334,-74.166672)"
             d="M 96.666664,323.33334 A 7.5,7.5 0 1 1 81.666664,323.33334 A 7.5,7.5 0 1 1 96.666664,323.33334 z"
             sodipodi:ry="7.5"
             sodipodi:rx="7.5"
             sodipodi:cy="323.33334"
             sodipodi:cx="89.166664"
             id="path3181"
             style="opacity:1;fill:#000000;fill-opacity:1;fill-rule:nonzero;stroke:none;stroke-width:1;stroke-linecap:round;stroke-linejoin:round;stroke-miterlimit:4;stroke-dasharray:none;stroke-dashoffset:0;stroke-opacity:1"
             sodipodi:type="arc" />
        </g>
        <g
           id="g3195"
           transform="translate(23.934701,25.764945)">
          <path
             transform="translate(56.250003,-100.83335)"
             d="M 96.666664,323.33334 A 7.5,7.5 0 1 1 81.666664,323.33334 A 7.5,7.5 0 1 1 96.666664,323.33334 z"
             sodipodi:ry="7.5"
             sodipodi:rx="7.5"
             sodipodi:cy="323.33334"
             sodipodi:cx="89.166664"
             id="path3189"
             style="fill:#000000;fill-opacity:1;fill-rule:nonzero;stroke:none;stroke-width:1;stroke-linecap:round;stroke-linejoin:round;stroke-miterlimit:4;stroke-dasharray:none;stroke-dashoffset:0;stroke-opacity:1"
             sodipodi:type="arc" />
          <path
             transform="translate(136.25001,-100.83335)"
             d="M 96.666664,323.33334 A 7.5,7.5 0 1 1 81.666664,323.33334 A 7.5,7.5 0 1 1 96.666664,323.33334 z"
             sodipodi:ry="7.5"
             sodipodi:rx="7.5"
             sodipodi:cy="323.33334"
             sodipodi:cx="89.166664"
             id="path3191"
             style="fill:#000000;fill-opacity:1;fill-rule:nonzero;stroke:none;stroke-width:1;stroke-linecap:round;stroke-linejoin:round;stroke-miterlimit:4;stroke-dasharray:none;stroke-dashoffset:0;stroke-opacity:1"
             sodipodi:type="arc" />
        </g>
        <g
           id="g3201"
           transform="translate(23.677802,15.764945)">
          <path
             transform="matrix(0.8660254,0.5,0.5,-0.8660254,-145.17476,426.68252)"
             sodipodi:end="6.2831853"
             sodipodi:start="3.1415927"
             d="M 91.666666,358.33334 A 30.833334,30.833334 0 0 1 153.33333,358.33334 L 122.5,358.33334 z"
             sodipodi:ry="30.833334"
             sodipodi:rx="30.833334"
             sodipodi:cy="358.33334"
             sodipodi:cx="122.5"
             id="path3173"
             style="opacity:1;fill:#815e4c;fill-opacity:1;fill-rule:nonzero;stroke:none;stroke-width:1;stroke-linecap:round;stroke-linejoin:round;stroke-miterlimit:4;stroke-dasharray:none;stroke-dashoffset:0;stroke-opacity:1"
             sodipodi:type="arc" />
          <path
             transform="matrix(-0.8660254,0.5,-0.5,-0.8660254,516.5219,426.68252)"
             sodipodi:end="6.2831853"
             sodipodi:start="3.1415927"
             d="M 91.666666,358.33334 A 30.833334,30.833334 0 0 1 153.33333,358.33334 L 122.5,358.33334 z"
             sodipodi:ry="30.833334"
             sodipodi:rx="30.833334"
             sodipodi:cy="358.33334"
             sodipodi:cx="122.5"
             id="path3199"
             style="opacity:1;fill:#815e4c;fill-opacity:1;fill-rule:nonzero;stroke:none;stroke-width:1;stroke-linecap:round;stroke-linejoin:round;stroke-miterlimit:4;stroke-dasharray:none;stroke-dashoffset:0;stroke-opacity:1"
             sodipodi:type="arc" />
        </g>
        <path
           style="fill:#ffaaaa;fill-opacity:1;fill-rule:nonzero;stroke:none;stroke-width:1;stroke-linecap:round;stroke-linejoin:round;stroke-miterlimit:4;stroke-dasharray:none;stroke-dashoffset:0;stroke-opacity:1"
           d="M 133.71075,185.13995 C 125.20075,199.87969 130.25225,218.75495 144.992,227.26495 C 149.18545,229.68604 153.71301,231.0125 158.242,231.32745 C 158.72354,217.79657 159.64758,207.1873 160.992,204.8587 C 161.42982,204.10037 162.21219,203.18368 163.27325,202.1712 L 160.4295,200.5462 L 133.71075,185.13995 z M 284.992,185.13995 L 258.3045,200.5462 L 255.46075,202.20245 C 256.50604,203.20294 257.27721,204.10779 257.71075,204.8587 C 259.05517,207.1873 259.97921,217.79657 260.46075,231.32745 C 264.98974,231.0125 269.5173,229.68604 273.71075,227.26495 C 288.4505,218.75495 293.502,199.87969 284.992,185.13995 z"
           id="path3208" />
        <path
           style="fill:#815e4c;fill-opacity:1;fill-rule:nonzero;stroke:none;stroke-width:1;stroke-linecap:round;stroke-linejoin:round;stroke-miterlimit:4;stroke-dashoffset:0;stroke-opacity:1"
           d="M 228.83389,422.9543 C 224.48038,418.60079 224.48038,359.59578 228.83389,355.24227 C 233.18741,350.88875 241.35907,350.88875 245.71259,355.24227 C 250.06611,359.59578 250.06611,418.60079 245.71259,422.9543 C 241.35907,427.30782 233.18741,427.30782 228.83389,422.9543 z"
           id="path3219"
           sodipodi:nodetypes="csssc" />
        <path
           sodipodi:type="arc"
           style="fill:#ffaaaa;fill-opacity:1;fill-rule:nonzero;stroke:none;stroke-width:1;stroke-linecap:round;stroke-linejoin:round;stroke-miterlimit:4;stroke-dasharray:none;stroke-dashoffset:0;stroke-opacity:1"
           id="path3228"
           sodipodi:cx="132.91667"
           sodipodi:cy="358.75"
           sodipodi:rx="15.416667"
           sodipodi:ry="15.416667"
           d="M 117.5,358.75 A 15.416667,15.416667 0 0 1 148.33334,358.75 L 132.91667,358.75 z"
           sodipodi:start="3.1415927"
           sodipodi:end="6.2831853"
           transform="matrix(1.3361299,-0.2022553,-0.2548416,-1.6835237,233.64471,1001.4019)" />
        <g
           id="g3236"
           transform="translate(23.647437,15.764945)">
          <path
             transform="matrix(0.2336059,-0.1359224,-0.4602134,-0.7962646,442.59365,676.2019)"
             sodipodi:end="6.2831853"
             sodipodi:start="3.1415927"
             d="M 117.5,358.75 A 15.416667,15.416667 0 0 1 148.33334,358.75 L 132.91667,358.75 z"
             sodipodi:ry="15.416667"
             sodipodi:rx="15.416667"
             sodipodi:cy="358.75"
             sodipodi:cx="132.91667"
             id="path3234"
             style="opacity:1;fill:#ffaaaa;fill-opacity:1;fill-rule:nonzero;stroke:none;stroke-width:1;stroke-linecap:round;stroke-linejoin:round;stroke-miterlimit:4;stroke-dasharray:none;stroke-dashoffset:0;stroke-opacity:1"
             sodipodi:type="arc" />
          <path
             transform="matrix(0.2345152,0.1343474,0.4594787,-0.7966888,88.153285,640.41739)"
             sodipodi:end="6.2831853"
             sodipodi:start="3.1415927"
             d="M 117.5,358.75 A 15.416667,15.416667 0 0 1 148.33334,358.75 L 132.91667,358.75 z"
             sodipodi:ry="15.416667"
             sodipodi:rx="15.416667"
             sodipodi:cy="358.75"
             sodipodi:cx="132.91667"
             id="path3230"
             style="opacity:1;fill:#ffaaaa;fill-opacity:1;fill-rule:nonzero;stroke:none;stroke-width:1;stroke-linecap:round;stroke-linejoin:round;stroke-miterlimit:4;stroke-dasharray:none;stroke-dashoffset:0;stroke-opacity:1"
             sodipodi:type="arc" />
        </g>
        <path
           sodipodi:type="arc"
           style="fill:#ffaaaa;fill-opacity:1;fill-rule:nonzero;stroke:none;stroke-width:1;stroke-linecap:round;stroke-linejoin:round;stroke-miterlimit:4;stroke-dasharray:none;stroke-dashoffset:0;stroke-opacity:1"
           id="path3232"
           sodipodi:cx="132.91667"
           sodipodi:cy="358.75"
           sodipodi:rx="15.416667"
           sodipodi:ry="15.416667"
           d="M 117.5,358.75 A 15.416667,15.416667 0 0 1 148.33334,358.75 L 132.91667,358.75 z"
           sodipodi:start="3.1415927"
           sodipodi:end="6.2831853"
           transform="matrix(0.2702698,-9.0929937e-4,-4.2420681e-4,-0.9196921,284.23037,722.90971)" />
        <path
           style="fill:#815e4c;fill-opacity:1;fill-rule:nonzero;stroke:none;stroke-width:1;stroke-linecap:round;stroke-linejoin:round;stroke-miterlimit:4;stroke-dashoffset:0;stroke-opacity:1"
           d="M 337.75056,422.95429 C 333.39705,418.60077 333.39705,359.59577 337.75056,355.24226 C 342.10408,350.88873 350.27574,350.88873 354.62926,355.24226 C 358.98278,359.59577 358.98278,418.60077 354.62926,422.95429 C 350.27574,427.30781 342.10408,427.30781 337.75056,422.95429 z"
           id="path3224"
           sodipodi:nodetypes="csssc" />
        <path
           sodipodi:type="star"
           style="fill:#755545;fill-opacity:1;fill-rule:nonzero;stroke:none;stroke-width:1;stroke-linecap:round;stroke-linejoin:round;stroke-miterlimit:4;stroke-dasharray:none;stroke-dashoffset:0;stroke-opacity:1"
           id="path3253"
           sodipodi:sides="3"
           sodipodi:cx="327.0369"
           sodipodi:cy="204.60947"
           sodipodi:r1="8.4368572"
           sodipodi:r2="4.2184286"
           sodipodi:arg1="2.0943951"
           sodipodi:arg2="3.1415927"
           inkscape:flatsided="true"
           inkscape:rounded="0.15"
           inkscape:randomized="0"
           d="M 322.81847,211.916 C 320.92017,210.82002 320.92017,198.39891 322.81847,197.30293 C 324.71676,196.20695 335.47375,202.41751 335.47375,204.60947 C 335.47375,206.80143 324.71676,213.01198 322.81847,211.916 z"
           transform="translate(57.521563,93.546691)" />
      </g>
      <path
         transform="matrix(1.9191984,-0.1799044,-8.6354114e-2,-0.9212153,-12.398892,599.90539)"
         sodipodi:end="6.2831853"
         sodipodi:start="3.1415927"
         d="M 101.66667,414.16666 A 20.833334,20.833334 0 0 1 143.33333,414.16666 L 122.5,414.16666 z"
         sodipodi:ry="20.833334"
         sodipodi:rx="20.833334"
         sodipodi:cy="414.16666"
         sodipodi:cx="122.5"
         id="path3257"
         style="fill:#3ec03e;fill-opacity:1;fill-rule:nonzero;stroke:none;stroke-width:1;stroke-linecap:round;stroke-linejoin:round;stroke-miterlimit:4;stroke-dasharray:none;stroke-dashoffset:0;stroke-opacity:1"
         sodipodi:type="arc" />
      <path
         id="path3264"
         d="M 206.77596,158.14946 C 184.60842,158.14946 166.59729,176.10037 166.59729,198.26788 L 187.49983,198.26788 L 206.77596,198.26788 L 226.05208,198.26788 C 226.05208,192.726 225.52198,187.47025 224.54613,182.66627 C 223.57028,177.86229 222.13421,173.53021 220.38972,169.89584 C 219.51747,168.07867 218.58408,166.46039 217.55853,165.01657 C 216.533,163.57276 215.45866,162.29833 214.3057,161.28182 C 213.15273,160.26532 211.88563,159.46779 210.63118,158.93254 C 209.37673,158.39731 208.10601,158.14946 206.77596,158.14946 z"
         style="fill:#309830;fill-opacity:1;fill-rule:nonzero;stroke:none;stroke-width:1;stroke-linecap:round;stroke-linejoin:round;stroke-miterlimit:4;stroke-dasharray:none;stroke-dashoffset:0;stroke-opacity:1" />
      <path
         id="path3255"
         d="M 206.77596,158.14946 C 208.10601,158.14946 209.37673,158.39731 210.63118,158.93254 C 211.88563,159.46779 213.15273,160.26532 214.3057,161.28182 C 215.45866,162.29833 216.533,163.57276 217.55853,165.01657 C 218.58408,166.46039 219.51747,168.07867 220.38972,169.89584 C 222.13421,173.53021 223.57028,177.86229 224.54613,182.66627 C 225.52198,187.47025 226.05208,192.726 226.05208,198.26788 L 246.95462,198.26788 C 246.95462,176.10034 228.9435,158.14944 206.77596,158.14946 z"
         style="fill:#c0bc3e;fill-opacity:1;fill-rule:nonzero;stroke:none;stroke-width:1;stroke-linecap:round;stroke-linejoin:round;stroke-miterlimit:4;stroke-dasharray:none;stroke-dashoffset:0;stroke-opacity:1" />
      <path
         sodipodi:nodetypes="cccccccccccccc"
         id="rect3267"
         d="M 169.70411,187.53835 L 172.11362,187.53835 L 173.96887,191.39357 L 176.93265,187.53835 L 179.34216,187.53835 L 177.95648,197.17641 L 175.54697,197.17641 L 176.10124,193.32118 L 174.61935,195.2488 L 172.20982,195.2488 L 171.28221,193.32118 L 170.72794,197.17641 L 168.31843,197.17641 L 169.70411,187.53835 z"
         style="fill:#c0bc3e;fill-opacity:1;fill-rule:nonzero;stroke:none;stroke-width:1;stroke-linecap:round;stroke-linejoin:round;stroke-miterlimit:4;stroke-dashoffset:0;stroke-opacity:1" />
      <path
         sodipodi:nodetypes="cccccccccccccc"
         id="path3270"
         d="M 180.60791,188.74311 L 179.56865,195.97165 L 180.60021,197.17641 L 187.82876,197.17641 L 189.20672,195.97165 L 190.24598,188.74311 L 189.21444,187.53835 L 181.98589,187.53835 L 180.60791,188.74311 z M 182.84423,189.94787 L 187.66325,189.94787 L 186.97041,194.7669 L 182.15139,194.7669 L 182.84423,189.94787 z"
         style="fill:#c0bc3e;fill-opacity:1;fill-rule:nonzero;stroke:none;stroke-width:1;stroke-linecap:round;stroke-linejoin:round;stroke-miterlimit:4;stroke-dashoffset:0;stroke-opacity:1" />
      <path
         sodipodi:nodetypes="cccccccccccccc"
         id="path3279"
         d="M 191.52641,188.7431 L 190.48715,195.97163 L 191.51871,197.1764 L 198.74724,197.1764 L 200.12522,195.97163 L 201.16448,188.7431 L 200.13292,187.53833 L 192.90439,187.53833 L 191.52641,188.7431 z M 193.76272,189.94785 L 198.58175,189.94785 L 197.88891,194.76687 L 193.06988,194.76687 L 193.76272,189.94785 z"
         style="fill:#c0bc3e;fill-opacity:1;fill-rule:nonzero;stroke:none;stroke-width:1;stroke-linecap:round;stroke-linejoin:round;stroke-miterlimit:4;stroke-dashoffset:0;stroke-opacity:1" />
      <path
         transform="matrix(1.4733068,0,-0.4688731,1.4733068,255.71784,-435.838)"
         d="M 91.581719,420.75981 C 90.416802,421.92473 81.763694,421.92473 80.598777,420.75981 C 79.433861,419.59489 79.433861,410.94179 80.598777,409.77687 C 81.763694,408.61195 90.416802,408.61195 91.581719,409.77687 C 92.746636,410.94179 92.746636,419.59489 91.581719,420.75981 z"
         inkscape:randomized="0"
         inkscape:rounded="0.15"
         inkscape:flatsided="true"
         sodipodi:arg2="1.5707963"
         sodipodi:arg1="0.78539816"
         sodipodi:r2="5.4914708"
         sodipodi:r1="7.7661123"
         sodipodi:cy="415.26834"
         sodipodi:cx="86.090248"
         sodipodi:sides="4"
         id="path3281"
         style="fill:#c0bc3e;fill-opacity:1;fill-rule:nonzero;stroke:none;stroke-width:1;stroke-linecap:round;stroke-linejoin:round;stroke-miterlimit:4;stroke-dasharray:none;stroke-dashoffset:0;stroke-opacity:1"
         sodipodi:type="star" />
      <path
         inkscape:transform-center-y="0.0001513108"
         inkscape:transform-center-x="8.4181875e-05"
         transform="matrix(1.1573219,0,-0.3683125,1.1573219,241.16133,-304.61931)"
         d="M 91.581719,420.75981 C 90.416802,421.92473 81.763694,421.92473 80.598777,420.75981 C 79.433861,419.59489 79.433861,410.94179 80.598777,409.77687 C 81.763694,408.61195 90.416802,408.61195 91.581719,409.77687 C 92.746636,410.94179 92.746636,419.59489 91.581719,420.75981 z"
         inkscape:randomized="0"
         inkscape:rounded="0.15"
         inkscape:flatsided="true"
         sodipodi:arg2="1.5707963"
         sodipodi:arg1="0.78539816"
         sodipodi:r2="5.4914708"
         sodipodi:r1="7.7661123"
         sodipodi:cy="415.26834"
         sodipodi:cx="86.090248"
         sodipodi:sides="4"
         id="path3283"
         style="fill:#c0bc3e;fill-opacity:1;fill-rule:nonzero;stroke:#309830;stroke-width:0.63651586;stroke-linecap:round;stroke-linejoin:round;stroke-miterlimit:4;stroke-dasharray:none;stroke-dashoffset:0;stroke-opacity:1"
         sodipodi:type="star" />
      <path
         inkscape:transform-center-y="0.08318308"
         inkscape:transform-center-x="-1.2119259"
         id="path3285"
         d="M 184.10935,169.81427 C 184.00282,169.93328 183.91061,170.05742 183.83595,170.18394 L 183.82585,170.17613 C 183.16128,170.91809 183.11332,171.86819 183.71892,172.2966 C 183.89113,172.41846 184.09793,172.48521 184.32078,172.50111 C 184.03126,173.31943 183.70651,174.34573 183.49006,175.13126 C 183.12778,175.74688 182.90717,176.43494 183.1521,176.67767 C 183.27632,176.80063 183.68802,176.88659 184.22253,176.93716 C 183.83412,178.15188 183.57786,179.37108 183.70522,179.80322 C 183.4133,180.67891 183.15862,181.64801 183.24143,181.76961 C 183.39095,181.98868 183.80208,181.98868 184.0909,181.76961 C 184.22991,181.66414 184.52035,180.92151 184.7682,180.15563 C 184.9223,180.16764 185.08938,180.17649 185.26775,180.18233 C 184.97588,181.05769 184.72161,182.02557 184.80456,182.14711 C 184.95395,182.36629 185.36515,182.36629 185.654,182.14711 C 185.8142,182.02557 186.17437,181.05769 186.43967,180.18233 C 187.29796,180.15951 188.2481,180.09211 189.11576,179.98882 C 189.12148,180.10442 189.143,180.21048 189.17665,180.30667 C 188.87791,180.64328 188.70096,180.96078 188.78203,181.01772 C 188.83648,181.05588 188.99432,180.96422 189.18301,180.80062 C 189.04863,181.29742 188.97151,181.69486 189.02253,181.76961 C 189.17195,181.98868 189.58311,181.98868 189.872,181.76961 C 189.97747,181.68956 190.17107,181.24128 190.36652,180.69523 C 190.37893,180.68872 190.39155,180.68314 190.40396,180.67638 C 190.43981,180.76979 190.48037,180.85002 190.52337,180.90909 C 190.34396,181.52723 190.22673,182.05927 190.28665,182.14711 C 190.43607,182.36629 190.84717,182.36629 191.13615,182.14711 C 191.3982,181.94836 192.20003,179.48533 192.23546,178.86568 C 192.69505,178.23718 193.28982,177.25074 193.64628,176.41953 C 193.86725,176.46896 194.13645,176.39896 194.36661,176.23711 C 194.36692,176.23693 194.36786,176.23746 194.36813,176.23711 C 194.54493,176.21157 195.03672,175.96057 195.06736,175.86433 C 195.10246,175.75397 194.66051,175.44101 194.5474,175.49621 C 194.45102,175.54318 194.29262,176.00298 194.29598,176.17258 C 194.10113,176.24891 193.90088,176.26197 193.73675,176.19944 C 193.94093,175.67396 194.02692,175.23601 193.8881,175.03214 C 193.68772,174.73844 191.80572,175.03096 189.92121,175.06527 C 189.80796,175.06722 189.69342,175.06839 189.58045,175.06839 C 189.5376,175.06839 189.49453,175.06796 189.45198,175.06676 C 189.41165,175.06562 189.37137,175.06269 189.33142,175.06042 C 189.24435,175.05567 189.15866,175.04946 189.07352,175.04002 C 189.04052,175.03648 189.00808,175.03163 188.97531,175.02743 C 188.87386,175.01416 188.77461,174.99749 188.6762,174.97867 C 188.95286,174.19818 189.26351,173.22001 189.48071,172.44603 C 189.50755,172.35016 189.53146,172.26114 189.55517,172.17236 C 189.53176,172.26008 189.50716,172.35139 189.48071,172.44603 C 189.4754,172.46466 189.47163,172.48219 189.46633,172.50111 C 189.69928,172.48521 189.94848,172.41846 190.19835,172.2966 C 191.07663,171.86819 191.63323,170.91809 191.44106,170.17613 L 191.42436,170.18394 C 191.43023,170.05742 191.41871,169.93328 191.38788,169.81427 L 189.79605,170.58984 L 189.33225,170.81641 C 188.79442,170.53161 187.9008,170.26577 187.60412,170.26577 C 187.30752,170.26577 186.24626,170.53168 185.52705,170.81641 L 185.20586,170.58984 L 184.10935,169.81427 z M 184.43958,172.17236 C 184.41441,172.24072 184.3891,172.31047 184.36307,172.38318 C 184.38898,172.31082 184.41451,172.24038 184.43958,172.17236 z"
         style="fill:#309830;fill-opacity:1;fill-rule:nonzero;stroke:none;stroke-width:1;stroke-linecap:round;stroke-linejoin:round;stroke-miterlimit:4;stroke-dasharray:none;stroke-dashoffset:0;stroke-opacity:1" />
      <path
         sodipodi:nodetypes="cccccccc"
         id="path3353"
         d="M 406.38525,320.40323 L 415.89306,344.4866 L 440.65021,336.90437 L 427.7491,359.35361 L 385.02139,359.35361 L 372.12028,336.90437 L 396.87743,344.4866 L 406.38525,320.40323 z"
         style="fill:#11a311;fill-opacity:1;fill-rule:nonzero;stroke:none;stroke-width:0.5;stroke-linecap:round;stroke-linejoin:round;stroke-miterlimit:4;stroke-dashoffset:0;stroke-opacity:1" />
      <path
         sodipodi:nodetypes="cccccccc"
         id="path3355"
         d="M 346.82879,395.72462 L 356.3366,419.80799 L 381.09375,412.22576 L 368.19264,434.675 L 325.46494,434.675 L 312.56382,412.22576 L 337.32098,419.80799 L 346.82879,395.72462 z"
         style="fill:#11a311;fill-opacity:1;fill-rule:nonzero;stroke:none;stroke-width:0.5;stroke-linecap:round;stroke-linejoin:round;stroke-miterlimit:4;stroke-dashoffset:0;stroke-opacity:1" />
      <path
         sodipodi:nodetypes="ccccccccccccc"
         id="path3529"
         d="M 290.01716,183.49537 L 297.51715,183.49537 L 297.51715,175.99537 L 312.51716,175.99537 L 312.51716,183.49537 L 320.01716,183.49537 L 320.01716,153.49538 L 312.51716,153.49538 L 312.51716,168.49537 L 297.51715,168.49537 L 297.51715,153.49538 L 290.01716,153.49538 L 290.01716,183.49537 z"
         style="fill:#caa0de;fill-opacity:1;fill-rule:nonzero;stroke:none;stroke-width:0.5;stroke-linecap:round;stroke-linejoin:round;stroke-miterlimit:4;stroke-dashoffset:0;stroke-opacity:1" />
      <path
         sodipodi:nodetypes="cccccccccccccccc"
         id="path3531"
         d="M 332.51715,160.99538 L 347.51716,160.99538 L 347.51716,168.49537 L 332.51715,168.49537 L 332.51715,160.99538 z M 347.51716,153.49539 L 332.51715,153.49539 L 325.01716,160.99539 L 325.01716,183.49537 L 332.51715,183.49537 L 332.51715,175.99537 L 347.51716,175.99537 L 347.51716,183.49537 L 355.01716,183.49537 L 355.01716,160.99539 L 347.51716,153.49539 z"
         style="fill:#caa0de;fill-opacity:1;fill-rule:nonzero;stroke:none;stroke-width:0.5;stroke-linecap:round;stroke-linejoin:round;stroke-miterlimit:4;stroke-dashoffset:0;stroke-opacity:1" />
      <path
         sodipodi:nodetypes="cccccccccccccc"
         id="path3533"
         d="M 367.51715,160.99538 L 382.51716,160.99538 L 382.51716,168.49537 L 367.51715,168.49537 L 367.51715,160.99538 z M 382.51716,153.4954 L 360.01716,153.4954 L 360.01716,183.49537 L 367.51715,183.49537 L 367.51715,175.99537 L 382.51716,175.99537 L 390.01716,168.49538 L 390.01716,160.9954 L 382.51716,153.4954 z"
         style="fill:#caa0de;fill-opacity:1;fill-rule:nonzero;stroke:none;stroke-width:0.5;stroke-linecap:round;stroke-linejoin:round;stroke-miterlimit:4;stroke-dashoffset:0;stroke-opacity:1" />
      <path
         sodipodi:nodetypes="cccccccccccccc"
         id="path3535"
         d="M 402.51716,160.99538 L 417.51716,160.99538 L 417.51716,168.49537 L 402.51716,168.49537 L 402.51716,160.99538 z M 417.51716,153.4954 L 395.01716,153.4954 L 395.01716,183.49537 L 402.51716,183.49537 L 402.51716,175.99537 L 417.51716,175.99537 L 425.01716,168.49538 L 425.01716,160.9954 L 417.51716,153.4954 z"
         style="fill:#caa0de;fill-opacity:1;fill-rule:nonzero;stroke:none;stroke-width:0.5;stroke-linecap:round;stroke-linejoin:round;stroke-miterlimit:4;stroke-dashoffset:0;stroke-opacity:1" />
      <path
         sodipodi:nodetypes="ccccccccccccc"
         id="path3537"
         d="M 430.01716,153.49538 L 437.51716,153.49542 L 437.51716,168.49539 L 452.51716,168.49539 L 452.51716,153.49538 L 460.01716,153.49538 L 460.01716,168.49537 L 452.51716,175.99537 L 452.51716,183.49537 L 437.51716,183.49537 L 437.51716,175.99538 L 430.01716,168.49539 L 430.01716,153.49538 z"
         style="fill:#caa0de;fill-opacity:1;fill-rule:nonzero;stroke:none;stroke-width:0.5;stroke-linecap:round;stroke-linejoin:round;stroke-miterlimit:4;stroke-dashoffset:0;stroke-opacity:1" />
      <path
         sodipodi:nodetypes="ccccccccccccccccc"
         id="path3539"
         d="M 325.01716,218.49537 L 332.51715,218.49537 L 332.51715,210.99536 L 336.26715,214.74537 L 343.76715,214.74537 L 347.51716,210.99536 L 347.51716,218.49537 L 355.01716,218.49537 L 355.01716,188.49538 L 347.51716,188.49538 L 340.01715,195.99537 L 332.51715,188.49538 L 325.01716,188.49538 L 325.01716,195.99537 L 325.01716,203.49537 L 325.01716,210.99536 L 325.01716,218.49537 z"
         style="fill:#caa0de;fill-opacity:1;fill-rule:nonzero;stroke:none;stroke-width:0.5;stroke-linecap:round;stroke-linejoin:round;stroke-miterlimit:4;stroke-dashoffset:0;stroke-opacity:1" />
      <path
         sodipodi:nodetypes="cccccccccc"
         id="path3541"
         d="M 367.51715,195.99538 L 382.51716,195.99538 L 382.51716,210.99537 L 367.51715,210.99537 L 367.51715,195.99538 z M 390.01716,188.49538 L 360.01716,188.49538 L 360.01716,218.49537 L 390.01716,218.49537 L 390.01716,188.49538 z"
         style="fill:#caa0de;fill-opacity:1;fill-rule:nonzero;stroke:none;stroke-width:0.5;stroke-linecap:round;stroke-linejoin:round;stroke-miterlimit:4;stroke-dashoffset:0;stroke-opacity:1" />
      <path
         sodipodi:nodetypes="cccccccccc"
         id="path3543"
         d="M 437.51716,195.99537 L 452.51716,195.99537 L 452.51716,210.99536 L 437.51716,210.99536 L 437.51716,195.99537 z M 460.01716,188.49538 L 430.01716,188.49538 L 430.01716,218.49537 L 460.01716,218.49537 L 460.01716,188.49538 z"
         style="fill:#caa0de;fill-opacity:1;fill-rule:nonzero;stroke:none;stroke-width:0.5;stroke-linecap:round;stroke-linejoin:round;stroke-miterlimit:4;stroke-dashoffset:0;stroke-opacity:1" />
      <path
         sodipodi:nodetypes="cccccccccc"
         id="path3545"
         d="M 402.51716,195.99538 L 417.51716,195.99538 L 417.51716,210.99537 L 402.51716,210.99537 L 402.51716,195.99538 z M 425.01716,188.49538 L 395.01716,188.49538 L 395.01716,218.49537 L 425.01716,218.49537 L 425.01716,188.49538 z"
         style="fill:#caa0de;fill-opacity:1;fill-rule:nonzero;stroke:none;stroke-width:0.5;stroke-linecap:round;stroke-linejoin:round;stroke-miterlimit:4;stroke-dashoffset:0;stroke-opacity:1" />
      <path
         sodipodi:nodetypes="ccccccccccccc"
         id="path3547"
         d="M 325.01716,223.49538 L 332.51715,223.49542 L 332.51715,238.49539 L 347.51716,238.49539 L 347.51716,223.49538 L 355.01716,223.49538 L 355.01716,238.49537 L 347.51716,245.99537 L 347.51716,253.49537 L 332.51715,253.49537 L 332.51715,245.99538 L 325.01716,238.49539 L 325.01716,223.49538 z"
         style="fill:#caa0de;fill-opacity:1;fill-rule:nonzero;stroke:none;stroke-width:0.5;stroke-linecap:round;stroke-linejoin:round;stroke-miterlimit:4;stroke-dashoffset:0;stroke-opacity:1" />
      <path
         sodipodi:nodetypes="ccccccccccccccc"
         id="path3549"
         d="M 360.01716,223.75178 L 374.88895,223.75178 L 382.32486,223.75178 L 389.76076,223.75178 L 389.76076,231.18768 L 374.88895,231.18768 L 374.88895,234.97556 L 389.76076,234.97556 L 389.76076,242.41145 L 374.88895,242.41145 L 374.88895,246.05947 L 389.78407,246.05947 L 390.01716,253.49537 L 360.01716,253.49537 L 360.01716,223.75178 z"
         style="fill:#caa0de;fill-opacity:1;fill-rule:nonzero;stroke:none;stroke-width:0.5;stroke-linecap:round;stroke-linejoin:round;stroke-miterlimit:4;stroke-dashoffset:0;stroke-opacity:1" />
      <path
         sodipodi:nodetypes="cccccccccccccccc"
         id="path3551"
         d="M 402.51716,230.99538 L 417.51716,230.99538 L 417.51716,238.49537 L 402.51716,238.49537 L 402.51716,230.99538 z M 417.51716,223.49539 L 402.51716,223.49539 L 395.01716,230.99539 L 395.01716,253.49537 L 402.51716,253.49537 L 402.51716,245.99537 L 417.51716,245.99537 L 417.51716,253.49537 L 425.01716,253.49537 L 425.01716,230.99539 L 417.51716,223.49539 z"
         style="fill:#caa0de;fill-opacity:1;fill-rule:nonzero;stroke:none;stroke-width:0.5;stroke-linecap:round;stroke-linejoin:round;stroke-miterlimit:4;stroke-dashoffset:0;stroke-opacity:1" />
      <path
         sodipodi:nodetypes="cccccccccccccccccc"
         id="path3553"
         d="M 437.51716,230.99538 L 452.51716,230.99538 L 452.51716,238.49537 L 437.51716,238.49537 L 437.51716,230.99538 z M 452.51716,223.49539 L 430.01716,223.49539 L 430.01716,253.49537 L 437.51716,253.49537 L 437.51716,245.99537 L 445.01716,245.99537 L 452.51716,253.49537 L 460.01716,253.49537 L 460.01716,245.99537 L 452.51716,245.99537 L 460.01716,238.49538 L 460.01716,230.99539 L 452.51716,223.49539 z"
         style="fill:#caa0de;fill-opacity:1;fill-rule:nonzero;stroke:none;stroke-width:0.5;stroke-linecap:round;stroke-linejoin:round;stroke-miterlimit:4;stroke-dashoffset:0;stroke-opacity:1" />
    </g>
    <text
       xml:space="preserve"
       style="font-size:11.60997772px;font-style:normal;font-weight:normal;fill:#000000;fill-opacity:1;stroke:none;stroke-width:1px;stroke-linecap:butt;stroke-linejoin:miter;stroke-opacity:1;font-family:Bitstream Vera Sans"
       x="502.94797"
       y="534.26306"
       id="text3745"><tspan
         sodipodi:role="line"
         id="tspan3747"
         x="502.94797"
         y="534.26306">アケ</tspan><tspan
         sodipodi:role="line"
         x="502.94797"
         y="548.77551"
         id="tspan3749" /></text>
    <text
       xml:space="preserve"
       style="font-size:7.10124826px;font-style:normal;font-weight:normal;fill:#000000;fill-opacity:1;stroke:none;stroke-width:1px;stroke-linecap:butt;stroke-linejoin:miter;stroke-opacity:1;font-family:Bitstream Vera Sans"
       x="502.62671"
       y="546.46777"
       id="text3806"><tspan
         sodipodi:role="line"
         id="tspan3808"
         x="502.62671"
         y="546.46777">オメ</tspan><tspan
         sodipodi:role="line"
         x="502.62671"
         y="555.34436"
         id="tspan3810">モウー</tspan></text>
    <path
       style="fill:#caa0de;fill-opacity:1;fill-rule:nonzero;stroke:none;stroke-width:0.5;stroke-linecap:round;stroke-linejoin:round;stroke-miterlimit:4;stroke-dashoffset:0;stroke-opacity:1"
       d="M 85.35071,516.44018 L 92.85071,516.44018 L 92.85071,508.94018 L 107.85071,508.94018 L 107.85071,516.44018 L 115.35071,516.44018 L 115.35071,486.44019 L 107.85071,486.44019 L 107.85071,501.44018 L 92.85071,501.44018 L 92.85071,486.44019 L 85.35071,486.44019 L 85.35071,516.44018 z"
       id="path3825"
       sodipodi:nodetypes="ccccccccccccc" />
    <path
       style="fill:#caa0de;fill-opacity:1;fill-rule:nonzero;stroke:none;stroke-width:0.5;stroke-linecap:round;stroke-linejoin:round;stroke-miterlimit:4;stroke-dashoffset:0;stroke-opacity:1"
       d="M 127.85071,493.94019 L 142.85071,493.94019 L 142.85071,501.44018 L 127.85071,501.44018 L 127.85071,493.94019 z M 142.85071,486.4402 L 127.85071,486.4402 L 120.35071,493.9402 L 120.35071,516.44018 L 127.85071,516.44018 L 127.85071,508.94018 L 142.85071,508.94018 L 142.85071,516.44018 L 150.35071,516.44018 L 150.35071,493.9402 L 142.85071,486.4402 z"
       id="path3827"
       sodipodi:nodetypes="cccccccccccccccc" />
    <path
       style="fill:#caa0de;fill-opacity:1;fill-rule:nonzero;stroke:none;stroke-width:0.5;stroke-linecap:round;stroke-linejoin:round;stroke-miterlimit:4;stroke-dashoffset:0;stroke-opacity:1"
       d="M 162.85071,493.94019 L 177.85071,493.94019 L 177.85071,501.44018 L 162.85071,501.44018 L 162.85071,493.94019 z M 177.85071,486.44021 L 155.35071,486.44021 L 155.35071,516.44018 L 162.85071,516.44018 L 162.85071,508.94018 L 177.85071,508.94018 L 185.35071,501.44019 L 185.35071,493.94021 L 177.85071,486.44021 z"
       id="path3829"
       sodipodi:nodetypes="cccccccccccccc" />
    <path
       style="fill:#caa0de;fill-opacity:1;fill-rule:nonzero;stroke:none;stroke-width:0.5;stroke-linecap:round;stroke-linejoin:round;stroke-miterlimit:4;stroke-dashoffset:0;stroke-opacity:1"
       d="M 197.85071,493.94019 L 212.85071,493.94019 L 212.85071,501.44018 L 197.85071,501.44018 L 197.85071,493.94019 z M 212.85071,486.44021 L 190.35071,486.44021 L 190.35071,516.44018 L 197.85071,516.44018 L 197.85071,508.94018 L 212.85071,508.94018 L 220.35071,501.44019 L 220.35071,493.94021 L 212.85071,486.44021 z"
       id="path3831"
       sodipodi:nodetypes="cccccccccccccc" />
    <path
       style="fill:#caa0de;fill-opacity:1;fill-rule:nonzero;stroke:none;stroke-width:0.5;stroke-linecap:round;stroke-linejoin:round;stroke-miterlimit:4;stroke-dashoffset:0;stroke-opacity:1"
       d="M 225.35071,486.44019 L 232.85071,486.44023 L 232.85071,501.4402 L 247.85071,501.4402 L 247.85071,486.44019 L 255.35071,486.44019 L 255.35071,501.44018 L 247.85071,508.94018 L 247.85071,516.44018 L 232.85071,516.44018 L 232.85071,508.94019 L 225.35071,501.4402 L 225.35071,486.44019 z"
       id="path3833"
       sodipodi:nodetypes="ccccccccccccc" />
    <path
       style="fill:#caa0de;fill-opacity:1;fill-rule:nonzero;stroke:none;stroke-width:0.5;stroke-linecap:round;stroke-linejoin:round;stroke-miterlimit:4;stroke-dashoffset:0;stroke-opacity:1"
       d="M 120.35071,551.44018 L 127.85071,551.44018 L 127.85071,543.94017 L 131.60071,547.69018 L 139.1007,547.69018 L 142.85071,543.94017 L 142.85071,551.44018 L 150.35071,551.44018 L 150.35071,521.44019 L 142.85071,521.44019 L 135.3507,528.94018 L 127.85071,521.44019 L 120.35071,521.44019 L 120.35071,528.94018 L 120.35071,536.44018 L 120.35071,543.94017 L 120.35071,551.44018 z"
       id="path3835"
       sodipodi:nodetypes="ccccccccccccccccc" />
    <path
       style="fill:#caa0de;fill-opacity:1;fill-rule:nonzero;stroke:none;stroke-width:0.5;stroke-linecap:round;stroke-linejoin:round;stroke-miterlimit:4;stroke-dashoffset:0;stroke-opacity:1"
       d="M 162.85071,528.94019 L 177.85071,528.94019 L 177.85071,543.94018 L 162.85071,543.94018 L 162.85071,528.94019 z M 185.35071,521.44019 L 155.35071,521.44019 L 155.35071,551.44018 L 185.35071,551.44018 L 185.35071,521.44019 z"
       id="path3837"
       sodipodi:nodetypes="cccccccccc" />
    <path
       style="fill:#caa0de;fill-opacity:1;fill-rule:nonzero;stroke:none;stroke-width:0.5;stroke-linecap:round;stroke-linejoin:round;stroke-miterlimit:4;stroke-dashoffset:0;stroke-opacity:1"
       d="M 232.85071,528.94018 L 247.85071,528.94018 L 247.85071,543.94017 L 232.85071,543.94017 L 232.85071,528.94018 z M 255.35071,521.44019 L 225.35071,521.44019 L 225.35071,551.44018 L 255.35071,551.44018 L 255.35071,521.44019 z"
       id="path3839"
       sodipodi:nodetypes="cccccccccc" />
    <path
       style="fill:#caa0de;fill-opacity:1;fill-rule:nonzero;stroke:none;stroke-width:0.5;stroke-linecap:round;stroke-linejoin:round;stroke-miterlimit:4;stroke-dashoffset:0;stroke-opacity:1"
       d="M 197.85071,528.94019 L 212.85071,528.94019 L 212.85071,543.94018 L 197.85071,543.94018 L 197.85071,528.94019 z M 220.35071,521.44019 L 190.35071,521.44019 L 190.35071,551.44018 L 220.35071,551.44018 L 220.35071,521.44019 z"
       id="path3841"
       sodipodi:nodetypes="cccccccccc" />
    <path
       style="fill:#caa0de;fill-opacity:1;fill-rule:nonzero;stroke:none;stroke-width:0.5;stroke-linecap:round;stroke-linejoin:round;stroke-miterlimit:4;stroke-dashoffset:0;stroke-opacity:1"
       d="M 120.35071,556.44019 L 127.85071,556.44023 L 127.85071,571.4402 L 142.85071,571.4402 L 142.85071,556.44019 L 150.35071,556.44019 L 150.35071,571.44018 L 142.85071,578.94018 L 142.85071,586.44018 L 127.85071,586.44018 L 127.85071,578.94019 L 120.35071,571.4402 L 120.35071,556.44019 z"
       id="path3843"
       sodipodi:nodetypes="ccccccccccccc" />
    <path
       style="fill:#caa0de;fill-opacity:1;fill-rule:nonzero;stroke:none;stroke-width:0.5;stroke-linecap:round;stroke-linejoin:round;stroke-miterlimit:4;stroke-dashoffset:0;stroke-opacity:1"
       d="M 155.35071,556.69659 L 170.2225,556.69659 L 177.65841,556.69659 L 185.09431,556.69659 L 185.09431,564.13249 L 170.2225,564.13249 L 170.2225,567.92037 L 185.09431,567.92037 L 185.09431,575.35626 L 170.2225,575.35626 L 170.2225,579.00428 L 185.11762,579.00428 L 185.35071,586.44018 L 155.35071,586.44018 L 155.35071,556.69659 z"
       id="path3845"
       sodipodi:nodetypes="ccccccccccccccc" />
    <path
       style="fill:#caa0de;fill-opacity:1;fill-rule:nonzero;stroke:none;stroke-width:0.5;stroke-linecap:round;stroke-linejoin:round;stroke-miterlimit:4;stroke-dashoffset:0;stroke-opacity:1"
       d="M 197.85071,563.94019 L 212.85071,563.94019 L 212.85071,571.44018 L 197.85071,571.44018 L 197.85071,563.94019 z M 212.85071,556.4402 L 197.85071,556.4402 L 190.35071,563.9402 L 190.35071,586.44018 L 197.85071,586.44018 L 197.85071,578.94018 L 212.85071,578.94018 L 212.85071,586.44018 L 220.35071,586.44018 L 220.35071,563.9402 L 212.85071,556.4402 z"
       id="path3847"
       sodipodi:nodetypes="cccccccccccccccc" />
    <path
       style="fill:#caa0de;fill-opacity:1;fill-rule:nonzero;stroke:none;stroke-width:0.5;stroke-linecap:round;stroke-linejoin:round;stroke-miterlimit:4;stroke-dashoffset:0;stroke-opacity:1"
       d="M 232.85071,563.94019 L 247.85071,563.94019 L 247.85071,571.44018 L 232.85071,571.44018 L 232.85071,563.94019 z M 247.85071,556.4402 L 225.35071,556.4402 L 225.35071,586.44018 L 232.85071,586.44018 L 232.85071,578.94018 L 240.35071,578.94018 L 247.85071,586.44018 L 255.35071,586.44018 L 255.35071,578.94018 L 247.85071,578.94018 L 255.35071,571.44019 L 255.35071,563.9402 L 247.85071,556.4402 z"
       id="path3849"
       sodipodi:nodetypes="cccccccccccccccccc" />
    <g
       id="g3884"
       transform="translate(281,7)">
      <path
         sodipodi:nodetypes="ccccccccccccccccccc"
         id="path3703"
         d="M 223.62183,556.2899 L 230.85036,556.2899 L 230.85036,557.49466 L 227.23609,557.49466 L 227.23609,558.69941 L 232.05164,558.69941 L 232.05164,559.90418 L 227.23609,559.90418 L 227.23609,564.72321 L 230.84108,564.72321 L 230.84108,565.92796 L 226.02206,565.92796 L 226.03134,559.90418 L 222.41359,559.90418 L 222.41359,558.69941 L 226.03134,558.69941 L 226.03134,557.49466 L 223.62183,557.49466 L 223.62183,556.2899 z"
         style="fill:#c0bc3e;fill-opacity:1;fill-rule:nonzero;stroke:none;stroke-width:1;stroke-linecap:round;stroke-linejoin:round;stroke-miterlimit:4;stroke-dashoffset:0;stroke-opacity:1" />
      <path
         sodipodi:nodetypes="ccccccccccccccccccc"
         id="path3870"
         d="M 245.73778,556.2899 L 252.96631,556.2899 L 252.96631,557.49467 L 249.35204,557.49467 L 249.35204,558.69942 L 254.16759,558.69942 L 254.16759,559.90418 L 249.35204,559.90418 L 249.35204,564.72321 L 252.95703,564.72321 L 252.95703,565.92796 L 248.13801,565.92796 L 248.14729,559.90418 L 244.52954,559.90418 L 244.52954,558.69942 L 248.14729,558.69942 L 248.14729,557.49467 L 245.73778,557.49467 L 245.73778,556.2899 z"
         style="fill:#c0bc3e;fill-opacity:1;fill-rule:nonzero;stroke:none;stroke-width:1;stroke-linecap:round;stroke-linejoin:round;stroke-miterlimit:4;stroke-dashoffset:0;stroke-opacity:1" />
      <path
         sodipodi:nodetypes="ccccccccccccccccccccc"
         id="path3872"
         d="M 237.08583,557.49466 L 237.08583,556.2899 L 238.29059,556.2899 L 238.29059,557.49466 L 243.10961,557.49466 L 243.10961,558.69942 L 243.10961,559.90418 L 243.10961,561.10893 L 243.10961,562.31369 L 239.49534,565.92796 L 238.29059,565.92796 L 238.29059,564.72321 L 241.90485,561.10893 L 241.90485,558.69942 L 234.67632,558.69942 L 234.67632,561.10893 L 233.47156,561.10893 L 233.47156,559.90418 L 233.47156,558.69942 L 233.47156,557.49466 L 237.08583,557.49466 z"
         style="fill:#c0bc3e;fill-opacity:1;fill-rule:nonzero;stroke:none;stroke-width:1;stroke-linecap:round;stroke-linejoin:round;stroke-miterlimit:4;stroke-dashoffset:0;stroke-opacity:1" />
      <path
         sodipodi:nodetypes="ccccccccccccccccccccc"
         id="path3874"
         d="M 259.20178,557.49467 L 259.20178,556.2899 L 260.40654,556.2899 L 260.40654,557.49467 L 265.22556,557.49467 L 265.22556,558.69942 L 265.22556,559.90418 L 265.22556,561.10893 L 265.22556,562.3137 L 261.61129,565.92796 L 260.40654,565.92796 L 260.40654,564.72321 L 264.0208,561.10893 L 264.0208,558.69942 L 256.79227,558.69942 L 256.79227,561.10893 L 255.58751,561.10893 L 255.58751,559.90418 L 255.58751,558.69942 L 255.58751,557.49467 L 259.20178,557.49467 z"
         style="fill:#c0bc3e;fill-opacity:1;fill-rule:nonzero;stroke:none;stroke-width:1;stroke-linecap:round;stroke-linejoin:round;stroke-miterlimit:4;stroke-dashoffset:0;stroke-opacity:1" />
    </g>
    <g
       id="g4210"
       inkscape:export-filename="C:\Documents and Settings\Justin\My Documents\My Pictures\_doodles\hny_jp2.png"
       inkscape:export-xdpi="180"
       inkscape:export-ydpi="180">
      <rect
         y="94.694656"
         x="439.33417"
         height="300"
         width="400"
         id="rect3635"
         style="fill:#bbe7e7;fill-opacity:1;fill-rule:nonzero;stroke:none;stroke-width:0.5;stroke-linecap:round;stroke-linejoin:round;stroke-miterlimit:4;stroke-dasharray:none;stroke-dashoffset:0;stroke-opacity:1" />
      <path
         sodipodi:nodetypes="ccccc"
         id="path3637"
         d="M 439.33417,195.77719 C 791.10347,192.59694 661.80373,298.68272 839.33417,273.21316 L 839.33417,394.69465 L 439.33417,394.69465 L 439.33417,195.77719 z"
         style="fill:#15b515;fill-opacity:1;fill-rule:nonzero;stroke:none;stroke-width:0.5;stroke-linecap:round;stroke-linejoin:round;stroke-miterlimit:4;stroke-dashoffset:0;stroke-opacity:1" />
      <path
         sodipodi:nodetypes="cccccccc"
         id="path3639"
         d="M 511.59017,345.00332 L 521.09798,369.08669 L 545.85513,361.50446 L 532.95402,383.9537 L 490.22631,383.9537 L 477.3252,361.50446 L 502.08236,369.08669 L 511.59017,345.00332 z"
         style="fill:#11a311;fill-opacity:1;fill-rule:nonzero;stroke:none;stroke-width:0.5;stroke-linecap:round;stroke-linejoin:round;stroke-miterlimit:4;stroke-dashoffset:0;stroke-opacity:1" />
      <path
         sodipodi:nodetypes="cccccccc"
         id="path3641"
         d="M 486.75483,250.71797 L 496.26264,274.80134 L 521.01979,267.21911 L 508.11868,289.66835 L 465.39097,289.66835 L 452.48986,267.21911 L 477.24702,274.80134 L 486.75483,250.71797 z"
         style="fill:#11a311;fill-opacity:1;fill-rule:nonzero;stroke:none;stroke-width:0.5;stroke-linecap:round;stroke-linejoin:round;stroke-miterlimit:4;stroke-dashoffset:0;stroke-opacity:1" />
      <g
         transform="translate(374.52273,-54.662542)"
         id="g3643">
        <path
           style="fill:#815e4c;fill-opacity:1;fill-rule:nonzero;stroke:none;stroke-width:1;stroke-linecap:round;stroke-linejoin:round;stroke-miterlimit:4;stroke-dasharray:none;stroke-dashoffset:0;stroke-opacity:1"
           d="M 384.51634,301.73599 C 384.88279,301.07407 385.16958,300.39213 385.42695,299.70405 C 380.98052,305.52674 372.83448,307.37754 366.23481,303.72384 C 359.63429,300.06964 356.87792,292.18462 359.4541,285.32495 C 359.0082,285.90771 358.60876,286.52927 358.24275,287.1904 C 354.22539,294.44693 356.82899,303.58873 364.08551,307.6061 C 371.34204,311.62346 380.49898,308.99252 384.51634,301.73599 z"
           id="path3645" />
        <path
           style="fill:#815e4c;fill-opacity:1;fill-rule:nonzero;stroke:none;stroke-width:1;stroke-linecap:round;stroke-linejoin:round;stroke-miterlimit:4;stroke-dashoffset:0;stroke-opacity:1"
           d="M 310.25056,415.4543 C 305.89705,411.10079 305.89705,352.09578 310.25056,347.74227 C 314.60408,343.38875 322.77574,343.38875 327.12926,347.74227 C 331.48278,352.09578 331.48278,411.10079 327.12926,415.4543 C 322.77574,419.80782 314.60408,419.80782 310.25056,415.4543 z"
           id="path3647"
           sodipodi:nodetypes="csssc" />
        <path
           style="fill:#815e4c;fill-opacity:1;fill-rule:nonzero;stroke:none;stroke-width:1;stroke-linecap:round;stroke-linejoin:round;stroke-miterlimit:4;stroke-dashoffset:0;stroke-opacity:1"
           d="M 195.41723,415.4543 C 191.06372,411.10079 191.06372,352.09578 195.41723,347.74227 C 199.77075,343.38875 207.94241,343.38875 212.29593,347.74227 C 216.64945,352.09578 216.64945,411.10079 212.29593,415.4543 C 207.94241,419.80782 199.77075,419.80782 195.41723,415.4543 z"
           id="path3649"
           sodipodi:nodetypes="csssc" />
        <path
           style="fill:#755545;fill-opacity:1;fill-rule:nonzero;stroke:none;stroke-width:1;stroke-linecap:round;stroke-linejoin:round;stroke-miterlimit:4;stroke-dashoffset:0;stroke-opacity:1"
           d="M 351.81523,365.96456 C 342.70874,381.73746 206.01229,390.67353 193.63665,378.29789 C 181.26102,365.92226 181.26102,273.99495 193.63665,261.61932 C 199.82447,255.43151 239.40021,282.3376 278.97594,282.3376 C 318.55168,282.3376 358.12741,275.4315 364.31523,281.61932 C 376.69086,293.99495 361.13838,349.81638 351.81523,365.96456 z"
           id="path3651"
           sodipodi:nodetypes="cssssz" />
        <path
           style="fill:#ffffff;fill-opacity:1;fill-rule:nonzero;stroke:none;stroke-width:1;stroke-linecap:round;stroke-linejoin:round;stroke-miterlimit:4;stroke-dasharray:none;stroke-dashoffset:0;stroke-opacity:1"
           d="M 226.89825,270.82745 C 226.05491,272.10347 225.29304,273.43552 224.64825,274.7962 C 226.82513,273.76709 229.11495,273.00074 231.4295,272.4837 C 229.88421,271.9313 228.38084,271.38076 226.89825,270.82745 z M 260.9295,280.6712 C 261.10321,280.83745 261.28989,281.00034 261.46075,281.1712 C 271.40288,291.11331 273.52139,305.92557 267.83575,317.95245 C 271.10136,316.40494 274.16652,314.30917 276.867,311.6087 C 284.82905,303.64665 287.7715,292.54055 285.71075,282.26495 C 283.47199,282.30574 281.20561,282.32745 278.96075,282.32745 C 272.90397,282.32745 266.8666,281.71652 260.9295,280.6712 z"
           id="path3653" />
        <path
           style="fill:#815e4c;fill-opacity:1;fill-rule:nonzero;stroke:none;stroke-width:1;stroke-linecap:round;stroke-linejoin:round;stroke-miterlimit:4;stroke-dashoffset:0;stroke-opacity:1"
           d="M 209.35138,316.64276 C 200.97265,316.64276 165.16612,313.96985 160.97675,306.71366 C 156.78739,299.45747 156.78739,212.11165 160.97675,204.85546 C 165.16612,197.59927 200.97265,186.92636 209.35138,186.92636 C 217.73011,186.92636 253.53664,197.59927 257.726,204.85546 C 261.91537,212.11165 261.91537,299.45747 257.726,306.71366 C 253.53664,313.96985 217.73011,316.64276 209.35138,316.64276 z"
           id="path3655"
           sodipodi:nodetypes="csssssc" />
        <path
           style="fill:#ffffff;fill-opacity:1;fill-rule:nonzero;stroke:none;stroke-width:1;stroke-linecap:round;stroke-linejoin:round;stroke-miterlimit:4;stroke-dashoffset:0;stroke-opacity:1"
           d="M 249.25941,263.25302 C 238.24805,254.96188 180.45469,254.96188 169.44333,263.25302 C 158.43198,271.54417 150.43198,306.02492 161.44334,314.31608 C 172.45469,322.60724 246.24805,322.60724 257.25941,314.31608 C 268.27077,306.02492 260.27077,271.54417 249.25941,263.25302 z"
           id="path3657"
           sodipodi:nodetypes="csssc" />
        <path
           style="fill:#453a28;fill-opacity:1;fill-rule:nonzero;stroke:none;stroke-width:0.73759639;stroke-linecap:round;stroke-linejoin:round;stroke-miterlimit:4;stroke-dashoffset:0;stroke-opacity:1"
           d="M 239.52041,312.88726 C 231.39847,319.00277 188.7703,319.00277 180.64836,312.88726 C 172.52642,306.77174 165.67527,270.79737 173.79721,264.68185 C 181.91914,258.56631 236.24962,258.56631 244.37156,264.68185 C 252.4935,270.79737 247.64235,306.77174 239.52041,312.88726 z"
           id="path3659"
           sodipodi:nodetypes="csssc" />
        <g
           id="g3661"
           transform="translate(24.768038,25.764945)">
          <path
             transform="translate(70,-74.166672)"
             d="M 96.666664,323.33334 A 7.5,7.5 0 1 1 81.666664,323.33334 A 7.5,7.5 0 1 1 96.666664,323.33334 z"
             sodipodi:ry="7.5"
             sodipodi:rx="7.5"
             sodipodi:cy="323.33334"
             sodipodi:cx="89.166664"
             id="path3663"
             style="opacity:1;fill:#000000;fill-opacity:1;fill-rule:nonzero;stroke:none;stroke-width:1;stroke-linecap:round;stroke-linejoin:round;stroke-miterlimit:4;stroke-dasharray:none;stroke-dashoffset:0;stroke-opacity:1"
             sodipodi:type="arc" />
          <path
             transform="translate(120.83334,-74.166672)"
             d="M 96.666664,323.33334 A 7.5,7.5 0 1 1 81.666664,323.33334 A 7.5,7.5 0 1 1 96.666664,323.33334 z"
             sodipodi:ry="7.5"
             sodipodi:rx="7.5"
             sodipodi:cy="323.33334"
             sodipodi:cx="89.166664"
             id="path3665"
             style="opacity:1;fill:#000000;fill-opacity:1;fill-rule:nonzero;stroke:none;stroke-width:1;stroke-linecap:round;stroke-linejoin:round;stroke-miterlimit:4;stroke-dasharray:none;stroke-dashoffset:0;stroke-opacity:1"
             sodipodi:type="arc" />
        </g>
        <g
           id="g3667"
           transform="translate(23.934701,25.764945)">
          <path
             transform="translate(56.250003,-100.83335)"
             d="M 96.666664,323.33334 A 7.5,7.5 0 1 1 81.666664,323.33334 A 7.5,7.5 0 1 1 96.666664,323.33334 z"
             sodipodi:ry="7.5"
             sodipodi:rx="7.5"
             sodipodi:cy="323.33334"
             sodipodi:cx="89.166664"
             id="path3669"
             style="fill:#000000;fill-opacity:1;fill-rule:nonzero;stroke:none;stroke-width:1;stroke-linecap:round;stroke-linejoin:round;stroke-miterlimit:4;stroke-dasharray:none;stroke-dashoffset:0;stroke-opacity:1"
             sodipodi:type="arc" />
          <path
             transform="translate(136.25001,-100.83335)"
             d="M 96.666664,323.33334 A 7.5,7.5 0 1 1 81.666664,323.33334 A 7.5,7.5 0 1 1 96.666664,323.33334 z"
             sodipodi:ry="7.5"
             sodipodi:rx="7.5"
             sodipodi:cy="323.33334"
             sodipodi:cx="89.166664"
             id="path3671"
             style="fill:#000000;fill-opacity:1;fill-rule:nonzero;stroke:none;stroke-width:1;stroke-linecap:round;stroke-linejoin:round;stroke-miterlimit:4;stroke-dasharray:none;stroke-dashoffset:0;stroke-opacity:1"
             sodipodi:type="arc" />
        </g>
        <g
           id="g3673"
           transform="translate(23.677802,15.764945)">
          <path
             transform="matrix(0.8660254,0.5,0.5,-0.8660254,-145.17476,426.68252)"
             sodipodi:end="6.2831853"
             sodipodi:start="3.1415927"
             d="M 91.666666,358.33334 A 30.833334,30.833334 0 0 1 153.33333,358.33334 L 122.5,358.33334 z"
             sodipodi:ry="30.833334"
             sodipodi:rx="30.833334"
             sodipodi:cy="358.33334"
             sodipodi:cx="122.5"
             id="path3675"
             style="opacity:1;fill:#815e4c;fill-opacity:1;fill-rule:nonzero;stroke:none;stroke-width:1;stroke-linecap:round;stroke-linejoin:round;stroke-miterlimit:4;stroke-dasharray:none;stroke-dashoffset:0;stroke-opacity:1"
             sodipodi:type="arc" />
          <path
             transform="matrix(-0.8660254,0.5,-0.5,-0.8660254,516.5219,426.68252)"
             sodipodi:end="6.2831853"
             sodipodi:start="3.1415927"
             d="M 91.666666,358.33334 A 30.833334,30.833334 0 0 1 153.33333,358.33334 L 122.5,358.33334 z"
             sodipodi:ry="30.833334"
             sodipodi:rx="30.833334"
             sodipodi:cy="358.33334"
             sodipodi:cx="122.5"
             id="path3677"
             style="opacity:1;fill:#815e4c;fill-opacity:1;fill-rule:nonzero;stroke:none;stroke-width:1;stroke-linecap:round;stroke-linejoin:round;stroke-miterlimit:4;stroke-dasharray:none;stroke-dashoffset:0;stroke-opacity:1"
             sodipodi:type="arc" />
        </g>
        <path
           style="fill:#ffaaaa;fill-opacity:1;fill-rule:nonzero;stroke:none;stroke-width:1;stroke-linecap:round;stroke-linejoin:round;stroke-miterlimit:4;stroke-dasharray:none;stroke-dashoffset:0;stroke-opacity:1"
           d="M 133.71075,185.13995 C 125.20075,199.87969 130.25225,218.75495 144.992,227.26495 C 149.18545,229.68604 153.71301,231.0125 158.242,231.32745 C 158.72354,217.79657 159.64758,207.1873 160.992,204.8587 C 161.42982,204.10037 162.21219,203.18368 163.27325,202.1712 L 160.4295,200.5462 L 133.71075,185.13995 z M 284.992,185.13995 L 258.3045,200.5462 L 255.46075,202.20245 C 256.50604,203.20294 257.27721,204.10779 257.71075,204.8587 C 259.05517,207.1873 259.97921,217.79657 260.46075,231.32745 C 264.98974,231.0125 269.5173,229.68604 273.71075,227.26495 C 288.4505,218.75495 293.502,199.87969 284.992,185.13995 z"
           id="path3679" />
        <path
           style="fill:#815e4c;fill-opacity:1;fill-rule:nonzero;stroke:none;stroke-width:1;stroke-linecap:round;stroke-linejoin:round;stroke-miterlimit:4;stroke-dashoffset:0;stroke-opacity:1"
           d="M 228.83389,422.9543 C 224.48038,418.60079 224.48038,359.59578 228.83389,355.24227 C 233.18741,350.88875 241.35907,350.88875 245.71259,355.24227 C 250.06611,359.59578 250.06611,418.60079 245.71259,422.9543 C 241.35907,427.30782 233.18741,427.30782 228.83389,422.9543 z"
           id="path3681"
           sodipodi:nodetypes="csssc" />
        <path
           sodipodi:type="arc"
           style="fill:#ffaaaa;fill-opacity:1;fill-rule:nonzero;stroke:none;stroke-width:1;stroke-linecap:round;stroke-linejoin:round;stroke-miterlimit:4;stroke-dasharray:none;stroke-dashoffset:0;stroke-opacity:1"
           id="path3683"
           sodipodi:cx="132.91667"
           sodipodi:cy="358.75"
           sodipodi:rx="15.416667"
           sodipodi:ry="15.416667"
           d="M 117.5,358.75 A 15.416667,15.416667 0 0 1 148.33334,358.75 L 132.91667,358.75 z"
           sodipodi:start="3.1415927"
           sodipodi:end="6.2831853"
           transform="matrix(1.3361299,-0.2022553,-0.2548416,-1.6835237,233.64471,1001.4019)" />
        <g
           id="g3685"
           transform="translate(23.647437,15.764945)">
          <path
             transform="matrix(0.2336059,-0.1359224,-0.4602134,-0.7962646,442.59365,676.2019)"
             sodipodi:end="6.2831853"
             sodipodi:start="3.1415927"
             d="M 117.5,358.75 A 15.416667,15.416667 0 0 1 148.33334,358.75 L 132.91667,358.75 z"
             sodipodi:ry="15.416667"
             sodipodi:rx="15.416667"
             sodipodi:cy="358.75"
             sodipodi:cx="132.91667"
             id="path3687"
             style="opacity:1;fill:#ffaaaa;fill-opacity:1;fill-rule:nonzero;stroke:none;stroke-width:1;stroke-linecap:round;stroke-linejoin:round;stroke-miterlimit:4;stroke-dasharray:none;stroke-dashoffset:0;stroke-opacity:1"
             sodipodi:type="arc" />
          <path
             transform="matrix(0.2345152,0.1343474,0.4594787,-0.7966888,88.153285,640.41739)"
             sodipodi:end="6.2831853"
             sodipodi:start="3.1415927"
             d="M 117.5,358.75 A 15.416667,15.416667 0 0 1 148.33334,358.75 L 132.91667,358.75 z"
             sodipodi:ry="15.416667"
             sodipodi:rx="15.416667"
             sodipodi:cy="358.75"
             sodipodi:cx="132.91667"
             id="path3689"
             style="opacity:1;fill:#ffaaaa;fill-opacity:1;fill-rule:nonzero;stroke:none;stroke-width:1;stroke-linecap:round;stroke-linejoin:round;stroke-miterlimit:4;stroke-dasharray:none;stroke-dashoffset:0;stroke-opacity:1"
             sodipodi:type="arc" />
        </g>
        <path
           sodipodi:type="arc"
           style="fill:#ffaaaa;fill-opacity:1;fill-rule:nonzero;stroke:none;stroke-width:1;stroke-linecap:round;stroke-linejoin:round;stroke-miterlimit:4;stroke-dasharray:none;stroke-dashoffset:0;stroke-opacity:1"
           id="path3691"
           sodipodi:cx="132.91667"
           sodipodi:cy="358.75"
           sodipodi:rx="15.416667"
           sodipodi:ry="15.416667"
           d="M 117.5,358.75 A 15.416667,15.416667 0 0 1 148.33334,358.75 L 132.91667,358.75 z"
           sodipodi:start="3.1415927"
           sodipodi:end="6.2831853"
           transform="matrix(0.2702698,-9.0929937e-4,-4.2420681e-4,-0.9196921,284.23037,722.90971)" />
        <path
           style="fill:#815e4c;fill-opacity:1;fill-rule:nonzero;stroke:none;stroke-width:1;stroke-linecap:round;stroke-linejoin:round;stroke-miterlimit:4;stroke-dashoffset:0;stroke-opacity:1"
           d="M 337.75056,422.95429 C 333.39705,418.60077 333.39705,359.59577 337.75056,355.24226 C 342.10408,350.88873 350.27574,350.88873 354.62926,355.24226 C 358.98278,359.59577 358.98278,418.60077 354.62926,422.95429 C 350.27574,427.30781 342.10408,427.30781 337.75056,422.95429 z"
           id="path3693"
           sodipodi:nodetypes="csssc" />
        <path
           sodipodi:type="star"
           style="fill:#755545;fill-opacity:1;fill-rule:nonzero;stroke:none;stroke-width:1;stroke-linecap:round;stroke-linejoin:round;stroke-miterlimit:4;stroke-dasharray:none;stroke-dashoffset:0;stroke-opacity:1"
           id="path3695"
           sodipodi:sides="3"
           sodipodi:cx="327.0369"
           sodipodi:cy="204.60947"
           sodipodi:r1="8.4368572"
           sodipodi:r2="4.2184286"
           sodipodi:arg1="2.0943951"
           sodipodi:arg2="3.1415927"
           inkscape:flatsided="true"
           inkscape:rounded="0.15"
           inkscape:randomized="0"
           d="M 322.81847,211.916 C 320.92017,210.82002 320.92017,198.39891 322.81847,197.30293 C 324.71676,196.20695 335.47375,202.41751 335.47375,204.60947 C 335.47375,206.80143 324.71676,213.01198 322.81847,211.916 z"
           transform="translate(57.521563,93.546691)" />
      </g>
      <path
         transform="matrix(1.9191984,-0.1799044,-8.6354114e-2,-0.9212153,362.12384,545.24285)"
         sodipodi:end="6.2831853"
         sodipodi:start="3.1415927"
         d="M 101.66667,414.16666 A 20.833334,20.833334 0 0 1 143.33333,414.16666 L 122.5,414.16666 z"
         sodipodi:ry="20.833334"
         sodipodi:rx="20.833334"
         sodipodi:cy="414.16666"
         sodipodi:cx="122.5"
         id="path3697"
         style="fill:#3ec03e;fill-opacity:1;fill-rule:nonzero;stroke:none;stroke-width:1;stroke-linecap:round;stroke-linejoin:round;stroke-miterlimit:4;stroke-dasharray:none;stroke-dashoffset:0;stroke-opacity:1"
         sodipodi:type="arc" />
      <path
         id="path3699"
         d="M 581.29869,103.48692 C 559.13115,103.48692 541.12002,121.43783 541.12002,143.60534 L 562.02256,143.60534 L 581.29869,143.60534 L 600.57481,143.60534 C 600.57481,138.06346 600.04471,132.80771 599.06886,128.00373 C 598.09301,123.19975 596.65694,118.86767 594.91245,115.2333 C 594.0402,113.41613 593.10681,111.79785 592.08126,110.35403 C 591.05573,108.91022 589.98139,107.63579 588.82843,106.61928 C 587.67546,105.60278 586.40836,104.80525 585.15391,104.27 C 583.89946,103.73477 582.62874,103.48692 581.29869,103.48692 z"
         style="fill:#309830;fill-opacity:1;fill-rule:nonzero;stroke:none;stroke-width:1;stroke-linecap:round;stroke-linejoin:round;stroke-miterlimit:4;stroke-dasharray:none;stroke-dashoffset:0;stroke-opacity:1" />
      <path
         id="path3701"
         d="M 581.29869,103.48692 C 582.62874,103.48692 583.89946,103.73477 585.15391,104.27 C 586.40836,104.80525 587.67546,105.60278 588.82843,106.61928 C 589.98139,107.63579 591.05573,108.91022 592.08126,110.35403 C 593.10681,111.79785 594.0402,113.41613 594.91245,115.2333 C 596.65694,118.86767 598.09301,123.19975 599.06886,128.00373 C 600.04471,132.80771 600.57481,138.06346 600.57481,143.60534 L 621.47735,143.60534 C 621.47735,121.4378 603.46623,103.4869 581.29869,103.48692 z"
         style="fill:#c0bc3e;fill-opacity:1;fill-rule:nonzero;stroke:none;stroke-width:1;stroke-linecap:round;stroke-linejoin:round;stroke-miterlimit:4;stroke-dasharray:none;stroke-dashoffset:0;stroke-opacity:1" />
      <path
         transform="matrix(1.4733068,0,-0.4688731,1.4733068,630.24057,-490.50054)"
         d="M 91.581719,420.75981 C 90.416802,421.92473 81.763694,421.92473 80.598777,420.75981 C 79.433861,419.59489 79.433861,410.94179 80.598777,409.77687 C 81.763694,408.61195 90.416802,408.61195 91.581719,409.77687 C 92.746636,410.94179 92.746636,419.59489 91.581719,420.75981 z"
         inkscape:randomized="0"
         inkscape:rounded="0.15"
         inkscape:flatsided="true"
         sodipodi:arg2="1.5707963"
         sodipodi:arg1="0.78539816"
         sodipodi:r2="5.4914708"
         sodipodi:r1="7.7661123"
         sodipodi:cy="415.26834"
         sodipodi:cx="86.090248"
         sodipodi:sides="4"
         id="path3709"
         style="fill:#c0bc3e;fill-opacity:1;fill-rule:nonzero;stroke:none;stroke-width:1;stroke-linecap:round;stroke-linejoin:round;stroke-miterlimit:4;stroke-dasharray:none;stroke-dashoffset:0;stroke-opacity:1"
         sodipodi:type="star" />
      <path
         inkscape:transform-center-y="0.0001513108"
         inkscape:transform-center-x="8.4181875e-05"
         transform="matrix(1.1573219,0,-0.3683125,1.1573219,615.68406,-359.28185)"
         d="M 91.581719,420.75981 C 90.416802,421.92473 81.763694,421.92473 80.598777,420.75981 C 79.433861,419.59489 79.433861,410.94179 80.598777,409.77687 C 81.763694,408.61195 90.416802,408.61195 91.581719,409.77687 C 92.746636,410.94179 92.746636,419.59489 91.581719,420.75981 z"
         inkscape:randomized="0"
         inkscape:rounded="0.15"
         inkscape:flatsided="true"
         sodipodi:arg2="1.5707963"
         sodipodi:arg1="0.78539816"
         sodipodi:r2="5.4914708"
         sodipodi:r1="7.7661123"
         sodipodi:cy="415.26834"
         sodipodi:cx="86.090248"
         sodipodi:sides="4"
         id="path3711"
         style="fill:#c0bc3e;fill-opacity:1;fill-rule:nonzero;stroke:#309830;stroke-width:0.63651586;stroke-linecap:round;stroke-linejoin:round;stroke-miterlimit:4;stroke-dasharray:none;stroke-dashoffset:0;stroke-opacity:1"
         sodipodi:type="star" />
      <path
         inkscape:transform-center-y="0.08318308"
         inkscape:transform-center-x="-1.2119259"
         id="path3713"
         d="M 558.63208,115.15173 C 558.52555,115.27074 558.43334,115.39488 558.35868,115.5214 L 558.34858,115.51359 C 557.68401,116.25555 557.63605,117.20565 558.24165,117.63406 C 558.41386,117.75592 558.62066,117.82267 558.84351,117.83857 C 558.55399,118.65689 558.22924,119.68319 558.01279,120.46872 C 557.65051,121.08434 557.4299,121.7724 557.67483,122.01513 C 557.79905,122.13809 558.21075,122.22405 558.74526,122.27462 C 558.35685,123.48934 558.10059,124.70854 558.22795,125.14068 C 557.93603,126.01637 557.68135,126.98547 557.76416,127.10707 C 557.91368,127.32614 558.32481,127.32614 558.61363,127.10707 C 558.75264,127.0016 559.04308,126.25897 559.29093,125.49309 C 559.44503,125.5051 559.61211,125.51395 559.79048,125.51979 C 559.49861,126.39515 559.24434,127.36303 559.32729,127.48457 C 559.47668,127.70375 559.88788,127.70375 560.17673,127.48457 C 560.33693,127.36303 560.6971,126.39515 560.9624,125.51979 C 561.82069,125.49697 562.77083,125.42957 563.63849,125.32628 C 563.64421,125.44188 563.66573,125.54794 563.69938,125.64413 C 563.40064,125.98074 563.22369,126.29824 563.30476,126.35518 C 563.35921,126.39334 563.51705,126.30168 563.70574,126.13808 C 563.57136,126.63488 563.49424,127.03232 563.54526,127.10707 C 563.69468,127.32614 564.10584,127.32614 564.39473,127.10707 C 564.5002,127.02702 564.6938,126.57874 564.88925,126.03269 C 564.90166,126.02618 564.91428,126.0206 564.92669,126.01384 C 564.96254,126.10725 565.0031,126.18748 565.0461,126.24655 C 564.86669,126.86469 564.74946,127.39673 564.80938,127.48457 C 564.9588,127.70375 565.3699,127.70375 565.65888,127.48457 C 565.92093,127.28582 566.72276,124.82279 566.75819,124.20314 C 567.21778,123.57464 567.81255,122.5882 568.16901,121.75699 C 568.38998,121.80642 568.65918,121.73642 568.88934,121.57457 C 568.88965,121.57439 568.89059,121.57492 568.89086,121.57457 C 569.06766,121.54903 569.55945,121.29803 569.59009,121.20179 C 569.62519,121.09143 569.18324,120.77847 569.07013,120.83367 C 568.97375,120.88064 568.81535,121.34044 568.81871,121.51004 C 568.62386,121.58637 568.42361,121.59943 568.25948,121.5369 C 568.46366,121.01142 568.54965,120.57347 568.41083,120.3696 C 568.21045,120.0759 566.32845,120.36842 564.44394,120.40273 C 564.33069,120.40468 564.21615,120.40585 564.10318,120.40585 C 564.06033,120.40585 564.01726,120.40542 563.97471,120.40422 C 563.93438,120.40308 563.8941,120.40015 563.85415,120.39788 C 563.76708,120.39313 563.68139,120.38692 563.59625,120.37748 C 563.56325,120.37394 563.53081,120.36909 563.49804,120.36489 C 563.39659,120.35162 563.29734,120.33495 563.19893,120.31613 C 563.47559,119.53564 563.78624,118.55747 564.00344,117.78349 C 564.03028,117.68762 564.05419,117.5986 564.0779,117.50982 C 564.05449,117.59754 564.02989,117.68885 564.00344,117.78349 C 563.99813,117.80212 563.99436,117.81965 563.98906,117.83857 C 564.22201,117.82267 564.47121,117.75592 564.72108,117.63406 C 565.59936,117.20565 566.15596,116.25555 565.96379,115.51359 L 565.94709,115.5214 C 565.95296,115.39488 565.94144,115.27074 565.91061,115.15173 L 564.31878,115.9273 L 563.85498,116.15387 C 563.31715,115.86907 562.42353,115.60323 562.12685,115.60323 C 561.83025,115.60323 560.76899,115.86914 560.04978,116.15387 L 559.72859,115.9273 L 558.63208,115.15173 z M 558.96231,117.50982 C 558.93714,117.57818 558.91183,117.64793 558.8858,117.72064 C 558.91171,117.64828 558.93724,117.57784 558.96231,117.50982 z"
         style="fill:#309830;fill-opacity:1;fill-rule:nonzero;stroke:none;stroke-width:1;stroke-linecap:round;stroke-linejoin:round;stroke-miterlimit:4;stroke-dasharray:none;stroke-dashoffset:0;stroke-opacity:1" />
      <path
         sodipodi:nodetypes="cccccccc"
         id="path3715"
         d="M 796.90798,291.74069 L 806.41579,315.82406 L 831.17294,308.24183 L 818.27183,330.69107 L 775.54412,330.69107 L 762.64301,308.24183 L 787.40016,315.82406 L 796.90798,291.74069 z"
         style="fill:#11a311;fill-opacity:1;fill-rule:nonzero;stroke:none;stroke-width:0.5;stroke-linecap:round;stroke-linejoin:round;stroke-miterlimit:4;stroke-dashoffset:0;stroke-opacity:1" />
      <path
         sodipodi:nodetypes="cccccccc"
         id="path3717"
         d="M 721.35152,341.06208 L 730.85933,365.14545 L 755.61648,357.56322 L 742.71537,380.01246 L 699.98767,380.01246 L 687.08655,357.56322 L 711.84371,365.14545 L 721.35152,341.06208 z"
         style="fill:#11a311;fill-opacity:1;fill-rule:nonzero;stroke:none;stroke-width:0.5;stroke-linecap:round;stroke-linejoin:round;stroke-miterlimit:4;stroke-dashoffset:0;stroke-opacity:1" />
      <path
         sodipodi:nodetypes="ccccccccccccccccccc"
         id="path3876"
         d="M 545.3163,132.63059 L 552.54483,132.63059 L 552.08353,133.83535 L 548.46926,133.83535 L 548.00797,135.0401 L 552.82352,135.0401 L 552.36221,136.24487 L 547.54666,136.24487 L 545.70148,141.0639 L 549.30647,141.0639 L 548.84517,142.26865 L 544.02615,142.26865 L 546.34191,136.24487 L 542.72416,136.24487 L 543.18547,135.0401 L 546.80322,135.0401 L 547.26451,133.83535 L 544.855,133.83535 L 545.3163,132.63059 z"
         style="fill:#c0bc3e;fill-opacity:1;fill-rule:nonzero;stroke:none;stroke-width:1;stroke-linecap:round;stroke-linejoin:round;stroke-miterlimit:4;stroke-dashoffset:0;stroke-opacity:1" />
      <path
         sodipodi:nodetypes="ccccccccccccccccccc"
         id="path3878"
         d="M 567.43225,132.63059 L 574.66078,132.63059 L 574.19948,133.83536 L 570.58521,133.83536 L 570.12391,135.04011 L 574.93946,135.04011 L 574.47816,136.24487 L 569.66261,136.24487 L 567.81743,141.0639 L 571.42242,141.0639 L 570.96112,142.26865 L 566.1421,142.26865 L 568.45786,136.24487 L 564.84011,136.24487 L 565.30141,135.04011 L 568.91916,135.04011 L 569.38046,133.83536 L 566.97095,133.83536 L 567.43225,132.63059 z"
         style="fill:#c0bc3e;fill-opacity:1;fill-rule:nonzero;stroke:none;stroke-width:1;stroke-linecap:round;stroke-linejoin:round;stroke-miterlimit:4;stroke-dashoffset:0;stroke-opacity:1" />
      <path
         sodipodi:nodetypes="ccccccccccccccccccccc"
         id="path3880"
         d="M 558.319,133.83535 L 558.7803,132.63059 L 559.98506,132.63059 L 559.52376,133.83535 L 564.34278,133.83535 L 563.88148,135.04011 L 563.42018,136.24487 L 562.95889,137.44962 L 562.49759,138.65438 L 557.49943,142.26865 L 556.29468,142.26865 L 556.75598,141.0639 L 561.75413,137.44962 L 562.67672,135.04011 L 555.44819,135.04011 L 554.5256,137.44962 L 553.32084,137.44962 L 553.78213,136.24487 L 554.24343,135.04011 L 554.70473,133.83535 L 558.319,133.83535 z"
         style="fill:#c0bc3e;fill-opacity:1;fill-rule:nonzero;stroke:none;stroke-width:1;stroke-linecap:round;stroke-linejoin:round;stroke-miterlimit:4;stroke-dashoffset:0;stroke-opacity:1" />
      <path
         sodipodi:nodetypes="ccccccccccccccccccccc"
         id="path3882"
         d="M 580.43495,133.83536 L 580.89625,132.63059 L 582.10101,132.63059 L 581.63971,133.83536 L 586.45873,133.83536 L 585.99743,135.04011 L 585.53613,136.24487 L 585.07484,137.44962 L 584.61354,138.65439 L 579.61538,142.26865 L 578.41063,142.26865 L 578.87193,141.0639 L 583.87008,137.44962 L 584.79267,135.04011 L 577.56414,135.04011 L 576.64155,137.44962 L 575.43679,137.44962 L 575.89808,136.24487 L 576.35938,135.04011 L 576.82068,133.83536 L 580.43495,133.83536 z"
         style="fill:#c0bc3e;fill-opacity:1;fill-rule:nonzero;stroke:none;stroke-width:1;stroke-linecap:round;stroke-linejoin:round;stroke-miterlimit:4;stroke-dashoffset:0;stroke-opacity:1" />
      <path
         sodipodi:nodetypes="cccccccccccccccc"
         id="rect4143"
         d="M 783.9375,153.0625 L 783.9375,153.0625 L 768,165 L 768,161.25 L 779.625,147.6875 L 775.5,142.5 L 775.5,138.75 L 781.84375,145.09375 L 790.5,135 L 798,135 L 798,142.5 L 787.28125,150.53125 L 787.28125,150.53125 L 791.30078,154.55078 L 790.5,161.25 L 783.9375,153.0625 z"
         style="opacity:1;fill:#caa0de;fill-opacity:1;fill-rule:nonzero;stroke:none;stroke-width:0.50000000000000000;stroke-linecap:round;stroke-linejoin:round;stroke-miterlimit:4;stroke-dasharray:none;stroke-dashoffset:0;stroke-opacity:1" />
      <path
         sodipodi:nodetypes="ccccccccccccccc"
         id="path3892"
         d="M 797.99999,255 L 797.99999,247.5 L 783,247.5 L 783,240 L 775.5,240 L 775.5,247.5 L 768,247.5 L 768,255 L 768,262.5 L 775.5,262.5 L 775.5,255 L 790.49999,255 L 783,270 L 790.49999,270 L 797.99999,255 z"
         style="fill:#caa0de;fill-opacity:1;fill-rule:nonzero;stroke:none;stroke-width:0.5;stroke-linecap:round;stroke-linejoin:round;stroke-miterlimit:4;stroke-dashoffset:0;stroke-opacity:1" />
      <path
         sodipodi:nodetypes="cccccccccccccccccccccccc"
         id="path3894"
         d="M 779.25,235 L 783,235 L 790.49999,235 L 797.99999,235 L 797.99999,227.5 L 783,227.5 L 783,220 L 797.99999,220 L 797.99999,212.5 L 783,212.5 L 783,208.75 L 790.49999,208.75 L 790.49999,205 L 786.74999,205 L 783,205 L 779.25,205 L 775.5,205 L 775.5,208.75 L 779.25,208.75 L 779.25,212.5 L 768,212.5 L 768,220 L 779.25,220 L 779.25,235 z"
         style="fill:#caa0de;fill-opacity:1;fill-rule:nonzero;stroke:none;stroke-width:0.5;stroke-linecap:round;stroke-linejoin:round;stroke-miterlimit:4;stroke-dashoffset:0;stroke-opacity:1" />
      <path
         sodipodi:nodetypes="cccccccccccccccccc"
         id="path3900"
         d="M 768,130 L 779.25,115 L 768,115 L 768,107.5 L 783,107.5 L 783,100 L 790.49999,100 L 790.49999,107.5 L 797.99999,107.5 L 797.99999,115 L 790.49999,115 L 790.49999,130 L 783,130 L 779.25,126.25 L 783,126.25 L 783,118.75 L 775.5,130 L 768,130 z"
         style="fill:#caa0de;fill-opacity:1;fill-rule:nonzero;stroke:none;stroke-width:0.5;stroke-linecap:round;stroke-linejoin:round;stroke-miterlimit:4;stroke-dashoffset:0;stroke-opacity:1" />
      <path
         sodipodi:nodetypes="ccccccccccccc"
         id="path3902"
         d="M 810.5,220 L 803,212.5 L 803,220 L 810.5,220 z M 810.5,212.5 L 818,212.5 L 810.5,205 L 810.5,212.5 z M 832.99999,212.5 L 803,227.5 L 803,235 L 810.49999,235 L 832.99999,212.5 z"
         style="fill:#caa0de;fill-opacity:1;fill-rule:nonzero;stroke:none;stroke-width:0.5;stroke-linecap:round;stroke-linejoin:round;stroke-miterlimit:4;stroke-dashoffset:0;stroke-opacity:1" />
      <path
         sodipodi:nodetypes="ccccccccccccccccccc"
         id="path3904"
         d="M 803,170 L 803,177.5 L 825.49999,177.5 L 810.5,188.75 L 806.75,185 L 806.75,192.5 L 814.25,200 L 818,196.25 L 814.25,192.5 L 832.99999,177.5 L 832.99999,170 L 829.24999,170 L 825.49999,170 L 821.74999,170 L 818,170 L 814.25,170 L 810.5,170 L 806.75,170 L 803,170 z"
         style="fill:#caa0de;fill-opacity:1;fill-rule:nonzero;stroke:none;stroke-width:0.5;stroke-linecap:round;stroke-linejoin:round;stroke-miterlimit:4;stroke-dashoffset:0;stroke-opacity:1" />
      <path
         sodipodi:nodetypes="ccccccccccccccc"
         id="path3906"
         d="M 803,100 L 803,107.5 L 825.49999,107.5 L 821.74999,111.25 L 825.49999,115 L 818,115 L 818,130 L 825.49999,130 L 825.49999,115 L 832.99999,107.5 L 832.99999,100 L 825.49999,100 L 818,100 L 810.5,100 L 803,100 z"
         style="fill:#caa0de;fill-opacity:1;fill-rule:nonzero;stroke:none;stroke-width:0.5;stroke-linecap:round;stroke-linejoin:round;stroke-miterlimit:4;stroke-dashoffset:0;stroke-opacity:1" />
      <path
         sodipodi:nodetypes="cccccccccccccc"
         id="path3908"
         d="M 803,135 L 803,142.5 L 803,150 L 810.5,150 L 810.5,146.25 L 818,146.25 L 810.5,165 L 818,165 L 825.49999,146.25 L 832.99999,146.25 L 832.99999,138.75 L 810.5,138.75 L 810.5,135 L 803,135 z"
         style="fill:#caa0de;fill-opacity:1;fill-rule:nonzero;stroke:none;stroke-width:0.5;stroke-linecap:round;stroke-linejoin:round;stroke-miterlimit:4;stroke-dashoffset:0;stroke-opacity:1" />
      <path
         sodipodi:nodetypes="ccccccccccccccc"
         id="path3910"
         d="M 832.99999,247.5 L 832.99999,255 L 825.49999,255 L 818,270 L 810.5,270 L 818,255 L 803,255 L 803,247.5 L 832.99999,247.5 z M 825.49999,243.75 L 810.5,243.75 L 810.5,240 L 818,240 L 825.49999,240 L 825.49999,243.75 z"
         style="fill:#caa0de;fill-opacity:1;fill-rule:nonzero;stroke:none;stroke-width:0.5;stroke-linecap:round;stroke-linejoin:round;stroke-miterlimit:4;stroke-dashoffset:0;stroke-opacity:1" />
      <path
         sodipodi:nodetypes="cccccccccccccccccccccccc"
         id="path3939"
         d="M 790.49999,170 L 790.49999,171.875 L 790.49999,172.8125 L 790.49999,173.75 L 775.5,173.75 L 775.5,170 L 783,170 L 790.49999,170 z M 792.37499,176.5625 L 792.37499,173.75 L 797.99999,176.5625 L 792.37499,176.5625 z M 792.37499,170 L 797.99999,172.8125 L 792.37499,172.8125 M 797.99999,177.5 L 797.99999,185 L 790.49999,185 L 783,200 L 775.5,200 L 783,185 L 768,185 L 768,177.5 L 797.99999,177.5 z"
         style="fill:#caa0de;fill-opacity:1;fill-rule:nonzero;stroke:none;stroke-width:0.5;stroke-linecap:round;stroke-linejoin:round;stroke-miterlimit:4;stroke-dashoffset:0;stroke-opacity:1" />
    </g>
    <g
       id="g4063"
       transform="translate(6.5,-11)">
      <path
         sodipodi:nodetypes="ccccccccccccccc"
         id="path4065"
         d="M 29.99999,585 L 29.99999,577.5 L 14.999995,577.5 L 14.999995,570 L 7.4999975,570 L 7.4999975,577.5 L 0,577.5 L 0,585 L 0,592.5 L 7.4999975,592.5 L 7.4999975,585 L 22.499993,585 L 14.999995,600 L 22.499993,600 L 29.99999,585 z"
         style="fill:#caa0de;fill-opacity:1;fill-rule:nonzero;stroke:none;stroke-width:0.5;stroke-linecap:round;stroke-linejoin:round;stroke-miterlimit:4;stroke-dashoffset:0;stroke-opacity:1" />
      <path
         sodipodi:nodetypes="cccccccccccccccccccccccc"
         id="path4067"
         d="M 11.249996,565 L 14.999995,565 L 22.499992,565 L 29.99999,565 L 29.99999,557.5 L 14.999995,557.5 L 14.999995,550 L 29.99999,550 L 29.99999,542.5 L 14.999995,542.5 L 14.999995,538.75 L 22.499992,538.75 L 22.499992,535 L 18.749994,535 L 14.999995,535 L 11.249996,535 L 7.4999975,535 L 7.4999975,538.75 L 11.249996,538.75 L 11.249996,542.5 L 0,542.5 L 0,550 L 11.249996,550 L 11.249996,565 z"
         style="fill:#caa0de;fill-opacity:1;fill-rule:nonzero;stroke:none;stroke-width:0.5;stroke-linecap:round;stroke-linejoin:round;stroke-miterlimit:4;stroke-dashoffset:0;stroke-opacity:1" />
      <path
         sodipodi:nodetypes="ccccccccccccc"
         id="path4069"
         d="M 7.5000125,472.5 L 15.000005,480 L 2e-05,495 L 18.750001,483.75 L 22.499997,495 L 29.99999,487.5 L 22.499997,480 L 29.99999,472.5 L 29.99999,465 L 22.499997,465 L 18.750001,476.25 L 7.5000125,465 L 7.5000125,472.5 z"
         style="fill:#caa0de;fill-opacity:1;fill-rule:nonzero;stroke:none;stroke-width:0.5;stroke-linecap:round;stroke-linejoin:round;stroke-miterlimit:4;stroke-dashoffset:0;stroke-opacity:1" />
      <path
         sodipodi:nodetypes="cccccccccccccccccc"
         id="path4071"
         d="M 0,460 L 11.249996,445 L 0,445 L 0,437.5 L 14.999995,437.5 L 14.999995,430 L 22.499993,430 L 22.499993,437.5 L 29.99999,437.5 L 29.99999,445 L 22.499993,445 L 22.499993,460 L 14.999995,460 L 11.249996,456.25 L 14.999995,456.25 L 14.999995,448.75 L 7.4999975,460 L 0,460 z"
         style="fill:#caa0de;fill-opacity:1;fill-rule:nonzero;stroke:none;stroke-width:0.5;stroke-linecap:round;stroke-linejoin:round;stroke-miterlimit:4;stroke-dashoffset:0;stroke-opacity:1" />
      <path
         sodipodi:nodetypes="ccccccccccccc"
         id="path4073"
         d="M 42.499997,550 L 35,542.5 L 35,550 L 42.499997,550 z M 42.499997,542.5 L 49.999995,542.5 L 42.499997,535 L 42.499997,542.5 z M 64.99999,542.5 L 35,557.5 L 35,565 L 42.49999,565 L 64.99999,542.5 z"
         style="fill:#caa0de;fill-opacity:1;fill-rule:nonzero;stroke:none;stroke-width:0.5;stroke-linecap:round;stroke-linejoin:round;stroke-miterlimit:4;stroke-dashoffset:0;stroke-opacity:1" />
      <path
         sodipodi:nodetypes="ccccccccccccccccccc"
         id="path4075"
         d="M 35,500 L 35,507.5 L 57.499992,507.5 L 42.499997,518.75 L 38.749999,515 L 38.749999,522.5 L 46.249996,530 L 49.999995,526.25 L 46.249996,522.5 L 64.99999,507.5 L 64.99999,500 L 61.249991,500 L 57.499992,500 L 53.749994,500 L 49.999995,500 L 46.249996,500 L 42.499997,500 L 38.749999,500 L 35,500 z"
         style="fill:#caa0de;fill-opacity:1;fill-rule:nonzero;stroke:none;stroke-width:0.5;stroke-linecap:round;stroke-linejoin:round;stroke-miterlimit:4;stroke-dashoffset:0;stroke-opacity:1" />
      <path
         sodipodi:nodetypes="ccccccccccccccc"
         id="path4077"
         d="M 35,430 L 35,437.5 L 57.499992,437.5 L 53.749994,441.25 L 57.499992,445 L 49.999995,445 L 49.999995,460 L 57.499992,460 L 57.499992,445 L 64.99999,437.5 L 64.99999,430 L 57.499992,430 L 49.999995,430 L 42.499997,430 L 35,430 z"
         style="fill:#caa0de;fill-opacity:1;fill-rule:nonzero;stroke:none;stroke-width:0.5;stroke-linecap:round;stroke-linejoin:round;stroke-miterlimit:4;stroke-dashoffset:0;stroke-opacity:1" />
      <path
         sodipodi:nodetypes="cccccccccccccc"
         id="path4079"
         d="M 35,465 L 35,472.5 L 35,480 L 42.499997,480 L 42.499997,476.25 L 49.999995,476.25 L 42.499997,495 L 49.999995,495 L 57.499992,476.25 L 64.99999,476.25 L 64.99999,468.75 L 42.499997,468.75 L 42.499997,465 L 35,465 z"
         style="fill:#caa0de;fill-opacity:1;fill-rule:nonzero;stroke:none;stroke-width:0.5;stroke-linecap:round;stroke-linejoin:round;stroke-miterlimit:4;stroke-dashoffset:0;stroke-opacity:1" />
      <path
         sodipodi:nodetypes="ccccccccccccccc"
         id="path4081"
         d="M 64.99999,577.5 L 64.99999,585 L 57.499992,585 L 49.999995,600 L 42.499997,600 L 49.999995,585 L 35,585 L 35,577.5 L 64.99999,577.5 z M 57.499992,573.75 L 42.499997,573.75 L 42.499997,570 L 49.999995,570 L 57.499992,570 L 57.499992,573.75 z"
         style="fill:#caa0de;fill-opacity:1;fill-rule:nonzero;stroke:none;stroke-width:0.5;stroke-linecap:round;stroke-linejoin:round;stroke-miterlimit:4;stroke-dashoffset:0;stroke-opacity:1" />
      <path
         sodipodi:nodetypes="cccccccccccccccccccccccc"
         id="path4083"
         d="M 22.499992,500 L 22.499992,501.875 L 22.499992,502.8125 L 22.499992,503.75 L 7.499997,503.75 L 7.499997,500 L 14.999995,500 L 22.499992,500 z M 24.374992,506.5625 L 24.374992,503.75 L 29.99999,506.5625 L 24.374992,506.5625 z M 24.374992,500 L 29.99999,502.8125 L 24.374992,502.8125 M 29.99999,507.5 L 29.99999,515 L 22.499992,515 L 14.999995,530 L 7.499997,530 L 14.999995,515 L 0,515 L 0,507.5 L 29.99999,507.5 z"
         style="fill:#caa0de;fill-opacity:1;fill-rule:nonzero;stroke:none;stroke-width:0.5;stroke-linecap:round;stroke-linejoin:round;stroke-miterlimit:4;stroke-dashoffset:0;stroke-opacity:1" />
    </g>
    <path
       transform="translate(768,-330)"
       style="fill:#caa0de;fill-opacity:1;fill-rule:nonzero;stroke:none;stroke-width:0.5;stroke-linecap:round;stroke-linejoin:round;stroke-miterlimit:4;stroke-dashoffset:0;stroke-opacity:1"
       d="M 783.78685,150.87353 L 787.53684,150.87353 L 800.66183,139.62353 L 806.28682,150.87353 L 813.78682,150.87353 L 813.78682,143.37353 L 804.41183,135.87353 L 813.78682,128.37353 L 813.78682,120.87353 L 806.28682,120.87353 L 800.66183,132.12353 L 791.28684,120.87353 L 791.28684,128.37353 L 798.78683,135.87353 L 783.78685,150.87353 z M 783.78685,117.4745 L 783.78685,119.21872 L 813.78682,119.21872 L 813.78682,117.4745"
       id="path4141"
       sodipodi:nodetypes="ccccccccccccccccccc" />
    <path
       style="fill:#caa0de;fill-opacity:1;fill-rule:nonzero;stroke:none;stroke-width:0.5;stroke-linecap:round;stroke-linejoin:round;stroke-miterlimit:4;stroke-dashoffset:0;stroke-opacity:1"
       d="M 296.40752,457.87148 L 311.40752,457.87148 L 311.40752,465.37148 L 309.53252,467.24648 L 307.65752,465.37148 L 303.90752,465.37148 L 303.90752,469.12148 L 305.78252,470.99648 L 303.90752,472.87148 L 296.40752,472.87148 L 296.40752,457.87148 z M 318.90752,450.37148 L 288.90752,450.37148 L 288.90752,480.37148 L 296.40752,480.37148 L 303.90752,480.37148 L 307.65752,480.37148 L 311.40752,476.62148 L 315.15752,480.37148 L 318.90752,480.37148 L 318.90752,476.62148 L 315.15752,472.87148 L 318.90752,469.12148 L 318.90752,465.37148 L 318.90752,457.87148 L 318.90752,450.37148 z"
       id="path4656"
       sodipodi:nodetypes="cccccccccccccccccccccccccc" />
  </g>
</svg>
