<?xml version="1.0" encoding="UTF-8" standalone="no"?>
<!-- Created with Inkscape (http://www.inkscape.org/) -->
<svg
   xmlns:dc="http://purl.org/dc/elements/1.1/"
   xmlns:cc="http://creativecommons.org/ns#"
   xmlns:rdf="http://www.w3.org/1999/02/22-rdf-syntax-ns#"
   xmlns:svg="http://www.w3.org/2000/svg"
   xmlns="http://www.w3.org/2000/svg"
   xmlns:sodipodi="http://sodipodi.sourceforge.net/DTD/sodipodi-0.dtd"
   xmlns:inkscape="http://www.inkscape.org/namespaces/inkscape"
   width="800"
   height="800"
   id="svg3604"
   sodipodi:version="0.32"
   inkscape:version="0.46"
   sodipodi:docname="pig.svg"
   inkscape:output_extension="org.inkscape.output.svg.inkscape"
   inkscape:export-filename="C:\Documents and Settings\Justin\My Documents\My Pictures\_doodles\pig.jpg.png"
   inkscape:export-xdpi="21.375"
   inkscape:export-ydpi="21.375"
   version="1.0">
  <defs
     id="defs3606">
    <inkscape:perspective
       sodipodi:type="inkscape:persp3d"
       inkscape:vp_x="0 : 300 : 1"
       inkscape:vp_y="0 : 1000 : 0"
       inkscape:vp_z="800 : 300 : 1"
       inkscape:persp3d-origin="400 : 200 : 1"
       id="perspective3612" />
  </defs>
  <sodipodi:namedview
     id="base"
     pagecolor="#ffffff"
     bordercolor="#666666"
     borderopacity="1.0"
     inkscape:pageopacity="0.0"
     inkscape:pageshadow="2"
     inkscape:zoom="0.5"
     inkscape:cx="750.27431"
     inkscape:cy="308.48719"
     inkscape:current-layer="layer1"
     inkscape:document-units="px"
     showgrid="false"
     inkscape:window-width="1440"
     inkscape:window-height="851"
     inkscape:window-x="0"
     inkscape:window-y="22"
     borderlayer="true" />
  <metadata
     id="metadata3609">
    <rdf:RDF>
      <cc:Work
         rdf:about="">
        <dc:format>image/svg+xml</dc:format>
        <dc:type
           rdf:resource="http://purl.org/dc/dcmitype/StillImage" />
      </cc:Work>
    </rdf:RDF>
  </metadata>
  <g
     id="layer1"
     inkscape:label="Layer 1"
     inkscape:groupmode="layer">
    <path
       sodipodi:end="7.8539816"
       sodipodi:start="4.712389"
       transform="matrix(0,-1.9599999,-1.9599999,0,1346.1881,1744.9191)"
       d="M 369.01972,66.803556 A 47.372963,29.278101 0 0 1 369.01972,125.35976 L 369.01971,96.081657 z"
       sodipodi:ry="29.278101"
       sodipodi:rx="47.372963"
       sodipodi:cy="96.081657"
       sodipodi:cx="369.01971"
       id="path3475"
       style="fill:#3f3223;fill-opacity:1;fill-rule:nonzero;stroke:none;stroke-width:3;stroke-linecap:round;stroke-linejoin:round;stroke-miterlimit:4;stroke-dasharray:none;stroke-dashoffset:0;stroke-opacity:1"
       sodipodi:type="arc" />
    <path
       sodipodi:type="arc"
       style="fill:#eadada;fill-opacity:1;fill-rule:nonzero;stroke:none;stroke-width:3;stroke-linecap:round;stroke-linejoin:round;stroke-miterlimit:4;stroke-dasharray:none;stroke-dashoffset:0;stroke-opacity:1"
       id="path3732"
       sodipodi:cx="369.01971"
       sodipodi:cy="96.081657"
       sodipodi:rx="47.372963"
       sodipodi:ry="29.278101"
       d="M 416.39268,96.081657 A 47.372963,29.278101 0 1 1 321.64675,96.081657 A 47.372963,29.278101 0 1 1 416.39268,96.081657 z"
       transform="matrix(3.9999998,0,0,3.9999998,-461.71478,518.31169)" />
    <rect
       style="fill:#b9be8a;fill-opacity:1;fill-rule:nonzero;stroke:none;stroke-width:3;stroke-linecap:round;stroke-linejoin:round;stroke-miterlimit:4;stroke-dasharray:none;stroke-dashoffset:0;stroke-opacity:1"
       id="rect5006"
       width="799.99994"
       height="600"
       x="8.6534405e-05"
       y="199.99983" />
    <path
       style="fill:#8abeba;fill-opacity:1;fill-rule:nonzero;stroke:none;stroke-width:3;stroke-linecap:round;stroke-linejoin:round;stroke-miterlimit:4;stroke-dashoffset:0;stroke-opacity:1"
       d="M -4.483176e-17,-143.15788 L 799.99994,-143.15788 L 799.99994,348.18078 C 533.33329,374.12245 464.0535,194.47009 -4.483176e-17,318.81285 L -4.483176e-17,-143.15788 z"
       id="rect3492"
       sodipodi:nodetypes="ccccc" />
    <g
       id="g2689"
       transform="translate(139.49766,107.49083)">
      <rect
         y="148"
         x="75.333313"
         height="406"
         width="20"
         id="rect3792"
         style="opacity:1;fill:#b3b3b3;fill-opacity:1;fill-rule:nonzero;stroke:none;stroke-width:0.5;stroke-linecap:round;stroke-linejoin:round;stroke-miterlimit:4;stroke-dasharray:none;stroke-dashoffset:0;stroke-opacity:1" />
      <g
         transform="translate(-620,14)"
         id="g3786">
        <path
           sodipodi:type="star"
           style="opacity:1;fill:#ff6600;fill-opacity:1;fill-rule:nonzero;stroke:none;stroke-width:0.5;stroke-linecap:round;stroke-linejoin:round;stroke-miterlimit:4;stroke-dasharray:none;stroke-dashoffset:0;stroke-opacity:1"
           id="path3740"
           sodipodi:sides="3"
           sodipodi:cx="885.33331"
           sodipodi:cy="138.66667"
           sodipodi:r1="79.151054"
           sodipodi:r2="39.575527"
           sodipodi:arg1="0.52359878"
           sodipodi:arg2="1.5707963"
           inkscape:flatsided="true"
           inkscape:rounded="0.1"
           inkscape:randomized="0"
           d="M 953.88014,178.2422 C 947.02545,190.11486 823.64117,190.11486 816.78649,178.2422 C 809.93181,166.36954 871.62395,59.515617 885.33331,59.515617 C 899.04268,59.515617 960.73482,166.36954 953.88014,178.2422 z"
           transform="translate(-180,27.333333)" />
        <path
           sodipodi:type="star"
           style="opacity:1;fill:#ffff00;fill-opacity:1;fill-rule:nonzero;stroke:none;stroke-width:0.5;stroke-linecap:round;stroke-linejoin:round;stroke-miterlimit:4;stroke-dasharray:none;stroke-dashoffset:0;stroke-opacity:1"
           id="path3742"
           sodipodi:sides="3"
           sodipodi:cx="885.33331"
           sodipodi:cy="138.66667"
           sodipodi:r1="79.151054"
           sodipodi:r2="39.575527"
           sodipodi:arg1="0.52359878"
           sodipodi:arg2="1.5707963"
           inkscape:flatsided="true"
           inkscape:rounded="0.1"
           inkscape:randomized="0"
           d="M 953.88014,178.2422 C 947.02545,190.11486 823.64117,190.11486 816.78649,178.2422 C 809.93181,166.36954 871.62395,59.515617 885.33331,59.515617 C 899.04268,59.515617 960.73482,166.36954 953.88014,178.2422 z"
           transform="matrix(0.8,0,0,0.8,-2.9333374,55.299646)" />
        <path
           style="fill:#000000;fill-opacity:1;fill-rule:nonzero;stroke:none;stroke-width:3;stroke-linecap:round;stroke-linejoin:round;stroke-miterlimit:4;stroke-dasharray:none;stroke-dashoffset:0;stroke-opacity:1"
           d="M 713.26904,131.33304 L 713.26904,134.9897 C 712.87326,134.97611 712.47476,134.96866 712.07352,134.96866 C 708.93428,134.96866 705.95301,135.39069 703.27021,136.14664 C 701.04707,133.35656 698.25688,131.69415 695.22767,131.69415 L 695.22767,140.0978 C 692.94699,141.92683 691.42687,144.13563 690.96449,146.54515 C 686.04706,147.12241 681.72717,148.7467 678.63774,151.02921 L 674.14317,151.02921 C 674.14317,152.34957 674.4605,153.62708 675.0477,154.8296 C 674.17234,156.26754 673.69091,157.82404 673.69091,159.45038 C 673.69091,161.7168 674.62026,163.85031 676.25723,165.71192 C 674.51165,167.32772 673.33331,170.36769 673.33331,173.85261 L 679.12856,173.85261 L 684.92383,173.85261 C 684.92383,173.49662 684.90918,173.14659 684.88526,172.80085 L 689.63575,172.80085 C 689.63576,172.59003 689.63288,172.38103 689.62524,172.17329 C 689.82171,172.20465 690.0191,172.23651 690.21774,172.26445 C 690.13103,172.94575 690.08451,173.65237 690.0845,174.375 L 696.52134,174.375 L 702.96169,174.375 C 702.96169,173.44209 702.8832,172.53953 702.74082,171.67896 C 703.40943,171.51591 704.0636,171.33105 704.6971,171.12854 C 704.6426,171.67365 704.61297,172.23098 704.61296,172.80085 L 711.0498,172.80085 L 717.48663,172.80085 C 717.48663,169.27008 716.3967,166.15171 714.7345,164.26749 C 715.36865,163.27415 715.81294,162.22054 716.0387,161.12619 C 716.82403,161.20543 717.62936,161.2454 718.45076,161.2454 C 726.66518,161.2454 733.33332,157.12622 733.33331,152.04942 C 733.33331,151.43437 733.23593,150.83223 733.04934,150.25089 C 733.2348,149.55329 733.33332,148.83867 733.33331,148.10878 C 733.33331,143.0206 728.64549,138.60246 721.7954,136.42011 C 719.5001,133.24845 716.52176,131.33304 713.26904,131.33304 z"
           id="path3746" />
        <path
           style="font-size:40px;font-style:normal;font-weight:normal;line-height:125%;fill:#000000;fill-opacity:1;stroke:none;stroke-width:1px;stroke-linecap:butt;stroke-linejoin:miter;stroke-opacity:1;font-family:Bitstream Vera Sans"
           d="M 662.80664,186.58887 C 662.80663,186.87013 662.75976,187.14405 662.66602,187.41064 C 662.57226,187.67725 662.44628,187.93067 662.28809,188.1709 C 662.12987,188.41114 661.94384,188.63233 661.72998,188.83447 C 661.51611,189.03663 661.28906,189.21094 661.04883,189.35742 C 660.52734,189.70313 659.97509,189.9668 659.39209,190.14844 C 658.80908,190.33008 658.22168,190.47364 657.62988,190.5791 C 657.61816,190.67872 657.60205,190.78418 657.58154,190.89551 C 657.56103,191.00684 657.55078,191.11524 657.55078,191.2207 C 657.54492,191.43164 657.53906,191.63965 657.5332,191.84473 C 657.52734,192.04981 657.53027,192.25782 657.54199,192.46875 C 657.55371,192.66211 657.56103,192.85547 657.56396,193.04883 C 657.56689,193.24219 657.5625,193.44141 657.55078,193.64648 C 657.54492,193.79883 657.51709,193.9541 657.46729,194.1123 C 657.41748,194.27051 657.33105,194.40527 657.20801,194.5166 C 656.99121,194.62207 656.79785,194.6792 656.62793,194.68799 C 656.45801,194.69678 656.29687,194.68652 656.14453,194.65723 C 656.02148,194.63379 655.92041,194.58545 655.84131,194.51221 C 655.76221,194.43897 655.69775,194.35107 655.64795,194.24854 C 655.59814,194.146 655.56445,194.03467 655.54688,193.91455 C 655.5293,193.79443 655.52344,193.68164 655.5293,193.57617 C 655.57031,193.35352 655.60107,193.13819 655.62158,192.93018 C 655.64209,192.72217 655.67285,192.50684 655.71387,192.28418 C 655.77246,191.89746 655.82226,191.51221 655.86328,191.12842 C 655.90429,190.74463 655.93945,190.35938 655.96875,189.97266 C 655.99219,189.54493 656.00537,189.11866 656.0083,188.69385 C 656.01123,188.26905 656.01269,187.83985 656.0127,187.40625 C 656.00097,187.00196 656.00244,186.59473 656.01709,186.18457 C 656.03174,185.77442 656.05371,185.36427 656.08301,184.9541 C 656.09472,184.9131 656.10058,184.87501 656.10059,184.83984 C 656.10058,184.79884 656.10644,184.76075 656.11816,184.72559 C 656.1416,184.52052 656.20019,184.32276 656.29395,184.13232 C 656.38769,183.94191 656.51367,183.77345 656.67188,183.62695 C 656.84179,183.48634 657.03222,183.3882 657.24316,183.33252 C 657.4541,183.27687 657.66211,183.23146 657.86719,183.19629 C 658.14257,183.17286 658.40918,183.15236 658.66699,183.13477 C 658.9248,183.1172 659.18847,183.10841 659.45801,183.1084 C 659.92675,183.10841 660.37939,183.18751 660.81592,183.3457 C 661.25243,183.50392 661.62597,183.75001 661.93652,184.08398 C 662.23534,184.41798 662.46386,184.80177 662.62207,185.23535 C 662.78026,185.66895 662.84179,186.12013 662.80664,186.58887 L 662.80664,186.58887 z M 661.11035,186.27246 C 661.11034,185.89161 661.02538,185.54005 660.85547,185.21777 C 660.77343,185.06544 660.67236,184.92335 660.55225,184.7915 C 660.43212,184.65968 660.27245,184.5879 660.07324,184.57617 C 659.80956,184.54103 659.53417,184.55421 659.24707,184.61572 C 658.95996,184.67726 658.69628,184.78565 658.45605,184.94092 C 658.21582,185.0962 658.0166,185.29249 657.8584,185.52979 C 657.70019,185.7671 657.61523,186.03809 657.60352,186.34277 C 657.53906,187.06934 657.60644,187.7754 657.80566,188.46094 C 658.16894,188.44337 658.52197,188.37305 658.86475,188.25 C 659.20751,188.12696 659.5371,187.97169 659.85352,187.78418 C 659.99413,187.70802 660.13476,187.61719 660.27539,187.51172 C 660.41601,187.40626 660.54492,187.29054 660.66211,187.16455 C 660.77929,187.03858 660.8789,186.90089 660.96094,186.75146 C 661.04296,186.60206 661.09277,186.44239 661.11035,186.27246 L 661.11035,186.27246 z M 670.6377,194.20898 C 670.61425,194.28516 670.58642,194.36133 670.5542,194.4375 C 670.52196,194.51367 670.46484,194.56641 670.38281,194.5957 C 669.61523,194.73633 668.84326,194.82422 668.06689,194.85938 C 667.29052,194.89453 666.51855,194.88574 665.75098,194.83301 C 665.58691,194.81543 665.41845,194.78906 665.24561,194.75391 C 665.07275,194.71875 664.91015,194.66748 664.75781,194.6001 C 664.60547,194.53272 664.4707,194.44482 664.35352,194.33643 C 664.23633,194.22803 664.15137,194.08887 664.09863,193.91895 C 664.07519,193.85449 664.05615,193.79297 664.0415,193.73438 C 664.02685,193.67578 664.01953,193.61133 664.01953,193.54102 C 664.04297,193.45313 664.08545,193.38721 664.14697,193.34326 C 664.20849,193.29932 664.27734,193.26856 664.35352,193.25098 C 664.42969,193.2334 664.50586,193.22461 664.58203,193.22461 C 664.66406,193.22461 664.7373,193.22168 664.80176,193.21582 C 664.9834,193.2041 665.16504,193.19824 665.34668,193.19824 C 665.53418,193.19824 665.72168,193.17481 665.90918,193.12793 C 665.92089,193.05762 665.92382,192.98877 665.91797,192.92139 C 665.91211,192.85401 665.91504,192.78809 665.92676,192.72363 C 665.96777,192.22559 666.01757,191.73194 666.07617,191.24268 C 666.13476,190.75342 666.19629,190.25977 666.26074,189.76172 C 666.32519,189.2461 666.39257,188.73633 666.46289,188.23242 C 666.5332,187.72852 666.59472,187.21876 666.64746,186.70312 C 666.67675,186.43946 666.6958,186.17433 666.70459,185.90771 C 666.71337,185.64112 666.70019,185.37599 666.66504,185.1123 C 666.51269,185.13575 666.36181,185.15919 666.2124,185.18262 C 666.06298,185.20606 665.91797,185.2295 665.77734,185.25293 C 665.64257,185.25294 665.4873,185.25733 665.31152,185.26611 C 665.13574,185.27491 664.96875,185.26319 664.81055,185.23096 C 664.65234,185.19874 664.51904,185.13722 664.41064,185.04639 C 664.30224,184.95558 664.2539,184.81349 664.26562,184.62012 C 664.34179,184.43263 664.45166,184.27589 664.59521,184.1499 C 664.73877,184.02394 664.89844,183.91554 665.07422,183.82471 C 665.25,183.7339 665.43457,183.65773 665.62793,183.59619 C 665.82129,183.53468 666.00586,183.47462 666.18164,183.41602 C 666.57421,183.29884 666.97412,183.21974 667.38135,183.17871 C 667.78857,183.13771 668.19433,183.12306 668.59863,183.13477 C 668.78027,183.15236 668.97363,183.16993 669.17871,183.1875 C 669.38378,183.20509 669.58007,183.24025 669.76758,183.29297 C 669.95507,183.34571 670.12792,183.42189 670.28613,183.52148 C 670.44433,183.62111 670.56737,183.76173 670.65527,183.94336 C 670.60839,184.14259 670.51318,184.31544 670.36963,184.46191 C 670.22607,184.60841 670.05468,184.70509 669.85547,184.75195 C 669.64452,184.76954 669.43212,184.8003 669.21826,184.84424 C 669.00439,184.88819 668.79199,184.92774 668.58105,184.96289 C 668.54589,185.17384 668.5166,185.3877 668.49316,185.60449 C 668.46972,185.8213 668.44335,186.03809 668.41406,186.25488 C 668.3789,186.47755 668.34667,186.69874 668.31738,186.91846 C 668.28808,187.13819 668.26171,187.35645 668.23828,187.57324 C 668.2207,187.75489 668.20898,187.938 668.20312,188.12256 C 668.19726,188.30714 668.18847,188.49024 668.17676,188.67188 C 668.16503,188.85938 668.15771,189.04395 668.15479,189.22559 C 668.15185,189.40723 668.13867,189.5918 668.11523,189.7793 C 668.11523,190.06641 668.09765,190.35938 668.0625,190.6582 C 668.02734,190.95704 667.99951,191.2544 667.979,191.55029 C 667.95849,191.84619 667.95703,192.13916 667.97461,192.4292 C 667.99218,192.71924 668.05078,192.9961 668.15039,193.25977 C 668.23242,193.25977 668.31738,193.2627 668.40527,193.26855 C 668.49316,193.27442 668.57812,193.27149 668.66016,193.25977 L 668.80957,193.25977 L 668.97656,193.24219 L 669.07324,193.2334 C 669.15527,193.2334 669.23437,193.22461 669.31055,193.20703 C 669.38671,193.18945 669.46288,193.18067 669.53906,193.18066 C 669.6914,193.16895 669.84081,193.16602 669.9873,193.17188 C 670.13378,193.17774 670.27441,193.21289 670.40918,193.27734 C 670.56152,193.43555 670.64501,193.59668 670.65967,193.76074 C 670.67431,193.92481 670.66698,194.07422 670.6377,194.20898 L 670.6377,194.20898 z M 681.62402,189.20801 C 681.61229,189.3545 681.59472,189.49805 681.57129,189.63867 C 681.54784,189.7793 681.52147,189.92286 681.49219,190.06934 C 681.37499,190.6377 681.18163,191.18702 680.91211,191.71729 C 680.64257,192.24756 680.31444,192.74707 679.92773,193.21582 C 679.74023,193.44434 679.53661,193.65967 679.31689,193.86182 C 679.09716,194.06397 678.86132,194.24121 678.60938,194.39355 C 678.35742,194.5459 678.09374,194.66602 677.81836,194.75391 C 677.54296,194.8418 677.25585,194.88281 676.95703,194.87695 C 676.58789,194.88867 676.24365,194.83008 675.92432,194.70117 C 675.60498,194.57227 675.31347,194.40234 675.0498,194.19141 C 674.78613,193.98047 674.54883,193.73731 674.33789,193.46191 C 674.12695,193.18653 673.93945,192.90528 673.77539,192.61816 C 673.43554,192.03223 673.17627,191.40235 672.99756,190.72852 C 672.81885,190.05469 672.76758,189.35743 672.84375,188.63672 C 672.91406,187.99805 673.08105,187.37843 673.34473,186.77783 C 673.6084,186.17725 673.94238,185.61915 674.34668,185.10352 C 674.53418,184.84571 674.74365,184.59523 674.9751,184.35205 C 675.20654,184.1089 675.45703,183.89503 675.72656,183.71045 C 675.99609,183.52589 676.2832,183.37794 676.58789,183.2666 C 676.89257,183.15529 677.21191,183.10255 677.5459,183.1084 C 678.09081,183.09669 678.61669,183.17872 679.12354,183.35449 C 679.63036,183.53028 680.09472,183.77345 680.5166,184.08398 C 680.58691,184.13673 680.66161,184.19386 680.74072,184.25537 C 680.81981,184.31691 680.89306,184.38429 680.96045,184.45752 C 681.02782,184.53077 681.08495,184.60987 681.13184,184.69482 C 681.1787,184.7798 681.208,184.87501 681.21973,184.98047 C 681.21972,185.00392 681.21679,185.02589 681.21094,185.04639 C 681.20507,185.0669 681.20214,185.08888 681.20215,185.1123 L 681.11426,185.23535 L 680.99121,185.34082 C 680.92089,185.46388 680.81249,185.54884 680.66602,185.5957 C 680.46093,185.58399 680.26757,185.53419 680.08594,185.44629 C 679.90429,185.35841 679.72558,185.27345 679.5498,185.19141 C 679.37987,185.09767 679.20409,185.0171 679.02246,184.94971 C 678.84081,184.88233 678.64745,184.83692 678.44238,184.81348 C 678.18456,184.79591 677.92822,184.81495 677.67334,184.87061 C 677.41845,184.92628 677.17382,185.01271 676.93945,185.12988 C 676.70507,185.24708 676.48388,185.3921 676.27588,185.56494 C 676.06787,185.7378 675.88476,185.93263 675.72656,186.14941 C 675.38086,186.5713 675.12451,187.03565 674.95752,187.54248 C 674.79052,188.04932 674.68359,188.56055 674.63672,189.07617 C 674.58984,189.52735 674.59277,189.97413 674.64551,190.4165 C 674.69824,190.85889 674.81836,191.27637 675.00586,191.66895 C 675.08203,191.87403 675.18896,192.06299 675.32666,192.23584 C 675.46435,192.40869 675.62255,192.55518 675.80127,192.67529 C 675.97998,192.79541 676.17626,192.88623 676.39014,192.94775 C 676.604,193.00928 676.82812,193.03418 677.0625,193.02246 C 677.23828,193.02832 677.40966,193.00635 677.57666,192.95654 C 677.74365,192.90674 677.90478,192.83643 678.06006,192.74561 C 678.21533,192.65479 678.35742,192.54639 678.48633,192.42041 C 678.61523,192.29444 678.72949,192.15528 678.8291,192.00293 C 679.05761,191.71582 679.23339,191.40528 679.35645,191.07129 C 679.47948,190.73731 679.55566,190.39747 679.58496,190.05176 C 679.61425,189.89356 679.61864,189.73975 679.59814,189.59033 C 679.57763,189.44092 679.56152,189.29004 679.5498,189.1377 C 679.333,189.17286 679.1162,189.21241 678.89941,189.25635 C 678.68261,189.3003 678.47167,189.34864 678.2666,189.40137 C 678.03808,189.45411 677.81103,189.50245 677.58545,189.54639 C 677.35986,189.59034 677.13574,189.61817 676.91309,189.62988 C 676.77832,189.64161 676.65527,189.60792 676.54395,189.52881 C 676.43261,189.44971 676.35058,189.3545 676.29785,189.24316 C 676.23339,189.12598 676.18945,189.0044 676.16602,188.87842 C 676.14257,188.75245 676.13671,188.62208 676.14844,188.4873 C 676.16601,188.37598 676.20117,188.28223 676.25391,188.20605 C 676.56445,188.0127 676.89257,187.87061 677.23828,187.77979 C 677.58398,187.68897 677.92675,187.59083 678.2666,187.48535 C 678.61816,187.40333 678.97265,187.31837 679.33008,187.23047 C 679.68749,187.14259 680.04198,187.09278 680.39355,187.08105 C 680.66894,187.0752 680.89452,187.14112 681.07031,187.27881 C 681.24608,187.41651 681.37938,187.59083 681.47021,187.80176 C 681.56103,188.0127 681.61669,188.24561 681.63721,188.50049 C 681.6577,188.75538 681.65331,188.99122 681.62402,189.20801 L 681.62402,189.20801 z M 697.83984,194.05078 C 697.8164,194.20313 697.74608,194.3335 697.62891,194.44189 C 697.51171,194.55029 697.37694,194.61621 697.22461,194.63965 C 697.14257,194.64551 697.06054,194.6499 696.97852,194.65283 C 696.89648,194.65576 696.81591,194.6499 696.73682,194.63525 C 696.65771,194.62061 696.58446,194.5957 696.51709,194.56055 C 696.4497,194.52539 696.3955,194.47266 696.35449,194.40234 C 696.27245,194.25586 696.22118,194.10059 696.20068,193.93652 C 696.18017,193.77246 696.15527,193.6084 696.12598,193.44434 C 696.10253,193.2334 696.07763,193.01953 696.05127,192.80273 C 696.02489,192.58594 695.99706,192.37207 695.96777,192.16113 C 695.83886,192.10254 695.70409,192.05567 695.56348,192.02051 C 695.42284,191.98535 695.28222,191.97364 695.1416,191.98535 C 694.83105,191.99707 694.52783,192.01612 694.23193,192.04248 C 693.93603,192.06885 693.63867,192.11426 693.33984,192.17871 C 693.06445,192.22559 692.79345,192.29297 692.52686,192.38086 C 692.26025,192.46875 692.00683,192.59766 691.7666,192.76758 C 691.62011,192.9375 691.52197,193.12793 691.47217,193.33887 C 691.42236,193.54981 691.37402,193.75781 691.32715,193.96289 C 691.32715,194.05078 691.30957,194.14014 691.27441,194.23096 C 691.23926,194.32178 691.19092,194.40234 691.12939,194.47266 C 691.06787,194.54297 690.99316,194.59717 690.90527,194.63525 C 690.81738,194.67334 690.72363,194.68359 690.62402,194.66602 C 690.44238,194.63086 690.28857,194.55908 690.1626,194.45068 C 690.03662,194.34229 689.93555,194.20899 689.85938,194.05078 C 689.66016,193.76367 689.56055,193.44434 689.56055,193.09277 C 689.57226,192.74707 689.63379,192.40723 689.74512,192.07324 C 689.85644,191.73926 689.98828,191.41114 690.14062,191.08887 C 690.29883,190.72559 690.45996,190.35938 690.62402,189.99023 C 690.78808,189.6211 690.96386,189.26075 691.15137,188.90918 C 691.32129,188.34083 691.50439,187.78126 691.70068,187.23047 C 691.89697,186.6797 692.09179,186.12599 692.28516,185.56934 C 692.39648,185.34083 692.50927,185.09767 692.62354,184.83984 C 692.73779,184.58204 692.86816,184.33595 693.01465,184.10156 C 693.16113,183.8672 693.33251,183.65919 693.52881,183.47754 C 693.72509,183.29591 693.958,183.17286 694.22754,183.1084 C 694.47363,183.09669 694.70654,183.14503 694.92627,183.25342 C 695.14599,183.36183 695.34081,183.4922 695.51074,183.64453 C 695.68066,183.81446 695.83154,183.99903 695.96338,184.19824 C 696.09521,184.39747 696.19921,184.61427 696.27539,184.84863 C 696.35741,185.07716 696.4204,185.31007 696.46436,185.54736 C 696.50829,185.78468 696.55663,186.02638 696.60938,186.27246 C 696.81444,187.22755 697.00927,188.17969 697.19385,189.12891 C 697.37841,190.07813 697.53808,191.03907 697.67285,192.01172 C 697.70214,192.18164 697.7329,192.34571 697.76514,192.50391 C 697.79735,192.66211 697.82812,192.82324 697.85742,192.9873 C 697.86913,193.15723 697.88085,193.32715 697.89258,193.49707 C 697.90429,193.66699 697.88671,193.83692 697.83984,194.00684 L 697.83984,194.05078 z M 695.22949,189.375 C 695.22363,189.03516 695.19579,188.70118 695.146,188.37305 C 695.09618,188.04493 695.0332,187.71973 694.95703,187.39746 C 694.88085,187.0752 694.79736,186.75587 694.70654,186.43945 C 694.61572,186.12306 694.52929,185.80665 694.44727,185.49023 C 694.17773,185.75392 693.95068,186.04981 693.76611,186.37793 C 693.58154,186.70606 693.41894,187.04005 693.27832,187.37988 C 693.13769,187.73145 693.00878,188.08741 692.8916,188.44775 C 692.77441,188.80811 692.7041,189.17286 692.68066,189.54199 L 692.66309,189.65625 L 692.68066,189.76172 C 692.66894,189.8086 692.66162,189.85108 692.65869,189.88916 C 692.65576,189.92725 692.64257,189.96973 692.61914,190.0166 L 692.64551,190.11328 C 692.74511,190.11329 692.84326,190.11475 692.93994,190.11768 C 693.03662,190.12061 693.13476,190.12208 693.23438,190.12207 C 693.33984,190.13965 693.44531,190.14991 693.55078,190.15283 C 693.65624,190.15577 693.76171,190.15723 693.86719,190.15723 C 693.99609,190.16895 694.13671,190.16602 694.28906,190.14844 C 694.4414,190.13086 694.58495,190.09131 694.71973,190.02979 C 694.85449,189.96827 694.96874,189.88477 695.0625,189.7793 C 695.15624,189.67383 695.21191,189.53907 695.22949,189.375 L 695.22949,189.375 z M 708.67676,184.36523 C 708.67089,184.51759 708.62694,184.64503 708.54492,184.74756 C 708.46288,184.85011 708.36181,184.93214 708.2417,184.99365 C 708.12157,185.05519 707.9912,185.09913 707.85059,185.12549 C 707.70995,185.15187 707.57812,185.16798 707.45508,185.17383 C 707.14452,185.20313 706.83251,185.21046 706.51904,185.1958 C 706.20556,185.18116 705.89355,185.16798 705.58301,185.15625 C 705.48339,185.79493 705.38671,186.43067 705.29297,187.06348 C 705.19921,187.6963 705.10546,188.33204 705.01172,188.9707 C 704.92382,189.60938 704.833,190.24659 704.73926,190.88232 C 704.6455,191.51807 704.54296,192.15528 704.43164,192.79395 C 704.3789,192.96973 704.33203,193.16455 704.29102,193.37842 C 704.24999,193.59229 704.19287,193.80029 704.11963,194.00244 C 704.04638,194.20459 703.9497,194.38477 703.82959,194.54297 C 703.70947,194.70117 703.54394,194.8125 703.33301,194.87695 C 703.18066,194.89453 703.02978,194.87988 702.88037,194.83301 C 702.73095,194.78613 702.60205,194.71582 702.49365,194.62207 C 702.38525,194.52832 702.30322,194.41406 702.24756,194.2793 C 702.19189,194.14453 702.17871,193.99512 702.20801,193.83105 C 702.23144,193.55567 702.26074,193.2876 702.2959,193.02686 C 702.33105,192.76612 702.38086,192.50391 702.44531,192.24023 C 702.54492,191.69532 702.65771,191.15479 702.78369,190.61865 C 702.90966,190.08252 702.99902,189.542 703.05176,188.99707 C 703.10449,188.34083 703.13964,187.68897 703.15723,187.0415 C 703.1748,186.39405 703.13964,185.75099 703.05176,185.1123 C 702.62988,185.12403 702.20654,185.14308 701.78174,185.16943 C 701.35693,185.19581 700.93359,185.22657 700.51172,185.26172 C 700.41797,185.23243 700.3623,185.1797 700.34473,185.10352 C 700.31543,185.00978 700.29346,184.94239 700.27881,184.90137 C 700.26416,184.86036 700.25097,184.82521 700.23926,184.7959 C 700.2334,184.6963 700.22754,184.59523 700.22168,184.49268 C 700.21582,184.39015 700.21289,184.28614 700.21289,184.18066 C 700.23633,184.09278 700.27588,184.02247 700.33154,183.96973 C 700.38721,183.917 700.45166,183.87306 700.5249,183.83789 C 700.59814,183.80275 700.67431,183.77638 700.75342,183.75879 C 700.83252,183.74122 700.90722,183.72364 700.97754,183.70605 C 701.61621,183.62403 702.25341,183.55079 702.88916,183.48633 C 703.5249,183.42189 704.1621,183.36915 704.80078,183.32812 C 705.28124,183.29298 705.75585,183.27687 706.22461,183.27979 C 706.69335,183.28273 707.16503,183.29884 707.63965,183.32812 C 707.7744,183.35157 707.89745,183.39552 708.00879,183.45996 C 708.12011,183.52443 708.22265,183.60646 708.31641,183.70605 C 708.40429,183.79396 708.48192,183.89357 708.54932,184.00488 C 708.61669,184.11622 708.65917,184.23634 708.67676,184.36523 L 708.67676,184.36523 z M 726.28125,185.38477 C 726.26952,185.5547 726.25634,185.72462 726.2417,185.89453 C 726.22704,186.06446 726.20507,186.23438 726.17578,186.4043 C 726.14061,186.68556 726.10839,186.9668 726.0791,187.24805 C 726.04979,187.5293 726.02343,187.81348 726,188.10059 C 725.99999,188.2295 725.99413,188.35987 725.98242,188.4917 C 725.97069,188.62354 725.96483,188.75391 725.96484,188.88281 C 725.95897,189.01758 725.95165,189.14649 725.94287,189.26953 C 725.93407,189.39258 725.92089,189.52149 725.90332,189.65625 C 725.84472,190.1543 725.75829,190.64795 725.64404,191.13721 C 725.52977,191.62647 725.36132,192.10547 725.13867,192.57422 C 725.03905,192.79688 724.92626,193.02246 724.80029,193.25098 C 724.67431,193.47949 724.52782,193.6919 724.36084,193.88818 C 724.19384,194.08447 724.00634,194.25 723.79834,194.38477 C 723.59032,194.51953 723.35448,194.60449 723.09082,194.63965 C 722.77441,194.66895 722.49023,194.60156 722.23828,194.4375 C 721.98632,194.27344 721.78417,194.07129 721.63184,193.83105 C 721.46191,193.56738 721.32128,193.2876 721.20996,192.9917 C 721.09863,192.6958 720.99023,192.40137 720.88477,192.1084 C 720.79101,192.37207 720.68261,192.65918 720.55957,192.96973 C 720.43652,193.28028 720.28564,193.56885 720.10693,193.83545 C 719.92822,194.10205 719.71582,194.32324 719.46973,194.49902 C 719.22363,194.67481 718.93066,194.7627 718.59082,194.7627 C 718.38574,194.74512 718.19238,194.69531 718.01074,194.61328 C 717.8291,194.53125 717.66504,194.42725 717.51855,194.30127 C 717.37207,194.17529 717.24463,194.02881 717.13623,193.86182 C 717.02783,193.69483 716.94726,193.52051 716.89453,193.33887 C 716.82422,193.10449 716.77295,192.8628 716.74072,192.61377 C 716.70849,192.36475 716.68799,192.11426 716.6792,191.8623 C 716.67041,191.61035 716.66748,191.35694 716.67041,191.10205 C 716.67334,190.84717 716.67187,190.59668 716.66602,190.35059 C 716.67773,190.14551 716.68506,189.94776 716.68799,189.75732 C 716.69092,189.5669 716.7041,189.36915 716.72754,189.16406 C 716.77441,188.66602 716.83887,188.17237 716.9209,187.68311 C 717.00293,187.19386 717.10254,186.70313 717.21973,186.21094 C 717.32519,185.9004 717.42773,185.58692 717.52734,185.27051 C 717.62695,184.95411 717.74267,184.66114 717.87451,184.3916 C 718.00634,184.12208 718.16748,183.88771 718.35791,183.68848 C 718.54834,183.48927 718.79004,183.34571 719.08301,183.25781 C 719.26464,183.24611 719.40234,183.28566 719.49609,183.37646 C 719.58984,183.4673 719.65576,183.58302 719.69385,183.72363 C 719.73193,183.86427 719.74951,184.01368 719.74658,184.17188 C 719.74365,184.33009 719.73339,184.47364 719.71582,184.60254 C 719.66894,184.8545 719.61767,185.10206 719.56201,185.34521 C 719.50634,185.58839 719.44043,185.83302 719.36426,186.0791 C 719.34082,186.17872 719.30712,186.2754 719.26318,186.36914 C 719.21923,186.4629 719.18261,186.55958 719.15332,186.65918 C 719.00097,187.20411 718.85595,187.74317 718.71826,188.27637 C 718.58056,188.80958 718.48535,189.35157 718.43262,189.90234 C 718.40332,190.19532 718.40625,190.48536 718.44141,190.77246 C 718.47656,191.05957 718.54394,191.33789 718.64355,191.60742 C 718.93652,191.27344 719.17236,190.9087 719.35107,190.51318 C 719.52978,190.11768 719.68212,189.71192 719.80811,189.2959 C 719.93408,188.87989 720.04687,188.45801 720.14648,188.03027 C 720.24609,187.60255 720.36035,187.18653 720.48926,186.78223 C 720.51269,186.59473 720.54785,186.41309 720.59473,186.2373 C 720.6416,186.06153 720.6914,185.88282 720.74414,185.70117 C 720.76757,185.61329 720.80566,185.52394 720.8584,185.43311 C 720.91113,185.34229 720.97265,185.26173 721.04297,185.19141 C 721.11328,185.1211 721.19384,185.06544 721.28467,185.02441 C 721.37548,184.98341 721.4707,184.96876 721.57031,184.98047 C 721.8457,184.98048 722.05517,185.05372 722.19873,185.2002 C 722.34228,185.34669 722.44482,185.52686 722.50635,185.74072 C 722.56786,185.9546 722.60448,186.18458 722.61621,186.43066 C 722.62792,186.67677 722.63964,186.89942 722.65137,187.09863 C 722.66308,187.39161 722.66601,187.68311 722.66016,187.97314 C 722.65429,188.26319 722.65136,188.55469 722.65137,188.84766 C 722.66308,189.38086 722.70116,189.90381 722.76562,190.4165 C 722.83007,190.9292 722.94726,191.42578 723.11719,191.90625 C 723.24609,191.69532 723.35155,191.47559 723.43359,191.24707 C 723.51562,191.01856 723.583,190.78565 723.63574,190.54834 C 723.68847,190.31104 723.73241,190.07374 723.76758,189.83643 C 723.80273,189.59913 723.84081,189.36036 723.88184,189.12012 C 723.958,188.59864 724.02099,188.08009 724.0708,187.56445 C 724.1206,187.04884 724.17773,186.53321 724.24219,186.01758 C 724.27148,185.76563 724.29931,185.51661 724.32568,185.27051 C 724.35204,185.02442 724.38866,184.77833 724.43555,184.53223 C 724.48241,184.35646 724.51464,184.2129 724.53223,184.10156 C 724.5498,183.99025 724.58202,183.88771 724.62891,183.79395 L 724.67285,183.66211 L 724.75195,183.5127 C 724.82812,183.43654 724.88524,183.38234 724.92334,183.3501 C 724.96142,183.31788 724.99804,183.30763 725.0332,183.31934 C 725.28515,183.34279 725.49315,183.42335 725.65723,183.56104 C 725.82128,183.69874 725.95018,183.8672 726.04395,184.06641 C 726.13768,184.26564 726.20214,184.48243 726.2373,184.7168 C 726.27245,184.95118 726.2871,185.17384 726.28125,185.38477 L 726.28125,185.38477 z M 735.99316,188.26758 C 735.9287,188.97657 735.80126,189.67823 735.61084,190.37256 C 735.4204,191.0669 735.13183,191.7334 734.74512,192.37207 C 734.58105,192.68262 734.38476,192.99024 734.15625,193.29492 C 733.92773,193.59961 733.67284,193.87061 733.3916,194.10791 C 733.11035,194.34522 732.80273,194.53564 732.46875,194.6792 C 732.13476,194.82275 731.7832,194.88867 731.41406,194.87695 C 731.05664,194.88281 730.72851,194.81836 730.42969,194.68359 C 730.13086,194.54883 729.86132,194.36865 729.62109,194.14307 C 729.38086,193.91748 729.17285,193.66113 728.99707,193.37402 C 728.82129,193.08692 728.67773,192.79395 728.56641,192.49512 C 728.30273,191.88575 728.12842,191.24707 728.04346,190.5791 C 727.95849,189.91114 727.9541,189.24024 728.03027,188.56641 C 728.08887,187.93946 728.21924,187.31837 728.42139,186.70312 C 728.62353,186.0879 728.91211,185.51368 729.28711,184.98047 C 729.46875,184.71095 729.67822,184.45899 729.91553,184.22461 C 730.15283,183.99025 730.41064,183.7881 730.68896,183.61816 C 730.96728,183.44825 731.26171,183.31788 731.57227,183.22705 C 731.88281,183.13624 732.19628,183.09962 732.5127,183.11719 C 732.81738,183.11134 733.11327,183.14796 733.40039,183.22705 C 733.68749,183.30616 733.95409,183.42335 734.2002,183.57861 C 734.44628,183.7339 734.66894,183.91993 734.86816,184.13672 C 735.06737,184.35353 735.23144,184.59376 735.36035,184.85742 C 735.64159,185.3672 735.82616,185.91358 735.91406,186.49658 C 736.00194,187.0796 736.02831,187.66993 735.99316,188.26758 L 735.99316,188.26758 z M 733.99805,187.46777 C 734.02148,187.18067 734.02148,186.89796 733.99805,186.61963 C 733.9746,186.34132 733.91308,186.07032 733.81348,185.80664 C 733.77831,185.67774 733.72411,185.5547 733.65088,185.4375 C 733.57763,185.32032 733.48974,185.21778 733.38721,185.12988 C 733.28466,185.042 733.16894,184.97315 733.04004,184.92334 C 732.91113,184.87355 732.77636,184.84864 732.63574,184.84863 C 732.40722,184.83106 732.18896,184.86329 731.98096,184.94531 C 731.77294,185.02735 731.57958,185.13868 731.40088,185.2793 C 731.22216,185.41993 731.0625,185.58253 730.92188,185.76709 C 730.78125,185.95167 730.66699,186.14356 730.5791,186.34277 C 730.36816,186.7588 730.20703,187.18946 730.0957,187.63477 C 729.98437,188.08009 729.91113,188.5254 729.87598,188.9707 C 729.83496,189.34571 729.8247,189.71924 729.84521,190.09131 C 729.86572,190.46338 729.91113,190.83106 729.98145,191.19434 C 730.0166,191.35254 730.05908,191.51807 730.10889,191.69092 C 730.15869,191.86377 730.22607,192.02491 730.31104,192.17432 C 730.39599,192.32373 730.50146,192.45264 730.62744,192.56104 C 730.75341,192.66944 730.91308,192.73242 731.10645,192.75 C 731.38769,192.74414 731.63818,192.67383 731.85791,192.53906 C 732.07763,192.4043 732.27246,192.23438 732.44238,192.0293 C 732.6123,191.82422 732.76171,191.59864 732.89062,191.35254 C 733.01952,191.10645 733.13378,190.87207 733.2334,190.64941 C 733.42089,190.12793 733.58788,189.60352 733.73438,189.07617 C 733.88085,188.54883 733.96874,188.0127 733.99805,187.46777 L 733.99805,187.46777 z M 745.87207,193.99805 C 745.84862,194.12695 745.80468,194.25147 745.74023,194.37158 C 745.67577,194.4917 745.5703,194.57227 745.42383,194.61328 C 745.21874,194.66602 745.02978,194.66895 744.85693,194.62207 C 744.68407,194.5752 744.52734,194.49756 744.38672,194.38916 C 744.24609,194.28076 744.11718,194.15186 744,194.00244 C 743.8828,193.85303 743.77734,193.70508 743.68359,193.55859 C 743.55468,193.37695 743.4331,193.19678 743.31885,193.01807 C 743.20458,192.83936 743.07128,192.6709 742.91895,192.5127 C 742.47949,192.07325 742.02685,191.6543 741.56104,191.25586 C 741.09521,190.85743 740.61328,190.47657 740.11523,190.11328 C 740.0332,190.30079 739.979,190.49268 739.95264,190.68896 C 739.92627,190.88526 739.90429,191.08594 739.88672,191.29102 C 739.875,191.47852 739.86767,191.66602 739.86475,191.85352 C 739.86181,192.04102 739.86035,192.22852 739.86035,192.41602 C 739.84863,192.66211 739.82373,192.90381 739.78564,193.14111 C 739.74756,193.37842 739.69629,193.61719 739.63184,193.85742 C 739.5498,194.10938 739.43554,194.31445 739.28906,194.47266 C 739.14258,194.63086 738.96386,194.69531 738.75293,194.66602 C 738.58301,194.64258 738.42627,194.59131 738.28271,194.51221 C 738.13916,194.43311 738.0293,194.32617 737.95312,194.19141 C 737.90039,194.04492 737.85937,193.89844 737.83008,193.75195 C 737.80078,193.60547 737.79199,193.45606 737.80371,193.30371 C 737.79199,192.87598 737.81836,192.45117 737.88281,192.0293 C 737.94726,191.60743 738.00586,191.18262 738.05859,190.75488 C 738.1289,190.30372 738.19629,189.85401 738.26074,189.40576 C 738.32519,188.95753 738.38965,188.50782 738.4541,188.05664 C 738.47754,187.76954 738.479,187.48389 738.4585,187.19971 C 738.43799,186.91554 738.41894,186.62989 738.40137,186.34277 C 738.37793,186.07325 738.3706,185.80226 738.37939,185.52979 C 738.38818,185.25733 738.40722,184.98048 738.43652,184.69922 C 738.4541,184.5586 738.48926,184.41212 738.54199,184.25977 C 738.59472,184.10743 738.6665,183.96827 738.75732,183.84229 C 738.84814,183.71632 738.95654,183.60792 739.08252,183.51709 C 739.20849,183.42628 739.35351,183.36915 739.51758,183.3457 C 740.08593,183.26954 740.64843,183.21534 741.20508,183.18311 C 741.76171,183.15089 742.32421,183.14064 742.89258,183.15234 C 743.27929,183.14064 743.63232,183.22706 743.95166,183.41162 C 744.27099,183.5962 744.53319,183.8379 744.73828,184.13672 C 744.96093,184.42384 745.13378,184.74757 745.25684,185.10791 C 745.37987,185.46827 745.42089,185.84181 745.37988,186.22852 C 745.37401,186.42774 745.33886,186.61964 745.27441,186.8042 C 745.20995,186.98878 745.12499,187.16602 745.01953,187.33594 C 744.91405,187.50587 744.79247,187.667 744.65479,187.81934 C 744.51708,187.97169 744.37499,188.11524 744.22852,188.25 C 743.91796,188.54883 743.57519,188.80665 743.2002,189.02344 C 742.82519,189.24024 742.42675,189.38672 742.00488,189.46289 C 742.42089,189.74415 742.81933,190.04004 743.2002,190.35059 C 743.58105,190.66114 743.95312,190.98633 744.31641,191.32617 C 744.46288,191.47266 744.61523,191.61768 744.77344,191.76123 C 744.93163,191.90479 745.08105,192.05567 745.22168,192.21387 C 745.3623,192.37207 745.4912,192.53906 745.6084,192.71484 C 745.72558,192.89063 745.81933,193.08106 745.88965,193.28613 C 745.90136,193.40332 745.91308,193.52197 745.9248,193.64209 C 745.93651,193.76221 745.91894,193.88086 745.87207,193.99805 L 745.87207,193.99805 z M 743.63965,185.95605 C 743.65722,185.82716 743.65429,185.69972 743.63086,185.57373 C 743.60741,185.44776 743.562,185.33351 743.49463,185.23096 C 743.42724,185.12843 743.33935,185.04786 743.23096,184.98926 C 743.12255,184.93067 742.99511,184.90724 742.84863,184.91895 C 742.4912,184.90724 742.13671,184.90724 741.78516,184.91895 C 741.43359,184.93067 741.08203,184.94239 740.73047,184.9541 C 740.63085,184.98927 740.55615,185.042 740.50635,185.1123 C 740.45654,185.18263 740.41992,185.26319 740.39648,185.354 C 740.37304,185.44483 740.35546,185.53858 740.34375,185.63525 C 740.33203,185.73194 740.31738,185.81837 740.2998,185.89453 C 740.28222,186.07618 740.26464,186.25929 740.24707,186.44385 C 740.22949,186.62843 740.2163,186.813 740.20752,186.99756 C 740.19873,187.18214 740.19873,187.36378 740.20752,187.54248 C 740.2163,187.7212 740.24121,187.89844 740.28223,188.07422 C 740.63378,188.07423 740.97949,188.00684 741.31934,187.87207 C 741.65917,187.73731 741.98144,187.58204 742.28613,187.40625 C 742.42675,187.32423 742.57324,187.23487 742.72559,187.13818 C 742.87792,187.04151 743.01708,186.93458 743.14307,186.81738 C 743.26904,186.7002 743.37743,186.56983 743.46826,186.42627 C 743.55907,186.28272 743.6162,186.12599 743.63965,185.95605 L 743.63965,185.95605 z M 755.18848,193.90137 C 755.17675,193.97168 755.15771,194.04199 755.13135,194.1123 C 755.10497,194.18262 755.07128,194.24561 755.03027,194.30127 C 754.98925,194.35693 754.93798,194.40381 754.87646,194.44189 C 754.81493,194.47998 754.74609,194.50195 754.66992,194.50781 C 754.54687,194.53711 754.42675,194.5415 754.30957,194.521 C 754.19238,194.50049 754.08398,194.4624 753.98438,194.40674 C 753.88476,194.35107 753.79247,194.28369 753.70752,194.20459 C 753.62255,194.12549 753.54784,194.04199 753.4834,193.9541 C 753.35449,193.74317 753.22704,193.5293 753.10107,193.3125 C 752.97509,193.09571 752.84765,192.88184 752.71875,192.6709 C 752.33203,192.0791 751.94238,191.4917 751.5498,190.90869 C 751.15722,190.32569 750.76757,189.73829 750.38086,189.14648 C 750.32812,189.66797 750.29004,190.18653 750.2666,190.70215 C 750.24316,191.21778 750.22558,191.73633 750.21387,192.25781 C 750.20215,192.39258 750.19922,192.52735 750.20508,192.66211 C 750.21093,192.79688 750.208,192.93164 750.19629,193.06641 C 750.18457,193.23633 750.1582,193.40918 750.11719,193.58496 C 750.07617,193.76074 750.01757,193.93359 749.94141,194.10352 C 749.77148,194.34961 749.57812,194.50781 749.36133,194.57812 C 749.14453,194.64844 748.93359,194.66016 748.72852,194.61328 C 748.6289,194.56055 748.55566,194.49023 748.50879,194.40234 C 748.46191,194.31445 748.42676,194.21924 748.40332,194.1167 C 748.37988,194.01416 748.36523,193.90869 748.35938,193.80029 C 748.35351,193.6919 748.3418,193.58789 748.32422,193.48828 C 748.3125,193.26563 748.31103,193.04444 748.31982,192.82471 C 748.32861,192.60498 748.33887,192.38379 748.35059,192.16113 C 748.35058,192.00879 748.34765,191.86231 748.3418,191.72168 C 748.33594,191.58106 748.33887,191.43457 748.35059,191.28223 C 748.35058,191.12403 748.35205,190.96582 748.35498,190.80762 C 748.35791,190.64942 748.36816,190.49122 748.38574,190.33301 C 748.39746,190.19239 748.40625,190.04883 748.41211,189.90234 C 748.41797,189.75586 748.43262,189.60938 748.45605,189.46289 C 748.47949,189.31055 748.50146,189.15821 748.52197,189.00586 C 748.54248,188.85352 748.56738,188.70118 748.59668,188.54883 C 748.62597,188.28516 748.64209,188.02003 748.64502,187.75342 C 748.64795,187.48682 748.66406,187.22169 748.69336,186.95801 C 748.71094,186.7002 748.72851,186.44239 748.74609,186.18457 C 748.76367,185.92677 748.79297,185.66895 748.83398,185.41113 C 748.875,185.23536 748.91162,185.04933 748.94385,184.85303 C 748.97607,184.65675 749.02002,184.46339 749.07568,184.27295 C 749.13135,184.08253 749.20898,183.90675 749.30859,183.74561 C 749.4082,183.58448 749.5459,183.45118 749.72168,183.3457 C 749.83886,183.31642 749.95459,183.30909 750.06885,183.32373 C 750.1831,183.33839 750.28564,183.37501 750.37646,183.43359 C 750.46728,183.4922 750.54345,183.56691 750.60498,183.65771 C 750.6665,183.74855 750.70605,183.85548 750.72363,183.97852 C 750.74707,184.22462 750.75732,184.47071 750.75439,184.7168 C 750.75146,184.9629 750.74707,185.21192 750.74121,185.46387 C 750.72363,185.58106 750.71923,185.69679 750.72803,185.81104 C 750.73681,185.9253 750.74414,186.04395 750.75,186.16699 C 751.18945,185.77442 751.6289,185.38331 752.06836,184.99365 C 752.50781,184.60401 752.95019,184.21583 753.39551,183.8291 C 753.60058,183.65919 753.82763,183.54786 754.07666,183.49512 C 754.32568,183.44239 754.56738,183.44239 754.80176,183.49512 C 755.03612,183.50685 755.21776,183.60206 755.34668,183.78076 C 755.47558,183.95948 755.53417,184.16017 755.52246,184.38281 C 755.51659,184.51173 755.48876,184.63478 755.43896,184.75195 C 755.38915,184.86915 755.3247,184.97901 755.24561,185.08154 C 755.1665,185.18409 755.0786,185.28077 754.98193,185.37158 C 754.88525,185.46241 754.79003,185.54591 754.69629,185.62207 C 754.43261,185.79786 754.1704,185.97218 753.90967,186.14502 C 753.64892,186.31788 753.38671,186.49513 753.12305,186.67676 C 752.91796,186.83497 752.71874,187.01075 752.52539,187.2041 C 752.33203,187.39747 752.21191,187.62598 752.16504,187.88965 C 752.17675,188.0713 752.21044,188.24268 752.26611,188.40381 C 752.32177,188.56495 752.39062,188.72315 752.47266,188.87842 C 752.55468,189.0337 752.64404,189.18311 752.74072,189.32666 C 752.8374,189.47022 752.92968,189.61524 753.01758,189.76172 C 753.27538,190.14258 753.5332,190.51905 753.79102,190.89111 C 754.04882,191.26319 754.30663,191.63379 754.56445,192.00293 C 754.65234,192.14356 754.73876,192.28858 754.82373,192.43799 C 754.90868,192.5874 754.98193,192.73975 755.04346,192.89502 C 755.10497,193.05029 755.15038,193.21143 755.17969,193.37842 C 755.20898,193.54541 755.21191,193.71973 755.18848,193.90137 L 755.18848,193.90137 z"
           id="text3781" />
      </g>
    </g>
    <g
       id="g2676"
       transform="translate(-1.4683963,709.38104)">
      <rect
         transform="matrix(0.998513,-5.4514386e-2,5.4514386e-2,0.998513,0,0)"
         y="-270.73068"
         x="658.84961"
         height="90"
         width="759"
         id="rect4605"
         style="opacity:1;fill:#cb773f;fill-opacity:1;fill-rule:nonzero;stroke:none;stroke-width:0.5;stroke-linecap:round;stroke-linejoin:round;stroke-miterlimit:4;stroke-dasharray:none;stroke-dashoffset:0;stroke-opacity:1" />
      <rect
         transform="matrix(0.998513,-5.4514389e-2,5.4514389e-2,0.998513,0,0)"
         y="-358.39917"
         x="-589.22711"
         height="90"
         width="759"
         id="rect3829"
         style="opacity:1;fill:#cb773f;fill-opacity:1;fill-rule:nonzero;stroke:none;stroke-width:0.5;stroke-linecap:round;stroke-linejoin:round;stroke-miterlimit:4;stroke-dasharray:none;stroke-dashoffset:0;stroke-opacity:1" />
      <rect
         transform="matrix(0.9968519,7.9286282e-2,-7.9286282e-2,0.9968519,0,0)"
         y="-368.57117"
         x="-0.461501"
         height="90"
         width="759"
         id="rect3813"
         style="opacity:1;fill:#d38d5f;fill-opacity:1;fill-rule:nonzero;stroke:none;stroke-width:0.5;stroke-linecap:round;stroke-linejoin:round;stroke-miterlimit:4;stroke-dasharray:none;stroke-dashoffset:0;stroke-opacity:1" />
      <rect
         y="-416.25"
         x="40.5"
         height="400.5"
         width="88.5"
         id="rect4601"
         style="opacity:1;fill:#cf824f;fill-opacity:1;fill-rule:nonzero;stroke:none;stroke-width:0.5;stroke-linecap:round;stroke-linejoin:round;stroke-miterlimit:4;stroke-dasharray:none;stroke-dashoffset:0;stroke-opacity:1" />
      <rect
         y="-416.25"
         x="681.75"
         height="400.5"
         width="88.5"
         id="rect4603"
         style="opacity:1;fill:#cf824f;fill-opacity:1;fill-rule:nonzero;stroke:none;stroke-width:0.5;stroke-linecap:round;stroke-linejoin:round;stroke-miterlimit:4;stroke-dasharray:none;stroke-dashoffset:0;stroke-opacity:1" />
      <g
         transform="matrix(0.6834114,0.7300334,-0.7300334,0.6834114,41.978815,-620.45431)"
         id="g2530">
        <path
           style="fill:#b3b3b3;fill-opacity:1;fill-rule:nonzero;stroke:none;stroke-width:0.5;stroke-linecap:round;stroke-linejoin:round;stroke-miterlimit:4;stroke-dashoffset:0;stroke-opacity:1"
           d="M 740.1875,-281.21875 L 732.90625,-287.0625 L 717.4375,-263.96875 L 722.46875,-260.28125 L 740.1875,-281.21875 z"
           id="path4613" />
        <path
           style="fill:#b3b3b3;fill-opacity:1;fill-rule:nonzero;stroke:none;stroke-width:0.5;stroke-linecap:round;stroke-linejoin:round;stroke-miterlimit:4;stroke-dashoffset:0;stroke-opacity:1"
           d="M 728.84375,-300.53125 L 730.84375,-281.0625 L 740.1875,-281.21875 L 740.34375,-301.28125 L 728.84375,-300.53125 z"
           id="path4618" />
        <path
           style="opacity:1;fill:#8a8a8a;fill-opacity:1;fill-rule:nonzero;stroke:none;stroke-width:0.5;stroke-linecap:round;stroke-linejoin:round;stroke-miterlimit:4;stroke-dasharray:none;stroke-dashoffset:0;stroke-opacity:1"
           d="M 736.40625,-307.78125 C 729.87722,-307.78125 723.30833,-305.88578 721.71875,-303.5625 L 722.09813,-301.13803 L 729.39876,-295.34928 C 732.67297,-292.75312 740.88888,-296.10686 741.90625,-297.59375 L 745.375,-303.5625 C 746.96461,-305.88577 742.93529,-307.78125 736.40625,-307.78125 z"
           id="path4624"
           sodipodi:nodetypes="cccsccc" />
        <path
           sodipodi:type="arc"
           style="opacity:1;fill:#808080;fill-opacity:1;fill-rule:nonzero;stroke:none;stroke-width:0.5;stroke-linecap:round;stroke-linejoin:round;stroke-miterlimit:4;stroke-dasharray:none;stroke-dashoffset:0;stroke-opacity:1"
           id="path4620"
           sodipodi:cx="663.75378"
           sodipodi:cy="-336.79724"
           sodipodi:rx="11.82795"
           sodipodi:ry="7.3100753"
           d="M 675.58173,-336.79724 A 11.82795,7.3100753 0 1 1 651.92583,-336.79724 A 11.82795,7.3100753 0 1 1 675.58173,-336.79724 z"
           transform="matrix(1,0,-0.3939394,0.5757576,-62.899707,-109.65607)" />
      </g>
      <path
         transform="matrix(0.6774194,0,0,0.6774194,161.92211,-50.663871)"
         d="M -88.606976,-407.01828 A 13.734081,13.734081 0 1 1 -116.07514,-407.01828 A 13.734081,13.734081 0 1 1 -88.606976,-407.01828 z"
         sodipodi:ry="13.734081"
         sodipodi:rx="13.734081"
         sodipodi:cy="-407.01828"
         sodipodi:cx="-102.34106"
         id="path2536"
         style="opacity:1;fill:#8a8a8a;fill-opacity:1;fill-rule:nonzero;stroke:none;stroke-width:0.5;stroke-linecap:round;stroke-linejoin:round;stroke-miterlimit:4;stroke-dasharray:none;stroke-dashoffset:0;stroke-opacity:1"
         sodipodi:type="arc" />
    </g>
    <path
       style="fill:#997955;fill-opacity:1;fill-rule:nonzero;stroke:none;stroke-width:3;stroke-linecap:round;stroke-linejoin:round;stroke-miterlimit:4;stroke-dasharray:none;stroke-dashoffset:0;stroke-opacity:1"
       d="M 308.92747,627.01573 C 303.07259,642.67089 288.85611,653.73381 272.06167,653.73381 C 262.54235,653.73381 253.86799,650.16201 247.01351,644.22833 C 239.52867,648.07273 230.71808,650.39405 221.19464,650.39405 C 206.41192,650.39405 193.19248,644.97137 184.32888,636.52121 C 178.2322,655.25061 165.453,668.12045 150.80288,668.12045 C 138.887,668.12045 128.34404,659.54357 121.51576,646.28357 C 115.4526,663.54689 105.09716,674.92841 93.256322,674.92841 C 81.362763,674.92841 70.919443,663.41913 64.868364,646.02665 C 57.722004,656.97865 47.244765,663.88153 35.581285,663.88153 C 21.741686,663.88153 9.6164064,654.13973 2.6975268,639.47561 C 1.8504068,640.40053 0.92548684,641.33445 4.688597e-05,642.17309 L 4.688597e-05,742.36577 L 800.00001,742.36577 L 800.00001,643.32917 C 799.35341,642.91737 798.68749,642.52301 798.07321,642.04465 C 793.55861,646.21225 788.17649,648.72417 782.27361,648.72417 C 773.83345,648.72417 766.33685,643.64081 761.20745,635.75049 C 753.92041,645.17525 742.56293,651.16473 729.73669,651.16473 C 718.41629,651.16473 708.08917,646.55217 700.83493,638.96181 C 694.52737,642.44093 687.00605,644.48525 678.86965,644.48525 C 665.46229,644.48525 653.59149,638.91745 646.37125,630.48397 C 640.89381,641.37289 630.9633,648.72417 619.52474,648.72417 C 607.24242,648.72417 596.5383,640.28313 591.39374,628.04337 C 587.76122,644.56157 578.99018,656.30285 568.6577,656.30285 C 560.73998,656.30285 553.62894,649.46969 549.13298,638.83333 C 538.74414,649.44929 522.57534,656.30285 504.30318,656.30285 C 483.33498,656.30285 464.94098,647.33717 455.10598,633.95217 C 451.5167,648.74645 444.52122,658.87189 436.48043,658.87189 C 431.40279,658.87189 426.77195,654.76121 423.12143,648.08189 C 417.21291,660.89181 408.32995,669.01961 398.33015,669.01961 C 385.11087,669.01961 373.74627,654.73845 368.78615,634.33753 C 362.10755,641.53585 352.41879,646.15513 341.55431,646.15513 C 327.33371,646.15509 314.93151,638.35157 308.92747,627.01573 z"
       id="rect4952" />
    <path
       sodipodi:type="arc"
       style="fill:#e1caca;fill-opacity:1;fill-rule:nonzero;stroke:none;stroke-width:3;stroke-linecap:round;stroke-linejoin:round;stroke-miterlimit:4;stroke-dasharray:none;stroke-dashoffset:0;stroke-opacity:1"
       id="path4950"
       sodipodi:cx="369.01971"
       sodipodi:cy="96.081657"
       sodipodi:rx="47.372963"
       sodipodi:ry="29.278101"
       d="M 321.64675,96.081656 A 47.372963,29.278101 0 0 1 369.01972,66.803556 L 369.01971,96.081657 z"
       transform="matrix(3.9999998,0,0,-3.9999998,-1147.1296,893.15188)"
       sodipodi:start="3.1415927"
       sodipodi:end="4.712389" />
    <path
       sodipodi:type="arc"
       style="fill:#3f3223;fill-opacity:1;fill-rule:nonzero;stroke:none;stroke-width:3;stroke-linecap:round;stroke-linejoin:round;stroke-miterlimit:4;stroke-dasharray:none;stroke-dashoffset:0;stroke-opacity:1"
       id="path4948"
       sodipodi:cx="369.01971"
       sodipodi:cy="96.081657"
       sodipodi:rx="47.372963"
       sodipodi:ry="29.278101"
       d="M 369.01972,66.803556 A 47.372963,29.278101 0 0 1 369.01972,125.35976 L 369.01971,96.081657 z"
       transform="matrix(0,-1.9599999,-1.9599999,0,408.50283,1426.157)"
       sodipodi:start="4.712389"
       sodipodi:end="7.8539816" />
    <path
       sodipodi:type="arc"
       style="fill:#3f3223;fill-opacity:1;fill-rule:nonzero;stroke:none;stroke-width:3;stroke-linecap:round;stroke-linejoin:round;stroke-miterlimit:4;stroke-dasharray:none;stroke-dashoffset:0;stroke-opacity:1"
       id="path4944"
       sodipodi:cx="369.01971"
       sodipodi:cy="96.081657"
       sodipodi:rx="47.372963"
       sodipodi:ry="29.278101"
       d="M 369.01972,66.803556 A 47.372963,29.278101 0 0 1 369.01972,125.35976 L 369.01971,96.081657 z"
       transform="matrix(0,-1.9599999,-1.9599999,0,656.74813,1426.157)"
       sodipodi:start="4.712389"
       sodipodi:end="7.8539816" />
    <g
       id="g2670"
       transform="translate(739.7461,182.8439)">
      <path
         transform="matrix(3.9999998,0,0,3.9999998,-1890.9008,16.705661)"
         d="M 416.39268,96.081657 A 47.372963,29.278101 0 1 1 321.64675,96.081657 A 47.372963,29.278101 0 1 1 416.39268,96.081657 z"
         sodipodi:ry="29.278101"
         sodipodi:rx="47.372963"
         sodipodi:cy="96.081657"
         sodipodi:cx="369.01971"
         id="path2654"
         style="fill:#eadada;fill-opacity:1;fill-rule:nonzero;stroke:none;stroke-width:3;stroke-linecap:round;stroke-linejoin:round;stroke-miterlimit:4;stroke-dasharray:none;stroke-dashoffset:0;stroke-opacity:1"
         sodipodi:type="arc" />
      <path
         id="path2643"
         d="M -414.8125,283.90625 C -458.29823,283.90625 -498.3853,292.97735 -530.375,308.21875 L -519.71875,367.75 C -508.64476,427.50743 -488.84387,486.715 -470.21875,493.1875 C -462.80798,495.76285 -449.37238,495.52955 -432.875,492.46875 C -368.15446,480.46102 -256.23845,424.91196 -275.40625,324.78125 C -275.63344,323.59445 -275.86846,322.44243 -276.125,321.28125 C -310.72877,298.30878 -360.0612,283.90626 -414.8125,283.90625 z"
         style="fill:#ff7f2a;fill-opacity:1;fill-rule:nonzero;stroke:none;stroke-width:0.5;stroke-linecap:round;stroke-linejoin:round;stroke-miterlimit:4;stroke-dashoffset:0;stroke-opacity:1" />
      <path
         id="path2645"
         d="M -455.59375,286.65625 C -469.06082,288.4839 -481.99035,291.19166 -494.21875,294.6875 L -480.09375,367.78125 L -518.3125,375.09375 C -517.98944,376.72948 -517.6792,378.36941 -517.34375,380 L -479.15625,372.6875 L -455.75,494.90625 C -449.26051,494.84636 -441.5575,494.03949 -433,492.46875 C -427.86549,491.52631 -422.42641,490.31215 -416.78125,488.8125 L -440.4375,365.25 L -274.0625,333.40625 C -274.25877,331.76873 -274.51318,330.13141 -274.78125,328.46875 L -441.375,360.34375 L -455.59375,286.65625 z M -275.125,367.21875 L -404.375,391.96875 L -395.5,438.375 L -301.09375,420.3125 C -288.32339,404.99807 -278.93998,387.29081 -275.125,367.21875 z"
         style="fill:#ffff00;fill-opacity:1;fill-rule:nonzero;stroke:none;stroke-width:0.5;stroke-linecap:round;stroke-linejoin:round;stroke-miterlimit:4;stroke-dasharray:none;stroke-dashoffset:0;stroke-opacity:1" />
      <path
         id="path2647"
         d="M -458.9375,287.125 C -470.09995,288.77248 -480.88765,291.03474 -491.1875,293.84375 L -451.625,494.78125 C -446.1647,494.49045 -439.99137,493.74636 -433.3125,492.53125 C -429.30518,491.80217 -425.1137,490.8823 -420.78125,489.8125 L -458.9375,287.125 z M -276.25,372.46875 L -398.84375,395.9375 L -391.84375,432.625 L -296.40625,414.375 C -287.07227,401.87277 -280.00465,387.90724 -276.25,372.46875 z"
         style="fill:#b3b3b3;fill-opacity:1;fill-rule:nonzero;stroke:none;stroke-width:0.5;stroke-linecap:round;stroke-linejoin:round;stroke-miterlimit:4;stroke-dasharray:none;stroke-dashoffset:0;stroke-opacity:1" />
    </g>
    <path
       sodipodi:type="arc"
       style="fill:#e1caca;fill-opacity:1;fill-rule:nonzero;stroke:none;stroke-width:3;stroke-linecap:round;stroke-linejoin:round;stroke-miterlimit:4;stroke-dasharray:none;stroke-dashoffset:0;stroke-opacity:1"
       id="path4938"
       sodipodi:cx="369.01971"
       sodipodi:cy="96.081657"
       sodipodi:rx="47.372963"
       sodipodi:ry="29.278101"
       d="M 321.64675,96.081656 A 47.372963,29.278101 0 0 1 369.01972,66.803556 L 369.01971,96.081657 z"
       transform="matrix(0,3.9999998,-3.9999998,0,872.54828,-953.3317)"
       sodipodi:start="3.1415927"
       sodipodi:end="4.712389" />
    <path
       sodipodi:type="arc"
       style="fill:#e1caca;fill-opacity:1;fill-rule:nonzero;stroke:none;stroke-width:3;stroke-linecap:round;stroke-linejoin:round;stroke-miterlimit:4;stroke-dasharray:none;stroke-dashoffset:0;stroke-opacity:1"
       id="path4906"
       sodipodi:cx="369.01971"
       sodipodi:cy="96.081657"
       sodipodi:rx="47.372963"
       sodipodi:ry="29.278101"
       d="M 416.39268,96.081657 A 47.372963,29.278101 0 1 1 321.64675,96.081657 A 47.372963,29.278101 0 1 1 416.39268,96.081657 z"
       transform="matrix(3.9999998,0,0,3.9999998,-998.51948,98.437023)" />
    <g
       id="g3501"
       transform="matrix(0.9720635,-0.234718,0.234718,0.9720635,447.24627,-140.72971)">
      <path
         transform="translate(0,0.6607793)"
         sodipodi:end="6.2831853"
         sodipodi:start="3.1415927"
         d="M -251.09581,511.16201 A 85.901199,85.901199 0 0 1 -79.293411,511.16202 L -165.19461,511.16202 z"
         sodipodi:ry="85.901199"
         sodipodi:rx="85.901199"
         sodipodi:cy="511.16202"
         sodipodi:cx="-165.19461"
         id="path3495"
         style="opacity:1;fill:#eae058;fill-opacity:1;fill-rule:nonzero;stroke:none;stroke-width:0.5;stroke-linecap:round;stroke-linejoin:round;stroke-miterlimit:4;stroke-dasharray:none;stroke-dashoffset:0;stroke-opacity:1"
         sodipodi:type="arc" />
      <path
         transform="matrix(0.8,0,0,0.4,2.2025956,307.35799)"
         sodipodi:end="6.2831853"
         sodipodi:start="3.1415927"
         d="M -251.09581,511.16201 A 85.901199,85.901199 0 0 1 -79.293411,511.16202 L -165.19461,511.16202 z"
         sodipodi:ry="85.901199"
         sodipodi:rx="85.901199"
         sodipodi:cy="511.16202"
         sodipodi:cx="-165.19461"
         id="path3499"
         style="opacity:1;fill:#c9bd25;fill-opacity:1;fill-rule:nonzero;stroke:none;stroke-width:0.5;stroke-linecap:round;stroke-linejoin:round;stroke-miterlimit:4;stroke-dasharray:none;stroke-dashoffset:0;stroke-opacity:1"
         sodipodi:type="arc" />
    </g>
    <path
       sodipodi:type="arc"
       style="fill:#e1caca;fill-opacity:1;fill-rule:nonzero;stroke:none;stroke-width:3;stroke-linecap:round;stroke-linejoin:round;stroke-miterlimit:4;stroke-dasharray:none;stroke-dashoffset:0;stroke-opacity:1"
       id="path4936"
       sodipodi:cx="369.01971"
       sodipodi:cy="96.081657"
       sodipodi:rx="47.372963"
       sodipodi:ry="29.278101"
       d="M 321.64675,96.081656 A 47.372963,29.278101 0 0 1 369.01972,66.803556 L 369.01971,96.081657 z"
       transform="matrix(0,3.9999998,-3.9999998,0,711.72493,-950.1313)"
       sodipodi:start="3.1415927"
       sodipodi:end="4.712389" />
    <path
       sodipodi:type="arc"
       style="fill:#cda6a6;fill-opacity:1;fill-rule:nonzero;stroke:none;stroke-width:3;stroke-linecap:round;stroke-linejoin:round;stroke-miterlimit:4;stroke-dasharray:none;stroke-dashoffset:0;stroke-opacity:1"
       id="path4908"
       sodipodi:cx="369.01971"
       sodipodi:cy="96.081657"
       sodipodi:rx="47.372963"
       sodipodi:ry="29.278101"
       d="M 416.39268,96.081657 A 47.372963,29.278101 0 1 1 321.64675,96.081657 A 47.372963,29.278101 0 1 1 416.39268,96.081657 z"
       transform="matrix(2.7999999,0,0,2.7999999,-498.84829,248.86873)" />
    <path
       sodipodi:type="arc"
       style="fill:#000000;fill-opacity:1;fill-rule:nonzero;stroke:none;stroke-width:3;stroke-linecap:round;stroke-linejoin:round;stroke-miterlimit:4;stroke-dasharray:none;stroke-dashoffset:0;stroke-opacity:1"
       id="path4910"
       sodipodi:cx="369.01971"
       sodipodi:cy="96.081657"
       sodipodi:rx="47.372963"
       sodipodi:ry="29.278101"
       d="M 416.39268,96.081657 A 47.372963,29.278101 0 1 1 321.64675,96.081657 A 47.372963,29.278101 0 1 1 416.39268,96.081657 z"
       transform="matrix(0,0.98,-0.98,0,605.55698,157.90753)" />
    <path
       sodipodi:type="arc"
       style="fill:#000000;fill-opacity:1;fill-rule:nonzero;stroke:none;stroke-width:3;stroke-linecap:round;stroke-linejoin:round;stroke-miterlimit:4;stroke-dasharray:none;stroke-dashoffset:0;stroke-opacity:1"
       id="path4912"
       sodipodi:cx="369.01971"
       sodipodi:cy="96.081657"
       sodipodi:rx="47.372963"
       sodipodi:ry="29.278101"
       d="M 416.39268,96.081657 A 47.372963,29.278101 0 1 1 321.64675,96.081657 A 47.372963,29.278101 0 1 1 416.39268,96.081657 z"
       transform="matrix(0,0.882,-0.882,0,690.16077,190.77251)" />
    <path
       sodipodi:type="arc"
       style="fill:#000000;fill-opacity:1;fill-rule:nonzero;stroke:none;stroke-width:3;stroke-linecap:round;stroke-linejoin:round;stroke-miterlimit:4;stroke-dasharray:none;stroke-dashoffset:0;stroke-opacity:1"
       id="path4924"
       sodipodi:cx="254.01846"
       sodipodi:cy="66.803551"
       sodipodi:rx="4.1236763"
       sodipodi:ry="4.1236763"
       d="M 258.14214,66.803551 A 4.1236763,4.1236763 0 1 1 249.89479,66.803551 A 4.1236763,4.1236763 0 1 1 258.14214,66.803551 z"
       transform="matrix(3.9999998,0,0,3.9999998,-582.2846,161.61175)" />
    <path
       sodipodi:type="arc"
       style="fill:#000000;fill-opacity:1;fill-rule:nonzero;stroke:none;stroke-width:3;stroke-linecap:round;stroke-linejoin:round;stroke-miterlimit:4;stroke-dasharray:none;stroke-dashoffset:0;stroke-opacity:1"
       id="path4926"
       sodipodi:cx="254.01846"
       sodipodi:cy="66.803551"
       sodipodi:rx="4.1236763"
       sodipodi:ry="4.1236763"
       d="M 258.14214,66.803551 A 4.1236763,4.1236763 0 1 1 249.89479,66.803551 A 4.1236763,4.1236763 0 1 1 258.14214,66.803551 z"
       transform="matrix(3.5999998,0,0,3.5999998,-302.53442,186.68372)" />
    <path
       style="opacity:0.75;fill:#997955;fill-opacity:1;fill-rule:nonzero;stroke:none;stroke-width:0.5;stroke-linecap:round;stroke-linejoin:round;stroke-miterlimit:4;stroke-dasharray:none;stroke-dashoffset:0;stroke-opacity:1"
       d="M 333.0625,577.4998 C 325.20839,577.71531 314.83785,620.36107 307.53125,623.2498 C 300.22461,626.13854 263.50295,602.09871 257.625,607.3123 C 253.19328,611.24306 263.19974,634.54444 266.78125,648.7498 C 257.33523,648.10306 248.88932,647.25022 246.84375,644.8123 C 241.79348,638.7934 253.02299,596.36593 246.21875,592.4373 C 239.41444,588.50861 208.23752,619.42681 200.5,618.0623 C 192.88331,616.71909 174.66738,578.21377 166.71875,578.3123 C 166.59258,578.31386 166.46465,578.32223 166.34375,578.34355 C 158.98957,579.64013 154.99893,619.17754 148.78125,626.46855 C 168.80777,659.04172 211.64503,684.66871 265.25,695.8748 C 265.18787,695.60951 265.15625,695.35984 265.15625,695.1248 C 265.15625,695.02682 265.17649,694.91563 265.1875,694.8123 C 284.2737,698.80649 304.71066,700.99979 325.96875,700.9998 C 374.35925,700.99979 418.4993,689.7502 452,671.28105 C 447.18051,664.29852 406.90665,661.47024 402.96875,655.0623 C 398.85505,648.36828 416.1551,608.03941 410,603.15605 C 403.84501,598.27268 368.48525,624.26472 361.03125,621.78105 C 353.57715,619.29734 340.9165,577.28429 333.0625,577.4998 z"
       id="path3483" />
    <path
       sodipodi:type="arc"
       style="fill:#4d3d2b;fill-opacity:1;fill-rule:nonzero;stroke:none;stroke-width:3;stroke-linecap:round;stroke-linejoin:round;stroke-miterlimit:4;stroke-dasharray:none;stroke-dashoffset:0;stroke-opacity:1"
       id="path4942"
       sodipodi:cx="369.01971"
       sodipodi:cy="96.081657"
       sodipodi:rx="47.372963"
       sodipodi:ry="29.278101"
       d="M 369.01972,66.803556 A 47.372963,29.278101 0 0 1 369.01972,125.35976 L 369.01971,96.081657 z"
       transform="matrix(0,-1.9599999,-1.9599999,0,527.26466,1440.1775)"
       sodipodi:start="4.712389"
       sodipodi:end="7.8539816" />
    <path
       sodipodi:type="arc"
       style="fill:#4d3d2b;fill-opacity:1;fill-rule:nonzero;stroke:none;stroke-width:3;stroke-linecap:round;stroke-linejoin:round;stroke-miterlimit:4;stroke-dasharray:none;stroke-dashoffset:0;stroke-opacity:1"
       id="path4946"
       sodipodi:cx="369.01971"
       sodipodi:cy="96.081657"
       sodipodi:rx="47.372963"
       sodipodi:ry="29.278101"
       d="M 369.01972,66.803556 A 47.372963,29.278101 0 0 1 369.01972,125.35976 L 369.01971,96.081657 z"
       transform="matrix(0,-1.7639999,-1.7639999,0,353.38247,1363.2071)"
       sodipodi:start="4.712389"
       sodipodi:end="7.8539816" />
    <path
       style="fill:#bea68a;fill-opacity:1;fill-rule:nonzero;stroke:none;stroke-width:3;stroke-linecap:round;stroke-linejoin:round;stroke-miterlimit:4;stroke-dasharray:none;stroke-dashoffset:0;stroke-opacity:1"
       d="M 491.07258,684.64977 C 496.92746,700.30489 511.14394,711.36781 527.93838,711.36781 C 537.4577,711.36781 546.13206,707.79605 552.98654,701.86237 C 560.47138,705.70677 569.28198,708.02805 578.80542,708.02805 C 593.58814,708.02805 606.80758,702.60541 615.67118,694.15525 C 621.76786,712.88461 634.54706,725.75445 649.19717,725.75445 C 661.11305,725.75445 671.65601,717.17761 678.48429,703.91761 C 684.54745,721.18093 694.90289,732.56245 706.74373,732.56245 C 718.63729,732.56245 729.08061,721.05317 735.13169,703.66069 C 742.27805,714.61269 752.75529,721.51553 764.41877,721.51553 C 778.25837,721.51553 790.38365,711.77377 797.30253,697.10965 C 798.14965,698.03457 799.07457,698.96849 800.00001,699.80713 L 800.00001,799.9998 L 4.688597e-05,799.9998 L 4.688597e-05,700.96321 C 0.64664685,700.55141 1.3125668,700.15705 1.9268468,699.67869 C 6.4414466,703.84629 11.823566,706.35821 17.726446,706.35821 C 26.166606,706.35821 33.663205,701.27485 38.792605,693.38453 C 46.079645,702.80929 57.437124,708.79877 70.263363,708.79877 C 81.583763,708.79877 91.910882,704.18621 99.165122,696.59581 C 105.47268,700.07497 112.994,702.11929 121.1304,702.11929 C 134.53776,702.11929 146.40856,696.55149 153.6288,688.11797 C 159.10624,699.00689 169.03676,706.35821 180.47532,706.35821 C 192.75764,706.35821 203.46176,697.91717 208.60632,685.67741 C 212.23884,702.19561 221.00988,713.93685 231.34236,713.93685 C 239.26007,713.93685 246.37111,707.10369 250.86707,696.46737 C 261.25591,707.08333 277.42471,713.93685 295.69687,713.93685 C 316.66507,713.93685 335.05907,704.97121 344.89407,691.58621 C 348.48335,706.38049 355.47883,716.50593 363.51963,716.50593 C 368.59727,716.50593 373.22811,712.39525 376.87863,705.71593 C 382.78715,718.52585 391.67011,726.65365 401.66991,726.65365 C 414.88919,726.65365 426.25379,712.37245 431.21391,691.97157 C 437.8925,699.16989 447.58126,703.78913 458.44574,703.78913 C 472.66634,703.78909 485.06854,695.98557 491.07258,684.64977 z"
       id="path4988" />
    <path
       style="fill:#4d3d2b;fill-opacity:1;fill-rule:nonzero;stroke:none;stroke-width:0.5;stroke-linecap:round;stroke-linejoin:round;stroke-miterlimit:4;stroke-dashoffset:0;stroke-opacity:1"
       d="M 1000,355.9998 L 950,387.9998 C 932.336,387.9998 920,373.6638 920,355.9998 C 920,338.3358 932.336,323.9998 950,323.9998 L 1000,355.9998 z"
       id="path3796"
       sodipodi:nodetypes="csssc" />
    <path
       style="fill:#4d3d2b;fill-opacity:1;fill-rule:nonzero;stroke:none;stroke-width:0.5;stroke-linecap:round;stroke-linejoin:round;stroke-miterlimit:4;stroke-dashoffset:0;stroke-opacity:1"
       d="M 532.53282,639.86304 L 531.62052,619.9204 C 534.59067,614.77596 540.84012,613.59379 545.98456,616.56393 C 551.12901,619.53408 553.22995,625.53735 550.2598,630.6818 L 532.53282,639.86304 z"
       id="path3799"
       sodipodi:nodetypes="csssc" />
    <path
       style="fill:#4d3d2b;fill-opacity:1;fill-rule:nonzero;stroke:none;stroke-width:0.5;stroke-linecap:round;stroke-linejoin:round;stroke-miterlimit:4;stroke-dashoffset:0;stroke-opacity:1"
       d="M 544.69008,672.00602 L 543.77778,652.06338 C 546.74793,646.91894 552.99738,645.73677 558.14182,648.70691 C 563.28627,651.67706 565.38721,657.68033 562.41706,662.82478 L 544.69008,672.00602 z"
       id="path3801"
       sodipodi:nodetypes="csssc" />
    <g
       id="g2638"
       transform="translate(-29.072768,117.97307)">
      <path
         id="path2540"
         d="M -229.03125,117.59375 C -245.8099,117.68928 -259.04935,119.9835 -265.84375,123.90625 C -282.91979,133.76511 -291.23374,195.63246 -290.875,256.40625 L -42.90625,256.40625 C -42.870264,255.16499 -42.84375,253.91849 -42.84375,252.65625 C -42.84375,150.70743 -163.2073,117.21896 -229.03125,117.59375 z"
         style="fill:#ff7f2a;fill-opacity:1;fill-rule:nonzero;stroke:none;stroke-width:0.5;stroke-linecap:round;stroke-linejoin:round;stroke-miterlimit:4;stroke-dashoffset:0;stroke-opacity:1" />
      <path
         id="rect2547"
         d="M -229.15625,117.59375 C -237.85647,117.65996 -245.58373,118.3387 -251.96875,119.5 L -251.96875,243.9375 L -290.84375,243.9375 C -290.86663,245.60207 -290.86524,247.2702 -290.875,248.9375 L -251.96875,248.9375 L -251.96875,256.40625 L -212.53125,256.40625 L -212.53125,248.9375 L -42.90625,248.9375 C -42.955549,247.25409 -43.041139,245.58272 -43.15625,243.9375 L -212.53125,243.9375 L -212.53125,118.15625 C -218.35768,117.7447 -223.93612,117.55402 -229.15625,117.59375 z M -182.15625,163.6875 L -182.15625,210.9375 L -50.53125,210.9375 C -58.052029,191.94069 -70.609315,176.32781 -86.03125,163.6875 L -182.15625,163.6875 z"
         style="fill:#ffff00;fill-opacity:1;fill-rule:nonzero;stroke:none;stroke-width:0.5;stroke-linecap:round;stroke-linejoin:round;stroke-miterlimit:4;stroke-dasharray:none;stroke-dashoffset:0;stroke-opacity:1" />
      <path
         id="rect2549"
         d="M -229.46875,117.59375 C -236.25697,117.65602 -242.4574,118.10275 -247.875,118.84375 L -247.875,256.40625 L -216.65625,256.40625 L -216.65625,117.90625 C -221.11256,117.6701 -225.39582,117.55639 -229.46875,117.59375 z M -177.46875,168.625 L -177.46875,206 L -52.625,206 C -59.215354,191.54277 -68.794384,179.14935 -80.3125,168.625 L -177.46875,168.625 z"
         style="fill:#b3b3b3;fill-opacity:1;fill-rule:nonzero;stroke:none;stroke-width:0.5;stroke-linecap:round;stroke-linejoin:round;stroke-miterlimit:4;stroke-dasharray:none;stroke-dashoffset:0;stroke-opacity:1" />
    </g>
    <g
       id="g2626"
       transform="translate(0,199.9998)">
      <path
         sodipodi:nodetypes="cszc"
         id="path2620"
         d="M -273.69354,2.5634269 C -307.14289,-16.748573 -307.14289,-235.61787 -273.69353,-254.92987 C -240.24417,-274.24186 -50.697815,-254.119 -50.697815,-126.18322 C -50.697815,2.7907469 -240.24418,21.875427 -273.69354,2.5634269 z"
         style="fill:#ff7f2a;fill-opacity:1;fill-rule:nonzero;stroke:none;stroke-width:0.5;stroke-linecap:round;stroke-linejoin:round;stroke-miterlimit:4;stroke-dashoffset:0;stroke-opacity:1" />
      <path
         id="path2622"
         d="M -50.768448,-129.91194 C -50.817746,-131.59535 -50.903337,-133.26672 -51.018448,-134.91194 L -220.39344,-134.91194 L -220.39344,-260.69319 C -235.93058,-261.79066 -249.61491,-261.20752 -259.83094,-259.34944 L -259.83094,-134.91194 L -298.70594,-134.91194 C -298.72882,-133.24737 -298.72743,-131.57924 -298.73719,-129.91194 L -259.83094,-129.91194 L -259.83094,-122.34943 L -298.73719,-122.34943 C -298.7271,-120.68217 -298.72915,-119.01391 -298.70594,-117.34943 L -259.83094,-117.34943 L -259.83094,7.0255669 C -249.61491,8.9127369 -235.93058,9.5357469 -220.39344,8.4943169 L -220.39344,-117.34943 L -51.018448,-117.34943 C -50.904132,-118.98968 -50.818341,-120.67108 -50.768448,-122.34943 L -220.39344,-122.34943 L -220.39344,-129.91194 L -50.768448,-129.91194 z M -58.299698,-84.349433 L -190.01845,-84.349433 L -190.01845,-37.099433 L -93.487198,-37.099433 C -78.197851,-49.737013 -65.744531,-65.321703 -58.299698,-84.349433 z M -58.393448,-167.91194 C -65.914226,-186.90875 -78.471513,-202.52163 -93.893448,-215.16194 L -190.01845,-215.16194 L -190.01845,-167.91194 L -58.393448,-167.91194 z"
         style="fill:#ffff00;fill-opacity:1;fill-rule:nonzero;stroke:none;stroke-width:0.5;stroke-linecap:round;stroke-linejoin:round;stroke-miterlimit:4;stroke-dasharray:none;stroke-dashoffset:0;stroke-opacity:1" />
      <path
         id="path2624"
         d="M -60.393448,-79.411933 L -185.33095,-79.411933 L -185.33095,-42.036933 L -87.799698,-42.036933 C -76.391447,-52.556643 -66.915319,-64.942943 -60.393448,-79.411933 z M -60.487198,-172.84944 C -67.077551,-187.30667 -76.656582,-199.70009 -88.174698,-210.22444 L -185.33095,-210.22444 L -185.33095,-172.84944 L -60.487198,-172.84944 z M -224.51844,-260.94319 C -236.40194,-261.57293 -247.06903,-261.19129 -255.73719,-260.00569 L -255.73719,7.6818169 C -247.06903,8.8941769 -236.40194,9.3311669 -224.51844,8.7443169 L -224.51844,-260.94319 z"
         style="fill:#b3b3b3;fill-opacity:1;fill-rule:nonzero;stroke:none;stroke-width:0.5;stroke-linecap:round;stroke-linejoin:round;stroke-miterlimit:4;stroke-dasharray:none;stroke-dashoffset:0;stroke-opacity:1" />
    </g>
    <g
       id="g2701"
       style="fill:#5a4732;fill-opacity:1;stroke:none;stroke-opacity:1"
       transform="translate(0,199.9998)">
      <path
         sodipodi:nodetypes="csssc"
         id="path2697"
         d="M 133.53403,444.78545 L 134.44633,424.84281 C 131.47618,419.69837 125.22673,418.5162 120.08229,421.48634 C 114.93784,424.45649 112.8369,430.45976 115.80705,435.60421 L 133.53403,444.78545 z"
         style="fill:#5a4732;fill-opacity:1;fill-rule:nonzero;stroke:none;stroke-width:0.5;stroke-linecap:round;stroke-linejoin:round;stroke-miterlimit:4;stroke-dashoffset:0;stroke-opacity:1" />
      <path
         sodipodi:nodetypes="csssc"
         id="path2699"
         d="M 121.37677,476.92843 L 122.28907,456.98579 C 119.31892,451.84135 113.06947,450.65918 107.92503,453.62932 C 102.78058,456.59947 100.67964,462.60274 103.64979,467.74719 L 121.37677,476.92843 z"
         style="fill:#5a4732;fill-opacity:1;fill-rule:nonzero;stroke:none;stroke-width:0.5;stroke-linecap:round;stroke-linejoin:round;stroke-miterlimit:4;stroke-dashoffset:0;stroke-opacity:1" />
    </g>
    <path
       sodipodi:end="7.8539816"
       sodipodi:start="4.712389"
       transform="matrix(0,-1.9599999,-1.9599999,0,1216.7046,1758.9396)"
       d="M 369.01972,66.803556 A 47.372963,29.278101 0 0 1 369.01972,125.35976 L 369.01971,96.081657 z"
       sodipodi:ry="29.278101"
       sodipodi:rx="47.372963"
       sodipodi:cy="96.081657"
       sodipodi:cx="369.01971"
       id="path3479"
       style="fill:#4d3d2b;fill-opacity:1;fill-rule:nonzero;stroke:none;stroke-width:3;stroke-linecap:round;stroke-linejoin:round;stroke-miterlimit:4;stroke-dasharray:none;stroke-dashoffset:0;stroke-opacity:1"
       sodipodi:type="arc" />
    <path
       sodipodi:end="7.8539816"
       sodipodi:start="4.712389"
       transform="matrix(0,-1.7639999,-1.7639999,0,1042.8224,1681.9692)"
       d="M 369.01972,66.803556 A 47.372963,29.278101 0 0 1 369.01972,125.35976 L 369.01971,96.081657 z"
       sodipodi:ry="29.278101"
       sodipodi:rx="47.372963"
       sodipodi:cy="96.081657"
       sodipodi:cx="369.01971"
       id="path3481"
       style="fill:#4d3d2b;fill-opacity:1;fill-rule:nonzero;stroke:none;stroke-width:3;stroke-linecap:round;stroke-linejoin:round;stroke-miterlimit:4;stroke-dasharray:none;stroke-dashoffset:0;stroke-opacity:1"
       sodipodi:type="arc" />
  </g>
</svg>
