<?xml version="1.0" encoding="UTF-8" standalone="no"?>
<!-- Created with Inkscape (http://www.inkscape.org/) -->
<svg
   xmlns:dc="http://purl.org/dc/elements/1.1/"
   xmlns:cc="http://creativecommons.org/ns#"
   xmlns:rdf="http://www.w3.org/1999/02/22-rdf-syntax-ns#"
   xmlns:svg="http://www.w3.org/2000/svg"
   xmlns="http://www.w3.org/2000/svg"
   xmlns:xlink="http://www.w3.org/1999/xlink"
   xmlns:sodipodi="http://sodipodi.sourceforge.net/DTD/sodipodi-0.dtd"
   xmlns:inkscape="http://www.inkscape.org/namespaces/inkscape"
   id="svg2"
   sodipodi:version="0.32"
   inkscape:version="0.46"
   width="478"
   height="1200"
   version="1.0"
   sodipodi:docname="dvd.svg"
   inkscape:output_extension="org.inkscape.output.svg.inkscape">
  <metadata
     id="metadata7">
    <rdf:RDF>
      <cc:Work
         rdf:about="">
        <dc:format>image/svg+xml</dc:format>
        <dc:type
           rdf:resource="http://purl.org/dc/dcmitype/StillImage" />
      </cc:Work>
    </rdf:RDF>
  </metadata>
  <defs
     id="defs5">
    <inkscape:perspective
       sodipodi:type="inkscape:persp3d"
       inkscape:vp_x="0 : 526.18109 : 1"
       inkscape:vp_y="0 : 1000 : 0"
       inkscape:vp_z="744.09448 : 526.18109 : 1"
       inkscape:persp3d-origin="372.04724 : 350.78739 : 1"
       id="perspective9" />
  </defs>
  <sodipodi:namedview
     inkscape:window-height="851"
     inkscape:window-width="1440"
     inkscape:pageshadow="2"
     inkscape:pageopacity="0.0"
     guidetolerance="10.0"
     gridtolerance="10.0"
     objecttolerance="10.0"
     borderopacity="1.0"
     bordercolor="#666666"
     pagecolor="#ffffff"
     id="base"
     showgrid="false"
     inkscape:zoom="1.4019162"
     inkscape:cx="282.58239"
     inkscape:cy="984.01499"
     inkscape:window-x="-4"
     inkscape:window-y="-4"
     inkscape:current-layer="svg2" />
  <image
     xlink:href="dinky.jpg"
     sodipodi:absref="C:\Documents and Settings\Justin\My Documents\My Pictures\_doodles\caricatures\dinky.jpg"
     width="478"
     height="1200"
     id="image11"
     x="0"
     y="0" />
  <g
     id="g3449"
     transform="matrix(0.7071068,0.7071068,-0.7071068,0.7071068,492.13314,904.1351)">
    <path
       sodipodi:nodetypes="csccsssssssss"
       id="rect2384"
       d="M 90.909086,606.49352 C 109.99705,601.13604 106.72327,636.70003 110.54087,650.69423 C 139.3699,756.37302 190.92218,730.24782 199.35063,707.14287 L 272.72726,761.03898 C 266.45021,774.67534 347.29148,815.02999 364.28571,689.61041 C 366.89412,670.35999 399.90022,684.13436 402.50863,727.58267 C 405.71915,781.06024 374.79864,838.34921 374.13687,858.09344 C 373.02694,891.2087 432.40256,964.84046 438.81283,1033.3631 C 452.35787,1178.1528 327.26483,1177.8628 235.70791,1176.9413 C 193.97048,1176.5212 19.679191,1189.9956 42.831788,1031.8029 C 58.129848,927.27721 94.347778,908.39564 101.46083,847.18874 C 106.47299,804.05976 54.982691,733.14738 61.2608,663.48955 C 62.881387,645.50857 65.102329,613.73677 90.909086,606.49352 z"
       style="fill:#d68004;fill-opacity:1;fill-rule:evenodd;stroke:none;stroke-width:3;stroke-linecap:round;stroke-linejoin:round;stroke-miterlimit:4;stroke-dashoffset:0;stroke-opacity:1" />
    <path
       id="path2390"
       d="M 192.92188,801.9375 C 185.75305,801.93748 179.95313,807.76867 179.95313,814.9375 C 179.95312,822.10632 185.75305,827.9375 192.92188,827.9375 C 209.21267,827.9375 215.34691,834.59375 234.17188,834.59375 C 252.99686,834.59375 259.09984,827.9375 275.39063,827.9375 C 282.55947,827.9375 288.35939,822.10632 288.35938,814.9375 C 288.35939,807.76867 282.55946,801.93748 275.39063,801.9375 C 271.80622,801.93751 252.99685,801.93751 234.17188,801.9375 C 215.34693,801.93751 196.5063,801.93751 192.92188,801.9375 z M 192.92188,857.96875 C 185.75305,857.9687 179.95313,863.79992 179.95313,870.96875 C 179.95312,878.13754 185.75305,883.96875 192.92188,883.96875 C 209.21267,883.96872 215.34691,890.625 234.17188,890.625 C 252.99686,890.62497 259.09984,883.96875 275.39063,883.96875 C 282.55947,883.96872 288.35939,878.13757 288.35938,870.96875 C 288.35939,863.79989 282.55946,857.96873 275.39063,857.96875 C 271.80622,857.96873 252.99685,857.96876 234.17188,857.96875 C 215.34693,857.96873 196.5063,857.96876 192.92188,857.96875 z M 234.17188,902.625 C 207.376,902.625 180.59049,903.58139 178.67188,905.5 C 174.83466,909.33722 174.83466,957.56906 178.67188,961.40625 C 182.5091,965.24347 285.83467,965.24349 289.67188,961.40625 C 293.5091,957.56904 293.5091,909.33722 289.67188,905.5 C 287.75327,903.58139 260.96776,902.625 234.17188,902.625 z M 234.17188,969.1875 C 204.96541,969.1875 175.74674,970.14389 173.82813,972.0625 C 169.99091,975.89972 169.99091,1024.1628 173.82813,1028 C 174.6149,1028.7868 180.15196,1029.4109 188.23438,1029.875 C 188.44818,1050.0372 189.37339,1068.1077 191.04688,1069.7812 C 194.8841,1073.6184 273.45965,1073.6184 277.29688,1069.7812 C 278.97037,1068.1078 279.89558,1050.0371 280.10938,1029.875 C 288.1918,1029.4109 293.72886,1028.7868 294.51563,1028 C 298.35284,1024.1628 298.35284,975.89971 294.51563,972.0625 C 292.59702,970.14389 263.37835,969.1875 234.17188,969.1875 z"
       style="fill:#1a1a1a;fill-opacity:1;fill-rule:evenodd;stroke:none;stroke-width:3;stroke-linecap:round;stroke-linejoin:round;stroke-miterlimit:4;stroke-dasharray:none;stroke-dashoffset:0;stroke-opacity:1" />
    <path
       transform="translate(3.8961039,1.2987013)"
       d="M 337.66234,930.84418 A 13.311688,13.311688 0 1 1 311.03896,930.84418 A 13.311688,13.311688 0 1 1 337.66234,930.84418 z"
       sodipodi:ry="13.311688"
       sodipodi:rx="13.311688"
       sodipodi:cy="930.84418"
       sodipodi:cx="324.35065"
       id="path2408"
       style="fill:#1a1a1a;fill-opacity:1;fill-rule:evenodd;stroke:none;stroke-width:3;stroke-linecap:round;stroke-linejoin:round;stroke-miterlimit:4;stroke-dasharray:none;stroke-dashoffset:0;stroke-opacity:1"
       sodipodi:type="arc" />
    <path
       sodipodi:type="arc"
       style="fill:#1a1a1a;fill-opacity:1;fill-rule:evenodd;stroke:none;stroke-width:3;stroke-linecap:round;stroke-linejoin:round;stroke-miterlimit:4;stroke-dasharray:none;stroke-dashoffset:0;stroke-opacity:1"
       id="path2410"
       sodipodi:cx="324.35065"
       sodipodi:cy="930.84418"
       sodipodi:rx="13.311688"
       sodipodi:ry="13.311688"
       d="M 337.66234,930.84418 A 13.311688,13.311688 0 1 1 311.03896,930.84418 A 13.311688,13.311688 0 1 1 337.66234,930.84418 z"
       transform="translate(44.805195,95.454546)" />
    <path
       sodipodi:nodetypes="cccccccc"
       id="rect2412"
       d="M 367.31861,938.89323 C 367.52496,937.07672 369.05589,937.14023 370.8724,937.34657 C 376.2008,937.95184 380.48085,947.78619 377.29247,952.09809 L 392.75902,987.63583 C 393.48857,989.31212 389.9348,990.85876 389.20525,989.18247 L 372.45467,950.69444 C 374.3677,948.1073 371.79967,942.2067 368.60263,941.84353 C 367.60459,941.45078 367.19756,939.95892 367.31861,938.89323 z"
       style="fill:#8d4e34;fill-opacity:1;fill-rule:evenodd;stroke:none;stroke-width:3;stroke-linecap:round;stroke-linejoin:round;stroke-miterlimit:4;stroke-dashoffset:0;stroke-opacity:1" />
    <path
       sodipodi:nodetypes="cccccccc"
       id="rect2415"
       d="M 209.07097,166.26711 L 178.15417,140.55414 L 292.15702,18.9316 L 331.36932,15.835303 L 259.27249,166.26711 L 271.82288,792.26569 L 196.52058,792.26569 L 209.07097,166.26711 z"
       style="fill:#4d4d4d;fill-opacity:1;fill-rule:evenodd;stroke:none;stroke-width:3;stroke-linecap:round;stroke-linejoin:round;stroke-miterlimit:4;stroke-dashoffset:0;stroke-opacity:1" />
    <path
       sodipodi:nodetypes="csssssssss"
       id="rect2418"
       d="M 253.07566,48.543106 C 252.83207,47.792268 253.13094,46.647832 253.48963,45.944663 C 255.23185,42.529186 259.11136,38.649674 262.52684,36.907452 C 263.23001,36.548767 264.37444,36.249898 265.12528,36.493485 C 266.80826,37.039478 269.06145,38.910079 269.29564,40.663847 C 269.3833,41.320253 268.19903,42.579642 268.19903,42.579642 C 267.10242,44.495432 266.314,46.922206 264.90919,48.327018 C 263.50438,49.731825 261.07761,50.520241 259.16182,51.616853 C 259.16182,51.616853 257.90243,52.801128 257.24602,52.713469 C 255.49225,52.479269 253.62166,50.226091 253.07566,48.543106 z"
       style="fill:#000000;fill-opacity:1;fill-rule:evenodd;stroke:none;stroke-width:3;stroke-linecap:round;stroke-linejoin:round;stroke-miterlimit:4;stroke-dashoffset:0;stroke-opacity:1" />
    <path
       style="fill:#000000;fill-opacity:1;fill-rule:evenodd;stroke:none;stroke-width:3;stroke-linecap:round;stroke-linejoin:round;stroke-miterlimit:4;stroke-dashoffset:0;stroke-opacity:1"
       d="M 236.61114,66.115399 C 236.36755,65.364561 236.66642,64.220125 237.02511,63.516956 C 238.76733,60.101479 242.64684,56.221967 246.06232,54.479745 C 246.76549,54.12106 247.90992,53.822191 248.66076,54.065777 C 250.34374,54.611771 252.59692,56.482372 252.83112,58.23614 C 252.91878,58.892546 251.7345,60.151935 251.7345,60.151935 C 250.63789,62.067725 249.84948,64.494499 248.44467,65.899311 C 247.03986,67.304118 244.61309,68.092534 242.6973,69.189146 C 242.6973,69.189146 241.43791,70.373421 240.7815,70.285762 C 239.02773,70.051562 237.15713,67.798384 236.61114,66.115399 z"
       id="path2421"
       sodipodi:nodetypes="csssssssss" />
    <path
       sodipodi:nodetypes="csssssssss"
       id="path2423"
       d="M 220.1466,83.687787 C 219.90301,82.936947 220.20188,81.792507 220.56057,81.089337 C 222.30279,77.673863 226.1823,73.794351 229.59778,72.052129 C 230.30095,71.693443 231.44538,71.394575 232.19622,71.638161 C 233.8792,72.184155 236.13238,74.054756 236.36658,75.808524 C 236.45424,76.46493 235.26997,77.724319 235.26997,77.724319 C 234.17336,79.640107 233.38494,82.066887 231.98013,83.471697 C 230.57532,84.876507 228.14855,85.664917 226.23276,86.761527 C 226.23276,86.761527 224.97337,87.945807 224.31696,87.858147 C 222.56319,87.623947 220.6926,85.370767 220.1466,83.687787 z"
       style="fill:#000000;fill-opacity:1;fill-rule:evenodd;stroke:none;stroke-width:3;stroke-linecap:round;stroke-linejoin:round;stroke-miterlimit:4;stroke-dashoffset:0;stroke-opacity:1" />
    <path
       style="fill:#000000;fill-opacity:1;fill-rule:evenodd;stroke:none;stroke-width:3;stroke-linecap:round;stroke-linejoin:round;stroke-miterlimit:4;stroke-dashoffset:0;stroke-opacity:1"
       d="M 203.68207,101.26006 C 203.43849,100.50922 203.73736,99.364778 204.09605,98.661608 C 205.83827,95.246138 209.71778,91.366618 213.13325,89.624398 C 213.83643,89.265718 214.98086,88.966848 215.7317,89.210428 C 217.41468,89.756428 219.66786,91.627028 219.90206,93.380798 C 219.98972,94.037198 218.80544,95.296588 218.80544,95.296588 C 217.70883,97.212378 216.92042,99.639148 215.5156,101.04397 C 214.1108,102.44877 211.68403,103.23719 209.76824,104.3338 C 209.76824,104.3338 208.50884,105.51808 207.85244,105.43042 C 206.09867,105.19622 204.22807,102.94304 203.68207,101.26006 z"
       id="path2425"
       sodipodi:nodetypes="csssssssss" />
    <path
       sodipodi:nodetypes="csssssssss"
       id="path2427"
       d="M 187.21753,118.83229 C 186.97394,118.08146 187.27282,116.93702 187.6315,116.23385 C 189.37372,112.81837 193.25324,108.93886 196.66871,107.19664 C 197.37188,106.83795 198.51631,106.53909 199.26715,106.78267 C 200.95014,107.32866 203.20332,109.19927 203.43752,110.95304 C 203.52518,111.60944 202.3409,112.86883 202.3409,112.86883 C 201.24429,114.78462 200.45588,117.21139 199.05106,118.61621 C 197.64626,120.02101 195.21948,120.80943 193.30369,121.90604 C 193.30369,121.90604 192.0443,123.09032 191.38789,123.00266 C 189.63413,122.76846 187.76353,120.51528 187.21753,118.83229 z"
       style="fill:#000000;fill-opacity:1;fill-rule:evenodd;stroke:none;stroke-width:3;stroke-linecap:round;stroke-linejoin:round;stroke-miterlimit:4;stroke-dashoffset:0;stroke-opacity:1" />
    <path
       style="fill:#000000;fill-opacity:1;fill-rule:evenodd;stroke:none;stroke-width:3;stroke-linecap:round;stroke-linejoin:round;stroke-miterlimit:4;stroke-dashoffset:0;stroke-opacity:1"
       d="M 170.75301,136.40468 C 170.50942,135.65384 170.80829,134.50941 171.16698,133.80624 C 172.9092,130.39076 176.78871,126.51125 180.20419,124.76903 C 180.90736,124.41034 182.05179,124.11148 182.80263,124.35506 C 184.48561,124.90105 186.73879,126.77166 186.97299,128.52542 C 187.06065,129.18183 185.87638,130.44122 185.87638,130.44122 C 184.77976,132.35701 183.99135,134.78378 182.58654,136.1886 C 181.18173,137.5934 178.75496,138.38182 176.83917,139.47843 C 176.83917,139.47843 175.57978,140.66271 174.92337,140.57505 C 173.1696,140.34085 171.29901,138.08767 170.75301,136.40468 z"
       id="path2429"
       sodipodi:nodetypes="csssssssss" />
    <path
       sodipodi:nodetypes="cssccssssscssssscccssscscssscscsscsscccsssccssscccsccssccccsssscccscccscsscsscscccssccccscsssscsssccccsscssssscssccssssscsscccsscsccscscccscscsscsscccscsscsssscsccccssssssscsscsscsssccccssccscccscsssssscccsccssssscscsscssssscccscssscscccssssssscsccscssccccccscsscsscscccssccscscsssscssscc"
       id="text2461"
       d="M 256.55473,103.49692 C 257.18558,103.97089 257.79262,104.90502 258.37591,106.29928 C 258.95917,107.69362 259.33166,109.27226 259.4933,111.03527 C 259.65495,112.79833 259.49686,114.44722 259.019,115.9819 C 258.80838,116.69324 258.62639,117.23887 258.473,117.61877 C 258.99012,118.3784 259.51835,119.14262 260.05771,119.9114 C 260.59709,120.68021 261.12479,121.45441 261.64087,122.23403 C 262.15696,123.01368 262.6868,123.86291 263.23045,124.78169 C 263.6287,125.46029 263.95438,126.0034 264.20748,126.41098 C 264.46059,126.81863 264.82343,127.39307 265.29601,128.13432 C 265.76859,128.87562 266.12308,129.44361 266.35946,129.83831 C 266.78135,129.54182 267.46791,129.14465 268.41912,128.6468 C 269.37034,128.14896 270.05783,127.70771 270.4816,127.32303 C 270.59971,127.21145 270.93066,126.91493 271.47446,126.43347 C 272.01826,125.95204 272.45242,125.52175 272.77694,125.14264 C 273.10146,124.76356 273.41677,124.30373 273.72289,123.76317 C 274.2321,122.86403 274.72772,121.71005 275.20979,120.30123 L 275.37765,120.31393 L 275.84786,125.81089 C 275.66002,126.28802 275.44985,126.73188 275.21734,127.14247 C 274.67574,128.09882 274.00962,128.94173 273.21897,129.67121 C 272.42829,130.40071 271.40433,131.1937 270.14704,132.05019 C 268.88974,132.90668 268.15805,133.41388 267.95196,133.57173 C 268.17512,134.37769 268.17917,135.28266 267.96411,136.28662 C 267.74908,137.2906 267.3918,138.2518 266.8923,139.17018 C 266.35364,140.12133 265.70646,140.83082 264.95073,141.29863 C 264.19498,141.76646 263.5052,141.90267 262.88137,141.70727 C 262.7071,141.66349 262.45102,141.54594 262.11319,141.35462 C 261.15165,140.81008 260.56291,140.01332 260.34696,138.96434 C 260.14881,137.72636 260.5251,136.26798 261.47582,134.58917 C 261.99975,133.66402 262.56546,132.91355 263.17299,132.33775 C 262.99639,132.07988 262.63931,131.5104 262.10173,130.62935 C 261.56417,129.74833 260.88137,128.67519 260.05337,127.41002 C 258.78641,125.47753 257.5686,123.70672 256.39994,122.09759 C 256.01605,122.64216 255.53854,123.21264 254.96739,123.809 C 254.3535,124.45671 253.58765,124.84844 252.66984,124.98421 C 251.75207,125.12003 250.96834,125.00396 250.31863,124.63602 L 248.40583,120.26816 L 248.56872,120.14417 C 248.62541,120.23807 248.77069,120.35123 249.00456,120.48367 C 249.53471,120.78391 250.22809,120.95349 251.08468,120.99238 C 251.9413,121.03132 252.60046,120.87949 253.06217,120.53688 C 253.50175,120.20921 253.96761,119.78659 254.45976,119.26903 C 252.9481,116.89593 251.9436,114.72424 251.44623,112.75392 C 251.07189,111.3544 250.96556,110.00882 251.12725,108.71719 C 251.28897,107.42561 251.64355,106.29645 252.19101,105.32968 C 252.75027,104.34218 253.41597,103.67578 254.1881,103.33048 C 254.96025,102.98524 255.74912,103.04073 256.55473,103.49692 L 256.55473,103.49692 z M 255.89194,106.54003 C 255.21751,106.28855 254.70369,106.47464 254.35048,107.09831 C 253.89719,107.89877 253.95761,109.05875 254.53173,110.57826 C 255.08833,111.97121 255.90524,113.5287 256.98247,115.25076 C 257.26967,114.6103 257.54258,113.91023 257.80117,113.15053 C 258.1901,111.99106 258.2342,110.74956 257.93346,109.42601 C 257.63274,108.10251 256.95223,107.14052 255.89194,106.54003 L 255.89194,106.54003 z M 265.15456,135.52956 C 264.32919,136.284 263.85719,136.74778 263.73857,136.92084 C 263.30295,137.69009 263.09302,138.38806 263.10877,139.01477 C 263.12455,139.64151 263.29873,140.04906 263.63138,140.23744 C 264.16152,140.53766 264.72829,140.15503 265.3317,139.08953 C 265.54951,138.70492 265.65857,138.17293 265.65892,137.49354 C 265.65926,136.81416 265.49114,136.1595 265.15456,135.52956 L 265.15456,135.52956 z M 272.18702,104.49333 C 272.97506,105.96243 273.68597,107.41014 274.31975,108.83645 C 274.95354,110.26281 275.37645,111.38266 275.58853,112.19605 C 275.99345,113.83259 276.04522,115.0563 275.74386,115.86725 C 275.28763,116.67286 274.3491,116.71798 272.9283,116.00259 C 273.67936,118.44608 273.64282,120.39547 272.81866,121.85076 C 272.49195,122.4277 272.12049,122.83512 271.7043,123.07307 C 271.09604,123.45623 270.29034,123.36377 269.28722,122.7957 C 268.49721,122.34831 267.70027,121.64643 266.89642,120.69011 C 266.09258,119.73378 265.38926,118.61814 264.78644,117.3432 C 264.02658,115.69103 263.58185,114.15209 263.45223,112.72639 C 263.32264,111.30072 263.53745,110.0941 264.09669,109.10658 C 264.40577,108.56085 264.8407,108.08983 265.40148,107.6935 C 265.3455,107.5863 265.29433,107.47667 265.24795,107.36459 C 265.20159,107.25253 265.14297,107.13182 265.07208,107.00241 L 266.56262,103.62492 C 267.39921,105.19015 268.84652,107.20418 270.90456,109.66702 C 271.74428,110.70546 272.4656,111.3954 273.06852,111.73683 C 273.48951,111.97525 273.76623,111.97751 273.89869,111.74361 C 273.96933,111.6189 273.98772,111.39248 273.95386,111.06439 C 273.8364,110.38696 272.91367,108.28903 271.18569,104.77059 L 272.18702,104.49333 z M 266.01106,108.70799 C 265.78419,108.85409 265.59568,109.05967 265.44556,109.32473 C 265.10119,109.93285 265.09734,110.75785 265.43401,111.79967 C 265.81284,113.00955 266.47985,114.31055 267.43502,115.70267 C 268.39021,117.09478 269.26282,118.01455 270.05285,118.46194 C 270.19837,118.54437 270.37127,118.61482 270.57153,118.67331 C 271.02091,118.77677 271.35743,118.631 271.58113,118.23599 C 271.9726,117.54473 271.94227,116.50132 271.49012,115.10577 C 270.47293,114.34438 269.56301,113.4481 268.76034,112.41692 C 268.67544,112.30021 268.40482,111.9599 267.94848,111.39599 C 267.49214,110.83211 267.1016,110.3278 266.77685,109.88302 C 266.45212,109.43829 266.19685,109.04662 266.01106,108.70799 L 266.01106,108.70799 z M 271.97319,84.252669 C 272.49531,84.967097 272.94296,86.061494 273.31612,87.535848 C 273.04516,87.965883 272.6087,88.712349 272.00676,89.775219 C 271.40484,90.838133 270.78084,91.939999 270.13475,93.080839 C 269.48868,94.221709 268.94186,95.163079 268.49425,95.904919 C 269.41614,97.113449 270.30947,98.266319 271.17423,99.363529 C 272.039,100.46077 272.74838,101.36876 273.30236,102.08749 C 273.85637,102.80621 274.22288,103.32268 274.40189,103.63685 C 274.97485,104.6615 275.60177,105.36661 276.28264,105.75219 C 276.66725,105.97001 276.92579,105.96196 277.05824,105.72808 C 277.12888,105.60334 277.15958,105.39762 277.15032,105.11093 C 277.10011,104.58141 276.95158,103.96188 276.70472,103.25233 C 276.45786,102.54279 276.12699,101.71187 275.71212,100.75958 C 275.29726,99.807329 274.97612,99.047139 274.74869,98.478999 L 275.81605,98.321519 C 277.24415,101.6907 278.18858,103.9897 278.64934,105.21851 C 279.11011,106.44732 279.34203,107.65294 279.34512,108.83537 C 279.34592,109.23395 279.28009,109.5502 279.14763,109.78408 C 278.88273,110.25186 278.41466,110.48444 277.74341,110.48187 C 277.07217,110.47927 276.35194,110.26015 275.58269,109.82453 C 274.62116,109.28 273.74721,108.48991 272.96082,107.45422 C 272.8217,107.29993 272.54033,106.9604 272.11673,106.43564 C 271.69317,105.91089 271.00569,105.01876 270.05434,103.75923 C 269.10302,102.49972 267.95315,100.91499 266.60478,99.005019 C 265.83656,100.36158 265.02595,101.96871 264.17296,103.82642 C 263.92488,103.65846 263.70539,103.32481 263.51454,102.82545 C 263.73851,102.11482 263.94698,101.41946 264.13992,100.73931 C 264.3329,100.0592 264.5026,99.492889 264.64899,99.040369 C 264.79544,98.587879 265.01276,97.979889 265.30096,97.216399 C 265.1542,97.002869 264.90405,96.641539 264.55053,96.132439 C 264.19702,95.623349 263.9279,95.240989 263.74315,94.985349 C 264.36007,93.193019 264.8613,91.956399 265.24687,91.275503 C 265.42485,91.506739 265.68158,91.895819 266.01709,92.442759 C 266.35261,92.989719 266.67122,93.475609 266.9729,93.900449 C 267.71911,92.400999 268.56779,90.729634 269.51899,88.886335 C 270.47019,87.043094 271.28826,85.498539 271.97319,84.252669 L 271.97319,84.252669 z M 280.75734,89.505226 C 281.31544,90.713689 281.36344,91.725919 280.90133,92.541909 C 280.56578,93.134449 280.0113,93.537759 279.2379,93.751889 C 279.93755,94.964979 280.62656,96.357379 281.30499,97.929109 C 281.98342,99.500869 282.51722,100.89461 282.90645,102.11035 C 282.875,102.40832 282.833,102.89765 282.78043,103.57835 C 282.72787,104.25905 282.67995,104.79821 282.63666,105.19586 C 282.59338,105.59351 282.53728,105.88952 282.46839,106.0839 C 282.0179,105.69149 281.15431,104.94673 279.87761,103.84962 C 278.60091,102.75249 277.23266,101.5898 275.77281,100.3615 C 274.313,99.133229 272.83208,97.911859 271.33006,96.697439 C 271.19625,95.042869 271.30206,93.668119 271.64751,92.573239 C 274.97821,95.564619 277.82045,98.018529 280.1742,99.934959 C 280.08475,99.026259 279.83109,97.995379 279.41322,96.842339 C 278.99536,95.689309 278.46265,94.726949 277.8151,93.955199 C 277.21625,93.897519 276.60239,93.690589 275.97347,93.334439 C 275.25103,92.925309 274.65343,92.377529 274.18067,91.691059 C 273.70794,91.004624 273.46862,90.278747 273.4627,89.513421 C 273.44736,89.188997 273.49857,88.922833 273.61629,88.714901 C 273.91947,88.179577 274.52844,88.170927 275.4432,88.688949 C 276.22283,89.130482 276.92474,89.781962 277.54893,90.643407 C 277.67854,90.826661 277.83504,91.11092 278.0184,91.496199 C 278.20179,91.881499 278.35873,92.183149 278.48922,92.401199 C 279.1189,92.380259 279.54557,92.172269 279.76926,91.777259 C 280.02534,91.325085 279.99562,90.632109 279.68009,89.698328 L 280.75734,89.505226 z M 286.37337,79.588375 C 287.66624,81.899372 288.58613,84.699294 289.13302,87.988142 C 289.54772,90.625554 289.43866,92.502979 288.80583,93.620449 C 288.66455,93.869929 288.50091,94.086159 288.31491,94.269119 C 287.63882,94.929639 286.97137,95.332469 286.31254,95.477639 C 285.65373,95.622819 284.82016,95.409869 283.81184,94.838859 C 283.10499,94.438549 282.38545,93.921249 281.65322,93.286909 C 280.59839,92.373799 279.73204,91.152106 279.05413,89.62184 C 278.37626,88.091604 277.96357,86.553644 277.81607,85.008001 C 277.6686,83.462384 277.79091,82.234273 278.18301,81.323681 C 278.70106,80.408938 279.29483,79.775593 279.96432,79.423672 C 280.63384,79.071777 281.33761,79.104796 282.07566,79.522741 C 282.73054,79.893643 283.31741,80.493702 283.83628,81.322929 C 284.57937,82.471408 285.02138,83.545455 285.1623,84.545068 C 285.30323,85.544722 285.26355,86.442082 285.04323,87.237149 C 284.82294,88.032216 284.45434,89.031614 283.9374,90.235304 C 284.23961,90.598647 284.57002,90.881872 284.92865,91.084967 C 285.41721,91.36165 285.88889,91.434829 286.34364,91.304532 C 286.79842,91.174244 287.15973,90.872603 287.42757,90.399618 C 287.81022,89.723945 287.94863,88.831031 287.84284,87.720863 C 287.60548,84.964249 286.74168,82.295609 285.25143,79.714956 L 286.37337,79.588375 z M 281.94251,83.030576 C 281.67446,82.679716 281.41827,82.435099 281.17399,82.296751 C 280.76859,82.067178 280.46287,82.13429 280.25683,82.4981 C 280.02429,82.908711 280.00782,83.434793 280.20736,84.076359 C 280.84485,86.077977 281.80384,87.78459 283.08434,89.19617 C 283.26395,89.085105 283.42733,88.899634 283.57449,88.639743 C 284.31624,87.329985 283.77226,85.460254 281.94251,83.030576 L 281.94251,83.030576 z M 291.15495,71.145005 C 291.67774,72.415833 292.2611,73.976629 292.90503,75.827433 C 293.54897,77.678264 294.03399,79.097569 294.36009,80.085375 C 294.5825,80.698705 294.66955,81.369233 294.62124,82.09696 C 294.57294,82.824686 294.41634,83.422434 294.15142,83.890216 C 293.76584,84.571088 293.27418,84.742266 292.67646,84.403778 C 292.52054,84.315482 292.3459,84.175402 292.15253,83.983509 C 291.72784,83.557665 291.16415,82.819716 290.46143,81.769635 C 289.75873,80.71958 289.10731,79.66078 288.50714,78.593262 C 287.90697,77.525785 287.53893,76.754467 287.40299,76.279337 L 286.52762,79.243265 C 286.52037,79.280354 286.49758,79.617539 286.45929,80.254834 C 286.37738,80.338871 286.27235,80.430418 286.14418,80.52942 C 286.01603,80.628476 285.91723,80.702936 285.84777,80.75284 C 285.37695,80.08121 284.94272,79.58131 284.54506,79.253152 C 282.74154,78.23179 281.68816,77.213088 281.38489,76.197019 C 281.07195,75.161768 281.06854,74.373847 281.37466,73.833298 C 281.60424,73.427899 281.96332,73.363541 282.45187,73.64021 C 282.77933,73.825668 283.03783,73.999506 283.22737,74.161751 C 283.41694,74.324037 283.57742,74.492139 283.70885,74.666098 C 283.84029,74.840084 283.93392,74.95659 283.9897,75.015629 C 284.23106,74.589449 284.49709,73.931816 284.78777,73.042731 C 285.07848,72.153686 285.24043,71.310139 285.27364,70.512062 C 285.45694,70.588416 285.70711,70.716367 286.02415,70.895901 C 286.51272,71.172597 286.92403,71.443288 287.25807,71.707947 C 287.59211,71.972647 287.832,72.170262 287.97773,72.300819 C 288.3108,74.13694 288.90393,75.586564 289.75708,76.649756 C 290.61023,77.712962 291.41623,78.459428 292.17506,78.889154 C 292.36738,78.99807 292.49297,79.000541 292.55183,78.896582 C 292.66075,78.704287 292.60583,78.252746 292.38711,77.541972 C 292.16841,76.831211 291.77064,75.703284 291.19382,74.158178 C 290.617,72.613099 290.26714,71.658178 290.14422,71.293374 L 291.15495,71.145005 z M 286.7226,61.262539 C 287.11185,61.908576 287.33979,62.609127 287.40639,63.364173 C 287.47304,64.119249 287.37392,64.730676 287.10899,65.198437 C 286.73188,65.767419 286.22106,65.869416 285.57655,65.504417 C 285.20756,65.295451 284.8844,64.975156 284.60711,64.543544 C 284.23141,63.946382 284.01206,63.26099 283.94904,62.487375 C 283.88606,61.713786 283.98701,61.093099 284.2519,60.625307 C 284.62159,60.045272 285.12089,59.933319 285.74977,60.289456 C 286.10841,60.492569 286.43269,60.816927 286.7226,61.262539 L 286.7226,61.262539 z M 294.2091,65.461045 C 294.82814,66.525524 295.38821,67.618377 295.88929,68.739601 C 296.39039,69.860838 296.80516,70.931472 297.1336,71.95149 C 297.46206,72.971535 297.68533,73.853044 297.80339,74.596045 C 297.92147,75.339058 297.94732,75.938901 297.88092,76.395534 C 297.86019,76.589723 297.80272,76.769969 297.70854,76.936298 C 297.46129,77.372889 297.05098,77.600446 296.47761,77.618957 C 295.90424,77.637481 295.26673,77.448047 294.56507,77.050695 C 293.95176,76.703368 293.41301,76.285006 292.94881,75.795583 C 292.07777,74.89731 291.25446,73.839007 290.47887,72.620662 C 289.70328,71.402344 288.85916,69.944405 287.94648,68.246873 C 288.04728,67.487095 288.40327,66.240299 289.01446,64.5065 C 289.46675,65.17452 290.28644,66.445288 291.47353,68.318808 C 292.66063,70.192354 293.46954,71.360929 293.90029,71.82452 C 294.35273,72.334724 294.75566,72.689896 295.10908,72.890036 C 295.46772,73.093145 295.70737,73.088135 295.82805,72.875045 C 295.92811,72.698332 295.91217,72.308315 295.78019,71.705006 C 295.43963,70.427582 294.61786,68.472617 293.31485,65.840124 L 294.2091,65.461045 z M 301.03628,47.574698 C 305.38567,53.718779 306.90801,60.123847 304.49514,65.09789 C 304.03891,65.90351 303.10039,65.948621 301.67959,65.233235 C 302.43064,67.676717 302.3941,69.626107 301.56995,71.081399 C 301.24323,71.658325 300.87178,72.065766 300.45558,72.30372 C 299.84733,72.686874 299.04163,72.594427 298.0385,72.02634 C 297.2485,71.578936 296.45155,70.877081 295.6477,69.920749 C 294.84386,68.964418 294.14054,67.848796 293.53771,66.573843 C 292.77787,64.921668 292.33313,63.382738 292.20351,61.957036 C 292.07392,60.531368 292.28874,59.324755 292.84796,58.337217 C 293.15705,57.791489 293.59197,57.320459 294.15275,56.924134 C 294.09677,56.816943 294.04561,56.707305 293.99922,56.595223 C 293.95287,56.483176 293.89424,56.362453 293.82336,56.233052 L 295.3139,52.855564 C 296.15049,54.420785 297.5978,56.43482 299.65584,58.897673 C 300.49557,59.936109 301.21687,60.626046 301.81979,60.96747 C 302.24079,61.205897 302.51752,61.208156 302.64997,60.974254 C 302.72061,60.849534 302.739,60.623123 302.70513,60.295033 C 301.88955,56.523401 300.79712,52.828432 297.63619,49.706192 C 296.388,48.623281 299.62012,45.574167 301.03628,47.574698 z M 294.76233,57.938632 C 294.53546,58.084732 294.34697,58.290318 294.19685,58.555378 C 293.85247,59.163501 293.84864,59.988481 294.1853,61.030319 C 294.56411,62.240197 295.23112,63.541192 296.1863,64.933307 C 297.1415,66.325424 298.01409,67.245191 298.80412,67.692582 C 298.94966,67.775007 299.12255,67.845464 299.32282,67.903952 C 299.77219,68.007414 300.10872,67.861651 300.33241,67.466636 C 300.72389,66.775367 300.69356,65.731962 300.24141,64.336414 C 299.22422,63.575023 298.31428,62.678746 297.51163,61.647573 C 297.42671,61.530862 297.15609,61.190545 296.69974,60.626638 C 296.24343,60.062754 295.85289,59.558437 295.52814,59.113666 C 295.2034,58.668932 294.94814,58.277249 294.76233,57.938632 L 294.76233,57.938632 z"
       style="font-size:40px;font-style:normal;font-variant:normal;font-weight:normal;font-stretch:normal;text-align:start;line-height:100%;writing-mode:lr-tb;text-anchor:start;fill:#ffffff;fill-opacity:1;stroke:none;stroke-width:1px;stroke-linecap:butt;stroke-linejoin:miter;stroke-opacity:1;font-family:CC Spills;-inkscape-font-specification:CC Spills" />
    <path
       sodipodi:nodetypes="cccccccccccccccccccccccccccccccccccccccc"
       id="path2511"
       d="M 212.875,179.625 L 211.875,223.625 L 256.46875,223.625 C 238.58856,213.30187 223.19813,197.50519 212.875,179.625 z M 211.03125,270.4375 L 210.3125,300.9375 L 258.03125,300.9375 C 239.99129,296.10371 224.23741,283.64366 211.03125,270.4375 z M 209.53125,344.71875 L 208.90625,372.21875 L 259.4375,372.21875 C 241.09089,367.30279 222.9619,358.1494 209.53125,344.71875 z M 208.15625,413 L 207.59375,437.5 L 260.75,437.5 C 242.06891,432.49442 223.23036,425.11653 208.15625,413 z M 206.90625,475.3125 L 206.40625,496.8125 L 261.9375,496.8125 C 242.91454,491.71531 223.96177,485.15951 206.90625,475.3125 z M 205.28125,557.5 L 204.84375,574.5 L 263.5,574.5 C 243.28333,574.5 222.7894,567.60833 205.28125,557.5 z M 203.90625,626.1875 L 203.5625,638.6875 L 264.78125,638.6875 C 244.21293,636.22641 223.42189,633.13392 203.90625,626.1875 z M 203.125,664.46875 L 202.875,673.96875 L 265.46875,673.96875 C 244.52256,672.19522 223.42986,669.90942 203.125,664.46875 z M 202.46875,696.78125 L 202.25,704.78125 L 266.09375,704.78125 C 244.76151,703.42481 223.14887,702.18841 202.46875,696.78125 z M 201.875,727.5625 L 201.625,735.5625 L 266.71875,735.5625 C 244.97004,734.42446 223.27226,731.61944 201.875,727.5625 z"
       style="fill:#ffffff;fill-opacity:1;fill-rule:evenodd;stroke:none;stroke-width:3;stroke-linecap:round;stroke-linejoin:round;stroke-miterlimit:4;stroke-dashoffset:0;stroke-opacity:1" />
    <path
       id="path2571"
       d="M 331.375,15.84375 L 292.15625,18.9375 L 178.15625,140.5625 L 209.0625,166.28125 L 196.53125,792.28125 L 271.8125,792.28125 L 259.28125,166.28125 L 331.375,15.84375 z M 328.0625,18.125 L 257.28125,166.3125 L 269.78125,790.28125 L 198.5625,790.28125 L 208.125,313.28125 L 210.75,165.65625 L 181.0625,140.40625 L 293.09375,20.875 L 328.0625,18.125 z"
       style="fill:#ffffff;fill-opacity:1;fill-rule:evenodd;stroke:none;stroke-width:3;stroke-linecap:round;stroke-linejoin:round;stroke-miterlimit:4;stroke-dashoffset:0;stroke-opacity:1" />
    <path
       sodipodi:nodetypes="ccccccccccccccccccccccccccccccccccccccccccccccccccccccccccccccccccccccccccccccccccccccccccccccccccccccccccccccccccccccccccccc"
       id="path2574"
       d="M 207.875,225.625 L 207.8125,229.03125 L 260.53125,229.03125 L 260.46875,225.625 L 207.875,225.625 z M 207.09375,265.03125 L 207.03125,268.4375 L 261.3125,268.4375 L 261.25,265.03125 L 207.09375,265.03125 z M 206.3125,302.9375 L 206.25,306.3125 L 262.09375,306.3125 L 262.03125,302.9375 L 206.3125,302.9375 z M 205.59375,339.3125 L 205.53125,342.71875 L 262.8125,342.71875 L 262.75,339.3125 L 205.59375,339.3125 z M 204.90625,374.21875 L 204.84375,377.625 L 263.5,377.625 L 263.4375,374.21875 L 204.90625,374.21875 z M 204.21875,407.625 L 204.15625,411 L 264.1875,411 L 264.125,407.625 L 204.21875,407.625 z M 203.59375,439.5 L 203.53125,442.90625 L 264.8125,442.90625 L 264.75,439.5 L 203.59375,439.5 z M 203,469.90625 L 202.90625,473.3125 L 265.4375,473.3125 L 265.34375,469.90625 L 203,469.90625 z M 202.40625,498.8125 L 202.34375,502.1875 L 266,502.1875 L 265.9375,498.8125 L 202.40625,498.8125 z M 201.84375,526.1875 L 201.78125,529.59375 L 266.5625,529.59375 L 266.5,526.1875 L 201.84375,526.1875 z M 201.34375,552.09375 L 201.28125,555.5 L 267.0625,555.5 L 267,552.09375 L 201.34375,552.09375 z M 200.84375,576.5 L 200.78125,579.90625 L 267.5625,579.90625 L 267.5,576.5 L 200.84375,576.5 z M 200.40625,599.40625 L 200.3125,602.78125 L 268.03125,602.78125 L 267.9375,599.40625 L 200.40625,599.40625 z M 199.96875,620.78125 L 199.90625,624.1875 L 268.4375,624.1875 L 268.375,620.78125 L 199.96875,620.78125 z M 199.5625,640.6875 L 199.5,644.09375 L 268.84375,644.09375 L 268.78125,640.6875 L 199.5625,640.6875 z M 199.1875,659.09375 L 199.125,662.46875 L 269.21875,662.46875 L 269.15625,659.09375 L 199.1875,659.09375 z M 198.875,675.96875 L 198.78125,679.375 L 269.5625,679.375 L 269.46875,675.96875 L 198.875,675.96875 z M 198.5625,691.375 L 198.46875,694.78125 L 269.875,694.78125 L 269.78125,691.375 L 198.5625,691.375 z M 198.25,706.78125 L 198.1875,710.15625 L 270.15625,710.15625 L 270.09375,706.78125 L 198.25,706.78125 z M 197.9375,722.15625 L 197.875,725.5625 L 270.46875,725.5625 L 270.40625,722.15625 L 197.9375,722.15625 z M 197.625,737.5625 L 197.5625,740.96875 L 270.78125,740.96875 L 270.71875,737.5625 L 197.625,737.5625 z M 197.34375,751.96875 L 197.28125,755.34375 L 271.0625,755.34375 L 271,751.96875 L 197.34375,751.96875 z M 197.0625,765.34375 L 197,768.75 L 271.34375,768.75 L 271.28125,765.34375 L 197.0625,765.34375 z M 196.8125,777.75 L 196.75,781.15625 L 271.59375,781.15625 L 271.53125,777.75 L 196.8125,777.75 z M 196.59375,789.15625 L 196.53125,792.28125 L 271.8125,792.28125 L 271.75,789.15625 L 196.59375,789.15625 z"
       style="fill:#ffffff;fill-opacity:1;fill-rule:evenodd;stroke:none;stroke-width:3;stroke-linecap:round;stroke-linejoin:round;stroke-miterlimit:4;stroke-dashoffset:0;stroke-opacity:1" />
    <path
       sodipodi:nodetypes="cccccccccccccccccc"
       id="path2579"
       d="M 240.9375,1009.4062 L 238.18324,177.97629 L 251.35603,86.913204 M 227.40625,1009.4062 L 229.7664,177.97629 L 234.30874,103.71986 M 217.26146,120.52651 L 221.34956,177.97629 L 213.90625,1009.4062 M 200.40625,1009.4062 L 212.93272,177.97629 L 199.30571,136.4247 M 268.40331,68.289614 L 246.60008,177.97629 L 254.4375,1009.4062 M 267.9375,1009.4062 L 255.01692,177.97629 L 285.90483,50.574492"
       style="fill:none;fill-opacity:1;fill-rule:evenodd;stroke:#acacac;stroke-width:3;stroke-linecap:round;stroke-linejoin:round;stroke-miterlimit:4;stroke-dasharray:none;stroke-dashoffset:0;stroke-opacity:1" />
    <path
       d="M 201.57135,139.79898 A 6.8874035,6.8874035 0 1 1 187.79654,139.79898 A 6.8874035,6.8874035 0 1 1 201.57135,139.79898 z"
       sodipodi:ry="6.8874035"
       sodipodi:rx="6.8874035"
       sodipodi:cy="139.79898"
       sodipodi:cx="194.68394"
       id="path2431"
       style="fill:#000000;fill-opacity:1;fill-rule:evenodd;stroke:none;stroke-width:3;stroke-linecap:round;stroke-linejoin:round;stroke-miterlimit:4;stroke-dasharray:none;stroke-dashoffset:0;stroke-opacity:1"
       sodipodi:type="arc" />
    <path
       transform="translate(17.172585,-17.907275)"
       sodipodi:type="arc"
       style="fill:#000000;fill-opacity:1;fill-rule:evenodd;stroke:none;stroke-width:3;stroke-linecap:round;stroke-linejoin:round;stroke-miterlimit:4;stroke-dasharray:none;stroke-dashoffset:0;stroke-opacity:1"
       id="path2433"
       sodipodi:cx="194.68394"
       sodipodi:cy="139.79898"
       sodipodi:rx="6.8874035"
       sodipodi:ry="6.8874035"
       d="M 201.57135,139.79898 A 6.8874035,6.8874035 0 1 1 187.79654,139.79898 A 6.8874035,6.8874035 0 1 1 201.57135,139.79898 z" />
    <path
       d="M 201.57135,139.79898 A 6.8874035,6.8874035 0 1 1 187.79654,139.79898 A 6.8874035,6.8874035 0 1 1 201.57135,139.79898 z"
       sodipodi:ry="6.8874035"
       sodipodi:rx="6.8874035"
       sodipodi:cy="139.79898"
       sodipodi:cx="194.68394"
       id="path2435"
       style="fill:#000000;fill-opacity:1;fill-rule:evenodd;stroke:none;stroke-width:3;stroke-linecap:round;stroke-linejoin:round;stroke-miterlimit:4;stroke-dasharray:none;stroke-dashoffset:0;stroke-opacity:1"
       sodipodi:type="arc"
       transform="translate(34.345184,-35.814481)" />
    <path
       transform="translate(51.517783,-53.721756)"
       sodipodi:type="arc"
       style="fill:#000000;fill-opacity:1;fill-rule:evenodd;stroke:none;stroke-width:3;stroke-linecap:round;stroke-linejoin:round;stroke-miterlimit:4;stroke-dasharray:none;stroke-dashoffset:0;stroke-opacity:1"
       id="path2437"
       sodipodi:cx="194.68394"
       sodipodi:cy="139.79898"
       sodipodi:rx="6.8874035"
       sodipodi:ry="6.8874035"
       d="M 201.57135,139.79898 A 6.8874035,6.8874035 0 1 1 187.79654,139.79898 A 6.8874035,6.8874035 0 1 1 201.57135,139.79898 z" />
    <path
       d="M 201.57135,139.79898 A 6.8874035,6.8874035 0 1 1 187.79654,139.79898 A 6.8874035,6.8874035 0 1 1 201.57135,139.79898 z"
       sodipodi:ry="6.8874035"
       sodipodi:rx="6.8874035"
       sodipodi:cy="139.79898"
       sodipodi:cx="194.68394"
       id="path2439"
       style="fill:#000000;fill-opacity:1;fill-rule:evenodd;stroke:none;stroke-width:3;stroke-linecap:round;stroke-linejoin:round;stroke-miterlimit:4;stroke-dasharray:none;stroke-dashoffset:0;stroke-opacity:1"
       sodipodi:type="arc"
       transform="translate(68.690374,-71.628976)" />
    <path
       transform="translate(85.862966,-89.536251)"
       sodipodi:type="arc"
       style="fill:#000000;fill-opacity:1;fill-rule:evenodd;stroke:none;stroke-width:3;stroke-linecap:round;stroke-linejoin:round;stroke-miterlimit:4;stroke-dasharray:none;stroke-dashoffset:0;stroke-opacity:1"
       id="path2441"
       sodipodi:cx="194.68394"
       sodipodi:cy="139.79898"
       sodipodi:rx="6.8874035"
       sodipodi:ry="6.8874035"
       d="M 201.57135,139.79898 A 6.8874035,6.8874035 0 1 1 187.79654,139.79898 A 6.8874035,6.8874035 0 1 1 201.57135,139.79898 z" />
    <rect
       style="fill:#000000;fill-opacity:1;fill-rule:evenodd;stroke:none;stroke-width:3;stroke-linecap:round;stroke-linejoin:round;stroke-miterlimit:4;stroke-dasharray:none;stroke-dashoffset:0;stroke-opacity:1"
       id="rect2492"
       width="54.116226"
       height="18.052631"
       x="207.25191"
       y="164.52928" />
    <rect
       y="167.5556"
       x="210.27823"
       height="12"
       width="12"
       id="rect2486"
       style="fill:#333333;fill-opacity:1;fill-rule:evenodd;stroke:none;stroke-width:3;stroke-linecap:round;stroke-linejoin:round;stroke-miterlimit:4;stroke-dasharray:none;stroke-dashoffset:0;stroke-opacity:1" />
    <rect
       style="fill:#333333;fill-opacity:1;fill-rule:evenodd;stroke:none;stroke-width:3;stroke-linecap:round;stroke-linejoin:round;stroke-miterlimit:4;stroke-dasharray:none;stroke-dashoffset:0;stroke-opacity:1"
       id="rect2488"
       width="12"
       height="12"
       x="228.68831"
       y="167.5556" />
    <rect
       inkscape:transform-center-x="10.339911"
       y="167.5556"
       x="245.83743"
       height="12"
       width="12"
       id="rect2490"
       style="fill:#333333;fill-opacity:1;fill-rule:evenodd;stroke:none;stroke-width:3;stroke-linecap:round;stroke-linejoin:round;stroke-miterlimit:4;stroke-dasharray:none;stroke-dashoffset:0;stroke-opacity:1" />
    <path
       transform="matrix(0.7560976,0,0,0.7560976,83.84924,35.165617)"
       d="M 180.31797,183.03189 A 5.1699557,5.1699557 0 1 1 169.97805,183.03189 A 5.1699557,5.1699557 0 1 1 180.31797,183.03189 z"
       sodipodi:ry="5.1699557"
       sodipodi:rx="5.1699557"
       sodipodi:cy="183.03189"
       sodipodi:cx="175.14801"
       id="path2496"
       style="fill:#000000;fill-opacity:1;fill-rule:evenodd;stroke:none;stroke-width:3;stroke-linecap:round;stroke-linejoin:round;stroke-miterlimit:4;stroke-dasharray:none;stroke-dashoffset:0;stroke-opacity:1"
       sodipodi:type="arc" />
    <path
       sodipodi:type="arc"
       style="fill:#000000;fill-opacity:1;fill-rule:evenodd;stroke:none;stroke-width:3;stroke-linecap:round;stroke-linejoin:round;stroke-miterlimit:4;stroke-dasharray:none;stroke-dashoffset:0;stroke-opacity:1"
       id="path2498"
       sodipodi:cx="175.14801"
       sodipodi:cy="183.03189"
       sodipodi:rx="5.1699557"
       sodipodi:ry="5.1699557"
       d="M 180.31797,183.03189 A 5.1699557,5.1699557 0 1 1 169.97805,183.03189 A 5.1699557,5.1699557 0 1 1 180.31797,183.03189 z"
       transform="matrix(0.7560976,0,0,0.7560976,119.40845,35.165617)" />
    <path
       transform="matrix(0.7560976,0,0,0.7560976,102.25932,35.165617)"
       d="M 180.31797,183.03189 A 5.1699557,5.1699557 0 1 1 169.97805,183.03189 A 5.1699557,5.1699557 0 1 1 180.31797,183.03189 z"
       sodipodi:ry="5.1699557"
       sodipodi:rx="5.1699557"
       sodipodi:cy="183.03189"
       sodipodi:cx="175.14801"
       id="path2500"
       style="fill:#000000;fill-opacity:1;fill-rule:evenodd;stroke:none;stroke-width:3;stroke-linecap:round;stroke-linejoin:round;stroke-miterlimit:4;stroke-dasharray:none;stroke-dashoffset:0;stroke-opacity:1"
       sodipodi:type="arc" />
  </g>
</svg>
