<?xml version="1.0" encoding="UTF-8" standalone="no"?>
<!-- Created with Inkscape (http://www.inkscape.org/) -->
<svg
   xmlns:dc="http://purl.org/dc/elements/1.1/"
   xmlns:cc="http://creativecommons.org/ns#"
   xmlns:rdf="http://www.w3.org/1999/02/22-rdf-syntax-ns#"
   xmlns:svg="http://www.w3.org/2000/svg"
   xmlns="http://www.w3.org/2000/svg"
   xmlns:sodipodi="http://sodipodi.sourceforge.net/DTD/sodipodi-0.dtd"
   xmlns:inkscape="http://www.inkscape.org/namespaces/inkscape"
   id="svg2"
   sodipodi:version="0.32"
   inkscape:version="0.46"
   width="1680"
   height="1261"
   version="1.0"
   sodipodi:docname="fotc.svg"
   inkscape:output_extension="org.inkscape.output.svg.inkscape">
  <metadata
     id="metadata7">
    <rdf:RDF>
      <cc:Work
         rdf:about="">
        <dc:format>image/svg+xml</dc:format>
        <dc:type
           rdf:resource="http://purl.org/dc/dcmitype/StillImage" />
      </cc:Work>
    </rdf:RDF>
  </metadata>
  <defs
     id="defs5">
    <inkscape:perspective
       sodipodi:type="inkscape:persp3d"
       inkscape:vp_x="0 : 526.18109 : 1"
       inkscape:vp_y="0 : 1000 : 0"
       inkscape:vp_z="744.09448 : 526.18109 : 1"
       inkscape:persp3d-origin="372.04724 : 350.78739 : 1"
       id="perspective9" />
  </defs>
  <sodipodi:namedview
     inkscape:window-height="675"
     inkscape:window-width="640"
     inkscape:pageshadow="2"
     inkscape:pageopacity="0.0"
     guidetolerance="10.0"
     gridtolerance="10.0"
     objecttolerance="10.0"
     borderopacity="1.0"
     bordercolor="#666666"
     pagecolor="#ffffff"
     id="base"
     showgrid="false"
     inkscape:zoom="0.92470281"
     inkscape:cx="675.09701"
     inkscape:cy="1433.5362"
     inkscape:window-x="639"
     inkscape:window-y="86"
     inkscape:current-layer="svg2"
     showguides="true"
     inkscape:guide-bbox="true" />
  <g
     id="g3237"
     transform="matrix(1.0511337,0,0,1.0511337,-11.578167,-41.850197)">
    <rect
       y="84.953262"
       x="226.42943"
       height="733.49377"
       width="977.9917"
       id="rect3222"
       style="opacity:1;fill:#a7c238;fill-opacity:1;fill-rule:evenodd;stroke:none;stroke-width:3;stroke-linecap:round;stroke-linejoin:round;stroke-miterlimit:4;stroke-dasharray:none;stroke-dashoffset:0;stroke-opacity:1" />
    <path
       id="rect3224"
       d="M 629.78125,84.96875 C 821.32578,160.6395 1012.8552,252.375 1204.4062,252.375 L 1204.4062,121.90625 C 1128.0007,121.90625 1051.5912,107.31681 975.1875,84.96875 L 629.78125,84.96875 z M 226.4375,110.375 L 226.4375,240.8125 C 552.43472,240.8125 878.40904,506.53126 1204.4062,506.53125 L 1204.4062,376.0625 C 878.40903,376.0625 552.43472,110.375 226.4375,110.375 z M 226.4375,327.5625 L 226.4375,458 C 552.43472,458 878.40904,723.71876 1204.4062,723.71875 L 1204.4062,593.25 C 878.40903,593.25 552.43472,327.56249 226.4375,327.5625 z M 226.4375,565.53125 L 226.4375,696 C 380.9164,696 535.40152,755.65938 689.875,818.4375 L 1074.5312,818.4375 C 791.83511,765.35917 509.13821,565.53122 226.4375,565.53125 z"
       style="fill:#dc8e5b;fill-opacity:1;fill-rule:evenodd;stroke:none;stroke-width:3;stroke-linecap:round;stroke-linejoin:round;stroke-miterlimit:4;stroke-dashoffset:0;stroke-opacity:1" />
    <g
       transform="translate(-204.46162,776.32948)"
       id="g3192">
      <path
         style="fill:#c19e86;fill-opacity:1;fill-rule:evenodd;stroke:none;stroke-width:3;stroke-linecap:round;stroke-linejoin:round;stroke-miterlimit:4;stroke-dashoffset:0;stroke-opacity:1"
         d="M 539.23392,-261.32054 L 671.26093,-245.74432 L 691.2875,-153.77045 C 691.10012,-119.81139 684.54843,-87.973755 678.63883,-55.922095 C 618.0651,-67.447865 546.74043,-29.845515 488.05491,-130.77698 L 539.23392,-261.32054 z"
         id="rect2419"
         sodipodi:nodetypes="cccccc" />
      <path
         style="opacity:1;fill:#000000;fill-opacity:1;fill-rule:evenodd;stroke:none;stroke-width:3;stroke-linecap:round;stroke-linejoin:round;stroke-miterlimit:4;stroke-dashoffset:0;stroke-opacity:1"
         d="M 650.34184,-31.389835 C 651.0756,-31.375755 676.93882,-38.429385 680.64006,-52.663195 C 685.38694,-70.918195 692.04567,-120.30865 692.04567,-120.30865 C 695.70767,-118.0462 699.36966,-119.74085 703.03166,-120.14664 C 697.545,-122.35691 691.8307,-124.4637 694.13638,-130.21593 C 704.74889,-128.49413 705.59618,-134.58449 709.51448,-138.21806 C 703.52406,-139.15345 692.49618,-129.55599 693.64003,-145.40849 C 729.27676,-148.86071 729.81592,-167.82116 721.56632,-190.66502 C 719.75835,-181.11739 718.7212,-170.24835 709.96322,-172.61503 C 721.39495,-183.40587 716.48673,-190.11173 716.51494,-198.05169 C 711.01178,-167.99428 698.51988,-173.75415 684.88298,-185.38214 C 703.0911,-182.18174 709.77677,-191.11023 708.44055,-208.48281 C 706.60651,-197.38308 685.07748,-186.67922 682.25741,-203.34079 C 695.74126,-199.9836 705.96388,-207.49715 713.2717,-224.72672 C 710.45532,-228.71373 707.07434,-232.13615 701.01174,-232.87694 C 708.81671,-237.92601 708.10601,-243.74713 704.69661,-248.02414 C 705.12039,-236.14511 692.76237,-233.34668 690.33218,-238.74092 C 697.08403,-249.96141 715.34578,-250.2201 702.57932,-280.02946 C 698.23841,-272.81063 693.93203,-265.36737 687.58503,-271.18812 C 693.77566,-278.11114 695.78393,-286.69793 688.85791,-293.39569 C 684.37974,-284.88837 688.69722,-270.31509 656.17989,-281.14512 C 653.33147,-293.47019 659.00059,-303.18333 665.76639,-313.58737 C 657.0407,-309.0881 652.95864,-298.84081 649.32507,-286.41509 C 647.06868,-295.78926 649.65271,-309.67433 655.55796,-310.16402 C 650.63804,-311.52432 644.95679,-303.38928 644.1446,-290.37251 C 632.23933,-295.77031 625.955,-294.42299 618.99949,-293.88109 C 617.59991,-309.154 595.57297,-323.93974 578.34736,-303.80186 C 552.58608,-333.99411 526.47445,-290.32399 522.7495,-264.36663 C 496.88768,-273.83749 473.15258,-255.35532 486.27624,-231.50049 C 478.34544,-232.69125 459.26435,-224.17594 461.58485,-195.64181 C 446.77488,-170.77981 462.9804,-130.53504 470.93046,-124.40162 C 466.29011,-102.70694 473.76938,-88.587025 493.83471,-82.333395 C 478.70521,-48.995785 514.43792,-40.918294 525.68597,-47.491595 C 540.39559,-56.087814 544.09248,-61.136329 553.29544,-67.958755 L 541.44749,-73.519181 L 538.25089,-90.435015 C 528.2663,-92.498915 517.29383,-94.557125 511.48036,-115.08085 C 521.80398,-113.0967 528.59259,-114.12386 542.65912,-117.81895 C 547.87151,-101.88279 554.41567,-88.166235 555.5327,-65.404475 C 575.75708,-60.361725 592.4074,-48.052245 609.66366,-37.191885 C 623.50401,-28.481345 637.5162,-31.635905 650.34184,-31.389835 z M 648.47508,-114.91019 C 651.67749,-115.37054 656.33113,-111.53601 658.79274,-111.77174 C 661.53326,-112.03417 667.12049,-115.627 667.12049,-115.627 C 674.20733,-115.83688 675.92338,-111.28688 678.27852,-107.7114 C 681.71239,-97.717325 684.86604,-87.478065 680.23548,-70.427615 C 672.36423,-68.481645 663.67269,-71.799055 663.04709,-79.276205 C 662.75158,-82.808135 665.8523,-85.786075 667.2549,-89.041005 C 660.11739,-95.215325 653.71059,-92.621205 647.5981,-86.495325 C 649.82389,-83.803375 653.74622,-81.872105 654.27547,-78.419485 C 652.74874,-54.934595 627.43685,-69.739065 620.43952,-82.485385 C 620.43952,-82.485385 619.76099,-100.6568 626.49609,-104.53792 C 632.81333,-108.17824 642.86204,-114.1033 648.47508,-114.91019 z M 623.4498,-233.55459 C 621.71424,-233.4112 619.96476,-233.47628 618.20088,-233.71058 C 629.16593,-220.01148 634.1304,-196.71146 660.31857,-207.36935 C 652.41067,-196.75696 631.94529,-205.77682 625.9277,-214.6944 C 623.31824,-218.5614 613.91916,-235.80857 612.18516,-235.36757 C 615.1972,-229.0345 624.25709,-219.41172 627.2402,-204.77545 C 617.80288,-215.76852 608.5041,-241.28153 597.31032,-242.95628 C 614.39889,-200.51707 614.97547,-202.71333 630.96661,-195.85935 C 629.3085,-195.07315 627.75497,-194.55452 626.29294,-194.27459 C 620.22729,-190.85632 619.88876,-187.43805 618.50066,-184.01978 C 600.29396,-187.3502 586.70932,-177.73885 572.4238,-170.08997 C 580.48837,-184.00526 593.82192,-194.18834 621.46427,-194.23604 C 606.57631,-197.11932 602.24249,-228.39254 587.09314,-240.85751 C 583.01875,-241.84729 569.54844,-216.96203 604.47543,-206.08013 C 591.62928,-205.57034 577.29387,-207.00122 575.81045,-231.67648 C 574.10469,-222.52226 570.50328,-219.16814 561.81796,-211.21982 C 570.94808,-222.26057 568.35768,-236.37581 581.83168,-248.95381 C 578.77186,-250.15718 575.66956,-251.15368 572.52293,-251.79676 C 565.03429,-217.22691 561.84996,-219.25722 551.59427,-217.62445 C 562.84022,-225.59862 566.2591,-239.15384 567.555,-252.49436 C 564.92645,-252.68683 562.2672,-252.588 559.57623,-252.11613 C 552.00542,-250.78859 530.67657,-236.03303 557.93843,-210.62561 C 565.10321,-203.9482 560.32499,-180.57487 545.04093,-180.3791 C 554.77442,-174.10453 557.85297,-154.68522 545.96617,-147.04404 C 568.54174,-137.95061 556.04212,-127.29156 548.93386,-123.44342 C 565.4354,-111.243 581.74189,-98.401705 605.25719,-109.24648 C 607.05772,-102.8668 602.98016,-87.200495 615.97952,-83.620525 C 620.32177,-90.640995 614.35109,-103.58596 618.48852,-109.35548 C 625.90558,-119.69834 645.30891,-124.45902 658.03368,-124.71915 C 665.56992,-124.87321 675.44274,-120.83628 680.26247,-115.04068 C 684.58821,-109.8391 685.09484,-94.275025 685.09484,-94.275025 C 686.2915,-113.03174 689.76004,-127.24468 688.67399,-150.56683 C 687.27436,-157.79318 683.52967,-164.62307 680.99256,-171.15679 C 678.81331,-176.76892 678.01018,-181.78658 678.82127,-188.758 C 670.79256,-189.63915 663.66121,-191.50312 649.79151,-185.98698 C 653.85017,-188.81028 657.93966,-191.57166 659.68992,-197.09764 C 676.67384,-196.93152 676.89552,-195.08733 678.88746,-193.50687 C 677.82389,-196.2621 676.7908,-200.6841 674.98443,-201.52879 C 672.23149,-212.90334 667.88548,-220.86822 661.45026,-226.06028 C 651.553,-227.11443 644.48214,-213.89672 667.13282,-215.61092 C 660.10013,-209.66785 636.11703,-208.8437 623.4498,-233.55459 z"
         id="rect2384"
         sodipodi:nodetypes="csccccccccccccccccccccccccccccccsccccccsscscccsccccsscccsccccccccccccccccsscccccsssccscccccccc" />
      <path
         style="fill:#d9c2ae;fill-opacity:1;fill-rule:evenodd;stroke:none;stroke-width:3;stroke-linecap:round;stroke-linejoin:round;stroke-miterlimit:4;stroke-dashoffset:0;stroke-opacity:1"
         d="M 648.4129,-188.83028 C 646.60343,-175.10756 656.52132,-163.94598 666.55247,-154.39583 C 669.88801,-151.22023 680.14265,-134.68317 663.94369,-126.09671 C 673.77344,-144.01273 663.77868,-150.41691 661.32582,-154.08839 C 653.70331,-165.49788 644.78149,-177.24965 648.4129,-188.83028 z"
         id="rect2410"
         sodipodi:nodetypes="cscsc" />
    </g>
    <g
       transform="matrix(-1.1698195,0,0,1.1698195,2296.5497,456.53656)"
       id="g3214">
      <path
         style="fill:#bf977f;fill-opacity:1;fill-rule:evenodd;stroke:none;stroke-width:3;stroke-linecap:round;stroke-linejoin:round;stroke-miterlimit:4;stroke-dashoffset:0;stroke-opacity:1"
         d="M 1010.8457,-234.18518 L 1078.4221,-253.09374 L 1121.802,-238.96997 L 1124.8903,-197.89351 L 1117.9445,-164.4822 C 1116.7885,-158.93371 1116.0145,-160.82517 1114.0152,-148.12995 C 1113.0786,-142.18252 1112.2209,-134.36427 1114.0113,-121.87366 C 1109.9649,-110.28384 1106.6905,-96.962016 1100.6666,-88.912216 C 1087.3319,-71.092806 1016.5022,-77.934216 1003.3366,-118.94878 L 982.43604,-133.22087 C 977.12228,-153.43653 966.17975,-173.14049 968.39017,-194.04017 L 1010.8457,-234.18518 z"
         id="rect3208"
         sodipodi:nodetypes="cccccscscccc" />
      <path
         style="fill:#796556;fill-opacity:1;fill-rule:evenodd;stroke:none;stroke-width:3;stroke-linecap:round;stroke-linejoin:round;stroke-miterlimit:4;stroke-dashoffset:0;stroke-opacity:1"
         d="M 1091.1816,-130.01205 C 1087.8162,-131.14788 1062.3796,-128.63576 1061.3146,-110.2275 C 1061.2154,-108.51245 1068.894,-99.261566 1077.7618,-97.325196 C 1083.234,-96.130266 1089.6898,-102.13459 1091.3414,-101.93275 C 1096.0305,-101.35974 1097.2766,-98.388286 1101.2617,-99.342246 C 1109.4128,-101.29345 1109.9853,-116.9436 1110.4787,-122.94808 C 1110.864,-127.63754 1105.4192,-129.75216 1102.4459,-129.93671 C 1100.2977,-130.07005 1100.2369,-128.55366 1097.1015,-128.19695 C 1094.1322,-127.85914 1093.4871,-129.23392 1091.1816,-130.01205 z M 1052.4347,-114.61656 C 1056.8647,-115.10775 1053.321,-127.07164 1062.0354,-133.5049 C 1070.7498,-139.93816 1079.4643,-142.99514 1088.1787,-142.56613 C 1093.8773,-138.53892 1101.1951,-139.59498 1103.3514,-142.59534 C 1108.7159,-141.69112 1112.0567,-137.9426 1113.5706,-133.95789 C 1114.6451,-125.47576 1114.0206,-122.38436 1113.2229,-117.54126 C 1111.4371,-106.69904 1108.352,-98.025096 1102.3994,-90.933896 C 1071.4267,-55.331406 1012.9184,-92.150266 1005.0694,-113.75013 C 1004.3286,-134.73454 1011.4218,-144.75139 1014.6002,-160.24903 C 1025.0489,-130.97996 1039.0515,-124.81145 1052.4347,-114.61656 z"
         id="rect3211"
         sodipodi:nodetypes="csssssssscccccscccc" />
      <path
         style="opacity:1;fill:#000000;fill-opacity:1;fill-rule:evenodd;stroke:none;stroke-width:3;stroke-linecap:round;stroke-linejoin:round;stroke-miterlimit:4;stroke-dashoffset:0;stroke-opacity:1"
         d="M 969.50065,-154.08187 C 967.00881,-158.36095 962.06808,-172.01972 963.4619,-182.14637 C 960.8971,-176.88108 953.07135,-179.54105 952.26594,-183.47369 C 958.65181,-180.1041 961.49933,-182.98432 962.39762,-185.39948 C 966.63147,-203.23382 964.30861,-221.06774 963.24694,-238.9025 C 962.48706,-251.66763 969.80782,-254.21513 975.81727,-258.66296 C 986.45501,-287.00212 1010.1061,-287.47581 1021.1073,-286.82895 C 1030.1999,-289.08248 1030.4528,-291.336 1032.7642,-293.58953 C 1047.5029,-313.12489 1057.545,-307.22733 1058.6011,-303.74119 C 1050.2099,-310.34208 1037.7946,-297.02247 1035.9213,-292.43031 C 1044.0595,-296.80923 1052.1978,-297.26686 1060.336,-295.89608 C 1064.5309,-297.186 1070.5427,-297.46491 1074.7854,-291.91596 C 1081.7697,-292.3428 1088.6027,-292.20874 1092.5125,-285.48491 C 1099.5683,-282.83734 1104.1699,-280.65764 1106.5069,-275.74893 C 1115.5988,-277.71079 1112.0553,-269.90527 1115.301,-264.30792 C 1120.2726,-261.00393 1121.324,-257.69995 1119.8136,-254.39596 C 1124.0536,-252.92909 1127.7494,-250.60685 1127.0164,-241.32527 C 1128.3996,-240.34934 1131.9022,-242.1994 1129.3527,-235.97992 C 1135.0304,-232.33186 1135.3071,-226.02224 1132.2381,-222.27682 C 1132.6348,-228.85473 1131.1573,-230.93432 1127.9494,-228.86112 C 1130.2126,-215.86751 1130.4914,-203.70068 1124.1626,-194.28708 C 1119.0811,-200.0967 1119.5184,-209.58554 1118.4674,-218.08221 C 1116.8,-213.77627 1113.7686,-212.88011 1110.6893,-212.1039 C 1122.9781,-224.83478 1114.4431,-230.62439 1110.3901,-237.90803 C 1113.2036,-200.37276 1099.9773,-209.49889 1087.3728,-216.81602 C 1095.0721,-219.49432 1095.2407,-223.54183 1095.1776,-227.63149 C 1090.6427,-221.89763 1086.1079,-218.70097 1081.573,-222.29351 C 1097.4931,-224.23281 1092.8267,-237.65869 1085.9034,-244.03568 C 1062.4118,-220.55079 1042.0839,-222.05832 1031.8267,-230.06303 C 1021.8411,-237.85579 1033.1529,-215.74162 1024.4681,-211.8043 C 1017.2202,-208.51843 1016.2436,-201.65378 1015.6085,-195.03315 L 1051.9602,-186.76258 C 1052.8942,-189.58511 1061.3308,-189.31292 1071.3042,-188.594 C 1056.9444,-190.75586 1043.5355,-190.18731 1038.4107,-192.28283 C 1041.9366,-197.07082 1049.5961,-199.37862 1058.8722,-200.7165 C 1070.1324,-201.64828 1080.797,-196.92646 1087.6909,-192.02092 C 1087.0643,-189.89971 1086.2922,-187.924 1083.7732,-187.69519 C 1087.2456,-187.44488 1089.7434,-186.45548 1089.5298,-185.48463 L 1095.0344,-185.5442 C 1096.9317,-186.11785 1097.8037,-187.74125 1097.2887,-190.35385 C 1105.0668,-193.14524 1111.4053,-194.26876 1118.3053,-193.78607 C 1121.3156,-193.57548 1124.4939,-193.47145 1124.168,-191.89848 L 1136.723,-183.67774 C 1137.8727,-175.59819 1131.5607,-164.69218 1126.3835,-164.39209 C 1121.4311,-164.10503 1116.0483,-162.50086 1107.0473,-164.72818 C 1101.4406,-166.11557 1098.7679,-171.02817 1099.1993,-178.58387 L 1091.0675,-178.75058 C 1088.7323,-172.47376 1083.0986,-168.20711 1080.1192,-166.37598 C 1074.0307,-162.63414 1052.4071,-163.82187 1050.7994,-165.41976 C 1046.9587,-169.2371 1047.585,-172.90135 1047.8729,-177.11586 L 1012.6974,-184.92099 C 1013.5357,-164.24634 1020.4238,-145.80899 1020.6225,-125.5201 C 1013.7631,-122.0685 1001.7394,-129.46609 1000.2183,-132.92634 C 1005.4417,-142.26892 1002.6488,-162.17275 1001.8772,-176.87412 C 981.46069,-158.32983 983.0238,-185.9428 975.4485,-194.36508 C 967.88182,-178.7673 970.62486,-162.37646 991.12921,-144.61937 L 992.21064,-123.53151 C 966.6465,-119.82665 965.61042,-141.56382 969.50065,-154.08187 z"
         id="rect3197"
         sodipodi:nodetypes="ccccscccccccccccccccccccccccssccccccccccsccssccssccccccccc" />
      <path
         style="fill:#c3d3e5;fill-opacity:1;fill-rule:evenodd;stroke:none;stroke-width:3;stroke-linecap:round;stroke-linejoin:round;stroke-miterlimit:4;stroke-dashoffset:0;stroke-opacity:1"
         d="M 1052.4173,-184.28758 C 1054.0726,-186.89523 1061.3493,-187.01423 1069.2128,-186.7266 C 1078.16,-186.39933 1087.3069,-185.13023 1088.5363,-183.06525 C 1090.8496,-179.17964 1087.4348,-175.01051 1084.4494,-171.36832 C 1083.4097,-170.09987 1081.896,-168.58156 1078.6314,-167.08176 C 1075.147,-165.48097 1059.6246,-165.15832 1052.1139,-166.37816 C 1050.1805,-166.69218 1047.1987,-176.06674 1052.4173,-184.28758 z"
         id="rect3200"
         sodipodi:nodetypes="cssssss" />
      <path
         sodipodi:nodetypes="csssss"
         id="path3203"
         d="M 1100.8038,-180.36382 C 1102.2843,-185.18311 1112.9982,-184.09287 1118.9341,-184.11145 C 1129.1457,-184.14341 1135.2064,-184.09457 1135.2745,-181.94203 C 1135.3922,-178.22236 1134.6221,-172.08256 1129.1569,-166.7751 C 1126.7611,-164.44839 1111.8615,-163.35805 1105.0384,-166.57415 C 1100.0211,-168.93908 1099.8482,-177.25313 1100.8038,-180.36382 z"
         style="fill:#c3d3e5;fill-opacity:1;fill-rule:evenodd;stroke:none;stroke-width:3;stroke-linecap:round;stroke-linejoin:round;stroke-miterlimit:4;stroke-dashoffset:0;stroke-opacity:1" />
      <path
         style="fill:#c5a68d;fill-opacity:1;fill-rule:evenodd;stroke:none;stroke-width:3;stroke-linecap:round;stroke-linejoin:round;stroke-miterlimit:4;stroke-dashoffset:0;stroke-opacity:1"
         d="M 1105.1927,-153.31753 C 1102.6411,-161.96071 1098.7778,-169.52725 1097.7785,-178.15545 C 1101.2723,-166.29305 1106.4225,-162.32329 1107.9365,-153.02871 C 1109.1258,-145.28967 1105.1806,-140.27647 1097.2008,-140.03213 C 1102.2176,-142.14575 1107.1886,-146.55659 1105.1927,-153.31753 z"
         id="rect3205"
         sodipodi:nodetypes="ccccs" />
    </g>
  </g>
</svg>
