<?xml version="1.0" encoding="UTF-8" standalone="no"?>
<!-- Created with Inkscape (http://www.inkscape.org/) -->
<svg
   xmlns:dc="http://purl.org/dc/elements/1.1/"
   xmlns:cc="http://creativecommons.org/ns#"
   xmlns:rdf="http://www.w3.org/1999/02/22-rdf-syntax-ns#"
   xmlns:svg="http://www.w3.org/2000/svg"
   xmlns="http://www.w3.org/2000/svg"
   xmlns:xlink="http://www.w3.org/1999/xlink"
   xmlns:sodipodi="http://sodipodi.sourceforge.net/DTD/sodipodi-0.dtd"
   xmlns:inkscape="http://www.inkscape.org/namespaces/inkscape"
   id="svg2"
   sodipodi:version="0.32"
   inkscape:version="0.46"
   width="500"
   height="337"
   version="1.0"
   sodipodi:docname="giantrobo.svg"
   inkscape:output_extension="org.inkscape.output.svg.inkscape">
  <metadata
     id="metadata7">
    <rdf:RDF>
      <cc:Work
         rdf:about="">
        <dc:format>image/svg+xml</dc:format>
        <dc:type
           rdf:resource="http://purl.org/dc/dcmitype/StillImage" />
      </cc:Work>
    </rdf:RDF>
  </metadata>
  <defs
     id="defs5">
    <inkscape:perspective
       sodipodi:type="inkscape:persp3d"
       inkscape:vp_x="0 : 526.18109 : 1"
       inkscape:vp_y="0 : 1000 : 0"
       inkscape:vp_z="744.09448 : 526.18109 : 1"
       inkscape:persp3d-origin="372.04724 : 350.78739 : 1"
       id="perspective9" />
  </defs>
  <sodipodi:namedview
     inkscape:window-height="675"
     inkscape:window-width="864"
     inkscape:pageshadow="2"
     inkscape:pageopacity="0.0"
     guidetolerance="10.0"
     gridtolerance="10.0"
     objecttolerance="10.0"
     borderopacity="1.0"
     bordercolor="#666666"
     pagecolor="#ffffff"
     id="base"
     showgrid="false"
     inkscape:zoom="0.76933218"
     inkscape:cx="268.4457"
     inkscape:cy="75.946596"
     inkscape:window-x="48"
     inkscape:window-y="84"
     inkscape:current-layer="svg2" />
  <image
     xlink:href="111899060_70e381d3c9.jpg"
     sodipodi:absref="C:\Documents and Settings\Justin\My Documents\My Pictures\_doodles\caricatures\111899060_70e381d3c9.jpg"
     width="500"
     height="337"
     id="image11"
     x="0"
     y="0" />
  <path
     transform="matrix(0.9850464,-0.1722895,0.1722895,0.9850464,0,0)"
     style="fill:#b5a184;fill-opacity:1;fill-rule:evenodd;stroke:none;stroke-width:3;stroke-linecap:round;stroke-linejoin:round;stroke-miterlimit:4;stroke-dashoffset:0;stroke-opacity:1"
     d="M 251.44209,160.98648 L 262.93106,160.98648 L 262.93106,181.66663 L 251.44209,181.66663 C 244.54871,181.66663 244.54871,160.98648 251.44209,160.98648 z"
     id="rect3264"
     sodipodi:nodetypes="cccss" />
  <path
     sodipodi:nodetypes="cccss"
     id="path3267"
     d="M 406.80327,90.152252 L 392.0442,92.964141 L 397.10559,119.53048 L 411.86466,116.71858 C 420.7201,115.03145 415.65871,88.46512 406.80327,90.152252 z"
     style="fill:#b5a184;fill-opacity:1;fill-rule:evenodd;stroke:none;stroke-width:3;stroke-linecap:round;stroke-linejoin:round;stroke-miterlimit:4;stroke-dashoffset:0;stroke-opacity:1" />
  <path
     style="fill:#c0ae90;fill-opacity:1;fill-rule:evenodd;stroke:none;stroke-width:3;stroke-linecap:round;stroke-linejoin:round;stroke-miterlimit:4;stroke-dashoffset:0;stroke-opacity:1"
     d="M 332.49081,41.503675 C 388.86854,34.398936 402.16586,92.0066 406.25,117.33088 L 284.00736,135.25368 C 283.05081,110.27656 275.01888,48.746305 332.49081,41.503675 z"
     id="rect2482"
     sodipodi:nodetypes="cccs" />
  <path
     sodipodi:nodetypes="ccc"
     id="path2480"
     d="M 418.65809,152.71691 C 371.40788,152.71691 324.13284,161.62736 278.49265,173.85661 C 324.13284,186.08586 377.73821,176.34201 418.65809,152.71691 z"
     style="fill:#3f3023;fill-opacity:1;fill-rule:evenodd;stroke:none;stroke-width:3;stroke-linecap:round;stroke-linejoin:round;stroke-miterlimit:4;stroke-dashoffset:0;stroke-opacity:1" />
  <path
     style="fill:#666453;fill-opacity:1;fill-rule:evenodd;stroke:none;stroke-width:3;stroke-linecap:round;stroke-linejoin:round;stroke-miterlimit:4;stroke-dashoffset:0;stroke-opacity:1"
     d="M 306.06619,160.52941 L 395.2206,147.66176 L 400.73531,221.65074 L 311.58089,232.22059 L 306.06619,160.52941 z"
     id="rect2465"
     sodipodi:nodetypes="ccccc" />
  <rect
     style="opacity:1;fill:#5a5141;fill-opacity:1;fill-rule:evenodd;stroke:none;stroke-width:3;stroke-linecap:round;stroke-linejoin:round;stroke-miterlimit:4;stroke-dasharray:none;stroke-dashoffset:0;stroke-opacity:1"
     id="rect2384"
     width="211.39705"
     height="49.632355"
     x="211.06648"
     y="264.67456"
     inkscape:transform-center-x="-108.14358"
     inkscape:transform-center-y="9.643063"
     transform="matrix(0.9899813,-0.1411986,0.1411986,0.9899813,0,0)" />
  <path
     style="opacity:1;fill:#443c2e;fill-opacity:1;fill-rule:evenodd;stroke:none;stroke-width:3;stroke-linecap:round;stroke-linejoin:round;stroke-miterlimit:4;stroke-dasharray:none;stroke-dashoffset:0;stroke-opacity:1"
     d="M 398.375,153.46875 L 302.65625,165.8125 C 299.61413,166.20481 300.80163,175.32981 303.84375,174.9375 L 399.5625,162.59375 C 402.60462,162.20144 401.41712,153.07644 398.375,153.46875 z M 399.75,168.5 L 304.03125,180.84375 C 300.99937,181.23474 302.18687,190.32849 305.21875,189.9375 L 400.9375,177.59375 C 403.96938,177.20276 402.78188,168.10901 399.75,168.5 z M 401.125,183.5 L 305.40625,195.84375 C 302.36413,196.23606 303.55163,205.36106 306.59375,204.96875 L 402.3125,192.625 C 405.35462,192.23269 404.16712,183.10769 401.125,183.5 z M 402.5,198.53125 L 306.78125,210.84375 C 303.739,211.23508 304.92663,220.36106 307.96875,219.96875 L 403.6875,207.625 C 406.71938,207.23401 405.532,198.14124 402.5,198.53125 z"
     id="rect2468"
     sodipodi:nodetypes="csssscsssscsssscssss" />
  <path
     style="opacity:1;fill:#7e7567;fill-opacity:1;fill-rule:evenodd;stroke:none;stroke-width:3;stroke-linecap:round;stroke-linejoin:round;stroke-miterlimit:4;stroke-dasharray:none;stroke-dashoffset:0;stroke-opacity:1"
     d="M 478.1875 192.625 L 437.3125 198.875 L 444.125 243.40625 L 484.96875 237.15625 L 478.1875 192.625 z M 416.28125 202.0625 L 400.25 204.53125 L 407.03125 249.0625 L 423.09375 246.59375 L 416.28125 202.0625 z M 379.21875 207.75 L 363.15625 210.1875 L 369.96875 254.71875 L 386 252.28125 L 379.21875 207.75 z M 342.125 213.40625 L 326.09375 215.84375 L 332.875 260.375 L 348.9375 257.9375 L 342.125 213.40625 z M 305.0625 219.0625 L 289 221.5 L 295.8125 266.03125 L 311.84375 263.59375 L 305.0625 219.0625 z M 267.96875 224.71875 L 236.5 229.53125 L 243.28125 274.0625 L 274.78125 269.25 L 267.96875 224.71875 z "
     id="rect2386" />
  <path
     style="fill:#a79276;fill-opacity:1;fill-rule:evenodd;stroke:none;stroke-width:3;stroke-linecap:round;stroke-linejoin:round;stroke-miterlimit:4;stroke-dashoffset:0;stroke-opacity:1"
     d="M 352.25356,250.5614 L 350.38405,364.07804 L 527.5641,352.55999 L 523.18103,184.92005 L 459.48943,193.36894 L 463.38891,210.91662 L 352.25356,250.5614 z"
     id="rect2412"
     sodipodi:nodetypes="ccccccc" />
  <path
     style="fill:#d3bba2;fill-opacity:1;fill-rule:evenodd;stroke:none;stroke-width:3;stroke-linecap:round;stroke-linejoin:round;stroke-miterlimit:4;stroke-dashoffset:0;stroke-opacity:1"
     d="M 129.65791,288.25642 L 252.16676,255.76071 L 241.76813,221.96516 L 158.90406,249.91148 L 125.93754,261.86414 L 129.65791,288.25642 z"
     id="rect2462"
     sodipodi:nodetypes="cccccc" />
  <path
     style="fill:#c0ae90;fill-opacity:1;fill-rule:evenodd;stroke:none;stroke-width:3;stroke-linecap:round;stroke-linejoin:round;stroke-miterlimit:4;stroke-dashoffset:0;stroke-opacity:1"
     d="M 135.18218,279.15762 L 241.76814,246.6619 L 355.51267,245.98975 L 357.21596,295.73764 L 365.12406,362.23801 L 119.58424,357.14733 L 135.18218,279.15762 z M 170.927,235.613 L 135.05624,264.62843 L 109.3646,252.26634 L 170.927,235.613 z"
     id="rect2409"
     sodipodi:nodetypes="ccccccccccc" />
  <path
     style="fill:#968168;fill-opacity:1;fill-rule:evenodd;stroke:none;stroke-width:3;stroke-linecap:round;stroke-linejoin:round;stroke-miterlimit:4;stroke-dashoffset:0;stroke-opacity:1"
     d="M 236.86315,218.70304 L 251.83824,215.67648 L 251.83824,236.81619 L 317.09559,244.16912 L 390.6008,234.22169 L 453.68337,205.98346 L 450.05313,185.20294 L 463.46123,183.25834 L 468.46743,216.20805 L 393.08506,247.21602 L 317.85702,257.95589 L 237.40156,248.65321 L 236.86315,218.70304 z"
     id="rect2406"
     sodipodi:nodetypes="ccccccccccccc" />
  <path
     style="fill:#53473c;fill-opacity:1;fill-rule:evenodd;stroke:none;stroke-width:3;stroke-linecap:round;stroke-linejoin:round;stroke-miterlimit:4;stroke-dashoffset:0;stroke-opacity:1"
     d="M 264.51512,339.59965 L 358.10279,296.70531 L 507.41148,318.49204 L 510.12668,341.51882 L 360.05254,305.1542 L 284.66247,342.84923 L 264.51512,339.59965 z"
     id="rect2415"
     sodipodi:nodetypes="ccccccc" />
  <path
     sodipodi:type="arc"
     style="opacity:1;fill:#53473c;fill-opacity:1;fill-rule:evenodd;stroke:none;stroke-width:3;stroke-linecap:round;stroke-linejoin:round;stroke-miterlimit:4;stroke-dasharray:none;stroke-dashoffset:0;stroke-opacity:1"
     id="path2418"
     sodipodi:cx="261.26556"
     sodipodi:cy="288.90634"
     sodipodi:rx="6.4991431"
     sodipodi:ry="6.4991431"
     d="M 267.76471,288.90634 A 6.4991431,6.4991431 0 1 1 254.76642,288.90634 A 6.4991431,6.4991431 0 1 1 267.76471,288.90634 z"
     transform="translate(16.897772,35.095373)" />
  <path
     d="M 267.76471,288.90634 A 6.4991431,6.4991431 0 1 1 254.76642,288.90634 A 6.4991431,6.4991431 0 1 1 267.76471,288.90634 z"
     sodipodi:ry="6.4991431"
     sodipodi:rx="6.4991431"
     sodipodi:cy="288.90634"
     sodipodi:cx="261.26556"
     id="path2420"
     style="opacity:1;fill:#53473c;fill-opacity:1;fill-rule:evenodd;stroke:none;stroke-width:3;stroke-linecap:round;stroke-linejoin:round;stroke-miterlimit:4;stroke-dasharray:none;stroke-dashoffset:0;stroke-opacity:1"
     sodipodi:type="arc"
     transform="translate(134.53226,3.8994855)" />
  <path
     transform="translate(63.041689,14.948029)"
     d="M 267.76471,288.90634 A 6.4991431,6.4991431 0 1 1 254.76642,288.90634 A 6.4991431,6.4991431 0 1 1 267.76471,288.90634 z"
     sodipodi:ry="6.4991431"
     sodipodi:rx="6.4991431"
     sodipodi:cy="288.90634"
     sodipodi:cx="261.26556"
     id="path2422"
     style="opacity:1;fill:#53473c;fill-opacity:1;fill-rule:evenodd;stroke:none;stroke-width:3;stroke-linecap:round;stroke-linejoin:round;stroke-miterlimit:4;stroke-dasharray:none;stroke-dashoffset:0;stroke-opacity:1"
     sodipodi:type="arc" />
  <path
     sodipodi:type="arc"
     style="opacity:1;fill:#53473c;fill-opacity:1;fill-rule:evenodd;stroke:none;stroke-width:3;stroke-linecap:round;stroke-linejoin:round;stroke-miterlimit:4;stroke-dasharray:none;stroke-dashoffset:0;stroke-opacity:1"
     id="path2424"
     sodipodi:cx="261.26556"
     sodipodi:cy="288.90634"
     sodipodi:rx="6.4991431"
     sodipodi:ry="6.4991431"
     d="M 267.76471,288.90634 A 6.4991431,6.4991431 0 1 1 254.76642,288.90634 A 6.4991431,6.4991431 0 1 1 267.76471,288.90634 z"
     transform="translate(185.8755,12.348372)" />
  <path
     transform="translate(235.26899,18.847515)"
     d="M 267.76471,288.90634 A 6.4991431,6.4991431 0 1 1 254.76642,288.90634 A 6.4991431,6.4991431 0 1 1 267.76471,288.90634 z"
     sodipodi:ry="6.4991431"
     sodipodi:rx="6.4991431"
     sodipodi:cy="288.90634"
     sodipodi:cx="261.26556"
     id="path2426"
     style="opacity:1;fill:#53473c;fill-opacity:1;fill-rule:evenodd;stroke:none;stroke-width:3;stroke-linecap:round;stroke-linejoin:round;stroke-miterlimit:4;stroke-dasharray:none;stroke-dashoffset:0;stroke-opacity:1"
     sodipodi:type="arc" />
  <path
     sodipodi:type="arc"
     style="opacity:1;fill:#53473c;fill-opacity:1;fill-rule:evenodd;stroke:none;stroke-width:3;stroke-linecap:round;stroke-linejoin:round;stroke-miterlimit:4;stroke-dasharray:none;stroke-dashoffset:0;stroke-opacity:1"
     id="path2428"
     sodipodi:cx="261.26556"
     sodipodi:cy="288.90634"
     sodipodi:rx="6.4991431"
     sodipodi:ry="6.4991431"
     d="M 267.76471,288.90634 A 6.4991431,6.4991431 0 1 1 254.76642,288.90634 A 6.4991431,6.4991431 0 1 1 267.76471,288.90634 z"
     transform="translate(224.22045,-72.14049)" />
  <path
     transform="translate(226.17019,-98.786977)"
     d="M 267.76471,288.90634 A 6.4991431,6.4991431 0 1 1 254.76642,288.90634 A 6.4991431,6.4991431 0 1 1 267.76471,288.90634 z"
     sodipodi:ry="6.4991431"
     sodipodi:rx="6.4991431"
     sodipodi:cy="288.90634"
     sodipodi:cx="261.26556"
     id="path2430"
     style="opacity:1;fill:#53473c;fill-opacity:1;fill-rule:evenodd;stroke:none;stroke-width:3;stroke-linecap:round;stroke-linejoin:round;stroke-miterlimit:4;stroke-dasharray:none;stroke-dashoffset:0;stroke-opacity:1"
     sodipodi:type="arc" />
  <path
     sodipodi:type="arc"
     style="opacity:1;fill:#53473c;fill-opacity:1;fill-rule:evenodd;stroke:none;stroke-width:3;stroke-linecap:round;stroke-linejoin:round;stroke-miterlimit:4;stroke-dasharray:none;stroke-dashoffset:0;stroke-opacity:1"
     id="path2432"
     sodipodi:cx="261.26556"
     sodipodi:cy="288.90634"
     sodipodi:rx="6.4991431"
     sodipodi:ry="6.4991431"
     d="M 267.76471,288.90634 A 6.4991431,6.4991431 0 1 1 254.76642,288.90634 A 6.4991431,6.4991431 0 1 1 267.76471,288.90634 z"
     transform="translate(-42.244425,-58.492289)" />
  <path
     transform="translate(-69.540826,-50.693317)"
     d="M 267.76471,288.90634 A 6.4991431,6.4991431 0 1 1 254.76642,288.90634 A 6.4991431,6.4991431 0 1 1 267.76471,288.90634 z"
     sodipodi:ry="6.4991431"
     sodipodi:rx="6.4991431"
     sodipodi:cy="288.90634"
     sodipodi:cx="261.26556"
     id="path2434"
     style="opacity:1;fill:#53473c;fill-opacity:1;fill-rule:evenodd;stroke:none;stroke-width:3;stroke-linecap:round;stroke-linejoin:round;stroke-miterlimit:4;stroke-dasharray:none;stroke-dashoffset:0;stroke-opacity:1"
     sodipodi:type="arc" />
  <path
     sodipodi:type="arc"
     style="opacity:1;fill:#53473c;fill-opacity:1;fill-rule:evenodd;stroke:none;stroke-width:3;stroke-linecap:round;stroke-linejoin:round;stroke-miterlimit:4;stroke-dasharray:none;stroke-dashoffset:0;stroke-opacity:1"
     id="path2436"
     sodipodi:cx="261.26556"
     sodipodi:cy="288.90634"
     sodipodi:rx="6.4991431"
     sodipodi:ry="6.4991431"
     d="M 267.76471,288.90634 A 6.4991431,6.4991431 0 1 1 254.76642,288.90634 A 6.4991431,6.4991431 0 1 1 267.76471,288.90634 z"
     transform="translate(-38.344939,-33.14563)" />
  <path
     transform="translate(-82.539113,-17.547686)"
     d="M 267.76471,288.90634 A 6.4991431,6.4991431 0 1 1 254.76642,288.90634 A 6.4991431,6.4991431 0 1 1 267.76471,288.90634 z"
     sodipodi:ry="6.4991431"
     sodipodi:rx="6.4991431"
     sodipodi:cy="288.90634"
     sodipodi:cx="261.26556"
     id="path2438"
     style="opacity:1;fill:#53473c;fill-opacity:1;fill-rule:evenodd;stroke:none;stroke-width:3;stroke-linecap:round;stroke-linejoin:round;stroke-miterlimit:4;stroke-dasharray:none;stroke-dashoffset:0;stroke-opacity:1"
     sodipodi:type="arc" />
  <path
     sodipodi:nodetypes="ccccc"
     id="path2440"
     d="M 135.18217,263.55967 L 170.927,235.613 L 175.47687,244.71217 L 141.0314,270.05882 L 135.18217,263.55967 z"
     style="fill:#53473c;fill-opacity:1;fill-rule:evenodd;stroke:none;stroke-width:3;stroke-linecap:round;stroke-linejoin:round;stroke-miterlimit:4;stroke-dashoffset:0;stroke-opacity:1" />
  <path
     style="fill:#a79276;fill-opacity:1;fill-rule:evenodd;stroke:none;stroke-width:3;stroke-linecap:round;stroke-linejoin:round;stroke-miterlimit:4;stroke-dashoffset:0;stroke-opacity:1"
     d="M 276.19486,135.71324 C 316.18022,112.62768 369.00507,106.30004 413.60294,118.25 L 418.65809,152.71691 C 371.40788,152.71691 324.13284,161.62736 278.49265,173.85661 L 276.19486,135.71324 z"
     id="rect2477"
     sodipodi:nodetypes="ccccc" />
  <path
     style="fill:#d3bba2;fill-opacity:1;fill-rule:evenodd;stroke:none;stroke-width:3;stroke-linecap:round;stroke-linejoin:round;stroke-miterlimit:4;stroke-dashoffset:0;stroke-opacity:1"
     d="M 331.34191,22.202207 L 335.9375,85.161766 L 323.98897,42.422797 L 331.34191,22.202207 z"
     id="rect2485"
     sodipodi:nodetypes="cccc" />
  <path
     sodipodi:nodetypes="cccc"
     id="path2488"
     d="M 331.34191,22.202207 L 335.9375,85.161766 L 343.29044,39.665444 L 331.34191,22.202207 z"
     style="fill:#968168;fill-opacity:1;fill-rule:evenodd;stroke:none;stroke-width:3;stroke-linecap:round;stroke-linejoin:round;stroke-miterlimit:4;stroke-dashoffset:0;stroke-opacity:1" />
  <path
     sodipodi:type="arc"
     style="opacity:1;fill:#d9c940;fill-opacity:1;fill-rule:evenodd;stroke:none;stroke-width:3;stroke-linecap:round;stroke-linejoin:round;stroke-miterlimit:4;stroke-dasharray:none;stroke-dashoffset:0;stroke-opacity:1"
     id="path2490"
     sodipodi:cx="252.75735"
     sodipodi:cy="85.161766"
     sodipodi:rx="10.569853"
     sodipodi:ry="10.569853"
     d="M 263.32721,85.161766 A 10.569853,10.569853 0 1 1 242.1875,85.161766 A 10.569853,10.569853 0 1 1 263.32721,85.161766 z"
     transform="translate(55.606618,-3.6764706)" />
  <path
     transform="translate(107.99632,-11.948529)"
     d="M 263.32721,85.161766 A 10.569853,10.569853 0 1 1 242.1875,85.161766 A 10.569853,10.569853 0 1 1 263.32721,85.161766 z"
     sodipodi:ry="10.569853"
     sodipodi:rx="10.569853"
     sodipodi:cy="85.161766"
     sodipodi:cx="252.75735"
     id="path3262"
     style="opacity:1;fill:#d9c940;fill-opacity:1;fill-rule:evenodd;stroke:none;stroke-width:3;stroke-linecap:round;stroke-linejoin:round;stroke-miterlimit:4;stroke-dasharray:none;stroke-dashoffset:0;stroke-opacity:1"
     sodipodi:type="arc" />
  <path
     style="opacity:1;fill:#827719;fill-opacity:1;fill-rule:evenodd;stroke:none;stroke-width:3;stroke-linecap:round;stroke-linejoin:round;stroke-miterlimit:4;stroke-dasharray:none;stroke-dashoffset:0;stroke-opacity:1"
     d="M 308.375 70.90625 C 302.54044 70.90625 297.78124 75.665439 297.78125 81.5 C 297.78125 86.329135 301.04255 90.394853 305.46875 91.65625 C 303.30307 89.720242 301.9375 86.912509 301.9375 83.78125 C 301.9375 77.946692 306.66544 73.21875 312.5 73.21875 C 313.50542 73.21875 314.48472 73.362377 315.40625 73.625 C 313.53577 71.950124 311.08144 70.90625 308.375 70.90625 z "
     id="path3269" />
  <path
     id="path3274"
     d="M 360.77757,62.643384 C 354.94301,62.643384 350.18381,67.402573 350.18382,73.237134 C 350.18382,78.066269 353.44512,82.131987 357.87132,83.393384 C 355.70564,81.457376 354.34007,78.649643 354.34007,75.518384 C 354.34007,69.683826 359.06801,64.955884 364.90257,64.955884 C 365.90799,64.955884 366.88729,65.099511 367.80882,65.362134 C 365.93834,63.687258 363.48401,62.643384 360.77757,62.643384 z"
     style="opacity:1;fill:#827719;fill-opacity:1;fill-rule:evenodd;stroke:none;stroke-width:3;stroke-linecap:round;stroke-linejoin:round;stroke-miterlimit:4;stroke-dasharray:none;stroke-dashoffset:0;stroke-opacity:1" />
</svg>
