<?xml version="1.0" encoding="UTF-8" standalone="no"?>
<!-- Created with Inkscape (http://www.inkscape.org/) -->
<svg
   xmlns:dc="http://purl.org/dc/elements/1.1/"
   xmlns:cc="http://creativecommons.org/ns#"
   xmlns:rdf="http://www.w3.org/1999/02/22-rdf-syntax-ns#"
   xmlns:svg="http://www.w3.org/2000/svg"
   xmlns="http://www.w3.org/2000/svg"
   xmlns:sodipodi="http://sodipodi.sourceforge.net/DTD/sodipodi-0.dtd"
   xmlns:inkscape="http://www.inkscape.org/namespaces/inkscape"
   width="744.09448819"
   height="1052.3622047"
   id="svg2"
   sodipodi:version="0.32"
   inkscape:version="0.46"
   sodipodi:docname="keroppi.svg"
   inkscape:output_extension="org.inkscape.output.svg.inkscape">
  <defs
     id="defs4">
    <inkscape:perspective
       sodipodi:type="inkscape:persp3d"
       inkscape:vp_x="0 : 526.18109 : 1"
       inkscape:vp_y="0 : 1000 : 0"
       inkscape:vp_z="744.09448 : 526.18109 : 1"
       inkscape:persp3d-origin="372.04724 : 350.78739 : 1"
       id="perspective10" />
  </defs>
  <sodipodi:namedview
     id="base"
     pagecolor="#ffffff"
     bordercolor="#666666"
     borderopacity="1.0"
     gridtolerance="10000"
     guidetolerance="10"
     objecttolerance="10"
     inkscape:pageopacity="0.0"
     inkscape:pageshadow="2"
     inkscape:zoom="0.98994949"
     inkscape:cx="354.86134"
     inkscape:cy="646.12039"
     inkscape:document-units="px"
     inkscape:current-layer="layer1"
     showgrid="false"
     showguides="true"
     inkscape:guide-bbox="true"
     inkscape:window-width="1103"
     inkscape:window-height="753"
     inkscape:window-x="524"
     inkscape:window-y="49" />
  <metadata
     id="metadata7">
    <rdf:RDF>
      <cc:Work
         rdf:about="">
        <dc:format>image/svg+xml</dc:format>
        <dc:type
           rdf:resource="http://purl.org/dc/dcmitype/StillImage" />
      </cc:Work>
    </rdf:RDF>
  </metadata>
  <g
     inkscape:label="Layer 1"
     inkscape:groupmode="layer"
     id="layer1">
    <g
       id="g3236"
       transform="matrix(0.6969876,0,0,0.6969876,2.5333348,219.44531)"
       inkscape:export-xdpi="184.31999"
       inkscape:export-ydpi="184.31999">
      <rect
         y="186.18248"
         x="8.3604975"
         height="538.02972"
         width="717.37292"
         id="rect3566"
         style="fill:#fbf09a;fill-opacity:1;fill-rule:evenodd;stroke:none;stroke-width:10;stroke-linecap:round;stroke-linejoin:round;stroke-miterlimit:4;stroke-dasharray:none;stroke-dashoffset:0;stroke-opacity:1" />
      <path
         transform="translate(-43.892614,-288.43718)"
         d="M 397.12364,668.82434 A 164.07477,164.07477 0 1 1 68.974106,668.82434 A 164.07477,164.07477 0 1 1 397.12364,668.82434 z"
         sodipodi:ry="164.07477"
         sodipodi:rx="164.07477"
         sodipodi:cy="668.82434"
         sodipodi:cx="233.04887"
         id="path3564"
         style="fill:#1c6363;fill-opacity:1;fill-rule:evenodd;stroke:none;stroke-width:10;stroke-linecap:round;stroke-linejoin:round;stroke-miterlimit:4;stroke-dasharray:none;stroke-dashoffset:0;stroke-opacity:1"
         sodipodi:type="arc" />
      <path
         id="path3418"
         d="M 495.59856,255.15625 C 471.76008,254.92281 449.83322,270.77857 443.37981,294.875 C 441.53978,301.74553 441.11526,308.66011 441.94231,315.3125 C 423.22772,323.22804 407.5061,340.77546 402.22356,360.5 C 388.71823,410.92777 418.38706,438.96701 457.00481,456.46875 C 455.36336,459.07366 453.73378,461.70362 452.12981,464.375 C 450.12409,462.50531 447.87457,460.80572 445.41106,459.28125 C 442.85128,453.75125 431.7555,447.89548 427.00481,450.3125 C 422.81685,449.07567 418.9034,448.75012 416.69231,450.6875 C 413.33712,453.62736 420.15932,459.36848 417.97356,463.15625 C 415.78778,466.94401 406.15934,463.05598 403.97356,466.84375 C 401.78778,470.63152 409.97184,477.02474 407.78606,480.8125 C 405.60029,484.60028 397.21571,481.56043 396.34856,485.9375 C 395.8043,488.68472 397.79995,491.73892 400.72356,494.625 L 397.62981,499.96875 C 397.61256,499.99865 397.61486,500.03241 397.59856,500.0625 L 308.41106,654.5625 C 304.56213,661.23238 322.96784,671.57095 328.41106,666.125 L 419.97356,507.5 C 422.68518,508.79632 425.46391,509.7666 428.22356,510.4375 C 418.83206,532.15657 414.02548,550.59387 418.31731,558.03125 C 418.54226,558.42107 418.8289,558.81063 419.12981,559.1875 C 414.68079,566.88182 413.15606,576.26324 415.62981,585.5 C 415.6298,585.49998 420.62503,610.09113 431.34856,610.09375 C 436.89359,610.09508 436.55497,601.09212 441.91106,599.65625 C 447.26717,598.22037 451.67996,607.68589 457.03606,606.25 C 462.39215,604.81414 461.49247,594.40464 466.84856,592.96875 C 472.20464,591.5329 476.4221,599.49383 481.22356,596.71875 C 487.14632,593.29556 486.04483,582.39975 484.47356,574.9375 C 507.55071,576.24202 532.83982,575.64461 553.84856,573.125 C 554.38528,574.37605 554.99523,575.60452 555.69231,576.8125 C 555.69231,576.8125 566.86473,599.27426 577.22356,596.5 C 582.58001,595.06545 579.95264,586.46137 584.75481,583.6875 C 589.55694,580.9136 596.26518,588.93013 601.06731,586.15625 C 605.86945,583.38234 602.29644,573.55512 607.09856,570.78125 C 611.9007,568.00734 618.0536,574.61135 621.97356,570.6875 C 629.55438,563.09918 615.69228,542.15627 615.69231,542.15625 C 611.0082,534.03908 603.50856,528.53107 595.12981,526.15625 C 594.23639,523.57555 593.24395,520.90125 592.16106,518.15625 C 596.35913,516.16911 600.24627,513.04189 603.50481,509.03125 L 615.87981,525 L 644.22356,532.59375 L 664.12981,514.875 L 681.41106,450.3125 L 673.03606,425 L 658.87981,421.1875 L 664.62981,399.6875 L 684.56731,381.96875 L 676.16106,356.65625 L 662.00481,352.84375 L 643.06731,369.65625 C 642.93428,369.47629 642.79589,369.30332 642.66106,369.125 C 646.70217,363.77739 649.78967,357.58965 651.62981,350.71875 C 659.27827,322.16003 642.33054,292.74603 613.78606,285.09375 C 585.24161,277.44147 555.872,294.41004 548.22356,322.96875 C 547.45361,325.84368 546.9143,328.72502 546.62981,331.59375 C 545.54507,331.30295 544.9333,331.13455 543.84856,330.84375 C 545.034,328.21977 546.017,325.46536 546.78606,322.59375 C 554.43452,294.03503 537.48677,264.65229 508.94231,257 C 504.48224,255.80433 500.01309,255.19948 495.59856,255.15625 z M 653.09856,442.71875 L 662.69231,463.5625 L 654.53606,494.03125 L 635.81731,507.28125 L 653.09856,442.71875 z"
         style="fill:#feff80;fill-opacity:1;fill-rule:evenodd;stroke:#458838;stroke-width:50;stroke-linecap:round;stroke-linejoin:round;stroke-miterlimit:4;stroke-dasharray:none;stroke-dashoffset:0;stroke-opacity:1" />
      <path
         sodipodi:nodetypes="ccccc"
         id="rect3376"
         d="M 423.46502,451.75211 L 443.46465,463.30468 L 326.42215,666.12954 C 320.97894,671.57547 302.57359,661.24685 306.42252,654.57697 L 423.46502,451.75211 z"
         style="fill:#ffff00;fill-opacity:1;fill-rule:evenodd;stroke:none;stroke-width:7.99999905;stroke-linecap:round;stroke-linejoin:round;stroke-miterlimit:4;stroke-dashoffset:0;stroke-opacity:1" />
      <path
         sodipodi:nodetypes="cssss"
         id="rect3374"
         d="M 423.46502,451.75211 C 427.31395,445.08224 447.31358,456.6348 443.46465,463.30468 L 415.64737,511.50969 C 411.79844,518.17956 391.79881,506.627 395.64774,499.95713 L 423.46502,451.75211 z"
         style="fill:#b3b3b3;fill-opacity:1;fill-rule:evenodd;stroke:#000000;stroke-width:7.99999905;stroke-linecap:round;stroke-linejoin:round;stroke-miterlimit:4;stroke-dashoffset:0;stroke-opacity:1" />
      <path
         sodipodi:nodetypes="cssssssss"
         id="path3183"
         d="M 442.26022,458.56619 C 458.81847,468.13088 466.14234,486.49588 458.60491,499.5576 C 451.06748,512.61934 431.4785,515.43842 414.9507,505.89133 C 414.9507,505.89133 392.65914,494.41709 394.33611,485.95232 C 395.20325,481.57526 403.60333,484.59628 405.7891,480.8085 C 407.97488,477.02074 399.78386,470.63051 401.96964,466.84274 C 404.15542,463.05497 413.78226,466.95701 415.96804,463.16925 C 418.15382,459.38148 411.3388,453.61366 414.69399,450.6738 C 421.18259,444.98844 442.26022,458.56619 442.26022,458.56619 z"
         style="fill:#abc448;fill-opacity:1;fill-rule:evenodd;stroke:#000000;stroke-width:8;stroke-linecap:round;stroke-linejoin:round;stroke-miterlimit:4;stroke-dashoffset:0;stroke-opacity:1" />
      <path
         style="fill:#abc448;fill-opacity:1;fill-rule:evenodd;stroke:#000000;stroke-width:8;stroke-linecap:round;stroke-linejoin:round;stroke-miterlimit:4;stroke-dashoffset:0;stroke-opacity:1"
         d="M 480.55138,567.56521 C 475.60281,549.08766 456.5957,538.10705 438.12576,543.05852 C 419.65583,548.01 408.69185,567.06178 413.63132,585.50535 C 413.63132,585.50535 418.62484,610.10222 429.34837,610.10484 C 434.8934,610.10619 434.56188,601.09621 439.91797,599.66034 C 445.27406,598.22446 449.69576,607.69444 455.05186,606.25855 C 460.40795,604.82268 459.50465,594.40949 464.86074,592.9736 C 470.21684,591.53772 474.43247,599.50645 479.23393,596.73137 C 488.51942,591.36462 480.55138,567.56521 480.55138,567.56521 z"
         id="path3179"
         sodipodi:nodetypes="cssssssss" />
      <path
         transform="matrix(-0.8478271,3.3783079e-8,3.3766204e-8,0.8482508,615.59839,10.694857)"
         d="M 128.57143,460.8589 C 160.51007,460.8589 251.00287,617.59704 235.03355,645.25671 C 219.06423,672.91638 38.07862,672.91637 22.109303,645.2567 C 6.1399853,617.59703 96.632793,460.8589 128.57143,460.8589 z"
         inkscape:randomized="0"
         inkscape:rounded="0.15"
         inkscape:flatsided="true"
         sodipodi:arg2="-0.52359878"
         sodipodi:arg1="-1.5707963"
         sodipodi:r2="61.465935"
         sodipodi:r1="122.93187"
         sodipodi:cy="583.79077"
         sodipodi:cx="128.57143"
         sodipodi:sides="3"
         id="path3174"
         style="fill:#ff0000;fill-opacity:1;fill-rule:evenodd;stroke:none;stroke-width:8;stroke-linecap:round;stroke-linejoin:round;stroke-miterlimit:4;stroke-dasharray:none;stroke-dashoffset:0;stroke-opacity:1"
         sodipodi:type="star" />
      <path
         id="path3204"
         d="M 506.59897,401.61884 C 503.06007,401.61884 498.66249,403.91316 493.74004,407.91368 L 493.74004,575.41602 C 502.27062,575.66514 510.9276,575.66559 519.4579,575.41602 L 519.4579,407.91368 C 514.53191,403.90876 510.13996,401.61884 506.59897,401.61884 z M 466.18519,439.70949 C 457.27632,452.30377 448.34381,466.82585 440.46733,481.36108 L 440.46733,569.62661 C 447.94123,571.34173 456.69911,572.69115 466.18519,573.67001 L 466.18519,439.70949 z M 547.01275,439.70949 L 547.01275,573.67001 C 556.50505,572.6905 565.25349,571.34333 572.73061,569.62661 L 572.73061,481.40703 C 564.84879,466.85784 555.93017,452.31615 547.01275,439.70949 z"
         style="fill:#ffffff;fill-opacity:1;fill-rule:evenodd;stroke:none;stroke-width:8;stroke-linecap:round;stroke-linejoin:round;stroke-miterlimit:4;stroke-dashoffset:0;stroke-opacity:1" />
      <path
         sodipodi:type="star"
         style="fill:none;fill-opacity:1;fill-rule:evenodd;stroke:#000000;stroke-width:10.88465595;stroke-linecap:round;stroke-linejoin:round;stroke-miterlimit:4;stroke-dasharray:none;stroke-dashoffset:0;stroke-opacity:1"
         id="path3198"
         sodipodi:sides="3"
         sodipodi:cx="128.57143"
         sodipodi:cy="583.79077"
         sodipodi:r1="122.93187"
         sodipodi:r2="61.465935"
         sodipodi:arg1="-1.5707963"
         sodipodi:arg2="-0.52359878"
         inkscape:flatsided="true"
         inkscape:rounded="0.15"
         inkscape:randomized="0"
         d="M 128.57143,460.8589 C 160.51007,460.8589 251.00287,617.59704 235.03355,645.25671 C 219.06423,672.91638 38.07862,672.91637 22.109303,645.2567 C 6.1399853,617.59703 96.632793,460.8589 128.57143,460.8589 z"
         transform="matrix(0.8478271,3.3783079e-8,-3.3766204e-8,0.8482508,397.58575,10.694857)" />
      <path
         sodipodi:nodetypes="csccss"
         id="path3157"
         d="M 505.10015,473.61896 C 448.29388,458.39016 381.14836,431.77606 400.23924,360.49232 C 408.49374,329.67069 442.18407,304.14209 473.06736,312.42138 C 503.95066,320.70067 582.51661,341.76287 613.39991,350.04216 C 644.28322,358.32145 660.73799,397.2377 652.46963,428.11102 C 633.11583,500.37651 560.97421,488.59785 505.10015,473.61896 z"
         style="fill:#abc448;fill-opacity:1;fill-rule:evenodd;stroke:#000000;stroke-width:8.91778278;stroke-linecap:round;stroke-linejoin:round;stroke-miterlimit:4;stroke-dasharray:none;stroke-dashoffset:0;stroke-opacity:1" />
      <path
         transform="matrix(0.7097584,0.1902742,-0.1901792,0.7101131,350.0078,59.824151)"
         d="M 348.57143,276.64789 A 72.85714,72.85714 0 1 1 202.85715,276.64789 A 72.85714,72.85714 0 1 1 348.57143,276.64789 z"
         sodipodi:ry="72.85714"
         sodipodi:rx="72.85714"
         sodipodi:cy="276.64789"
         sodipodi:cx="275.71429"
         id="path2383"
         style="fill:#ffffff;fill-opacity:1;fill-rule:evenodd;stroke:#000000;stroke-width:10.88465595;stroke-linecap:round;stroke-linejoin:round;stroke-miterlimit:4;stroke-dasharray:none;stroke-dashoffset:0;stroke-opacity:1"
         sodipodi:type="arc" />
      <path
         sodipodi:type="arc"
         style="fill:#ffffff;fill-opacity:1;fill-rule:evenodd;stroke:#000000;stroke-width:10.88465595;stroke-linecap:round;stroke-linejoin:round;stroke-miterlimit:4;stroke-dasharray:none;stroke-dashoffset:0;stroke-opacity:1"
         id="path3155"
         sodipodi:cx="275.71429"
         sodipodi:cy="276.64789"
         sodipodi:rx="72.85714"
         sodipodi:ry="72.85714"
         d="M 348.57143,276.64789 A 72.85714,72.85714 0 1 1 202.85715,276.64789 A 72.85714,72.85714 0 1 1 348.57143,276.64789 z"
         transform="matrix(0.7097584,0.1902742,-0.1901792,0.7101131,454.84925,87.930367)" />
      <path
         transform="matrix(0.6017517,0.1613194,-0.1612389,0.6020524,455.34718,33.831548)"
         d="M 148.57143,540.93359 A 32.857143,32.857143 0 1 1 82.857143,540.93359 A 32.857143,32.857143 0 1 1 148.57143,540.93359 z"
         sodipodi:ry="32.857143"
         sodipodi:rx="32.857143"
         sodipodi:cy="540.93359"
         sodipodi:cx="115.71429"
         id="path3166"
         style="fill:#ff8080;fill-opacity:1;fill-rule:evenodd;stroke:none;stroke-width:8;stroke-linecap:round;stroke-linejoin:round;stroke-miterlimit:4;stroke-dasharray:none;stroke-dashoffset:0;stroke-opacity:1"
         sodipodi:type="arc" />
      <path
         sodipodi:type="arc"
         style="fill:#ff8080;fill-opacity:1;fill-rule:evenodd;stroke:none;stroke-width:8;stroke-linecap:round;stroke-linejoin:round;stroke-miterlimit:4;stroke-dasharray:none;stroke-dashoffset:0;stroke-opacity:1"
         id="path3168"
         sodipodi:cx="115.71429"
         sodipodi:cy="540.93359"
         sodipodi:rx="32.857143"
         sodipodi:ry="32.857143"
         d="M 148.57143,540.93359 A 32.857143,32.857143 0 1 1 82.857143,540.93359 A 32.857143,32.857143 0 1 1 148.57143,540.93359 z"
         transform="matrix(0.6017517,0.1613194,-0.1612389,0.6020524,628.73101,80.312816)" />
      <path
         sodipodi:nodetypes="cssssssss"
         id="path3176"
         d="M 553.69569,576.82153 C 544.13578,560.25501 549.81526,539.04376 566.37495,529.47824 C 582.93464,519.91272 604.15226,525.62779 613.69459,542.16384 C 613.69459,542.16384 627.54755,563.08917 619.96673,570.67749 C 616.04675,574.60134 609.91334,567.99578 605.1112,570.76969 C 600.30906,573.54358 603.87538,583.36805 599.07324,586.14196 C 594.27109,588.91585 587.55026,580.91357 582.74813,583.68747 C 577.94598,586.46137 580.597,595.07851 575.24055,596.51306 C 564.88175,599.28732 553.69569,576.82153 553.69569,576.82153 z"
         style="fill:#abc448;fill-opacity:1;fill-rule:evenodd;stroke:#000000;stroke-width:7.99999905;stroke-linecap:round;stroke-linejoin:round;stroke-miterlimit:4;stroke-dashoffset:0;stroke-opacity:1" />
      <path
         sodipodi:nodetypes="ccccc"
         id="rect3185"
         d="M 485.6505,465.30642 L 448.78754,421.7595 L 485.6505,465.30642 L 566.45577,446.43733 L 485.6505,465.30642 z"
         style="fill:#abc448;fill-opacity:1;fill-rule:evenodd;stroke:#000000;stroke-width:7.99999905;stroke-linecap:round;stroke-linejoin:round;stroke-miterlimit:4;stroke-dashoffset:0;stroke-opacity:1" />
      <path
         sodipodi:nodetypes="cccccccccccccccccccccccccccccccccc"
         id="rect3386"
         d="M 679.42602,450.31438 L 662.13613,514.87341 L 642.21278,532.59702 L 613.8927,525.00489 L 591.3359,495.89307 L 557.25251,509.82062 L 543.09247,506.02455 L 548.85577,484.50487 L 582.93916,470.57733 L 594.46576,427.53797 L 614.3891,409.81436 L 628.54914,413.61042 L 642.7092,417.4065 L 648.4725,395.88682 L 662.63254,399.68289 L 648.4725,395.88682 L 640.07575,370.57107 L 659.9991,352.84747 L 674.15914,356.64353 L 682.55588,381.95928 L 662.63254,399.68289 L 656.86924,421.20257 L 671.02928,424.99863 L 679.42602,450.31438 z M 633.81604,507.28128 L 651.10594,442.72225 L 660.70168,463.56103 L 652.54038,494.03463 L 633.81604,507.28128 z M 601.22174,475.47858 L 612.74834,432.43922 L 622.78585,435.13011 L 611.25925,478.16946 L 601.22174,475.47858 z"
         style="fill:#7f7f7f;fill-opacity:1;fill-rule:evenodd;stroke:#000000;stroke-width:8;stroke-linecap:round;stroke-linejoin:round;stroke-miterlimit:4;stroke-dashoffset:0;stroke-opacity:1" />
      <path
         style="fill:#abc448;fill-opacity:1;fill-rule:evenodd;stroke:#000000;stroke-width:8;stroke-linecap:round;stroke-linejoin:round;stroke-miterlimit:4;stroke-dashoffset:0;stroke-opacity:1"
         d="M 609.34404,493.45944 C 604.39547,511.93699 588.56065,523.76804 573.99947,519.86444 C 559.43827,515.96084 551.64659,497.75949 556.58608,479.31593 C 556.58608,479.31593 561.89431,454.80343 570.50061,454.23321 C 574.95084,453.93836 574.20832,462.83817 578.43091,463.97016 C 582.65351,465.10218 586.70293,455.53239 590.92552,456.6644 C 595.14813,457.79641 593.87253,468.1098 598.09513,469.2418 C 602.31772,470.37382 606.12236,462.29489 609.82903,464.7765 C 616.99729,469.57564 609.34404,493.45944 609.34404,493.45944 z"
         id="path3181"
         sodipodi:nodetypes="cssssssss" />
      <path
         sodipodi:nodetypes="ccccc"
         id="rect3188"
         d="M 592.83908,319.72269 L 564.63336,339.12055 L 592.83908,358.51842 L 564.63336,339.12055 L 592.83908,319.72269 z"
         style="fill:#abc448;fill-opacity:1;fill-rule:evenodd;stroke:#000000;stroke-width:8;stroke-linecap:round;stroke-linejoin:round;stroke-miterlimit:4;stroke-dashoffset:0;stroke-opacity:1" />
      <path
         style="fill:#abc448;fill-opacity:1;fill-rule:evenodd;stroke:#000000;stroke-width:8;stroke-linecap:round;stroke-linejoin:round;stroke-miterlimit:4;stroke-dashoffset:0;stroke-opacity:1"
         d="M 497.48873,292.16143 L 512.22152,323.07038 L 478.10055,325.75952 L 512.22152,323.07038 L 497.48873,292.16143 z"
         id="path3191"
         sodipodi:nodetypes="ccccc" />
      <path
         id="path3523"
         d="M 319.92113,288.91148 L 311.35209,290.06999 C 313.38057,305.69185 315.82331,321.37755 318.68832,337.13853 L 327.26614,335.75922 C 322.74872,307.13178 320.28482,291.51312 319.92113,288.91148 z M 293.00153,290.51212 C 292.38535,290.42071 291.76655,290.35032 291.10407,290.29068 C 288.45413,290.05216 285.42223,290.06978 282.0395,290.34145 C 278.65677,290.6132 273.85254,291.28858 267.59364,292.35865 L 275.56152,339.4479 L 284.1086,338.06294 L 282.04309,325.60989 C 290.09545,323.10614 295.71787,320.9525 298.92588,319.1473 C 305.69236,315.40563 308.85223,310.947 308.4365,305.77035 C 308.37061,304.95033 308.244,304.15121 308.0244,303.34347 C 306.37214,297.54404 303.00366,293.68582 297.94937,291.77043 C 296.5115,291.2089 294.85009,290.78636 293.00153,290.51212 z M 292.19797,299.03849 C 296.5947,299.90746 299.10732,302.11868 299.69372,305.62603 L 299.7991,306.09021 C 300.12985,308.28179 297.52108,310.57547 291.98839,312.98002 C 289.89747,313.92174 286.08142,315.24464 280.54648,316.97876 L 277.62353,299.50698 C 280.37887,299.13098 282.39671,298.89273 283.7293,298.78566 C 286.16385,298.59013 288.33219,298.582 290.21394,298.76938 C 290.9196,298.83965 291.56986,298.91435 292.19797,299.03849 z M 250.56597,293.90163 C 249.94979,293.81022 249.33099,293.73983 248.66851,293.6802 C 246.01856,293.44168 242.98667,293.45929 239.60394,293.73096 C 236.22121,294.00271 231.41699,294.67809 225.15808,295.74817 L 233.12031,342.86815 L 241.66739,341.48319 L 239.60188,329.03015 C 247.65423,326.5264 253.27667,324.37276 256.48468,322.56755 C 263.25116,318.82588 266.41104,314.36724 265.99529,309.1906 C 265.9294,308.37057 265.80842,307.54073 265.58884,306.73298 C 263.93658,300.93356 260.5681,297.07534 255.51381,295.15995 C 254.07594,294.59841 252.41452,294.17588 250.56597,293.90163 z M 249.75676,302.45874 C 254.15349,303.32771 256.66612,305.53893 257.25251,309.04629 L 257.36354,309.47972 C 257.6943,311.67131 255.08552,313.96499 249.55283,316.36953 C 247.46193,317.31126 243.67096,318.67053 238.13601,320.40466 L 235.18232,302.92723 C 237.93768,302.55123 239.95549,302.31299 241.2881,302.20591 C 243.72264,302.01038 245.89098,302.00225 247.77273,302.18963 C 248.47839,302.2599 249.12865,302.3346 249.75676,302.45874 z M 204.97215,297.18763 C 204.41472,297.08111 203.87449,297.00822 203.30112,296.94425 C 201.77213,296.77366 200.18408,296.76483 198.54396,296.89655 C 191.06092,297.49762 184.58696,300.83923 179.09439,306.95461 C 173.60178,313.07005 171.14337,319.84111 171.74027,327.27285 C 172.27542,333.93583 174.79834,339.40127 179.31626,343.62938 C 183.94901,348.00302 189.57097,349.89556 196.18269,349.36452 C 204.07569,348.73057 210.76601,345.48703 216.24948,339.5787 C 221.73287,333.67037 224.16691,326.77234 223.53712,318.93052 C 223.00604,312.31885 220.33263,306.87215 215.55027,302.56207 C 212.41179,299.73362 208.87413,297.93328 204.97215,297.18763 z M 203.32993,305.78237 C 205.82221,306.24976 208.0326,307.36743 209.9538,309.15959 C 212.88128,311.89059 214.49994,315.4118 214.84577,319.71706 C 215.26972,324.9962 213.52455,329.68186 209.62437,333.78653 C 205.7241,337.89124 201.10767,340.17445 195.72609,340.60668 C 191.3695,340.95659 187.80162,339.82893 185.03818,337.21377 C 182.2747,334.5986 180.7057,331.05703 180.34757,326.59796 C 179.94823,321.62638 181.7482,316.92083 185.72829,312.52598 C 189.6182,308.29319 194.09705,305.998 199.17118,305.59041 C 200.23467,305.505 201.26793,305.50889 202.24853,305.61552 C 202.61626,305.6555 202.97389,305.7156 203.32993,305.78237 z M 150.25478,302.2293 C 149.69647,302.11675 149.1205,302.02868 148.52793,301.94388 C 145.36754,301.49166 141.73535,301.44646 137.59663,301.77886 C 134.00885,302.06707 128.94047,302.77583 122.42942,303.91775 L 130.47821,351.0854 L 139.01714,349.57186 L 137.49231,341.0944 L 166.7616,346.24813 L 168.23884,337.68664 L 149.24661,334.35704 C 159.43842,328.94747 164.29678,323.03551 163.78225,316.6288 C 163.14833,308.73658 158.62946,303.91741 150.25478,302.2293 z M 113.29962,302.9398 C 96.246792,305.13484 86.945633,306.34852 85.412153,306.52321 C 88.39137,326.91763 90.582779,342.34187 91.939214,352.80767 C 93.130378,352.86676 97.023433,352.62747 103.63515,352.09641 C 106.09528,351.89883 108.98229,351.26585 112.3033,350.22533 C 115.17119,349.32441 118.01925,348.43187 120.83596,347.53505 L 118.53395,339.13725 C 111.03298,341.44199 105.42985,342.74613 101.73961,343.0425 C 100.86828,343.1125 100.03402,343.13516 99.209859,343.14975 L 98.043194,334.45213 L 116.98841,331.29145 L 115.58966,322.64651 L 96.870884,325.78524 L 95.220615,314.01214 L 114.39102,311.52828 L 113.29962,302.9398 z M 147.9897,310.58254 C 152.4791,311.45258 154.86913,313.67128 155.15551,317.23657 C 155.4395,320.77309 148.98796,325.45624 135.83576,331.25829 L 132.39219,311.08552 C 135.76255,310.6601 138.02918,310.39871 139.20803,310.30399 C 141.75788,310.09921 144.00453,310.11618 145.94419,310.30214 C 146.67157,310.37187 147.34835,310.45825 147.9897,310.58254 z M 72.962296,297.50061 L 45.772766,341.91315 L 40.199704,309.11672 L 27.397271,311.1816 C 32.417368,340.65808 36.142829,362.7729 38.572874,377.47888 L 51.509542,375.37511 L 49.294745,362.00501 L 93.149117,370.09189 L 95.480714,357.39799 L 56.083036,350.12971 L 84.052259,304.23997 L 72.962296,297.50061 z"
         style="font-size:78.97895813px;font-style:normal;font-variant:normal;font-weight:normal;font-stretch:normal;text-align:start;line-height:100%;writing-mode:lr-tb;text-anchor:start;fill:#32852a;fill-opacity:1;stroke:#458838;stroke-width:10;stroke-linecap:round;stroke-linejoin:round;stroke-miterlimit:4;stroke-dasharray:none;stroke-opacity:1;font-family:CreativeBlock BB;-inkscape-font-specification:CreativeBlock BB" />
      <path
         id="path3509"
         d="M 72.952837,297.50185 L 45.772584,341.90738 L 40.20783,309.12603 L 27.384118,311.19216 C 32.404212,340.66864 36.141358,362.77264 38.571403,377.47862 L 51.49581,375.38345 L 49.282003,361.99738 L 93.136406,370.10004 L 95.467989,357.40622 L 56.087502,350.12533 L 84.062327,304.24926 L 72.952837,297.50185 z"
         style="font-size:78.97895813px;font-style:normal;font-variant:normal;font-weight:normal;font-stretch:normal;text-align:start;line-height:100%;writing-mode:lr-tb;text-anchor:start;fill:#abc448;fill-opacity:1;stroke:#000000;stroke-width:3;stroke-linecap:butt;stroke-linejoin:miter;stroke-miterlimit:4;stroke-dasharray:none;stroke-opacity:1;font-family:CreativeBlock BB;-inkscape-font-specification:CreativeBlock BB" />
      <path
         id="path3507"
         d="M 113.28796,302.93206 C 96.235139,305.12709 86.933971,306.34078 85.40049,306.51547 C 88.379707,326.90989 90.571117,342.33413 91.927551,352.79993 C 93.118727,352.85901 97.01177,352.61973 103.62349,352.08867 C 106.08363,351.89108 108.97062,351.25811 112.29163,350.21759 C 115.15954,349.31666 118.00758,348.42412 120.82429,347.5273 L 118.52228,339.1295 C 111.02133,341.43425 105.41818,342.73839 101.72795,343.03476 C 100.85662,343.10476 100.02236,343.12742 99.198196,343.14201 L 98.031531,334.44438 L 116.97675,331.2837 L 115.578,322.63877 L 96.859221,325.77749 L 95.208952,314.0044 L 114.37935,311.52054 L 113.28796,302.93206 z"
         style="font-size:78.97895813px;font-style:normal;font-variant:normal;font-weight:normal;font-stretch:normal;text-align:start;line-height:100%;writing-mode:lr-tb;text-anchor:start;fill:#000000;fill-opacity:1;stroke:none;stroke-width:1px;stroke-linecap:butt;stroke-linejoin:miter;stroke-opacity:1;font-family:CreativeBlock BB;-inkscape-font-specification:CreativeBlock BB" />
      <path
         id="path3505"
         d="M 148.51627,301.93614 C 145.35588,301.48391 141.72369,301.43871 137.58497,301.77111 C 133.9972,302.05932 128.9288,302.76809 122.41776,303.91 L 130.46655,351.07766 L 139.00548,349.56411 L 137.48065,341.08666 L 166.74993,346.24039 L 168.22718,337.67889 L 149.23495,334.34929 C 159.42676,328.93973 164.28512,323.02777 163.77058,316.62105 C 163.09441,308.20269 157.99741,303.29282 148.51627,301.93614 z M 145.93253,310.2944 C 151.75153,310.85227 154.81655,313.15421 155.14384,317.22883 C 155.42785,320.76535 148.9763,325.44849 135.8241,331.25055 L 132.38053,311.07778 C 135.7509,310.65236 138.01751,310.39097 139.19636,310.29624 C 141.74622,310.09146 143.99286,310.10843 145.93253,310.2944 z"
         style="font-size:78.97895813px;font-style:normal;font-variant:normal;font-weight:normal;font-stretch:normal;text-align:start;line-height:100%;writing-mode:lr-tb;text-anchor:start;fill:#000000;fill-opacity:1;stroke:none;stroke-width:1px;stroke-linecap:butt;stroke-linejoin:miter;stroke-opacity:1;font-family:CreativeBlock BB;-inkscape-font-specification:CreativeBlock BB" />
      <path
         id="path3503"
         d="M 203.28946,296.9365 C 201.76048,296.76592 200.17241,296.75709 198.5323,296.88881 C 191.04927,297.48988 184.5753,300.83149 179.08273,306.94686 C 173.59013,313.06231 171.13171,319.83337 171.72861,327.2651 C 172.26376,333.92808 174.78668,339.39352 179.3046,343.62163 C 183.93736,347.99528 189.5593,349.88781 196.17103,349.35677 C 204.06403,348.72282 210.75435,345.47928 216.23782,339.57095 C 221.7212,333.66263 224.15524,326.76459 223.52546,318.92277 C 222.99437,312.3111 220.32097,306.86441 215.53861,302.55432 C 211.95177,299.32182 207.87641,297.44827 203.28946,296.9365 z M 202.23687,305.60777 C 205.17866,305.92765 207.74648,307.10366 209.94214,309.15184 C 212.86963,311.88285 214.48828,315.40405 214.83411,319.70932 C 215.25807,324.98846 213.51288,329.67412 209.61271,333.77878 C 205.71245,337.88349 201.09601,340.1667 195.71442,340.59894 C 191.35785,340.94885 187.78996,339.82118 185.02652,337.20602 C 182.26305,334.59085 180.69404,331.04929 180.3359,326.59021 C 179.93658,321.61864 181.73653,316.91309 185.71663,312.51824 C 189.60654,308.28545 194.08539,305.99026 199.15952,305.58267 C 200.22302,305.49726 201.25627,305.50114 202.23687,305.60777 z"
         style="font-size:78.97895813px;font-style:normal;font-variant:normal;font-weight:normal;font-stretch:normal;text-align:start;line-height:100%;writing-mode:lr-tb;text-anchor:start;fill:#000000;fill-opacity:1;stroke:none;stroke-width:1px;stroke-linecap:butt;stroke-linejoin:miter;stroke-opacity:1;font-family:CreativeBlock BB;-inkscape-font-specification:CreativeBlock BB" />
      <path
         id="path3501"
         d="M 248.65684,293.67246 C 246.00689,293.43393 242.975,293.45155 239.59228,293.72322 C 236.20953,293.99497 231.40532,294.67035 225.14642,295.74042 L 233.10865,342.8604 L 241.65573,341.47545 L 239.59022,329.0224 C 247.64256,326.51865 253.26501,324.36502 256.47301,322.5598 C 263.23948,318.81813 266.39938,314.3595 265.98363,309.18285 C 265.91773,308.36283 265.79675,307.53299 265.57718,306.72524 C 263.9249,300.92581 260.55644,297.0676 255.50215,295.1522 C 253.58497,294.40349 251.30679,293.91098 248.65684,293.67246 z M 247.76107,302.18189 C 253.40632,302.74405 256.57069,305.03014 257.24085,309.03854 L 257.35187,309.47198 C 257.68262,311.66356 255.07386,313.95724 249.54117,316.36179 C 247.45026,317.30352 243.6593,318.66278 238.12435,320.39691 L 235.17066,302.91949 C 237.926,302.54348 239.94382,302.30524 241.27643,302.19817 C 243.71096,302.00263 245.87932,301.99451 247.76107,302.18189 z"
         style="font-size:78.97895813px;font-style:normal;font-variant:normal;font-weight:normal;font-stretch:normal;text-align:start;line-height:100%;writing-mode:lr-tb;text-anchor:start;fill:#000000;fill-opacity:1;stroke:none;stroke-width:1px;stroke-linecap:butt;stroke-linejoin:miter;stroke-opacity:1;font-family:CreativeBlock BB;-inkscape-font-specification:CreativeBlock BB" />
      <path
         id="path3499"
         d="M 291.0924,290.28294 C 288.44245,290.04442 285.41057,290.06204 282.02784,290.3337 C 278.6451,290.60545 273.84088,291.28083 267.58198,292.35091 L 275.54986,339.44015 L 284.09694,338.0552 L 282.03143,325.60215 C 290.08378,323.09839 295.70621,320.94476 298.91422,319.13955 C 305.68069,315.39788 308.84056,310.93925 308.42484,305.7626 C 308.35894,304.94259 308.23234,304.14347 308.01274,303.33572 C 306.36047,297.5363 302.99199,293.67808 297.93771,291.76269 C 296.02053,291.01398 293.74236,290.52147 291.0924,290.28294 z M 290.20228,298.76164 C 295.84753,299.3238 299.01188,301.60989 299.68206,305.61829 L 299.78744,306.08246 C 300.11817,308.27404 297.50941,310.56772 291.97673,312.97227 C 289.8858,313.91399 286.06976,315.23689 280.53482,316.97101 L 277.61187,299.49924 C 280.3672,299.12323 282.38505,298.88499 283.71764,298.77792 C 286.15218,298.58238 288.32053,298.57426 290.20228,298.76164 z"
         style="font-size:78.97895813px;font-style:normal;font-variant:normal;font-weight:normal;font-stretch:normal;text-align:start;line-height:100%;writing-mode:lr-tb;text-anchor:start;fill:#000000;fill-opacity:1;stroke:none;stroke-width:1px;stroke-linecap:butt;stroke-linejoin:miter;stroke-opacity:1;font-family:CreativeBlock BB;-inkscape-font-specification:CreativeBlock BB" />
      <path
         id="text3486"
         d="M 319.90947,288.90373 L 311.34043,290.06224 C 313.3689,305.68411 315.81165,321.36981 318.67666,337.13078 L 327.25447,335.75148 C 322.73705,307.12404 320.27316,291.50537 319.90947,288.90373 z"
         style="font-size:78.97895813px;font-style:normal;font-variant:normal;font-weight:normal;font-stretch:normal;text-align:start;line-height:100%;writing-mode:lr-tb;text-anchor:start;fill:#000000;fill-opacity:1;stroke:none;stroke-width:1px;stroke-linecap:butt;stroke-linejoin:miter;stroke-opacity:1;font-family:CreativeBlock BB;-inkscape-font-specification:CreativeBlock BB" />
      <path
         id="path3538"
         d="M 120.91028,389.50788 C 113.97896,388.30084 107.56622,389.69277 101.6348,393.63709 C 95.70336,397.58148 92.138795,402.99329 90.938332,409.88663 C 89.917462,415.74874 90.725626,421.65659 93.373231,427.59824 C 96.759216,435.06662 103.26551,439.63009 112.90434,441.30865 C 119.7273,442.49687 128.56871,442.21578 139.47178,440.47942 C 140.43747,432.37079 141.13063,426.31864 141.50526,422.24543 L 145.56788,422.41368 L 145.9234,413.08638 L 111.67554,411.75335 L 111.32003,421.08066 L 132.18331,421.85913 L 131.01767,432.3776 C 124.52309,433.14803 119.18825,433.17236 115.01867,432.44624 C 105.21738,430.73938 100.13942,424.73664 99.757351,414.43588 C 99.720343,413.36689 99.811387,412.30413 99.990989,411.27281 C 100.73773,406.98483 103.1076,403.65496 107.1026,401.21884 C 110.9162,398.86308 114.99726,398.05772 119.38349,398.82153 C 121.33287,399.16106 123.11073,399.81461 124.78431,400.77712 L 129.63053,392.80283 C 126.90485,391.15379 123.99683,390.04542 120.91028,389.50788 z M 268.49886,432.52941 L 262.47263,431.79716 C 261.91349,436.05975 261.39569,441.04655 260.91511,446.75168 L 247.93613,446.23603 C 248.43229,440.0207 248.9105,435.10739 249.39991,431.45551 L 243.31212,430.71254 C 242.25558,439.72475 241.30727,450.0642 240.45115,461.71259 L 246.57112,462.27085 C 246.84256,458.39784 247.09434,455.06433 247.35781,452.28906 L 260.36758,452.81007 C 259.90093,458.22453 259.53889,462.28882 259.32336,464.99915 L 265.38176,465.54668 C 265.484,464.53861 265.96522,459.04872 266.82719,449.05007 C 267.40384,442.37246 267.96289,436.86932 268.49886,432.52941 z M 330.90063,443.77719 L 325.15756,445.79047 C 326.76137,450.46637 327.95217,453.97563 328.71852,456.30735 C 327.84432,459.0129 325.88074,462.696 322.7967,467.36152 C 321.01302,458.03793 318.88916,449.69347 316.43869,442.30544 L 310.64478,444.24643 C 313.94511,453.90747 316.38578,464.45968 317.94634,475.90606 L 323.49053,477.22049 C 324.15715,476.12753 325.4769,474.1561 327.43808,471.31012 C 329.14709,468.85989 330.41935,466.8534 331.2732,465.31673 C 332.47806,470.17961 333.4796,474.9294 334.24701,479.56952 L 339.85952,480.6738 C 346.70061,469.37157 351.64055,459.25241 354.66068,450.32569 L 348.91048,448.3727 C 346.50463,455.24474 343.10943,462.65981 338.76149,470.58584 C 336.74885,461.73532 334.12843,452.80274 330.90063,443.77719 z M 294.17337,437.92046 C 288.98163,437.01637 283.97829,438.17343 279.1722,441.36662 C 274.36607,444.55986 271.51763,448.70975 270.6197,453.86588 C 269.81465,458.48866 270.56329,462.649 272.89248,466.31541 C 275.27421,470.10089 278.78229,472.38463 283.3695,473.18349 C 288.84567,474.13716 293.93363,473.10204 298.69722,470.04796 C 303.46075,466.99389 306.34509,462.74303 307.29262,457.3024 C 308.09143,452.71522 307.24267,448.54235 304.74811,444.77384 C 302.25347,441.00537 298.72497,438.71316 294.17337,437.92046 z M 234.51283,427.68931 C 230.99239,427.07626 227.60842,426.98859 224.34754,427.4099 C 220.70007,427.94715 217.53837,428.84783 214.90041,430.11039 C 211.2975,431.86445 209.24739,434.1567 208.75197,437.00145 C 207.885,441.97982 212.01034,445.27694 221.1492,446.86844 C 224.10064,447.38244 225.99235,447.73378 226.79786,447.9473 C 229.84818,448.73499 231.29751,449.61319 231.13032,450.57329 C 231.08695,450.82222 230.8599,451.13331 230.43002,451.49811 C 228.94849,452.85218 226.63128,453.79762 223.49407,454.35043 C 220.95674,454.82452 218.38241,454.95331 215.78497,454.7208 L 215.26822,460.78456 C 219.34219,461.16428 223.09521,460.89503 226.48457,459.94647 C 233.15036,458.06633 236.80463,455.14757 237.48586,451.23601 C 237.77688,449.56472 237.38029,447.96888 236.28756,446.4596 C 234.98918,444.65807 232.57757,443.29338 229.048,442.3123 C 228.98305,442.26437 226.04146,441.6498 220.19891,440.48577 C 217.1887,439.88829 215.4986,439.09233 215.15559,438.11663 C 215.13859,438.00378 215.13358,437.87872 215.15836,437.73647 C 215.24505,437.23866 215.82467,436.6651 216.8561,436.00202 C 221.20752,433.31586 226.80968,432.56503 233.70828,433.76638 C 234.84616,433.96457 235.93218,434.2024 236.94486,434.48863 L 238.6315,428.62861 C 237.26941,428.24488 235.89962,427.93083 234.51283,427.68931 z M 152.77826,413.61401 C 152.00615,416.15417 151.39626,418.07634 150.95378,419.35486 C 148.70419,425.96101 147.28726,430.93731 146.69896,434.31546 C 145.87534,439.04491 146.13262,442.35632 147.51058,444.22666 C 148.88853,446.09703 151.96896,447.44553 156.73397,448.27536 C 161.99678,449.19187 165.98863,449.53639 168.70218,449.31283 C 172.11607,449.06467 174.25042,446.41457 175.13599,441.32952 C 175.81095,437.45353 176.02423,431.33492 175.78804,423.01357 C 175.69129,419.99242 175.68155,418.18882 175.7451,417.61363 L 169.63846,417.34318 C 169.62744,418.03743 169.71356,421.87779 169.85268,428.86325 C 169.94899,433.56972 169.72903,437.40547 169.20887,440.39249 C 168.94875,441.886 168.58144,442.82037 168.14537,443.22072 C 168.02009,443.30882 166.73279,443.26243 164.24204,443.04849 C 161.9708,442.83615 160.4977,442.68191 159.82209,442.56424 L 158.73919,442.40738 C 158.30627,442.36863 157.81488,442.30986 157.2815,442.21697 C 154.4367,441.72156 152.70437,441.0424 152.08148,440.20118 C 151.75225,439.77747 151.72267,438.8008 151.99515,437.23616 C 152.39148,434.96035 153.1106,432.28533 154.12402,429.20101 C 154.992,426.53106 155.87889,423.88527 156.77627,421.257 C 157.91652,417.86507 158.56387,415.72788 158.7187,414.83885 L 152.77826,413.61401 z M 189.29123,419.97266 C 188.11155,419.8039 185.90207,419.44593 182.63059,418.87617 C 182.33492,420.36352 182.05908,421.79355 181.82377,423.14479 C 179.95979,433.84828 179.37482,443.24778 180.05173,451.35277 L 186.13312,450.85753 C 185.51314,443.89824 185.69354,437.25535 186.68917,430.90712 C 187.84347,433.74611 189.75291,437.9174 192.43963,443.42303 C 195.12632,448.92867 197.07107,453.07933 198.2316,455.88273 L 204.07206,455.31381 C 206.05546,442.87253 207.19279,432.46858 207.47922,424.09167 L 201.42879,423.86273 C 201.14134,429.93128 200.54784,436.65322 199.62779,444.04042 C 195.76269,436.14963 193.66038,431.83396 193.35135,431.08399 C 192.10113,428.3749 190.7466,424.65937 189.29123,419.97266 z M 293.06096,443.94392 C 296.01238,444.45793 298.2542,445.88197 299.76504,448.25173 C 301.27581,450.62155 301.76787,453.32613 301.24771,456.31314 C 300.60984,459.9758 298.6118,462.83591 295.24077,464.94174 C 291.86969,467.04758 288.31337,467.79556 284.57964,467.14533 C 281.55705,466.61896 279.34064,465.20294 277.92105,462.9406 C 276.50143,460.67829 276.05354,457.99971 276.59231,454.906 C 277.19298,451.45672 279.21535,448.58254 282.6916,446.29348 C 286.07812,444.09877 289.54052,443.33086 293.06096,443.94392 z"
         style="font-size:55.44176483px;font-style:normal;font-variant:normal;font-weight:normal;font-stretch:normal;text-align:start;line-height:125%;writing-mode:lr-tb;text-anchor:start;fill:#000000;fill-opacity:1;stroke:#458838;stroke-width:10;stroke-linecap:round;stroke-linejoin:round;stroke-miterlimit:4;stroke-dasharray:none;stroke-opacity:1;font-family:CreativeBlock BB;-inkscape-font-specification:CreativeBlock BB" />
      <path
         id="text3490"
         d="M 268.49758,432.53665 L 262.47136,431.80439 C 261.91221,436.06699 261.39441,441.05379 260.91383,446.75891 L 247.93485,446.24327 C 248.43102,440.02794 248.90922,435.11463 249.39864,431.46275 L 243.31084,430.71977 C 242.25431,439.73199 241.30599,450.07143 240.44987,461.71983 L 246.56984,462.27808 C 246.84128,458.40508 247.09306,455.07157 247.35654,452.2963 L 260.3663,452.8173 C 259.89965,458.23177 259.53761,462.29605 259.32209,465.00638 L 265.38048,465.55392 C 265.48273,464.54585 265.96395,459.05596 266.82591,449.0573 C 267.40256,442.37969 267.96161,436.87656 268.49758,432.53665 z M 330.89935,443.78442 L 325.15628,445.79771 C 326.76009,450.47361 327.95089,453.98286 328.71725,456.31459 C 327.84304,459.02014 325.87947,462.70324 322.79542,467.36876 C 321.01175,458.04517 318.88788,449.70071 316.43742,442.31268 L 310.6435,444.25367 C 313.94383,453.9147 316.3845,464.46692 317.94506,475.9133 L 323.48925,477.22773 C 324.15587,476.13476 325.47562,474.16334 327.4368,471.31736 C 329.14582,468.86713 330.41807,466.86064 331.27192,465.32397 C 332.47678,470.18684 333.47832,474.93664 334.24573,479.57675 L 339.85824,480.68104 C 346.69933,469.37881 351.63927,459.25965 354.6594,450.33293 L 348.9092,448.37994 C 346.50335,455.25198 343.10815,462.66704 338.76021,470.59308 C 336.74757,461.74256 334.12715,452.80998 330.89935,443.78442 z M 294.17209,437.9277 C 288.98036,437.02361 283.97702,438.18067 279.17092,441.37386 C 274.36479,444.5671 271.51635,448.71698 270.61842,453.87312 C 269.81337,458.4959 270.56201,462.65623 272.89121,466.32265 C 275.27293,470.10813 278.78102,472.39187 283.36822,473.19073 C 288.8444,474.14439 293.93235,473.10927 298.69594,470.0552 C 303.45947,467.00112 306.34382,462.75027 307.29134,457.30964 C 308.09015,452.72245 307.2414,448.54958 304.74683,444.78108 C 302.2522,441.01261 298.72369,438.7204 294.17209,437.9277 z M 293.05968,443.95116 C 296.01111,444.46517 298.25292,445.8892 299.76376,448.25897 C 301.27453,450.62878 301.7666,453.33337 301.24643,456.32038 C 300.60856,459.98304 298.61052,462.84315 295.2395,464.94898 C 291.86841,467.05482 288.31209,467.8028 284.57836,467.15257 C 281.55577,466.6262 279.33937,465.21018 277.91977,462.94784 C 276.50015,460.68553 276.05226,458.00695 276.59103,454.91324 C 277.1917,451.46396 279.21407,448.58977 282.69033,446.30072 C 286.07685,444.10601 289.53924,443.3381 293.05968,443.95116 z"
         style="font-size:55.44176483px;font-style:normal;font-variant:normal;font-weight:normal;font-stretch:normal;text-align:start;line-height:125%;writing-mode:lr-tb;text-anchor:start;fill:#000000;fill-opacity:1;stroke:none;stroke-width:1px;stroke-linecap:butt;stroke-linejoin:miter;stroke-opacity:1;font-family:CreativeBlock BB;-inkscape-font-specification:CreativeBlock BB" />
      <path
         id="path3518"
         d="M 152.77699,413.62124 C 152.00488,416.1614 151.39498,418.08357 150.9525,419.3621 C 148.70292,425.96825 147.28599,430.94454 146.69769,434.32269 C 145.87407,439.05214 146.13135,442.36355 147.5093,444.23389 C 148.88725,446.10426 151.96769,447.45277 156.73269,448.28259 C 161.9955,449.1991 165.98735,449.54362 168.7009,449.32006 C 172.1148,449.07191 174.24914,446.4218 175.13471,441.33676 C 175.80968,437.46076 176.02295,431.34216 175.78677,423.0208 C 175.69002,419.99966 175.68027,418.19605 175.74383,417.62087 L 169.63718,417.35042 C 169.62617,418.04466 169.71228,421.88503 169.85141,428.87048 C 169.94772,433.57695 169.72775,437.41271 169.20759,440.39972 C 168.94748,441.89323 168.58017,442.8276 168.14409,443.22795 C 168.01881,443.31605 166.73151,443.26967 164.24077,443.05572 C 161.96952,442.84338 160.49642,442.68914 159.82081,442.57148 L 158.73792,442.41461 C 158.305,442.37586 157.8136,442.3171 157.28022,442.2242 C 154.43543,441.72879 152.7031,441.04964 152.08021,440.20842 C 151.75097,439.78471 151.7214,438.80803 151.99388,437.24339 C 152.3902,434.96758 153.10933,432.29257 154.12275,429.20824 C 154.99073,426.53829 155.87762,423.8925 156.77499,421.26424 C 157.91525,417.8723 158.56259,415.73512 158.71743,414.84608 L 152.77699,413.62124 z M 189.28995,419.9799 C 188.11027,419.81113 185.9008,419.45317 182.62931,418.8834 C 182.33365,420.37075 182.0578,421.80079 181.8225,423.15202 C 179.95851,433.85551 179.37354,443.25501 180.05045,451.36 L 186.13184,450.86476 C 185.51186,443.90547 185.69227,437.26259 186.68789,430.91435 C 187.84219,433.75335 189.75163,437.92464 192.43835,443.43026 C 195.12504,448.9359 197.06979,453.08657 198.23033,455.88996 L 204.07078,455.32105 C 206.05419,442.87976 207.19151,432.47581 207.47795,424.09891 L 201.42751,423.86997 C 201.14007,429.93851 200.54656,436.66046 199.62651,444.04766 C 195.76141,436.15686 193.6591,431.8412 193.35008,431.09123 C 192.09986,428.38213 190.74532,424.6666 189.28995,419.9799 z"
         style="font-size:55.44176483px;font-style:normal;font-variant:normal;font-weight:normal;font-stretch:normal;text-align:start;line-height:125%;writing-mode:lr-tb;text-anchor:start;fill:#000000;fill-opacity:1;stroke:none;stroke-width:1px;stroke-linecap:butt;stroke-linejoin:miter;stroke-opacity:1;font-family:CreativeBlock BB;-inkscape-font-specification:CreativeBlock BB" />
      <path
         id="path3516"
         d="M 234.51155,427.69654 C 230.99111,427.0835 227.60714,426.99582 224.34627,427.41713 C 220.69879,427.95439 217.5371,428.85506 214.89913,430.11762 C 211.29622,431.87168 209.24611,434.16393 208.75069,437.00869 C 207.88372,441.98706 212.00907,445.28417 221.14792,446.87568 C 224.09936,447.38967 225.99107,447.74102 226.79658,447.95454 C 229.8469,448.74223 231.29623,449.62043 231.12904,450.58053 C 231.08567,450.82946 230.85862,451.14055 230.42874,451.50534 C 228.94721,452.85942 226.63,453.80485 223.49279,454.35766 C 220.95546,454.83175 218.38113,454.96055 215.78369,454.72804 L 215.26695,460.79179 C 219.34092,461.17152 223.09394,460.90226 226.48329,459.95371 C 233.14909,458.07357 236.80336,455.15481 237.48458,451.24325 C 237.7756,449.57195 237.37901,447.97611 236.28628,446.46684 C 234.98791,444.66531 232.57629,443.30062 229.04672,442.31953 C 228.98177,442.27161 226.04018,441.65703 220.19763,440.493 C 217.18743,439.89552 215.49733,439.09957 215.15432,438.12386 C 215.13732,438.01101 215.13231,437.88596 215.15708,437.7437 C 215.24377,437.24589 215.82339,436.67233 216.85482,436.00926 C 221.20625,433.32309 226.8084,432.57227 233.70701,433.77362 C 234.84489,433.97181 235.93091,434.20964 236.94358,434.49586 L 238.63022,428.63584 C 237.26813,428.25211 235.89835,427.93807 234.51155,427.69654 z"
         style="font-size:55.44176483px;font-style:normal;font-variant:normal;font-weight:normal;font-stretch:normal;text-align:start;line-height:125%;writing-mode:lr-tb;text-anchor:start;fill:#000000;fill-opacity:1;stroke:none;stroke-width:1px;stroke-linecap:butt;stroke-linejoin:miter;stroke-opacity:1;font-family:CreativeBlock BB;-inkscape-font-specification:CreativeBlock BB" />
      <path
         id="path3514"
         d="M 120.91651,389.49997 C 113.9852,388.29295 107.5767,389.7044 101.64528,393.64872 C 95.71384,397.59312 92.143235,402.99992 90.942773,409.89326 C 89.921899,415.75537 90.718154,421.65881 93.365759,427.60046 C 96.751741,435.06885 103.26831,439.63804 112.90714,441.3166 C 119.73009,442.50482 128.57338,442.2087 139.47645,440.47234 C 140.44215,432.3637 141.11919,426.30435 141.49382,422.23114 L 145.56883,422.40819 L 145.93753,413.0793 L 111.67801,411.7612 L 111.30932,421.0901 L 132.1859,421.86905 L 131.03365,432.36877 C 124.53907,433.1392 119.20239,433.16505 115.03282,432.43893 C 105.23153,430.73206 100.147,424.73231 99.764938,414.43154 C 99.72793,413.36254 99.797286,412.30418 99.976888,411.27286 C 100.72363,406.98488 103.09262,403.66588 107.08761,401.22977 C 110.90121,398.87401 115.00367,398.05708 119.3899,398.82089 C 121.33929,399.16041 123.12345,399.81679 124.79702,400.7793 L 129.61509,392.80628 C 126.88941,391.15724 124.00306,390.03752 120.91651,389.49997 z"
         style="font-size:55.44176483px;font-style:normal;font-variant:normal;font-weight:normal;font-stretch:normal;text-align:start;line-height:125%;writing-mode:lr-tb;text-anchor:start;fill:#ff0000;fill-opacity:1;stroke:#000000;stroke-width:3;stroke-linecap:butt;stroke-linejoin:miter;stroke-miterlimit:4;stroke-dasharray:none;stroke-opacity:1;font-family:CreativeBlock BB;-inkscape-font-specification:CreativeBlock BB" />
    </g>
  </g>
</svg>
