<?xml version="1.0" encoding="UTF-8" standalone="no"?>
<!-- Created with Inkscape (http://www.inkscape.org/) -->
<svg
   xmlns:dc="http://purl.org/dc/elements/1.1/"
   xmlns:cc="http://creativecommons.org/ns#"
   xmlns:rdf="http://www.w3.org/1999/02/22-rdf-syntax-ns#"
   xmlns:svg="http://www.w3.org/2000/svg"
   xmlns="http://www.w3.org/2000/svg"
   xmlns:xlink="http://www.w3.org/1999/xlink"
   xmlns:sodipodi="http://sodipodi.sourceforge.net/DTD/sodipodi-0.dtd"
   xmlns:inkscape="http://www.inkscape.org/namespaces/inkscape"
   id="svg2440"
   sodipodi:version="0.32"
   inkscape:version="0.46"
   width="942"
   height="1390"
   version="1.0"
   sodipodi:docname="sam_&amp;_max.svg"
   inkscape:output_extension="org.inkscape.output.svg.inkscape">
  <metadata
     id="metadata2445">
    <rdf:RDF>
      <cc:Work
         rdf:about="">
        <dc:format>image/svg+xml</dc:format>
        <dc:type
           rdf:resource="http://purl.org/dc/dcmitype/StillImage" />
      </cc:Work>
    </rdf:RDF>
  </metadata>
  <defs
     id="defs2443">
    <inkscape:perspective
       sodipodi:type="inkscape:persp3d"
       inkscape:vp_x="0 : 526.18109 : 1"
       inkscape:vp_y="0 : 1000 : 0"
       inkscape:vp_z="744.09448 : 526.18109 : 1"
       inkscape:persp3d-origin="372.04724 : 350.78739 : 1"
       id="perspective2447" />
  </defs>
  <sodipodi:namedview
     inkscape:window-height="851"
     inkscape:window-width="1440"
     inkscape:pageshadow="2"
     inkscape:pageopacity="0.0"
     guidetolerance="10.0"
     gridtolerance="10.0"
     objecttolerance="10.0"
     borderopacity="1.0"
     bordercolor="#666666"
     pagecolor="#ffffff"
     id="base"
     showgrid="false"
     inkscape:zoom="1"
     inkscape:cx="180.56668"
     inkscape:cy="103.51542"
     inkscape:window-x="-4"
     inkscape:window-y="-4"
     inkscape:current-layer="svg2440"
     showguides="true"
     inkscape:guide-bbox="true" />
  <path
     sodipodi:nodetypes="ccccc"
     id="path4584"
     d="M -233.93808,1369 L 907,1369 L 422,1219 L -233.93808,1262.3615 L -233.93808,1369 z"
     style="fill:#6e5454;fill-opacity:1;fill-rule:evenodd;stroke:none;stroke-width:0.2;stroke-linecap:butt;stroke-linejoin:miter;stroke-miterlimit:4;stroke-dashoffset:0;stroke-opacity:1" />
  <path
     style="fill:#916f6f;fill-opacity:1;fill-rule:evenodd;stroke:none;stroke-width:0.2;stroke-linecap:butt;stroke-linejoin:miter;stroke-miterlimit:4;stroke-dashoffset:0;stroke-opacity:1"
     d="M 404,782 L 889,782 L 889,1369 L 404,1219 L 404,782 z"
     id="rect4581"
     sodipodi:nodetypes="ccccc" />
  <path
     style="fill:#ffaaaa;fill-opacity:1;fill-rule:evenodd;stroke:none;stroke-width:0.2;stroke-linecap:butt;stroke-linejoin:miter;stroke-miterlimit:4;stroke-dashoffset:0;stroke-opacity:1"
     d="M 684.73773,1069.6931 C 673.70368,1090.6163 663.53691,1119.1164 669.65884,1142.6415 C 660.55745,1172.2291 654.06832,1207.2005 677.88688,1226.0117 C 694.51423,1239.1434 700.10251,1219.7759 700.19868,1205.8772 C 700.27537,1194.7931 698.62059,1184.972 698.19495,1176.8446 C 697.3847,1161.3732 707.44219,1132.2433 697.26218,1131.4752 C 691.99052,1116.9497 691.65246,1101.8374 702.093,1081.7203 C 711.16909,1087.6252 727.67711,1089.7291 738.60695,1087.8278 C 744.72031,1101.589 743.06146,1130.9289 747.05315,1153.8461 C 732.62262,1185.7262 728.37192,1224.1635 751.00511,1229.6348 C 774.32319,1235.2717 780.42913,1196.2094 781.73311,1180.714 C 783.7852,1156.3287 783.36486,1138.7439 774.8454,1133.8836 C 772.60105,1101.1559 754.51496,1087.6695 757.73284,1058.2536 L 676.02189,1048.993 C 678.13938,1055.3679 678.5862,1060.6289 684.73773,1069.6931 z"
     id="rect3659"
     sodipodi:nodetypes="ccsssccccsscccc" />
  <path
     style="fill:#ffaaaa;fill-opacity:1;fill-rule:evenodd;stroke:none;stroke-width:0.2;stroke-linecap:butt;stroke-linejoin:miter;stroke-miterlimit:4;stroke-dashoffset:0;stroke-opacity:1"
     d="M 689.38737,912.55505 L 707.27777,901.76975 C 688.78581,883.65706 685.26362,861.99027 684.16642,839.81651 C 681.74162,790.81284 645.67558,807.26642 649.3277,840.58688 C 655.15938,893.7927 676.70953,903.10418 689.38737,912.55505 z"
     id="rect3623"
     sodipodi:nodetypes="ccssc" />
  <path
     sodipodi:nodetypes="ccssc"
     id="path3626"
     d="M 759.10659,904.46608 L 773.91548,924.8811 C 781.23407,898.58058 800.39554,879.17105 831.69384,857.53521 C 881.40971,823.1677 839.18357,805.76722 803.01814,834.03867 C 776.96409,854.40579 765.51635,881.13414 759.10659,904.46608 z"
     style="fill:#ffaaaa;fill-opacity:1;fill-rule:evenodd;stroke:none;stroke-width:0.2;stroke-linecap:butt;stroke-linejoin:miter;stroke-miterlimit:4;stroke-dashoffset:0;stroke-opacity:1" />
  <path
     style="fill:#ff5555;fill-opacity:1;fill-rule:evenodd;stroke:none;stroke-width:0.2;stroke-linecap:butt;stroke-linejoin:miter;stroke-miterlimit:4;stroke-dashoffset:0;stroke-opacity:1"
     d="M 662.5252,838.79441 C 662.57376,845.80211 663.33476,851.9319 665.60672,861.13538 C 669.6901,877.67672 682.06507,891.02932 690.64401,896.57277 C 671.67827,867.22524 671.57072,855.43552 670.22898,840.72035 C 668.55479,822.35898 662.47198,831.11342 662.5252,838.79441 z"
     id="rect3628"
     sodipodi:nodetypes="cscss" />
  <path
     sodipodi:nodetypes="cscss"
     id="path3631"
     d="M 821.62024,839.13518 C 815.22254,841.99517 810.13507,845.64934 803.55542,852.47387 C 794.28557,862.08872 782.79298,879.55608 781.16345,889.63937 C 792.71433,867.79917 811.55638,855.64526 822.95178,846.96362 C 837.61794,835.79015 828.63263,836.0004 821.62024,839.13518 z"
     style="fill:#ff5555;fill-opacity:1;fill-rule:evenodd;stroke:none;stroke-width:0.2;stroke-linecap:butt;stroke-linejoin:miter;stroke-miterlimit:4;stroke-dashoffset:0;stroke-opacity:1"
     inkscape:transform-center-x="-25.736773"
     inkscape:transform-center-y="-25.170568" />
  <path
     transform="matrix(0.9935208,0.1136502,-0.1136502,0.9935208,0,0)"
     style="fill:#e9afaf;fill-opacity:1;fill-rule:evenodd;stroke:none;stroke-width:0.2;stroke-linecap:butt;stroke-linejoin:miter;stroke-miterlimit:4;stroke-dashoffset:0;stroke-opacity:1"
     d="M 839.22229,880.87988 L 864.68144,875.88717 C 890.21494,906.05229 896.79675,965.348 883.3462,982.20145 L 839.22229,982.20145 L 839.22229,880.87988 z"
     id="rect4462"
     sodipodi:nodetypes="ccccc" />
  <path
     style="fill:#ac7753;fill-opacity:1;fill-rule:evenodd;stroke:none;stroke-width:0.2;stroke-linecap:butt;stroke-linejoin:miter;stroke-miterlimit:4;stroke-dashoffset:0;stroke-opacity:1"
     d="M 655.32179,979.81107 C 666.04064,976.00071 658.16436,962.89279 689.64039,969.46102 C 709.33281,973.73716 725.03244,982.00609 755.55389,975.4532 C 753.33158,974.4661 788.52907,943.72743 800.84183,969.59874 C 804.72726,977.76273 799.58916,989.52138 785.72959,992.26978 C 776.45396,994.10917 764.01871,993.99197 764.75251,1004.5853 C 765.28926,1012.3339 784.87123,1004.0297 793.63673,1016.1868 C 797.53976,1021.6 797.38443,1042.7495 784.44665,1045.1187 C 775.08251,1046.8335 769.69408,1042.2352 763.08969,1041.7224 C 756.68627,1041.2253 753.21981,1050.0139 759.44477,1053.3346 C 765.84364,1056.748 781.18562,1062.0973 782.60008,1072.3231 C 783.81447,1081.1025 771.52286,1093.7837 755.16706,1091.6304 C 740.18427,1088.6368 735.84456,1080.5474 733.57978,1073.3145 C 716.7022,1074.3884 690.32047,1068.2242 676.25645,1059.5423 L 643.88226,1035.9193 L 655.32179,979.81107 z"
     id="rect3689"
     sodipodi:nodetypes="cccssssssssccccc" />
  <path
     sodipodi:type="arc"
     style="opacity:1;fill:#e9afaf;fill-opacity:1;fill-rule:evenodd;stroke:none;stroke-width:0.20000000000000001;stroke-linecap:butt;stroke-linejoin:miter;stroke-miterlimit:4;stroke-dasharray:none;stroke-dashoffset:0;stroke-opacity:1"
     id="path3633"
     sodipodi:cx="684.86621"
     sodipodi:cy="950.88446"
     sodipodi:rx="52.385715"
     sodipodi:ry="42.755989"
     d="M 737.25193,950.88446 A 52.385715,42.755989 0 1 1 632.4805,950.88446 A 52.385715,42.755989 0 1 1 737.25193,950.88446 z"
     transform="matrix(1.1139706,0,0,0.963964,-34.335644,21.940056)" />
  <path
     style="fill:#ff5555;fill-opacity:1;fill-rule:evenodd;stroke:none;stroke-width:0.2;stroke-linecap:butt;stroke-linejoin:miter;stroke-miterlimit:4;stroke-dashoffset:0;stroke-opacity:1"
     d="M 720.68878,942.27011 C 722.24725,942.27011 726.66289,943.9249 725.88366,945.27457 C 725.10443,946.62424 716.27313,946.62424 715.4939,945.27457 C 714.71467,943.9249 719.13032,942.27011 720.68878,942.27011 z"
     id="path3635"
     sodipodi:nodetypes="cssc" />
  <path
     sodipodi:type="arc"
     style="opacity:1;fill:#000000;fill-opacity:1;fill-rule:evenodd;stroke:none;stroke-width:0.2;stroke-linecap:butt;stroke-linejoin:miter;stroke-miterlimit:4;stroke-dasharray:none;stroke-dashoffset:0;stroke-opacity:1"
     id="path3638"
     sodipodi:cx="652.46191"
     sodipodi:cy="946.99048"
     sodipodi:rx="3.1322529"
     sodipodi:ry="9.396759"
     d="M 655.59417,946.99048 A 3.1322529,9.396759 0 1 1 649.32966,946.99048 A 3.1322529,9.396759 0 1 1 655.59417,946.99048 z"
     transform="translate(30.777789,-10.350053)" />
  <path
     transform="translate(114.32121,-10.322678)"
     d="M 655.59417,946.99048 A 3.1322529,9.396759 0 1 1 649.32966,946.99048 A 3.1322529,9.396759 0 1 1 655.59417,946.99048 z"
     sodipodi:ry="9.396759"
     sodipodi:rx="3.1322529"
     sodipodi:cy="946.99048"
     sodipodi:cx="652.46191"
     id="path3640"
     style="opacity:1;fill:#000000;fill-opacity:1;fill-rule:evenodd;stroke:none;stroke-width:0.2;stroke-linecap:butt;stroke-linejoin:miter;stroke-miterlimit:4;stroke-dasharray:none;stroke-dashoffset:0;stroke-opacity:1"
     sodipodi:type="arc" />
  <path
     style="opacity:1;fill:#ffe6d5;fill-opacity:1;fill-rule:evenodd;stroke:none;stroke-width:0.20000000000000001;stroke-linecap:butt;stroke-linejoin:miter;stroke-miterlimit:4;stroke-dasharray:none;stroke-dashoffset:0;stroke-opacity:1"
     d="M 727.1875 949.09375 C 708.37135 949.09375 691.19216 951.45409 678.03125 955.3125 C 684.65951 967.33332 704.65246 976.06248 728.28125 976.0625 C 751.52925 976.0625 771.24435 967.59675 778.1875 955.875 C 764.81048 951.68578 746.89245 949.09374 727.1875 949.09375 z "
     id="path3642" />
  <path
     style="opacity:1;fill:#e3dbdb;fill-opacity:1;fill-rule:evenodd;stroke:none;stroke-width:0.20000000000000001;stroke-linecap:butt;stroke-linejoin:miter;stroke-miterlimit:4;stroke-dasharray:none;stroke-dashoffset:0;stroke-opacity:1"
     d="M 687.5625 957.75 L 681.875 960.4375 C 690.72029 969.7312 708.1712 976.06248 728.28125 976.0625 C 746.66768 976.0625 762.85368 970.76334 772.25 962.75 L 761.71875 957.75 L 749.34375 963.59375 L 737 957.75 L 724.625 963.59375 L 712.28125 957.75 L 699.9375 963.59375 L 687.5625 957.75 z "
     id="path3656" />
  <path
     style="fill:#d35f5f;fill-opacity:1;fill-rule:evenodd;stroke:none;stroke-width:0.2;stroke-linecap:butt;stroke-linejoin:miter;stroke-miterlimit:4;stroke-dashoffset:0;stroke-opacity:1"
     d="M 683.75 1197.9688 C 684.67812 1209.9066 687.83157 1220.5596 693.78125 1227.8125 C 694.62746 1226.9788 695.36814 1225.9849 696.03125 1224.8438 C 690.13157 1216.6664 686.62949 1207.7785 683.75 1197.9688 z M 762.53125 1198.75 C 761.0188 1209.9573 758.56168 1220.1479 752.875 1230 C 754.29927 1230.2074 755.64657 1230.2154 756.9375 1230.0938 C 761.8693 1222.0012 763.42573 1210.8513 762.53125 1198.75 z M 748.09375 1199.125 C 744.59172 1208.7285 742.94275 1218.1486 744.03125 1226.3438 C 745.25789 1227.2961 746.61481 1228.0967 748.125 1228.7188 C 746.13927 1218.8182 746.64706 1209.2625 748.09375 1199.125 z M 673.6875 1202.8125 C 673.55788 1212.0501 674.48765 1219.1255 677.3125 1225.5312 C 677.50357 1225.6875 677.67988 1225.8459 677.875 1226 C 679.41126 1227.2133 680.86658 1228.1554 682.21875 1228.8438 C 677.96739 1220.7134 675.15528 1212.0645 673.6875 1202.8125 z "
     id="rect3662" />
  <path
     style="fill:#a4907b;fill-opacity:1;fill-rule:evenodd;stroke:none;stroke-width:0.2;stroke-linecap:butt;stroke-linejoin:miter;stroke-miterlimit:4;stroke-dashoffset:0;stroke-opacity:1"
     d="M 571.6206,1019.4481 C 594.80903,998.98176 615.14741,975.66538 654.05107,970.91427 C 680.21344,981.92241 699.891,1057.4934 661.75485,1084.1598 C 647.87258,1093.2801 625.90053,1098.3538 604.12209,1095.8226 C 592.72,1118.2992 560.4107,1139.8105 530.68172,1154.5338 L 476.86409,1055.6558 C 488.75384,1044.5419 511.59447,1039.5911 544.42812,1031.5587 C 550.32463,1024.8821 553.95461,1016.3168 571.6206,1019.4481 z"
     id="rect4465"
     sodipodi:nodetypes="cccccccc" />
  <path
     style="fill:#917d67;fill-opacity:1;fill-rule:evenodd;stroke:none;stroke-width:0.20000000000000001;stroke-linecap:butt;stroke-linejoin:miter;stroke-miterlimit:4;stroke-dashoffset:0;stroke-opacity:1"
     d="M 408.55472,1081.6774 C 416.64421,1069.2302 438.66778,1049.5634 470.65503,1047.3588 C 555.99117,1088.8382 542.91691,1152.354 529.75401,1182.6742 C 523.05894,1198.096 530.98415,1204.9533 534.90545,1213.5588 C 512.96844,1224.7673 503.93377,1214.377 490.50922,1213.668 L 407.46524,1125.8013 L 408.55472,1081.6774 z"
     id="rect4468"
     sodipodi:nodetypes="ccscccc" />
  <path
     style="fill:#94806b;fill-opacity:1;fill-rule:evenodd;stroke:none;stroke-width:0.20000000000000001;stroke-linecap:butt;stroke-linejoin:miter;stroke-miterlimit:4;stroke-dashoffset:0;stroke-opacity:1"
     d="M 412.3679,1080.0432 C 441.6888,1067.2461 458.03217,1067.4265 464.11816,1077.8643 C 451.94707,1130.7481 460.8082,1188.89 411.82316,1232.5703 C 348.39873,1186.6537 358.95159,1134.3044 332.5158,1085.1714 C 344.14087,1083.0304 349.12607,1076.4627 372.60191,1082.2222 C 382.95619,1078.1804 392.20796,1072.8786 412.3679,1080.0432 z"
     id="rect4474"
     sodipodi:nodetypes="cccccc" />
  <path
     style="fill:#ffffff;fill-opacity:1;fill-rule:evenodd;stroke:none;stroke-width:0.2;stroke-linecap:butt;stroke-linejoin:miter;stroke-miterlimit:4;stroke-dashoffset:0;stroke-opacity:1"
     d="M 372.5,1194.5 L 394.5,1252 L 334,1233 L 298.5,1194.5 C 290.53885,1161.4248 351.03155,1137.9981 372.5,1194.5 z"
     id="rect4523"
     sodipodi:nodetypes="ccccc" />
  <path
     style="fill:#8e7c69;fill-opacity:1;fill-rule:evenodd;stroke:none;stroke-width:0.20000000000000001;stroke-linecap:butt;stroke-linejoin:miter;stroke-miterlimit:4;stroke-dashoffset:0;stroke-opacity:1"
     d="M 380.77301,1173.7384 L 398.74941,1172.1041 C 391.38649,1203.1134 396.62338,1227.8227 397.11519,1254.9046 C 365.2722,1213.8636 352.16786,1172.8227 368.20949,1131.7818 L 394.93624,1159.5751 L 380.77301,1173.7384 z"
     id="rect4477"
     sodipodi:nodetypes="cccccc" />
  <path
     sodipodi:nodetypes="cccc"
     id="path4556"
     d="M 392.89287,1208.1908 C 377.52123,1221.858 389.71638,1242.9613 388.19577,1260.3928 C 398.43251,1272.0754 396.8216,1290.4971 417.54497,1281.3767 C 440.70834,1255.0499 426.36773,1193.1089 392.89287,1208.1908 z"
     style="fill:#837361;fill-opacity:1;fill-rule:evenodd;stroke:none;stroke-width:0.20000000000000001;stroke-linecap:butt;stroke-linejoin:miter;stroke-miterlimit:4;stroke-dashoffset:0;stroke-opacity:1" />
  <path
     sodipodi:nodetypes="cccc"
     id="path4564"
     d="M 643.60574,1355 L 506,1355 C 533.03077,1331.2456 595.24624,1323.5841 648.78798,1328.462 L 643.60574,1355 z"
     style="fill:#816852;fill-opacity:1;fill-rule:evenodd;stroke:none;stroke-width:0.20000000000000001;stroke-linecap:butt;stroke-linejoin:miter;stroke-miterlimit:4;stroke-dashoffset:0;stroke-opacity:1" />
  <path
     style="fill:#967960;fill-opacity:1;fill-rule:evenodd;stroke:none;stroke-width:0.2;stroke-linecap:butt;stroke-linejoin:miter;stroke-miterlimit:4;stroke-dashoffset:0;stroke-opacity:1"
     d="M 56,1355 L 506,1355 C 551.41555,1343.9735 598.07467,1334.1907 648.78798,1328.462 C 598.83082,1295.2659 532.49635,1270.2586 473.05102,1241.8067 C 342.70068,1250.8711 191.12629,1249.3235 82,1269 C 64.205085,1299.1707 57.871549,1327.4861 56,1355 z"
     id="rect4561"
     sodipodi:nodetypes="cccccc" />
  <path
     style="fill:#837361;fill-opacity:1;fill-rule:evenodd;stroke:none;stroke-width:0.2;stroke-linecap:butt;stroke-linejoin:miter;stroke-miterlimit:4;stroke-dashoffset:0;stroke-opacity:1"
     d="M 200.5,1217.5 L 282,1188.5 L 307,1212.5 C 280.38487,1233.7775 237.91019,1266.5127 207,1274 L 200.5,1217.5 z"
     id="rect4529"
     sodipodi:nodetypes="ccccc" />
  <path
     style="fill:#94806b;fill-opacity:1;fill-rule:evenodd;stroke:none;stroke-width:0.2;stroke-linecap:butt;stroke-linejoin:miter;stroke-miterlimit:4;stroke-dashoffset:0;stroke-opacity:1"
     d="M 265,1183.5 L 282,1178 C 295.96962,1196.5 315.25758,1215 334.5,1233.5 C 294.11305,1237.5242 278.83454,1206.0074 265,1183.5 z"
     id="rect4532"
     sodipodi:nodetypes="cccc" />
  <path
     sodipodi:nodetypes="csccc"
     id="path4480"
     d="M 303.68083,1169.6695 C 302.72256,1184.127 308.17785,1199.8033 330.01938,1223.3771 C 333.43512,1227.0638 334.24943,1231.5853 337.61096,1235.8482 C 309.11681,1222.4573 281.42365,1208.5441 276.06402,1180.0655 L 303.68083,1169.6695 z"
     style="fill:#8e7c69;fill-opacity:1;fill-rule:evenodd;stroke:none;stroke-width:0.20000000000000001;stroke-linecap:butt;stroke-linejoin:miter;stroke-miterlimit:4;stroke-dashoffset:0;stroke-opacity:1" />
  <path
     sodipodi:nodetypes="ccsss"
     id="path4491"
     d="M 375.9325,1146.9457 C 348.15093,1119.7563 353.17133,1094.4835 341.90051,1068.2451 C 359.53319,1097.3692 373.50942,1092.5985 403.35299,1112.4267 C 415.65209,1120.5983 424.09374,1141.8468 412.88719,1149.6706 C 401.89301,1157.3462 384.90809,1155.73 375.9325,1146.9457 z"
     style="fill:#9c6c4b;fill-opacity:1;fill-rule:evenodd;stroke:none;stroke-width:0.2;stroke-linecap:butt;stroke-linejoin:miter;stroke-miterlimit:4;stroke-dashoffset:0;stroke-opacity:1" />
  <path
     style="fill:#9c6c4b;fill-opacity:1;fill-rule:evenodd;stroke:none;stroke-width:0.2;stroke-linecap:butt;stroke-linejoin:miter;stroke-miterlimit:4;stroke-dashoffset:0;stroke-opacity:1"
     d="M 295.80714,1156.2492 C 310.26003,1120.1633 294.47356,1104.0523 292.20666,1073.5012 C 287.3218,1121.2329 276.10108,1105.5426 256.79195,1135.7246 C 248.8343,1148.1632 249.68144,1171.0114 263.09179,1173.6498 C 276.24805,1176.2382 291.13775,1167.9077 295.80714,1156.2492 z"
     id="path4493"
     sodipodi:nodetypes="ccsss" />
  <path
     style="fill:#000080;fill-opacity:1;fill-rule:evenodd;stroke:none;stroke-width:0.2;stroke-linecap:butt;stroke-linejoin:miter;stroke-miterlimit:4;stroke-dashoffset:0;stroke-opacity:1"
     d="M 336.09041,1195.4771 L 342.68839,1191.9771 C 340.28428,1207.5591 340.78988,1221.8941 347.68839,1233.4892 L 376.41714,1288.4792 C 370.51021,1305.6833 361.9424,1314.9852 352.16845,1323.7718 C 335.19439,1309.0569 309.86185,1298.559 293.20592,1295.7079 C 291.58949,1291.022 293.75888,1288.122 295.61525,1285.909 C 280.74564,1277.5176 257.83983,1271.8049 251.02172,1260.7297 C 265.7845,1246.7628 293.28402,1240.0741 316.59041,1230.9892 C 321.18332,1218.1983 326.24992,1205.6442 336.09041,1195.4771 z"
     id="rect4558"
     sodipodi:nodetypes="cccccccccc" />
  <path
     sodipodi:nodetypes="cccsscscs"
     id="path4495"
     d="M 360.66537,1116.3364 C 353.10022,1112.3647 350.65989,1086.7817 346.58779,1072.0044 L 291.2167,1079.3478 C 295.24721,1099.1851 297.6624,1125.6147 284.5449,1135.7326 C 261.26459,1153.6893 269.07091,1170.2589 272.23695,1173.7756 C 287.78149,1191.0417 307.14741,1182.3847 324.18108,1180.7875 C 324.57861,1196.5673 332.44377,1204.8678 344.5154,1202.6045 C 372.03153,1197.4457 368.98685,1167.9071 367.07136,1156.0813 C 389.52716,1133.4866 385.65774,1129.4575 360.66537,1116.3364 z"
     style="fill:#ac7753;fill-opacity:1;fill-rule:evenodd;stroke:none;stroke-width:0.2;stroke-linecap:butt;stroke-linejoin:miter;stroke-miterlimit:4;stroke-dashoffset:0;stroke-opacity:1" />
  <path
     sodipodi:type="arc"
     style="opacity:1;fill:#000000;fill-opacity:1;fill-rule:evenodd;stroke:none;stroke-width:0.2;stroke-linecap:butt;stroke-linejoin:miter;stroke-miterlimit:4;stroke-dasharray:none;stroke-dashoffset:0;stroke-opacity:1"
     id="path4482"
     sodipodi:cx="246.76706"
     sodipodi:cy="1150.0422"
     sodipodi:rx="20.155367"
     sodipodi:ry="11.167163"
     d="M 266.92243,1150.0422 A 20.155367,11.167163 0 1 1 226.61169,1150.0422 A 20.155367,11.167163 0 1 1 266.92243,1150.0422 z"
     transform="matrix(1.1801086,-0.1466788,0.1233435,0.992364,-124.19481,55.87197)" />
  <path
     style="fill:#000000;fill-opacity:1;fill-rule:evenodd;stroke:none;stroke-width:0.2;stroke-linecap:butt;stroke-linejoin:miter;stroke-miterlimit:4;stroke-dashoffset:0;stroke-opacity:1"
     d="M 306.27217,1112.9819 C 306.46059,1120.7978 304.78372,1127.1851 302.52915,1127.2395 C 300.27458,1127.2938 298.29187,1120.9947 298.10345,1113.1789 C 297.91503,1105.363 299.59189,1098.9756 301.84647,1098.9212 L 302.18781,1113.0804 L 306.27217,1112.9819 z"
     id="path4484"
     sodipodi:nodetypes="cssccc" />
  <path
     sodipodi:nodetypes="cssccc"
     id="path4489"
     d="M 339.04806,1107.2624 C 340.05522,1115.0153 339.05756,1121.5434 336.82113,1121.8339 C 334.58469,1122.1244 331.95222,1116.068 330.94506,1108.315 C 329.9379,1100.5621 330.93555,1094.0339 333.17199,1093.7434 L 334.99657,1107.7887 L 339.04806,1107.2624 z"
     style="fill:#000000;fill-opacity:1;fill-rule:evenodd;stroke:none;stroke-width:0.2;stroke-linecap:butt;stroke-linejoin:miter;stroke-miterlimit:4;stroke-dashoffset:0;stroke-opacity:1" />
  <path
     style="fill:#a4907b;fill-opacity:1;fill-rule:evenodd;stroke:none;stroke-width:0.2;stroke-linecap:butt;stroke-linejoin:miter;stroke-miterlimit:4;stroke-dashoffset:0;stroke-opacity:1"
     d="M 209.5,1274 C 182.32247,1282.0874 156.86521,1269.3101 155.19442,1247.9624 C 148.24907,1197.8564 165.42777,1176.4867 184.5,1155 L 191.03047,1156.9708 C 200.57879,1184.828 207.74538,1206.4354 248.5,1205.5 C 245.22161,1220.5586 242.95379,1230.5644 241,1239 C 236.41154,1263.2697 207.0258,1252.4777 209.5,1274 z"
     id="rect4526"
     sodipodi:nodetypes="cccsccc" />
  <path
     style="fill:#000000;fill-opacity:1;fill-rule:evenodd;stroke:none;stroke-width:0.2;stroke-linecap:butt;stroke-linejoin:miter;stroke-miterlimit:4;stroke-dashoffset:0;stroke-opacity:1"
     d="M 261.27596,1125.1885 C 256.8964,1128.2232 252.52914,1127.6424 247.48737,1127.3099 C 247.61932,1139.949 249.26963,1152.7226 257.03332,1170.4433 C 262.44426,1187.2859 247.88182,1188.1498 235.0756,1190.4187 L 218.96148,1109.9852 C 228.80485,1083.2381 243.29279,1084.3584 256.67976,1078.873 C 279.44495,1084.808 265.92638,1121.9662 261.27596,1125.1885 z"
     id="rect4540"
     sodipodi:nodetypes="ccccccs" />
  <path
     sodipodi:type="arc"
     style="opacity:1;fill:#906344;fill-opacity:1;fill-rule:evenodd;stroke:none;stroke-width:0.20000000000000001;stroke-linecap:butt;stroke-linejoin:miter;stroke-miterlimit:4;stroke-dasharray:none;stroke-dashoffset:0;stroke-opacity:1"
     id="path4538"
     sodipodi:cx="182.78711"
     sodipodi:cy="1111.3999"
     sodipodi:rx="14.849242"
     sodipodi:ry="19.79899"
     d="M 197.63635,1111.3999 A 14.849242,19.79899 0 1 1 167.93787,1111.3999 A 14.849242,19.79899 0 1 1 197.63635,1111.3999 z"
     transform="matrix(0.9394222,0.3427622,-0.3427622,0.9394222,459.19381,40.382531)" />
  <path
     style="fill:#ac7753;fill-opacity:1;fill-rule:evenodd;stroke:none;stroke-width:0.2;stroke-linecap:butt;stroke-linejoin:miter;stroke-miterlimit:4;stroke-dashoffset:0;stroke-opacity:1"
     d="M 214.5,1094.5 C 217.48394,1093.698 241.61075,1093.2955 242,1113 C 242.17553,1121.8859 237.87846,1124.8361 233,1128.5 C 246.05469,1136.1944 239.0306,1154.5822 228.79239,1156.2235 C 236.12384,1157.5364 244.94678,1157.0835 246.28128,1172.5522 C 246.74974,1177.9824 242.93093,1183.4724 235.88058,1188.9325 L 248.91396,1206.9242 C 239.72746,1206.7357 228.7447,1205.3622 218.27971,1200.0597 C 204.58662,1204.6817 189.34888,1191.708 196.88097,1172.1172 C 181.37119,1161.0741 181.41887,1148.2008 188.5,1134.5 C 185.17375,1125.6013 181.35475,1103.4088 214.5,1094.5 z"
     id="rect4535"
     sodipodi:nodetypes="csccscccccs" />
  <g
     id="g4543">
    <path
       sodipodi:nodetypes="csssc"
       id="path4505"
       d="M 351,1054 C 351,1061.176 318.07736,1072.2893 276.53936,1072.2893 C 235.00136,1072.2893 200.5,1061.176 200.5,1054 C 200.5,1046.824 235.15514,1045.4607 276.69314,1045.4607 C 318.23114,1045.4607 351,1046.824 351,1054 z"
       inkscape:transform-center-y="-16.293177"
       inkscape:transform-center-x="-84.980933"
       style="fill:#94806b;fill-opacity:1;fill-rule:evenodd;stroke:none;stroke-width:0.2;stroke-linecap:butt;stroke-linejoin:miter;stroke-miterlimit:4;stroke-dashoffset:0;stroke-opacity:1"
       transform="matrix(1.1293142,-0.2165207,0.2095862,1.1666795,-214.82556,-102.20558)" />
    <path
       sodipodi:nodetypes="ccccccccc"
       id="rect4511"
       d="M 337.5,1007.5 C 341.61351,1008.4759 346.02598,1015.2125 346,1019.5 C 335.03897,1030.8333 338.06145,1042.1667 340,1053.5 C 327.46371,1064.5088 309.47457,1069.9146 287.81819,1066.5072 C 285.13267,1056.6502 279.89,1041.578 270.62492,1037.4632 C 269.00393,1034.2001 268.93172,1029.9369 269.82557,1026.1738 C 280.39289,1025.6045 287.35947,1008.944 279.47153,992.75877 C 285.10002,986.23201 291.63178,982.65689 304.5,981 C 307.82074,994.34278 309.9008,1011.1161 337.5,1007.5 z"
       style="fill:#94806b;fill-opacity:1;fill-rule:evenodd;stroke:none;stroke-width:0.2;stroke-linecap:butt;stroke-linejoin:miter;stroke-miterlimit:4;stroke-dashoffset:0;stroke-opacity:1" />
    <path
       sodipodi:nodetypes="ccccc"
       id="rect4508"
       d="M 285.5,1060.5 C 314.94712,1066.7336 340.00079,1050.4389 340,1048 C 341.09037,1055.5254 343.94761,1061.6286 348,1066 C 342.39718,1078.1329 311.33841,1089.8272 288,1079.5 C 288.88228,1070.4476 287.2274,1064.4409 285.5,1060.5 z"
       style="fill:#000000;fill-opacity:1;fill-rule:evenodd;stroke:none;stroke-width:0.2;stroke-linecap:butt;stroke-linejoin:miter;stroke-miterlimit:4;stroke-dashoffset:0;stroke-opacity:1" />
    <path
       sodipodi:nodetypes="ccc"
       id="path4514"
       d="M 310.40013,1002.424 C 286.3352,1007.1121 306.83998,1049.622 324.58579,1020.5583 C 312.16277,1037.9749 295.0148,1012.035 310.40013,1002.424 z"
       style="opacity:1;fill:#4b3825;fill-opacity:1;fill-rule:evenodd;stroke:none;stroke-width:0.2;stroke-linecap:butt;stroke-linejoin:miter;stroke-miterlimit:4;stroke-dasharray:none;stroke-dashoffset:0;stroke-opacity:1" />
    <path
       sodipodi:nodetypes="ccc"
       id="rect4520"
       d="M 284,1008.25 C 294.09776,1019.9055 282.27153,1037.941 276.75,1029.5 C 279.98289,1033.7136 288.85285,1027.4974 284,1008.25 z"
       style="fill:#4b3825;fill-opacity:1;fill-rule:evenodd;stroke:none;stroke-width:0.2;stroke-linecap:butt;stroke-linejoin:miter;stroke-miterlimit:4;stroke-dashoffset:0;stroke-opacity:1" />
  </g>
  <path
     style="fill:#000000;fill-opacity:1;fill-rule:evenodd;stroke:none;stroke-width:0.2;stroke-linecap:butt;stroke-linejoin:miter;stroke-miterlimit:4;stroke-dashoffset:0;stroke-opacity:1"
     d="M 254.91199,1169.0291 C 258.12316,1166.2742 261.46981,1163.7355 268.34702,1162.6651 C 274.55222,1161.6993 300.5227,1173.7414 296.27774,1197.3134 C 295.15272,1203.5606 289.85775,1208.8641 282.1356,1212.5162 C 274.9427,1215.918 265.63785,1216.3942 256.18788,1212.9564 C 241.93124,1207.7699 236.98765,1199.4426 234.79258,1189.2115 C 245.57444,1185.0616 253.42069,1179.6432 254.91199,1169.0291 z"
     id="rect4550"
     sodipodi:nodetypes="csssscc" />
  <path
     style="fill:#000000;fill-opacity:1;fill-rule:evenodd;stroke:none;stroke-width:0.20000000000000001;stroke-linecap:butt;stroke-linejoin:miter;stroke-miterlimit:4;stroke-dashoffset:0;stroke-opacity:1"
     d="M 341.40625 1205.9062 C 332.99547 1207.093 327.98895 1210.116 323.71875 1213.5625 C 321.36814 1218.3396 319.40865 1223.3144 317.5625 1228.3438 C 325.44291 1221.6549 334.4193 1216.8172 341.71875 1214.5938 C 341.42257 1211.7695 341.34627 1208.8832 341.40625 1205.9062 z M 310.03125 1233.4375 C 294.85968 1238.9674 278.66056 1243.9326 265.6875 1250.7188 C 305.58591 1245.5449 318.45687 1246.8982 344.71875 1245.0312 L 342.25 1238.6875 C 331.64491 1235.8791 320.87848 1234.3241 310.03125 1233.4375 z M 335.875 1252.4688 C 315.87357 1260.5479 292.23429 1262.7873 275.96875 1276.8438 C 282.78791 1279.7816 289.82004 1282.6303 295.625 1285.9062 C 293.77239 1288.1148 291.62085 1291.0183 293.21875 1295.6875 C 310.88451 1279.233 330.11305 1265.4465 350.375 1259.9062 L 335.875 1252.4688 z M 366.5625 1269.625 C 340.25355 1285.8914 329.81971 1296.2842 322.875 1305.4375 C 333.30764 1310.2389 343.75364 1316.497 352.15625 1323.7812 C 361.9302 1314.9947 370.49932 1305.6728 376.40625 1288.4688 L 366.5625 1269.625 z "
     id="rect4568" />
  <path
     style="fill:#9c6c4b;fill-opacity:1;fill-rule:evenodd;stroke:none;stroke-width:0.2;stroke-linecap:butt;stroke-linejoin:miter;stroke-miterlimit:4;stroke-dashoffset:0;stroke-opacity:1"
     d="M 394.4663,1218.0696 C 409.30218,1215.3688 420.86877,1219.2064 429.99933,1227.9161 L 419.43984,1260.5947 C 418.31013,1290.8226 379.36329,1302.089 376.73624,1281.5467 C 355.99144,1295.3334 349.82932,1282.9236 348.23054,1274.5799 C 313.13091,1282.0345 326.20869,1245.9237 340.09648,1229.2004 C 353.94153,1212.1958 379.98988,1192.6051 394.4663,1218.0696 z"
     id="rect4553"
     sodipodi:nodetypes="ccccccc" />
  <path
     style="fill:#a4907b;fill-opacity:1;fill-rule:evenodd;stroke:none;stroke-width:0.20000000000000001;stroke-linecap:butt;stroke-linejoin:miter;stroke-miterlimit:4;stroke-dashoffset:0;stroke-opacity:1"
     d="M 392.89287,1208.1908 C 401.69703,1199.9592 413.19709,1189.3639 431.19137,1184.8182 C 420.75695,1186.8442 422.87639,1178.4086 424.41326,1170.4585 C 418.31637,1167.274 419.74695,1162.2076 421.71994,1157.0056 C 427.67644,1112.8823 437.62612,1107.8342 460.36713,1074.471 C 481.17208,1068.9503 471.72893,1102.9488 471.47749,1115.62 C 495.89451,1140.311 526.50448,1168.0988 517.69577,1234.3928 C 515.52593,1250.1604 449.38781,1261.8635 417.54497,1281.3767 C 425.50554,1259.2925 421.06443,1202.6548 392.89287,1208.1908 z"
     id="rect4471"
     sodipodi:nodetypes="ccccccccc" />
  <image
     xlink:href="sam_&amp;_max_-_surfin_the_highway_tpb-049.jpg"
     sodipodi:absref="C:\Documents and Settings\Justin\My Documents\My Pictures\_doodles\caricatures\sam_&amp;_max_-_surfin_the_highway_tpb-049.jpg"
     width="942"
     height="1390"
     id="image2449"
     x="-0.1232757"
     y="1.8445721"
     transform="matrix(1,1.8637364e-4,-1.8637364e-4,1,0,0)"
     style="fill:#1a1a1a" />
  <path
     sodipodi:type="arc"
     style="opacity:1;fill:#1a1a1a;fill-opacity:1;fill-rule:evenodd;stroke:none;stroke-width:0.2;stroke-linecap:butt;stroke-linejoin:miter;stroke-miterlimit:4;stroke-dasharray:none;stroke-dashoffset:0;stroke-opacity:1"
     id="path4592"
     sodipodi:cx="112.375"
     sodipodi:cy="1324.125"
     sodipodi:rx="14.875"
     sodipodi:ry="7.375"
     d="M 127.25,1324.125 A 14.875,7.375 0 1 1 97.5,1324.125 A 14.875,7.375 0 1 1 127.25,1324.125 z"
     transform="matrix(0.8571429,0,0,1,55.928571,2.25)" />
  <path
     sodipodi:type="arc"
     style="opacity:1;fill:#1a1a1a;fill-opacity:1;fill-rule:evenodd;stroke:none;stroke-width:0.2;stroke-linecap:butt;stroke-linejoin:miter;stroke-miterlimit:4;stroke-dasharray:none;stroke-dashoffset:0;stroke-opacity:1"
     id="path4596"
     sodipodi:cx="112.375"
     sodipodi:cy="1324.125"
     sodipodi:rx="14.875"
     sodipodi:ry="7.375"
     d="M 127.25,1324.125 A 14.875,7.375 0 1 1 97.5,1324.125 A 14.875,7.375 0 1 1 127.25,1324.125 z"
     transform="matrix(0.8571429,0,0,1,3.4285699,-22)" />
  <path
     style="fill:#333333;fill-opacity:1;fill-rule:evenodd;stroke:none;stroke-width:0.20000000000000001;stroke-linecap:butt;stroke-linejoin:miter;stroke-miterlimit:4;stroke-dashoffset:0;stroke-opacity:1"
     d="M 151.5,1215.6412 L 150.88065,1211.007 L 158.33913,1209.8781 L 161.44177,1210.5953 L 161.33575,1214.2848 L 169.80235,1218.613 L 169.80756,1214.2543 L 176.71419,1213.473 L 180.05592,1216.6354 L 174.85351,1226.066 L 185.7842,1270.4982 L 148.72955,1328.5328 L 87.416184,1298.8215 L 83.030024,1251.1532 L 96.746457,1229.7329 L 96.477645,1219.3647 L 108.90657,1216.2411 L 111.75,1218.5 L 112.25,1221.8912 L 151.5,1215.6412 z"
     id="rect4589"
     sodipodi:nodetypes="cccccccccccccccccccc" />
  <path
     transform="matrix(0.8571429,0,0,1,135.67857,-20)"
     d="M 127.25,1324.125 A 14.875,7.375 0 1 1 97.5,1324.125 A 14.875,7.375 0 1 1 127.25,1324.125 z"
     sodipodi:ry="7.375"
     sodipodi:rx="14.875"
     sodipodi:cy="1324.125"
     sodipodi:cx="112.375"
     id="path4594"
     style="opacity:1;fill:#1a1a1a;fill-opacity:1;fill-rule:evenodd;stroke:none;stroke-width:0.2;stroke-linecap:butt;stroke-linejoin:miter;stroke-miterlimit:4;stroke-dasharray:none;stroke-dashoffset:0;stroke-opacity:1"
     sodipodi:type="arc" />
  <path
     style="fill:#000000;fill-opacity:1;fill-rule:evenodd;stroke:none;stroke-width:0.20000000000000001;stroke-linecap:butt;stroke-linejoin:miter;stroke-miterlimit:4;stroke-dashoffset:0;stroke-opacity:1"
     d="M 245,1282 C 235.32835,1265.0487 209.3445,1232.6047 180.75,1221.75 L 180,1216.5 L 172,1217 L 172.48802,1224.4725 C 157.98526,1227.7852 144.25257,1230.3679 130.62621,1233.5569 L 130.03123,1225.9409 L 123.00974,1226.6946 L 123.35868,1242.8074 C 119.34556,1249.8337 120.03195,1256.6099 119.24958,1263.6362 C 127.63739,1272.4708 140.41466,1288.2826 147.23822,1302.1094 C 148.33402,1310.0505 149.34976,1318.0983 148.48598,1328.6522 C 181.71738,1322.1061 205.175,1316.1469 244.83701,1304.2076 C 246.28522,1296.1081 246.21729,1288.7667 245,1282 z"
     id="rect4586"
     sodipodi:nodetypes="cccccccccccccc" />
</svg>
