<?xml version="1.0" encoding="UTF-8" standalone="no"?>
<!-- Created with Inkscape (http://www.inkscape.org/) -->
<svg
   xmlns:dc="http://purl.org/dc/elements/1.1/"
   xmlns:cc="http://creativecommons.org/ns#"
   xmlns:rdf="http://www.w3.org/1999/02/22-rdf-syntax-ns#"
   xmlns:svg="http://www.w3.org/2000/svg"
   xmlns="http://www.w3.org/2000/svg"
   xmlns:xlink="http://www.w3.org/1999/xlink"
   xmlns:sodipodi="http://sodipodi.sourceforge.net/DTD/sodipodi-0.dtd"
   xmlns:inkscape="http://www.inkscape.org/namespaces/inkscape"
   id="svg2"
   sodipodi:version="0.32"
   inkscape:version="0.46"
   width="203"
   height="422"
   version="1.0"
   sodipodi:docname="TenthDoctor.svg"
   inkscape:output_extension="org.inkscape.output.svg.inkscape">
  <metadata
     id="metadata7">
    <rdf:RDF>
      <cc:Work
         rdf:about="">
        <dc:format>image/svg+xml</dc:format>
        <dc:type
           rdf:resource="http://purl.org/dc/dcmitype/StillImage" />
      </cc:Work>
    </rdf:RDF>
  </metadata>
  <defs
     id="defs5">
    <inkscape:perspective
       sodipodi:type="inkscape:persp3d"
       inkscape:vp_x="0 : 526.18109 : 1"
       inkscape:vp_y="0 : 1000 : 0"
       inkscape:vp_z="744.09448 : 526.18109 : 1"
       inkscape:persp3d-origin="372.04724 : 350.78739 : 1"
       id="perspective9" />
  </defs>
  <sodipodi:namedview
     inkscape:window-height="763"
     inkscape:window-width="906"
     inkscape:pageshadow="2"
     inkscape:pageopacity="0.0"
     guidetolerance="10.0"
     gridtolerance="10.0"
     objecttolerance="10.0"
     borderopacity="1.0"
     bordercolor="#666666"
     pagecolor="#ffffff"
     id="base"
     showgrid="false"
     inkscape:zoom="3.0965245"
     inkscape:cx="135.90705"
     inkscape:cy="345.43147"
     inkscape:window-x="214"
     inkscape:window-y="34"
     inkscape:current-layer="svg2" />
  <image
     xlink:href="TenthDoctor.jpg"
     sodipodi:absref="C:\Documents and Settings\Justin\My Documents\My Pictures\_doodles\caricatures\TenthDoctor.jpg"
     width="203"
     height="422"
     id="image11"
     x="0"
     y="0" />
  <path
     style="fill:#f1c8ad;fill-opacity:1;fill-rule:evenodd;stroke:none;stroke-width:0.20000000000000001;stroke-linecap:butt;stroke-linejoin:miter;stroke-miterlimit:4;stroke-dashoffset:0;stroke-opacity:1"
     d="M 105.11785,55.782966 L 147.26188,35.599047 L 170.99817,50.615883 L 169.90399,69.699655 C 173.90436,68.282827 174.01056,94.295356 165.72944,98.602217 C 163.62995,99.694122 164.04296,93.428698 164.04296,93.428698 C 164.04296,93.428698 160.66967,102.07921 158.68322,108.03019 C 157.26573,112.2767 150.24235,119.19039 146.0089,120.64643 C 141.01336,122.36458 133.29598,121.22169 128.47021,119.07238 C 122.45324,116.39253 113.88318,106.64135 112.36043,104.06679 C 109.83459,99.796277 107.25138,94.787188 108.10295,89.660799 C 106.9038,90.764434 105.41645,91.439359 102.51113,91.475921 C 95.80652,91.560294 93.732114,64.283178 99.522433,64.090693 C 102.57966,63.989062 103.86975,64.814071 105.60227,66.278604 L 105.11785,55.782966 z"
     id="rect3201"
     sodipodi:nodetypes="ccccscsssscsscc" />
  <path
     sodipodi:type="arc"
     style="opacity:1;fill:#502a16;fill-opacity:1;fill-rule:evenodd;stroke:none;stroke-width:0.20000000000000001;stroke-linecap:butt;stroke-linejoin:miter;stroke-miterlimit:4;stroke-dasharray:none;stroke-dashoffset:0;stroke-opacity:1"
     id="path2387"
     sodipodi:cx="127.07796"
     sodipodi:cy="84.68634"
     sodipodi:rx="4.5211978"
     sodipodi:ry="4.5211978"
     d="M 131.59915,84.68634 A 4.5211978,4.5211978 0 1 1 122.55676,84.68634 A 4.5211978,4.5211978 0 1 1 131.59915,84.68634 z"
     transform="translate(-0.1614714,-10.980052)" />
  <path
     style="opacity:1;fill:#604833;fill-opacity:1;fill-rule:evenodd;stroke:none;stroke-width:0.20000000000000001;stroke-linecap:butt;stroke-linejoin:miter;stroke-miterlimit:4;stroke-dashoffset:0;stroke-opacity:1"
     d="M 162.47457,97.964285 C 162.45543,98.57937 164.52647,98.593185 164.52976,97.964285 C 164.55683,92.782498 167.29688,86.958047 168.18344,80.837663 C 168.53657,78.399815 169.55135,76.042208 169.21104,73.301948 C 169.13054,70.067335 174.15837,69.473591 174.45171,64.804289 C 175.48937,48.172941 172.39995,25.471018 157.52658,23.504813 C 154.54516,14.915781 135.39552,4.5934237 120.58468,15.030376 C 118.94042,14.240481 120.24888,10.989983 120.22406,8.8505562 C 117.73755,11.122149 114.93218,15.400776 118.12522,20.049765 C 101.08105,23.207898 97.948265,39.373957 97.273285,46.481498 C 96.50749,54.545327 101.87635,61.416646 103.16358,70.948056 C 103.08715,76.275923 105.45462,80.887946 104.98949,86.931657 C 107.02272,89.02356 108.37089,93.158693 110.06159,92.740537 C 110.39181,85.280458 108.27417,78.742857 107.94016,71.730429 C 107.50499,62.594047 113.50919,52.329213 125.30241,48.530857 C 121.25297,55.539759 127.15633,55.926367 119.16369,64.077045 C 126.63619,62.18607 129.34078,50.074211 137.13549,48.485109 C 138.70426,51.742698 135.55889,53.743178 132.69963,55.819957 C 136.71395,55.732784 140.32409,53.871298 141.33252,52.148362 C 142.5078,53.743976 141.54809,59.3126 136.38852,62.632938 C 138.59099,62.903368 139.98573,62.096823 140.99185,60.77212 C 140.5509,64.626987 133.82009,69.669041 128.52587,70.354687 C 135.04043,73.003251 142.81209,63.784243 145.05015,60.183936 C 144.76047,62.755449 142.52896,64.67968 140.47525,66.663179 C 145.55451,64.861229 153.15557,57.554623 154.09232,49.885778 C 154.69763,54.540211 165.44466,53.807395 166.47415,51.055775 C 166.5762,61.190236 166.41926,73.848387 166.58657,79.456563 C 166.74385,84.728749 162.65379,92.205011 162.47457,97.964285 z"
     id="rect2384"
     sodipodi:nodetypes="csscsccccscccsccccccccccccss" />
  <path
     transform="translate(26.319831,-8.719453)"
     d="M 131.59915,84.68634 A 4.5211978,4.5211978 0 1 1 122.55676,84.68634 A 4.5211978,4.5211978 0 1 1 131.59915,84.68634 z"
     sodipodi:ry="4.5211978"
     sodipodi:rx="4.5211978"
     sodipodi:cy="84.68634"
     sodipodi:cx="127.07796"
     id="path2389"
     style="opacity:1;fill:#502a16;fill-opacity:1;fill-rule:evenodd;stroke:none;stroke-width:0.20000000000000001;stroke-linecap:butt;stroke-linejoin:miter;stroke-miterlimit:4;stroke-dasharray:none;stroke-dashoffset:0;stroke-opacity:1"
     sodipodi:type="arc" />
  <path
     style="fill:#cba186;fill-opacity:1;fill-rule:evenodd;stroke:none;stroke-width:0.2;stroke-linecap:butt;stroke-linejoin:miter;stroke-miterlimit:4;stroke-dashoffset:0;stroke-opacity:1"
     d="M 146.45451,93.244323 C 144.83247,98.792126 132.33383,98.346154 132.97491,92.311912 C 133.69306,97.587707 144.33096,98.019785 145.80972,93.150101 C 146.55705,90.689064 143.64227,90.499639 143.37547,89.528162 C 141.81191,83.83486 143.0348,73.331307 143.70951,69.830977 C 143.81683,69.274234 144.43872,71.046327 144.35539,71.607162 C 143.50372,77.339316 143.04632,84.203758 144.35539,89.369011 C 144.68021,90.650682 147.35333,90.170123 146.45451,93.244323 z"
     id="rect3204"
     sodipodi:nodetypes="ccssssss" />
</svg>
